<?xml version="1.0" encoding="UTF-8"?>
<svg width="130px" height="126px" viewBox="0 0 130 126" version="1.1" xmlns="http://www.w3.org/2000/svg" xmlns:xlink="http://www.w3.org/1999/xlink">
    <!-- Generator: Sketch 52.2 (67145) - http://www.bohemiancoding.com/sketch -->
    <title>Group 42</title>
    <desc>Created with Sketch.</desc>
    <g id="Welcome" stroke="none" stroke-width="1" fill="none" fill-rule="evenodd">
        <g id="Group-42">
            <rect id="Rectangle" fill="#FFFFFF" fill-rule="nonzero" x="0" y="0" width="130" height="126"></rect>
            <g id="Group-17">
                <g id="service-graph">
                    <path d="M37.4787415,61.0331633 C43.6330782,58.1738946 50.6058673,56.2606293 58.2057823,56.377551 C74.3197279,50.1381803 88.0102041,39.7108844 103.826531,37.6488095 C110.002126,36.8409864 115.816327,37.4362245 121.173469,38.9030612 C111.309524,20.7695578 92.0918367,8.46088435 69.9936224,8.46088435 C41.1989796,8.46088435 17.2831633,29.3686224 12.6062925,56.8239796 C21.7687075,60.2572279 29.9638605,61.3839286 37.4787415,61.0331633 Z" id="Shape" fill="#0093DD" fill-rule="nonzero"></path>
                    <path d="M37.4787415,61.0331633 C29.9532313,61.3839286 21.7580782,60.2572279 12.5956633,56.8346088 C11.3095238,64.3920068 11.5221088,72.1407313 13.2015306,79.6130952 C17.6870748,74.7236395 26.1904762,66.2840136 37.4787415,61.0331633 Z" id="Shape" fill="#1CADE2" fill-rule="nonzero"></path>
                    <path d="M41.0820578,74.829932 C30.6547619,73.4693878 21.2478741,76.1054422 13.3397109,80.1764456 C19.4196429,105.82483 42.4744898,124.914966 69.9936224,124.914966 C90.8269558,124.914966 109.109269,113.966837 119.398384,97.5127551 C86.3201531,102.912415 66.4115646,78.125 41.0820578,74.829932 Z" id="Shape" fill="#D7F7FF" fill-rule="nonzero"></path>
                    <g id="Group" transform="translate(13.180272, 56.335034)" fill="#43BEE7" fill-rule="nonzero">
                        <path d="M49.9255952,0.382653061 C48.2993197,0.180697279 46.6730442,0.0637755102 45.0361395,0.0425170068 C38.6054422,2.5297619 31.7920918,4.34736395 24.3090986,4.69812925 C13.0102041,9.94897959 4.50680272,18.3886054 0.0212585034,23.2780612 C0.0637755102,23.4693878 0.106292517,23.650085 0.148809524,23.8414116 C8.05697279,19.7704082 17.4638605,17.1343537 27.8911565,18.494898 C53.2206633,21.8005952 73.1292517,46.5880102 106.207483,41.1670918 C109.598214,35.7461735 112.064201,29.8044218 113.520408,23.5756803 C88.7542517,21.2053571 71.2691327,3.16751701 49.9255952,0.382653061 Z" id="Shape"></path>
                        <path d="M24.2984694,4.69812925 C31.7814626,4.34736395 38.5948129,2.5297619 45.0255102,0.0425170068 C37.4255952,-0.0850340136 30.4528061,1.83886054 24.2984694,4.69812925 Z" id="Shape"></path>
                    </g>
                    <path d="M121.16284,38.9030612 C115.805697,37.4362245 109.991497,36.8516156 103.815901,37.6488095 C88.0102041,39.7108844 74.3197279,50.1381803 58.2164116,56.377551 C59.8533163,56.3988095 61.4795918,56.5263605 63.1058673,56.7283163 C84.4494048,59.5131803 101.934524,77.5403912 126.70068,79.9213435 C129.921344,66.0289116 127.954932,51.4455782 121.16284,38.9030612 Z" id="Shape" fill="#1CADE2" fill-rule="nonzero"></path>
                    <path d="M13.9136905,66.0820578 C14.317602,65.8588435 14.7215136,65.6462585 15.1360544,65.4336735 C15.0935374,65.2423469 15.0510204,65.0616497 15.0085034,64.8703231 C14.6045918,65.3061224 14.2431973,65.710034 13.9136905,66.0820578 Z" id="Shape"></path>
                    <polygon id="Rectangle-path" fill="#CE666C" fill-rule="nonzero" transform="translate(74.484040, 57.099681) rotate(-45.000000) translate(-74.484040, -57.099681) " points="11.8198872 54.2935851 137.148192 54.2935851 137.148192 59.9057761 11.8198872 59.9057761"></polygon>
                    <path d="M32.1641156,103.784014 L27.8061224,99.4260204 L116.804847,10.4166667 L121.16284,14.7746599 L32.1641156,103.784014 Z M28.5714286,99.4260204 L32.1641156,103.018707 L120.397534,14.7852891 L116.804847,11.192602 L28.5714286,99.4260204 Z" id="Shape" fill="#EA8690" fill-rule="nonzero"></path>
                    <polygon id="Rectangle-path" fill="#4E9244" fill-rule="nonzero" points="10.2465986 60.6611395 105.644133 60.6611395 105.644133 65.7419218 10.2465986 65.7419218"></polygon>
                    <path d="M105.378401,60.9268707 L105.378401,65.4655612 L10.5123299,65.4655612 L10.5123299,60.9268707 L105.378401,60.9268707 Z M105.909864,60.3847789 L9.9702381,60.3847789 L9.9702381,66.0076531 L105.909864,66.0076531 L105.909864,60.3847789 Z" id="Shape" fill="#6FBA60" fill-rule="nonzero"></path>
                    <polygon id="Rectangle-path" fill="#4E9244" fill-rule="nonzero" points="64.2644558 31.2712585 69.3452381 31.2712585 69.3452381 110.246599 64.2644558 110.246599"></polygon>
                    <path d="M69.0688776,31.5369898 L69.0688776,109.970238 L64.5301871,109.970238 L64.5301871,31.5369898 L69.0688776,31.5369898 Z M69.6109694,30.994898 L63.9880952,30.994898 L63.9880952,110.51233 L69.6109694,110.51233 L69.6109694,30.994898 Z" id="Shape" fill="#6FBA60" fill-rule="nonzero"></path>
                    <polygon id="Rectangle-path" fill="#717171" fill-rule="nonzero" transform="translate(64.667904, 62.285986) rotate(-45.000000) translate(-64.667904, -62.285986) " points="61.8618084 14.3166335 67.4739994 14.3166335 67.4739994 110.255339 61.8618084 110.255339"></polygon>
                    <path d="M96.5986395,98.5756803 L28.380102,30.3571429 L32.7380952,25.9991497 L100.956633,94.2176871 L96.5986395,98.5756803 Z M29.1454082,30.3571429 L96.5986395,97.8103741 L100.191327,94.2176871 L32.7380952,26.7644558 L29.1454082,30.3571429 Z" id="Shape" fill="#9E9E9E" fill-rule="nonzero"></path>
                    <circle id="Oval" fill="#E2E2E2" fill-rule="nonzero" cx="68.6862245" cy="65.9651361" r="18.792517"></circle>
                    <circle id="Oval" fill="#FFFFFF" fill-rule="nonzero" cx="67.017432" cy="64.275085" r="18.792517"></circle>
                    <path d="M58.8966837,60.2997449 C58.3227041,60.2891156 57.769983,60.5123299 57.3660714,60.9268707 C56.5157313,61.7772109 56.5157313,63.1483844 57.3660714,63.9987245 C57.769983,64.4026361 58.3227041,64.6364796 58.8860544,64.6364796 C59.4706633,64.6471088 60.0340136,64.4132653 60.4485544,63.9987245 C61.2988946,63.1590136 61.2988946,61.7878401 60.4591837,60.9375 L60.4485544,60.9268707 C60.0340136,60.5123299 59.4706633,60.2891156 58.8966837,60.2997449 Z M59.4281463,62.9676871 C59.289966,63.1058673 59.0986395,63.1802721 58.8966837,63.1802721 C58.5034014,63.1802721 58.1845238,62.8613946 58.1845238,62.4681122 C58.1845238,62.4681122 58.1845238,62.4681122 58.1845238,62.457483 C58.1845238,62.2661565 58.2589286,62.0748299 58.3971088,61.9366497 C58.5246599,61.7984694 58.7053571,61.7134354 58.9073129,61.7134354 C59.3112245,61.7240646 59.6407313,62.0535714 59.6513605,62.457483 C59.6407313,62.6594388 59.5556973,62.8401361 59.4281463,62.9676871 Z" id="Shape" fill="#CE666C" fill-rule="nonzero"></path>
                    <path d="M61.022534,59.4919218 C61.022534,59.587585 61.0544218,59.6832483 61.107568,59.7576531 C61.1607143,59.8320578 61.2457483,59.8745748 61.3414116,59.8745748 L64.190051,60.0552721 C64.2113095,60.1721939 64.2538265,60.2784864 64.3069728,60.3847789 C64.3707483,60.4910714 64.4345238,60.5973639 64.4876701,60.7142857 C64.2857143,60.9693878 63.9880952,61.3307823 63.5841837,61.7984694 C63.1802721,62.2661565 62.8720238,62.627551 62.6806973,62.8826531 C62.6594388,62.9251701 62.6381803,62.9676871 62.6169218,62.9995748 C62.5956633,63.0420918 62.585034,63.0952381 62.585034,63.1483844 C62.585034,63.3503401 62.8720238,63.7117347 63.4353741,64.2644558 C63.9987245,64.8171769 64.3707483,65.1573129 64.5514456,65.3167517 C64.5939626,65.3592687 64.6364796,65.3805272 64.6896259,65.4017857 C64.7427721,65.4230442 64.7959184,65.4336735 64.8490646,65.4336735 C64.8915816,65.4336735 64.9447279,65.4230442 64.9872449,65.4017857 C65.0403912,65.3805272 65.0829082,65.3592687 65.1147959,65.3380102 L67.1343537,63.4460034 C67.2406463,63.5204082 67.357568,63.5735544 67.4744898,63.6054422 C67.6020408,63.6267007 67.7295918,63.6692177 67.8465136,63.7117347 L68.0484694,66.6135204 C68.0697279,66.7091837 68.1228741,66.7942177 68.1972789,66.8473639 C68.2716837,66.9111395 68.3673469,66.932398 68.4630102,66.932398 L70.9927721,66.932398 C71.0884354,66.932398 71.1840986,66.9005102 71.2585034,66.8473639 C71.3329082,66.7942177 71.3860544,66.7091837 71.4073129,66.6135204 C71.4817177,66.2946429 71.5136054,65.8269558 71.4923469,65.1892007 C71.4710884,64.6896259 71.4817177,64.2006803 71.5242347,63.7011054 C71.6411565,63.6692177 71.7580782,63.6267007 71.8643707,63.5735544 C71.917517,63.5416667 72.0238095,63.4885204 72.2045068,63.4141156 L74.3409864,65.3167517 C74.3728741,65.3592687 74.4260204,65.3805272 74.4685374,65.3911565 C74.5110544,65.4017857 74.5535714,65.412415 74.5960884,65.412415 C74.7980442,65.412415 75.170068,65.1254252 75.7440476,64.5408163 C76.3180272,63.9562075 76.6581633,63.5735544 76.8069728,63.3928571 C76.8388605,63.3609694 76.8707483,63.3184524 76.8813776,63.2759354 C76.8920068,63.2227891 76.9026361,63.1802721 76.8920068,63.1271259 C76.8920068,63.0846088 76.8920068,63.0420918 76.8813776,62.9995748 C76.8707483,62.9464286 76.8388605,62.9039116 76.8069728,62.8613946 C76.4987245,62.5106293 76.1692177,62.1811224 75.8184524,61.8728741 C75.4676871,61.5646259 75.1381803,61.2244898 74.8511905,60.852466 C74.9255952,60.7568027 74.9787415,60.639881 75.0106293,60.5229592 C75.042517,60.4060374 75.0744048,60.2784864 75.1169218,60.1721939 L78.1462585,59.9383503 C78.2312925,59.9383503 78.3163265,59.8852041 78.3588435,59.8107993 C78.4119898,59.7363946 78.4438776,59.6513605 78.4438776,59.5556973 L78.4438776,57.0153061 C78.4438776,56.9302721 78.4119898,56.8452381 78.3588435,56.7814626 C78.3056973,56.7070578 78.2206633,56.6539116 78.125,56.6326531 L75.2232143,56.3988095 C75.1913265,56.292517 75.1594388,56.1862245 75.1381803,56.0693027 C75.0956633,55.952381 75.0531463,55.8460884 74.9893707,55.7397959 C75.1913265,55.4846939 75.4889456,55.1339286 75.8928571,54.6981293 C76.2117347,54.3579932 76.519983,54.0072279 76.7963435,53.6352041 C76.817602,53.5926871 76.8388605,53.5607993 76.860119,53.5182823 C76.8813776,53.4863946 76.8920068,53.4438776 76.8920068,53.4013605 C76.8920068,53.1994048 76.605017,52.827381 76.0416667,52.2746599 C75.4783163,51.7219388 75.1062925,51.3605442 74.9255952,51.2117347 C74.8937075,51.1692177 74.8405612,51.1479592 74.7980442,51.1373299 C74.744898,51.1267007 74.6917517,51.1267007 74.6386054,51.1267007 C74.5960884,51.1267007 74.5535714,51.1373299 74.5110544,51.1373299 C74.4579082,51.1479592 74.4153912,51.1692177 74.3728741,51.2117347 L72.3533163,52.9655612 C72.2363946,52.9017857 72.1194728,52.8592687 72.002551,52.8167517 C71.9281463,52.7954932 71.789966,52.7529762 71.619898,52.6998299 L71.4179422,49.8937075 C71.3966837,49.7980442 71.3435374,49.7130102 71.2691327,49.6598639 C71.1947279,49.5960884 71.0990646,49.5748299 71.0034014,49.5748299 L68.4842687,49.5748299 C68.3886054,49.5748299 68.3035714,49.6067177 68.2291667,49.6598639 C68.1547619,49.7236395 68.1016156,49.8086735 68.0697279,49.8937075 C67.9740646,50.3507653 67.9421769,50.8078231 67.9634354,51.2755102 C67.9740646,51.7538265 67.9634354,52.2321429 67.9209184,52.7104592 C67.8039966,52.7423469 67.6870748,52.7848639 67.5807823,52.8380102 C67.5276361,52.869898 67.4213435,52.9336735 67.2406463,53.0293367 L65.1679422,51.1904762 C65.1254252,51.1585884 65.0722789,51.1373299 65.0191327,51.1160714 C64.9659864,51.1054422 64.9234694,51.0948129 64.8703231,51.1054422 C64.6683673,51.1054422 64.2963435,51.392432 63.7223639,51.9664116 C63.1590136,52.5403912 62.8082483,52.912415 62.670068,53.0931122 C62.627551,53.125 62.6062925,53.1781463 62.5956633,53.2312925 C62.585034,53.2844388 62.585034,53.337585 62.585034,53.3907313 C62.585034,53.4332483 62.5956633,53.4863946 62.6169218,53.5289116 C62.6381803,53.5820578 62.6594388,53.6245748 62.670068,53.6564626 C62.8826531,53.9115646 63.1909014,54.2304422 63.5735544,54.602466 C63.892432,54.900085 64.1794218,55.2295918 64.4238946,55.5803571 C64.360119,55.7185374 64.3069728,55.8673469 64.275085,56.0055272 C64.2538265,56.1118197 64.2219388,56.2606293 64.190051,56.4306973 L61.3732993,56.547619 C61.2776361,56.5688776 61.192602,56.6220238 61.1394558,56.7070578 C61.0863095,56.7814626 61.0544218,56.8664966 61.0544218,56.9621599 L61.022534,59.4919218 Z M67.272534,55.8673469 C68.6011905,54.5386905 70.7589286,54.5386905 72.087585,55.8673469 C73.4162415,57.1960034 73.4162415,59.3537415 72.087585,60.682398 C70.7589286,62.0110544 68.6011905,62.0110544 67.272534,60.682398 C66.6347789,60.0446429 66.2840136,59.1836735 66.2733844,58.2908163 C66.2627551,57.3767007 66.6241497,56.505102 67.272534,55.8673469 Z" id="Shape" fill="#717171" fill-rule="nonzero"></path>
                    <path d="M57.7912415,58.1845238 C58.6628401,58.2057823 59.502551,57.855017 60.1084184,57.2278912 C61.3732993,55.952381 61.3732993,53.9009354 60.1084184,52.6254252 C59.502551,51.9982993 58.6628401,51.647534 57.7912415,51.6581633 C56.9302721,51.647534 56.1011905,51.9982993 55.5059524,52.6254252 C54.2410714,53.9009354 54.2410714,55.952381 55.5059524,57.2278912 C56.1011905,57.855017 56.9302721,58.1951531 57.7912415,58.1845238 Z M56.9409014,54.0497449 C57.1641156,53.8052721 57.4723639,53.6777211 57.8018707,53.6777211 C58.1420068,53.6670918 58.4608844,53.8052721 58.6947279,54.0497449 C59.1730442,54.5386905 59.1730442,55.3146259 58.6947279,55.8035714 C58.4608844,56.0480442 58.1420068,56.1862245 57.8018707,56.1755952 C57.4723639,56.1755952 57.1641156,56.0480442 56.9409014,55.8035714 C56.462585,55.3146259 56.462585,54.5280612 56.9409014,54.0497449 Z" id="Shape" fill="#4E9244" fill-rule="nonzero"></path>
                    <g id="Group" opacity="0.2" transform="translate(53.465136, 67.176871)" fill="#000000" fill-rule="nonzero">
                        <path d="M27.4872449,0.818452381 C26.7963435,0.106292517 25.8503401,-0.116921769 24.6386054,0.138180272 L18.5267857,6.20748299 L10.9375,6.20748299 C10.3847789,6.20748299 10.0340136,5.85671769 9.87457483,5.16581633 C9.87457483,4.63435374 10.2359694,4.27295918 10.9481293,4.10289116 L17.4107143,4.10289116 C17.5595238,4.11352041 17.7083333,4.0922619 17.8571429,4.0497449 C17.9846939,3.96471088 18.1122449,3.86904762 18.2079082,3.75212585 C18.3035714,3.65646259 18.3779762,3.53954082 18.4311224,3.4119898 C18.4842687,3.27380952 18.5055272,3.13562925 18.5055272,2.98681973 C18.5055272,2.84863946 18.4842687,2.69982993 18.4311224,2.57227891 C18.3886054,2.43409864 18.3035714,2.31717687 18.2079082,2.22151361 C18.1016156,2.10459184 17.9740646,1.99829932 17.8571429,1.8920068 C17.7721088,1.82823129 17.6339286,1.80697279 17.4107143,1.80697279 L6.31377551,1.79634354 C5.99489796,1.79634354 5.68664966,1.88137755 5.41028912,2.01955782 C5.08078231,2.1789966 4.77253401,2.37032313 4.47491497,2.59353741 L0.0850340136,7.22789116 C0.37202381,7.59991497 0.669642857,7.97193878 0.988520408,8.32270408 L2.39158163,9.71513605 C3.50765306,10.6930272 4.74064626,11.5327381 6.07993197,12.1811224 L7.72746599,10.5973639 L20.2487245,10.6079932 C20.7482993,10.5654762 21.5136054,9.9914966 22.5659014,8.85416667 L28.0293367,3.16751701 C28.2844388,2.5085034 28.1037415,1.73256803 27.4872449,0.818452381 Z" id="Shape"></path>
                    </g>
                    <circle id="Oval" fill="#DDDDDD" fill-rule="nonzero" cx="108.365221" cy="61.9472789" r="7.13222789"></circle>
                    <path d="M108.365221,69.5153061 C104.187925,69.5153061 100.797194,66.1352041 100.797194,61.9472789 C100.797194,57.7593537 104.177296,54.3792517 108.365221,54.3792517 C112.553146,54.3792517 115.933248,57.7593537 115.933248,61.9472789 C115.922619,66.1245748 112.542517,69.5046769 108.365221,69.5153061 Z M108.365221,55.2508503 C104.666241,55.2508503 101.668793,58.2482993 101.668793,61.9472789 C101.668793,65.6462585 104.666241,68.6437075 108.365221,68.6437075 C112.064201,68.6437075 115.06165,65.6462585 115.06165,61.9472789 C115.06165,58.2482993 112.064201,55.2614796 108.365221,55.2508503 Z" id="Shape" fill="#DDDDDD" fill-rule="nonzero"></path>
                    <circle id="Oval" fill="#ECECEC" fill-rule="nonzero" cx="107.557398" cy="60.6292517" r="7.13222789"></circle>
                    <path d="M107.557398,68.1866497 C103.380102,68.1866497 100,64.7959184 100,60.6186224 C100,56.4413265 103.390731,53.0612245 107.568027,53.0612245 C111.745323,53.0612245 115.125425,56.4519558 115.125425,60.6292517 C115.114796,64.8065476 111.734694,68.1866497 107.557398,68.1866497 Z M107.557398,53.9328231 C103.858418,53.9328231 100.860969,56.9302721 100.860969,60.6292517 C100.860969,64.3282313 103.858418,67.3256803 107.557398,67.3256803 C111.256378,67.3256803 114.253827,64.3282313 114.253827,60.6292517 C114.253827,56.9302721 111.256378,53.9328231 107.557398,53.9328231 Z" id="Shape" fill="#FFFFFF" fill-rule="nonzero"></path>
                    <circle id="Oval" fill="#DDDDDD" fill-rule="nonzero" transform="translate(101.636378, 97.573263) rotate(-71.566863) translate(-101.636378, -97.573263) " cx="101.636378" cy="97.5732632" r="7.13227828"></circle>
                    <path d="M101.636905,105.133929 C97.4596088,105.133929 94.0688776,101.743197 94.0688776,97.5659014 C94.0688776,93.3886054 97.4596088,89.9978741 101.636905,89.9978741 C105.814201,89.9978741 109.204932,93.3886054 109.204932,97.5659014 C109.194303,101.743197 105.803571,105.133929 101.636905,105.133929 Z M101.636905,90.8694728 C97.9379252,90.8694728 94.9404762,93.8669218 94.9404762,97.5659014 C94.9404762,101.264881 97.9379252,104.26233 101.636905,104.26233 C105.335884,104.26233 108.333333,101.264881 108.333333,97.5659014 C108.322704,93.877551 105.325255,90.880102 101.636905,90.8694728 Z" id="Shape" fill="#DDDDDD" fill-rule="nonzero"></path>
                    <circle id="Oval" fill="#ECECEC" fill-rule="nonzero" transform="translate(100.690382, 96.032046) rotate(-71.566863) translate(-100.690382, -96.032046) " cx="100.690382" cy="96.0320461" r="7.13227828"></circle>
                    <path d="M100.690901,103.592687 C96.5136054,103.592687 93.1335034,100.201956 93.1335034,96.0246599 C93.1335034,91.8473639 96.5242347,88.4672619 100.701531,88.4672619 C104.878827,88.4672619 108.258929,91.8579932 108.258929,96.0352891 C108.258929,98.0442177 107.461735,99.957483 106.037415,101.381803 C104.623724,102.795493 102.69983,103.592687 100.690901,103.592687 Z M100.690901,89.3282313 C96.9919218,89.3282313 93.9944728,92.3256803 93.9944728,96.0246599 C93.9944728,99.7236395 96.9919218,102.721088 100.690901,102.721088 C104.389881,102.721088 107.38733,99.7236395 107.38733,96.0246599 C107.38733,94.2495748 106.685799,92.5488946 105.431548,91.2946429 C104.177296,90.0297619 102.476616,89.3282313 100.690901,89.3282313 Z" id="Shape" fill="#FFFFFF" fill-rule="nonzero"></path>
                    <circle id="Oval" fill="#DDDDDD" fill-rule="nonzero" cx="66.1989796" cy="113.244048" r="7.13222789"></circle>
                    <path d="M66.1989796,120.812075 C62.0216837,120.812075 58.6309524,117.431973 58.6309524,113.254677 C58.6309524,109.077381 62.0110544,105.68665 66.1883503,105.68665 C70.3656463,105.68665 73.7457483,109.066752 73.7563776,113.244048 C73.7563776,117.421344 70.3762755,120.801446 66.1989796,120.812075 Z M66.1989796,106.547619 C62.5,106.547619 59.502551,109.545068 59.502551,113.244048 C59.502551,116.943027 62.5,119.940476 66.1989796,119.940476 C69.8979592,119.940476 72.8954082,116.943027 72.8954082,113.244048 C72.8847789,109.545068 69.8979592,106.547619 66.1989796,106.547619 Z" id="Shape" fill="#DDDDDD" fill-rule="nonzero"></path>
                    <circle id="Oval" fill="#ECECEC" fill-rule="nonzero" cx="65.2636054" cy="111.872874" r="7.13222789"></circle>
                    <path d="M65.2636054,119.440901 C61.0863095,119.440901 57.7062075,116.05017 57.7062075,111.872874 C57.7062075,107.695578 61.0969388,104.304847 65.2742347,104.304847 C69.4515306,104.304847 72.8316327,107.695578 72.8316327,111.872874 C72.8210034,116.05017 69.4409014,119.430272 65.2636054,119.440901 Z M65.2636054,105.176446 C61.5646259,105.176446 58.5671769,108.173895 58.5671769,111.872874 C58.5671769,115.571854 61.5646259,118.569303 65.2636054,118.569303 C68.962585,118.569303 71.960034,115.571854 71.960034,111.872874 C71.960034,108.173895 68.962585,105.187075 65.2636054,105.176446 Z" id="Shape" fill="#FFFFFF" fill-rule="nonzero"></path>
                    <circle id="Oval" fill="#DDDDDD" fill-rule="nonzero" cx="27.3703231" cy="102.752976" r="7.13222789"></circle>
                    <path d="M27.3703231,110.310374 C23.1930272,110.310374 19.8022959,106.919643 19.8022959,102.742347 C19.8022959,98.565051 23.1930272,95.1743197 27.3596939,95.1743197 C31.5263605,95.1743197 34.9277211,98.565051 34.9277211,102.742347 C34.9277211,106.930272 31.547619,110.310374 27.3703231,110.310374 Z M27.3703231,96.0565476 C23.6713435,96.0565476 20.6738946,99.0539966 20.6738946,102.752976 C20.6738946,106.451956 23.6713435,109.449405 27.3703231,109.449405 C31.0693027,109.449405 34.0667517,106.451956 34.0667517,102.752976 C34.0667517,99.0539966 31.0693027,96.0565476 27.3703231,96.0565476 Z" id="Shape" fill="#DDDDDD" fill-rule="nonzero"></path>
                    <circle id="Oval" fill="#ECECEC" fill-rule="nonzero" cx="26.6687925" cy="100.807823" r="7.13222789"></circle>
                    <path d="M26.6687925,108.365221 C22.4914966,108.365221 19.1113946,104.97449 19.1113946,100.797194 C19.1113946,96.619898 22.5021259,93.2397959 26.6794218,93.2397959 C30.8567177,93.2397959 34.2368197,96.6305272 34.2368197,100.807823 C34.2368197,102.816752 33.4396259,104.730017 32.0153061,106.154337 C30.6016156,107.568027 28.6777211,108.365221 26.6687925,108.365221 Z M26.6687925,94.1113946 C22.9698129,94.1113946 19.9723639,97.1088435 19.9723639,100.807823 C19.9723639,104.506803 22.9698129,107.504252 26.6687925,107.504252 C30.3677721,107.504252 33.3652211,104.506803 33.3652211,100.807823 C33.3652211,99.0327381 32.6530612,97.3320578 31.3988095,96.0778061 C30.1445578,94.8129252 28.4438776,94.1113946 26.6687925,94.1113946 Z" id="Shape" fill="#FFFFFF" fill-rule="nonzero"></path>
                    <circle id="Oval" fill="#DDDDDD" fill-rule="nonzero" cx="8.7797619" cy="61.7665816" r="7.13222789"></circle>
                    <path d="M8.7797619,69.3239796 C4.60246599,69.3239796 1.21173469,65.9332483 1.21173469,61.7559524 C1.21173469,57.5786565 4.60246599,54.1985544 8.7797619,54.1985544 C12.9570578,54.1985544 16.3371599,57.5892857 16.3477891,61.7559524 C16.3371599,65.9332483 12.9570578,69.3133503 8.7797619,69.3239796 Z M8.7797619,55.0595238 C5.08078231,55.0595238 2.08333333,58.0569728 2.08333333,61.7559524 C2.08333333,65.454932 5.08078231,68.452381 8.7797619,68.452381 C12.4787415,68.452381 15.4761905,65.454932 15.4761905,61.7559524 C15.4761905,58.0569728 12.4787415,55.0701531 8.7797619,55.0595238 Z" id="Shape" fill="#DDDDDD" fill-rule="nonzero"></path>
                    <circle id="Oval" fill="#ECECEC" fill-rule="nonzero" cx="7.66369048" cy="60.6292517" r="7.13222789"></circle>
                    <path d="M7.66369048,68.1866497 C3.48639456,68.1866497 0.0956632653,64.8065476 0.0956632653,60.6292517 C0.0956632653,56.4519558 3.48639456,53.0718537 7.66369048,53.0718537 C11.8409864,53.0718537 15.2317177,56.462585 15.2210884,60.6292517 C15.2104592,64.8065476 11.8303571,68.1866497 7.66369048,68.1866497 Z M7.66369048,53.9328231 C3.96471088,53.9328231 0.967261905,56.9302721 0.967261905,60.6292517 C0.967261905,64.3282313 3.96471088,67.3256803 7.66369048,67.3256803 C11.3626701,67.3256803 14.360119,64.3282313 14.360119,60.6292517 C14.3494898,56.9302721 11.3520408,53.9328231 7.66369048,53.9328231 Z" id="Shape" fill="#FFFFFF" fill-rule="nonzero"></path>
                    <circle id="Oval" fill="#DDDDDD" fill-rule="nonzero" cx="31.3456633" cy="28.082483" r="7.13222789"></circle>
                    <path d="M31.3456633,35.6505102 C27.1683673,35.6505102 23.7776361,32.2704082 23.7776361,28.0931122 C23.7776361,23.9158163 27.1577381,20.525085 31.335034,20.525085 C35.5123299,20.525085 38.9030612,23.9051871 38.9030612,28.082483 C38.9030612,32.2597789 35.5229592,35.6505102 31.3456633,35.6505102 Z M31.3456633,21.3860544 C27.6466837,21.3860544 24.6492347,24.3835034 24.6492347,28.082483 C24.6492347,31.7814626 27.6466837,34.7789116 31.3456633,34.7789116 C35.0446429,34.7789116 38.0420918,31.7814626 38.0420918,28.082483 C38.0420918,24.3941327 35.0446429,21.3966837 31.3456633,21.3860544 Z" id="Shape" fill="#DDDDDD" fill-rule="nonzero"></path>
                    <circle id="Oval" fill="#ECECEC" fill-rule="nonzero" cx="29.985119" cy="26.9026361" r="7.13222789"></circle>
                    <path d="M29.985119,34.460034 C27.9761905,34.4706633 26.0522959,33.6734694 24.6386054,32.2491497 C21.6836735,29.2942177 21.6836735,24.5110544 24.6386054,21.5561224 C27.5935374,18.6011905 32.3767007,18.6011905 35.3316327,21.5561224 C38.2865646,24.5110544 38.2865646,29.2942177 35.3316327,32.2491497 C33.9179422,33.6628401 31.9940476,34.460034 29.985119,34.460034 Z M29.985119,20.2062075 C26.2861395,20.2062075 23.2886905,23.2036565 23.2780612,26.8920068 C23.2780612,28.6670918 23.9795918,30.3784014 25.2444728,31.6326531 C27.8592687,34.247449 32.1003401,34.247449 34.7151361,31.6220238 C37.329932,29.0072279 37.329932,24.7661565 34.7045068,22.1513605 C33.4502551,20.9077381 31.7602041,20.2062075 29.985119,20.2062075 Z" id="Shape" fill="#FFFFFF" fill-rule="nonzero"></path>
                    <circle id="Oval" fill="#DDDDDD" fill-rule="nonzero" cx="66.3903061" cy="33.025085" r="7.13222789"></circle>
                    <path d="M66.3903061,40.5931122 C62.2130102,40.5931122 58.8329082,37.202381 58.8329082,33.025085 C58.8329082,28.8477891 62.2236395,25.4676871 66.4009354,25.4676871 C70.5782313,25.4676871 73.9583333,28.8584184 73.9583333,33.0357143 C73.9477041,37.202381 70.567602,40.582483 66.3903061,40.5931122 Z M66.3903061,26.3286565 C62.6913265,26.3286565 59.6938776,29.3261054 59.6938776,33.025085 C59.6938776,36.7240646 62.6913265,39.7215136 66.3903061,39.7215136 C70.0892857,39.7215136 73.0867347,36.7240646 73.0867347,33.025085 C73.0867347,29.3261054 70.0892857,26.3392857 66.3903061,26.3286565 Z" id="Shape" fill="#DDDDDD" fill-rule="nonzero"></path>
                    <circle id="Oval" fill="#ECECEC" fill-rule="nonzero" cx="65.8588435" cy="31.2818878" r="7.13222789"></circle>
                    <path d="M65.8588435,38.8392857 C61.6815476,38.8392857 58.3014456,35.4485544 58.3014456,31.2712585 C58.3014456,27.0939626 61.6921769,23.7138605 65.8694728,23.7138605 C70.0467687,23.7138605 73.4268707,27.1045918 73.4268707,31.2712585 C73.4162415,35.4485544 70.0361395,38.8392857 65.8588435,38.8392857 Z M65.8588435,24.5748299 C62.1598639,24.5748299 59.162415,27.5722789 59.162415,31.2712585 C59.162415,34.9702381 62.1598639,37.9676871 65.8588435,37.9676871 C69.5578231,37.9676871 72.5552721,34.9702381 72.5552721,31.2712585 C72.5446429,27.5829082 69.5578231,24.5854592 65.8588435,24.5748299 Z" id="Shape" fill="#FFFFFF" fill-rule="nonzero"></path>
                    <g id="Group" transform="translate(94.387755, 0.000000)" fill-rule="nonzero">
                        <circle id="Oval" fill="#DDDDDD" transform="translate(17.324053, 17.315188) rotate(-45.000000) translate(-17.324053, -17.315188) " cx="17.3240529" cy="17.3151881" r="12.2022639"></circle>
                        <path d="M22.8528912,7.87627551 C19.1964286,4.21981293 13.2653061,4.21981293 9.60884354,7.87627551 C5.95238095,11.5327381 5.95238095,17.4638605 9.60884354,21.1203231 C13.2653061,24.7767857 19.1964286,24.7767857 22.8528912,21.1203231 C26.5093537,17.485119 26.5306122,11.5752551 22.8954082,7.91879252 C22.8847789,7.90816327 22.8635204,7.88690476 22.8528912,7.87627551 Z" id="Shape" fill="#ECECEC"></path>
                        <path d="M24.8618197,5.86734694 C20.0892857,1.09481293 12.3618197,1.09481293 7.59991497,5.86734694 C2.82738095,10.639881 2.82738095,18.3673469 7.59991497,23.1292517 C12.372449,27.9017857 20.099915,27.9017857 24.8618197,23.1292517 C29.6343537,18.4204932 29.6768707,10.7461735 24.9681122,5.97363946 C24.9362245,5.9417517 24.9043367,5.90986395 24.8618197,5.86734694 Z M16.2308673,23.8732993 C11.0544218,23.8732993 6.8664966,19.6853741 6.85586735,14.5089286 C6.85586735,9.33248299 11.0437925,5.14455782 16.2202381,5.13392857 C21.3966837,5.12329932 25.5846088,9.32185374 25.5952381,14.4982993 C25.5952381,16.9855442 24.6067177,19.3664966 22.8528912,21.1203231 C21.0990646,22.8847789 18.7181122,23.8732993 16.2308673,23.8732993 Z" id="Shape" fill="#FD9835"></path>
                    </g>
                    <g id="Group" transform="translate(79.506803, 26.360544)">
                        <g>
                            <g opacity="0.2" transform="translate(1.700680, 1.806973)" fill="#FFFFFF" fill-rule="nonzero" id="Oval">
                                <circle transform="translate(11.701667, 11.661454) rotate(-45.000000) translate(-11.701667, -11.661454) " cx="11.7016667" cy="11.6614541" r="8.22696192"></circle>
                            </g>
                            <path d="M20.3125,9.00297619 C17.8465136,5.18707483 12.755102,4.0922619 8.93920068,6.5582483 C6.33503401,8.23767007 4.90008503,11.2457483 5.22959184,14.317602 L21.3647959,15.5718537 C21.9494048,13.3290816 21.577381,10.9481293 20.3125,9.00297619 Z" id="Shape"></path>
                            <path d="M48.3630952,17.8146259 L47.1513605,17.5701531 L21.3647959,15.5612245 C20.1955782,19.9511054 15.6887755,22.5659014 11.2988946,21.3966837 C8.00382653,20.5144558 5.59098639,17.6977041 5.22959184,14.3069728 L0.0318877551,13.9136905 C0.286989796,21.3010204 6.47321429,27.0833333 13.849915,26.817602 C19.3771259,26.6369048 24.2134354,23.0548469 26.0310374,17.8465136 L26.605017,18.7287415 C26.8282313,19.0795068 27.1789966,19.3133503 27.5722789,19.3983844 L47.1619898,23.352466 C47.9910714,23.5331633 48.7988946,23.0017007 48.9902211,22.1832483 C48.9902211,22.1832483 48.9902211,22.1832483 49.0008503,22.172619 L49.5429422,19.6641156 C49.7130102,18.8244048 49.1921769,17.9953231 48.3630952,17.8146259 Z" id="Shape" fill="#D8D8D8" fill-rule="nonzero"></path>
                            <path d="M8.93920068,6.5582483 C7.74872449,7.33418367 6.77083333,8.39710884 6.11181973,9.65136054 L21.1628401,10.7461735 C20.9502551,10.1403061 20.6632653,9.55569728 20.3125,9.00297619 C17.8465136,5.18707483 12.7657313,4.0922619 8.93920068,6.5582483 Z" id="Shape"></path>
                            <path d="M0.0318877551,13.9136905 L5.21896259,14.317602 C5.04889456,12.712585 5.36777211,11.0863095 6.11181973,9.6619898 L0.712159864,9.27933673 C0.212585034,10.7568027 -0.0106292517,12.3405612 0.0318877551,13.9136905 Z" id="Shape" fill="#D1D1D1" fill-rule="nonzero"></path>
                            <path d="M24.6386054,6.20748299 C20.6313776,0.0106292517 12.3618197,-1.77508503 6.15433673,2.23214286 C3.59268707,3.89030612 1.67942177,6.36692177 0.712159864,9.26870748 L6.11181973,9.65136054 C8.21641156,5.62287415 13.1909014,4.0710034 17.2087585,6.17559524 C18.4630102,6.83460884 19.5365646,7.8125 20.3125,9.00297619 C20.6632653,9.54506803 20.9502551,10.1403061 21.1628401,10.7461735 L26.5731293,11.1394558 C26.264881,9.38562925 25.6058673,7.70620748 24.6386054,6.20748299 Z" id="Shape" fill="#C4C4C4" fill-rule="nonzero"></path>
                        </g>
                        <path d="M21.3647959,15.5718537 L47.1407313,17.5701531 L28.7627551,13.8818027 C28.3694728,13.7967687 27.9443027,13.8711735 27.6041667,14.0943878 L26.7219388,14.6683673 C26.8282313,13.4885204 26.775085,12.3086735 26.5731293,11.150085 L21.1734694,10.767432 C21.704932,12.2980442 21.7793367,13.977466 21.3647959,15.5718537 Z" id="Shape" fill="#D1D1D1" fill-rule="nonzero"></path>
                    </g>
                    <g id="Group" opacity="0.8" transform="translate(7.334184, 55.697279)" fill="#FCFCFC" fill-rule="nonzero">
                        <path d="M4.77253401,4.95323129 C4.57057823,4.95323129 4.3792517,4.81505102 4.31547619,4.61309524 C3.40136054,1.49872449 0.542091837,0.988520408 0.414540816,0.967261905 C0.159438776,0.924744898 -0.0212585034,0.680272109 0.0212585034,0.414540816 C0.0637755102,0.159438776 0.308248299,-0.0212585034 0.573979592,0.0212585034 C0.722789116,0.0425170068 4.14540816,0.648384354 5.22959184,4.34736395 C5.3039966,4.60246599 5.15518707,4.86819728 4.91071429,4.94260204 C4.86819728,4.95323129 4.81505102,4.95323129 4.77253401,4.95323129 Z" id="Shape"></path>
                    </g>
                    <g id="Group" opacity="0.8" transform="translate(29.974490, 21.683673)" fill="#FCFCFC" fill-rule="nonzero">
                        <path d="M4.76190476,4.94260204 C4.55994898,4.94260204 4.36862245,4.80442177 4.30484694,4.60246599 C3.39073129,1.48809524 0.531462585,0.977891156 0.403911565,0.956632653 C0.148809524,0.914115646 -0.0318877551,0.669642857 0.0106292517,0.403911565 C0.0531462585,0.148809524 0.297619048,-0.0318877551 0.56335034,0.0106292517 C0.712159864,0.0318877551 4.13477891,0.637755102 5.21896259,4.33673469 C5.29336735,4.59183673 5.14455782,4.85756803 4.90008503,4.93197279 C4.85756803,4.93197279 4.81505102,4.94260204 4.76190476,4.94260204 Z" id="Shape"></path>
                    </g>
                    <g id="Group" opacity="0.8" transform="translate(65.795068, 26.254252)" fill="#FCFCFC" fill-rule="nonzero">
                        <path d="M4.78316327,4.96386054 C4.58120748,4.96386054 4.38988095,4.82568027 4.32610544,4.62372449 C3.4119898,1.50935374 0.552721088,0.99914966 0.425170068,0.977891156 C0.170068027,0.93537415 -0.0106292517,0.690901361 0.0318877551,0.425170068 C0.0744047619,0.170068027 0.318877551,-0.0106292517 0.584608844,0.0318877551 C0.733418367,0.0531462585 4.15603741,0.659013605 5.24022109,4.3579932 C5.31462585,4.61309524 5.16581633,4.87882653 4.92134354,4.95323129 C4.87882653,4.95323129 4.83630952,4.96386054 4.78316327,4.96386054 Z" id="Shape"></path>
                    </g>
                    <g id="Group" opacity="0.8" transform="translate(26.466837, 96.088435)" fill="#FCFCFC" fill-rule="nonzero">
                        <path d="M4.81505102,4.96386054 C4.61309524,4.96386054 4.42176871,4.82568027 4.3579932,4.62372449 C3.44387755,1.50935374 0.584608844,0.99914966 0.457057823,0.977891156 C0.201955782,0.93537415 0.0212585034,0.690901361 0.0637755102,0.425170068 C0.106292517,0.170068027 0.350765306,-0.0106292517 0.616496599,0.0318877551 C0.765306122,0.0531462585 4.18792517,0.659013605 5.27210884,4.3579932 C5.34651361,4.61309524 5.19770408,4.87882653 4.95323129,4.95323129 C4.91071429,4.95323129 4.85756803,4.96386054 4.81505102,4.96386054 Z" id="Shape"></path>
                    </g>
                    <g id="Group" opacity="0.8" transform="translate(107.355442, 55.697279)" fill="#FCFCFC" fill-rule="nonzero">
                        <path d="M4.78316327,4.96386054 C4.58120748,4.96386054 4.38988095,4.82568027 4.32610544,4.62372449 C3.4119898,1.50935374 0.552721088,0.99914966 0.425170068,0.977891156 C0.170068027,0.93537415 -0.0106292517,0.690901361 0.0318877551,0.425170068 C0.0744047619,0.170068027 0.318877551,-0.0106292517 0.584608844,0.0318877551 C0.733418367,0.0531462585 4.15603741,0.659013605 5.24022109,4.3579932 C5.31462585,4.61309524 5.16581633,4.87882653 4.92134354,4.95323129 C4.87882653,4.95323129 4.83630952,4.96386054 4.78316327,4.96386054 Z" id="Shape"></path>
                    </g>
                    <g id="Group" opacity="0.8" transform="translate(100.127551, 91.198980)" fill="#FCFCFC" fill-rule="nonzero">
                        <path d="M4.81505102,4.95323129 C4.61309524,4.95323129 4.42176871,4.81505102 4.3579932,4.61309524 C3.44387755,1.49872449 0.584608844,0.988520408 0.457057823,0.967261905 C0.201955782,0.924744898 0.0212585034,0.680272109 0.0637755102,0.414540816 C0.106292517,0.159438776 0.350765306,-0.0212585034 0.616496599,0.0212585034 C0.765306122,0.0425170068 4.18792517,0.648384354 5.27210884,4.34736395 C5.34651361,4.60246599 5.19770408,4.86819728 4.95323129,4.94260204 C4.91071429,4.94260204 4.86819728,4.95323129 4.81505102,4.95323129 Z" id="Shape"></path>
                    </g>
                    <g id="Group" opacity="0.7" transform="translate(109.906463, 7.227891)" fill="#FCFCFC" fill-rule="nonzero">
                        <path d="M6.80272109,7.10034014 C6.50510204,7.10034014 6.23937075,6.90901361 6.15433673,6.61139456 C4.84693878,2.1789966 0.775935374,1.44557823 0.605867347,1.41369048 C0.233843537,1.34991497 -0.0106292517,0.99914966 0.0425170068,0.62712585 C0.106292517,0.255102041 0.457057823,0.0106292517 0.818452381,0.0637755102 C1.02040816,0.0956632653 5.90986395,0.946003401 7.45110544,6.21811224 C7.55739796,6.5795068 7.35544218,6.96215986 6.99404762,7.06845238 C6.93027211,7.08971088 6.8664966,7.10034014 6.80272109,7.10034014 Z" id="Shape"></path>
                    </g>
                    <g id="Group" opacity="0.8" transform="translate(64.944728, 107.355442)" fill="#FCFCFC" fill-rule="nonzero">
                        <path d="M4.77253401,5.00637755 C4.57057823,5.00637755 4.3792517,4.86819728 4.31547619,4.6662415 C3.40136054,1.55187075 0.542091837,1.04166667 0.414540816,1.02040816 C0.159438776,0.977891156 -0.0212585034,0.733418367 0.0212585034,0.467687075 C0.0637755102,0.212585034 0.308248299,0.0318877551 0.573979592,0.0744047619 C0.722789116,0.0956632653 4.14540816,0.701530612 5.22959184,4.4005102 C5.3039966,4.65561224 5.15518707,4.92134354 4.91071429,4.9957483 C4.85756803,4.9957483 4.81505102,5.00637755 4.77253401,5.00637755 Z" id="Shape"></path>
                    </g>
                </g>
            </g>
        </g>
    </g>
</svg>