<?xml version="1.0" encoding="UTF-8"?>
<svg width="127px" height="126px" viewBox="0 0 127 126" version="1.1" xmlns="http://www.w3.org/2000/svg" xmlns:xlink="http://www.w3.org/1999/xlink">
    <!-- Generator: Sketch 52.2 (67145) - http://www.bohemiancoding.com/sketch -->
    <title>Group 43</title>
    <desc>Created with Sketch.</desc>
    <g id="Welcome" stroke="none" stroke-width="1" fill="none" fill-rule="evenodd">
        <g id="Group-43">
            <rect id="Rectangle-Copy-4" fill="#FFFFFF" fill-rule="nonzero" x="0" y="0" width="127" height="126"></rect>
            <g id="Group-18" transform="translate(0.000000, 1.000000)">
                <g id="services">
                    <path d="M36.4157265,60.2406838 C42.5521368,57.3897436 49.5046154,55.4820513 57.0823932,55.5986325 C73.1494017,49.3774359 86.8,38.9805128 102.570256,36.9244444 C108.727863,36.1189744 114.525128,36.7124786 119.866667,38.1750427 C110.020855,20.094359 90.8591453,7.82153846 68.8358974,7.82153846 C40.1251282,7.82153846 16.2789744,28.6683761 11.6157265,56.0437607 C20.751453,59.4564103 28.922735,60.5904274 36.4157265,60.2406838 Z" id="Shape" fill="#0093DD" fill-rule="nonzero"></path>
                    <path d="M36.4157265,60.2406838 C28.922735,60.5904274 20.7408547,59.4670085 11.6051282,56.054359 C10.322735,63.5897436 10.5241026,71.3052991 12.2092308,78.7664957 C16.6817094,73.8912821 25.1603419,65.4762393 36.4157265,60.2406838 Z" id="Shape" fill="#1CADE2" fill-rule="nonzero"></path>
                    <path d="M57.0929915,55.5880342 C50.6810256,58.0680342 43.8875214,59.8803419 36.4263248,60.2300855 C25.1603419,65.465641 16.6817094,73.8806838 12.2198291,78.7558974 C12.2622222,78.9466667 12.3046154,79.1268376 12.3470085,79.3176068 C20.2321368,75.2584615 29.6116239,72.6300855 40.008547,73.9866667 C65.2642735,77.282735 85.1148718,101.997949 118.096752,96.5928205 C121.477607,91.1876923 123.93641,85.2632479 125.377778,79.0632479 C100.683761,76.6998291 83.2495726,58.7145299 61.9682051,55.9483761 C60.3466667,55.7364103 58.7251282,55.6198291 57.0929915,55.5880342 Z" id="Shape" fill="#43BEE7" fill-rule="nonzero"></path>
                    <path d="M40.008547,73.997265 C29.6116239,72.6406838 20.2321368,75.2690598 12.3470085,79.3282051 C18.4092308,104.90188 41.3969231,123.93641 68.8358974,123.93641 C89.6191453,123.93641 107.837607,113.020171 118.096752,96.6140171 C85.1148718,101.997949 65.2642735,77.282735 40.008547,73.997265 Z" id="Shape" fill="#D7F7FF" fill-rule="nonzero"></path>
                    <path d="M36.4157265,60.2406838 C43.8769231,59.8909402 50.6704274,58.0786325 57.0823932,55.5986325 C49.5152137,55.471453 42.5521368,57.3897436 36.4157265,60.2406838 Z" id="Shape" fill="#205AA9" fill-rule="nonzero"></path>
                    <path d="M11.1282051,79.9641026 C11.5309402,79.7415385 11.9336752,79.5295726 12.3470085,79.3176068 C12.3046154,79.1268376 12.2622222,78.9466667 12.2198291,78.7558974 C11.8276923,79.1904274 11.4567521,79.5931624 11.1282051,79.9641026 Z" id="Shape"></path>
                    <path d="M119.856068,38.1644444 C114.51453,36.7018803 108.717265,36.1189744 102.559658,36.9138462 C86.8,38.9805128 73.1494017,49.3774359 57.0929915,55.5880342 C58.7251282,55.6092308 60.3466667,55.7364103 61.9682051,55.9377778 C83.2495726,58.7251282 100.683761,76.6998291 125.377778,79.0632479 C128.58906,65.2218803 126.628376,50.6704274 119.856068,38.1644444 Z" id="Shape" fill="#1CADE2" fill-rule="nonzero"></path>
                    <path d="M93.4239316,76.3076923 L83.4615385,49.197265 L65.8683761,1.33538462 C65.5080342,0.36034188 64.4270085,-0.137777778 63.4519658,0.211965812 L8.82837607,20.2957265 L1.33538462,23.0512821 C0.36034188,23.4116239 -0.137777778,24.4926496 0.222564103,25.4676923 L27.7781197,100.44 C28.1384615,101.415043 29.2194872,101.913162 30.1945299,101.552821 L92.3005128,78.7241026 C93.2755556,78.3637607 93.7736752,77.282735 93.4239316,76.3076923 Z" id="Shape" fill="#FFFFFF" fill-rule="nonzero"></path>
                    <path d="M65.8683761,1.33538462 C65.5080342,0.36034188 64.4270085,-0.137777778 63.4519658,0.211965812 L8.82837607,20.2957265 L83.4509402,49.2078632 L65.8683761,1.33538462 Z" id="Shape" fill="#CCCCCC" fill-rule="nonzero"></path>
                    <path d="M8.82837607,20.2957265 L1.33538462,23.0512821 C0.36034188,23.4116239 -0.137777778,24.4926496 0.222564103,25.4676923 L27.7781197,100.44 C28.1384615,101.415043 29.2194872,101.913162 30.1945299,101.552821 L92.3005128,78.7241026 C93.2755556,78.3637607 93.7736752,77.282735 93.4239316,76.3076923 L83.4615385,49.197265 L8.82837607,20.2957265 Z" id="Shape" fill="#BBBBBB" fill-rule="nonzero"></path>
                    <polygon id="Rectangle-path" fill="#FFFFFF" fill-rule="nonzero" transform="translate(47.772590, 52.001174) rotate(-20.181849) translate(-47.772590, -52.001174) " points="17.4774524 15.5802403 78.0677271 15.5802403 78.0677271 88.422108 17.4774524 88.422108"></polygon>
                    <path d="M35.1121368,39.8283761 L33.5329915,42.5521368 L32.9712821,41.0365812 L31.9644444,41.4075214 C32.1340171,41.6194872 32.2823932,41.8420513 32.4201709,42.0752137 C32.5579487,42.3083761 32.6745299,42.562735 32.7593162,42.817094 C32.9076923,43.2198291 33.0136752,43.6437607 33.0560684,44.0676923 C33.0984615,44.4916239 33.077265,44.9049573 32.9924786,45.3182906 C32.9182906,45.7316239 32.8017094,46.134359 32.6215385,46.5158974 C32.4413675,46.8974359 32.2188034,47.2577778 31.9538462,47.5757265 C31.6888889,47.9042735 31.3709402,48.1904274 31.0211966,48.434188 C30.3217094,48.9217094 29.505641,49.2184615 28.6471795,49.3032479 C28.2232479,49.345641 27.7993162,49.3244444 27.3859829,49.2396581 C26.9726496,49.1654701 26.5699145,49.0382906 26.1989744,48.8687179 C25.8174359,48.688547 25.457094,48.4659829 25.128547,48.1904274 C25.0119658,48.0950427 24.9059829,47.9890598 24.7894017,47.8830769 C24.6834188,47.777094 24.5880342,47.6711111 24.4926496,47.5545299 L22.722735,48.2010256 L22.4471795,47.4379487 L24.0157265,46.865641 C23.9521368,46.7490598 23.888547,46.6324786 23.8355556,46.5052991 C23.7825641,46.3781197 23.7295726,46.2615385 23.6765812,46.1237607 C23.3798291,45.3288889 23.305641,44.4598291 23.4540171,43.6225641 C23.5282051,43.2092308 23.6553846,42.8064957 23.8249573,42.4249573 C24.7364103,40.4324786 26.8878632,39.2984615 29.0393162,39.68 C29.4526496,39.754188 29.8553846,39.8813675 30.2475214,40.0509402 C30.6290598,40.2205128 30.9894017,40.4536752 31.3073504,40.7292308 L31.3179487,40.7398291 L32.6745299,40.2417094 L32.1128205,38.7261538 L35.1121368,39.8283761 Z M24.7046154,45.805812 C24.7470085,45.9329915 24.8,46.0601709 24.8529915,46.1767521 C24.9059829,46.2933333 24.9695726,46.4099145 25.0437607,46.5264957 L28.5094017,45.2547009 L27.9476923,43.7391453 L30.9152137,44.8095726 L29.357265,47.522735 L28.7955556,46.0071795 L25.5948718,47.1835897 C25.7538462,47.3425641 25.9234188,47.4803419 26.1035897,47.6075214 C26.2837607,47.7347009 26.4745299,47.8406838 26.6652991,47.9360684 C26.8878632,48.0420513 27.1104274,48.1162393 27.3435897,48.1692308 C27.5873504,48.2222222 27.8311111,48.2646154 28.0854701,48.2752137 C28.3292308,48.285812 28.5835897,48.2752137 28.8273504,48.2328205 C29.0817094,48.2010256 29.3254701,48.1374359 29.5586325,48.0420513 C29.7917949,47.957265 30.0249573,47.8406838 30.2369231,47.7135043 C30.4488889,47.5863248 30.6502564,47.4273504 30.8304274,47.2683761 C31.0105983,47.0988034 31.1695726,46.9080342 31.3073504,46.7066667 C31.5935043,46.3145299 31.7948718,45.88 31.911453,45.4030769 C31.9644444,45.1593162 32.0068376,44.9155556 32.0280342,44.6717949 C32.0386325,44.4174359 32.0174359,44.1630769 31.985641,43.9193162 C31.911453,43.4211966 31.7312821,42.9336752 31.4663248,42.4991453 C31.3391453,42.2871795 31.1801709,42.085812 31.0105983,41.905641 C30.9894017,41.8844444 30.9682051,41.8632479 30.9470085,41.8420513 C30.925812,41.8208547 30.9046154,41.7996581 30.8834188,41.7890598 L27.6721368,42.9654701 L27.3965812,42.2023932 L30.1415385,41.1955556 C30.088547,41.174359 30.0461538,41.1425641 29.9931624,41.1213675 C29.9507692,41.0895726 29.8977778,41.0683761 29.8447863,41.0471795 C29.6222222,40.9411966 29.3996581,40.8670085 29.1664957,40.8140171 C28.922735,40.7610256 28.6789744,40.7186325 28.4352137,40.7186325 C28.1808547,40.7080342 27.9264957,40.7186325 27.682735,40.7504274 C27.1846154,40.8246154 26.7076923,41.0047863 26.2731624,41.2697436 C25.8492308,41.5452991 25.4782906,41.8844444 25.1815385,42.2871795 C25.0437607,42.4779487 24.9165812,42.6899145 24.8211966,42.9124786 C24.725812,43.1350427 24.6410256,43.3576068 24.5880342,43.5907692 C24.5350427,43.8345299 24.4926496,44.0782906 24.4820513,44.3326496 C24.4608547,44.5870085 24.4820513,44.8307692 24.5138462,45.0851282 C24.5562393,45.3182906 24.6198291,45.5726496 24.7046154,45.805812 Z" id="Shape" fill="#000000" fill-rule="nonzero"></path>
                    <path d="M28.5729915,54.7401709 C22.8817094,54.7507692 18.2608547,50.1511111 18.2502564,44.4598291 C18.2396581,38.768547 22.8393162,34.1476923 28.5305983,34.137094 C34.2218803,34.1264957 38.842735,38.7261538 38.8533333,44.4174359 C38.8639316,48.7415385 36.1719658,52.6099145 32.1128205,54.1042735 C30.9788034,54.5176068 29.7811966,54.7295726 28.5729915,54.7401709 Z M28.5623932,34.9107692 C23.2950427,34.9001709 19.0345299,39.1712821 19.0239316,44.4280342 C19.0133333,49.6847863 23.2844444,53.9558974 28.5411966,53.9664957 C33.7979487,53.977094 38.0690598,49.7059829 38.0796581,44.4492308 C38.0796581,43.325812 37.8782906,42.2129915 37.4967521,41.1531624 C36.1189744,37.4119658 32.5579487,34.9213675 28.5623932,34.9107692 Z" id="Shape" fill="#39A5DC" fill-rule="nonzero"></path>
                    <polygon id="Shape" fill="#FFFFFF" fill-rule="nonzero" points="36.0235897 44.5340171 43.0926496 50.6916239 35.1545299 54.2950427"></polygon>
                    <path d="M35.9494017,43.9935043 C36.0129915,43.9723077 36.0765812,43.9511111 36.1401709,43.9511111 C36.2037607,43.9405128 36.2673504,43.9511111 36.3309402,43.9617094 C36.3945299,43.9723077 36.4581197,43.9935043 36.5217094,44.0252991 C36.5852991,44.057094 36.6382906,44.0888889 36.6806838,44.1312821 L43.728547,50.5644444 C43.8239316,50.6492308 43.8981197,50.7552137 43.9405128,50.8717949 C43.982906,50.9883761 43.9935043,51.1261538 43.9617094,51.242735 C43.9511111,51.3063248 43.9299145,51.3699145 43.9087179,51.4335043 C43.8769231,51.497094 43.8451282,51.5500855 43.802735,51.5924786 C43.7603419,51.6348718 43.7179487,51.677265 43.6649573,51.7090598 C43.6119658,51.751453 43.5589744,51.7726496 43.4953846,51.7938462 L35.2393162,54.8249573 C35.1757265,54.8461538 35.1121368,54.8567521 35.048547,54.8673504 C34.9849573,54.8779487 34.9319658,54.8779487 34.8683761,54.8673504 C34.8047863,54.8567521 34.7411966,54.8355556 34.6776068,54.814359 C34.6140171,54.7825641 34.5610256,54.7507692 34.5186325,54.7083761 C34.4232479,54.6235897 34.3490598,54.5282051 34.2960684,54.4116239 C34.2536752,54.2950427 34.2430769,54.1678632 34.2642735,54.0406838 L35.4724786,44.5870085 C35.4830769,44.5234188 35.5042735,44.4598291 35.5254701,44.3962393 C35.5466667,44.3326496 35.5890598,44.2796581 35.631453,44.2266667 C35.6738462,44.1736752 35.7162393,44.1312821 35.7692308,44.0994872 C35.8222222,44.0464957 35.885812,44.0252991 35.9494017,43.9935043 Z M35.4194872,53.5637607 L42.5733333,50.9353846 L36.4157265,45.2547009 L35.4194872,53.5637607 Z M39.3726496,51.2109402 C39.3726496,51.2745299 39.3302564,51.3275214 39.277265,51.3487179 L38.8745299,51.497094 L38.2704274,51.7196581 C38.1644444,51.7620513 38.037265,51.8044444 37.9842735,51.6666667 L37.8252991,51.242735 C37.7935043,51.168547 37.8358974,51.0837607 37.9100855,51.0519658 C37.9100855,51.0519658 37.9100855,51.0519658 37.9206838,51.0519658 L39.0123077,50.6492308 C39.0864957,50.6174359 39.1712821,50.6598291 39.2030769,50.7340171 C39.2030769,50.7340171 39.2030769,50.7340171 39.2030769,50.7446154 L39.3620513,51.168547 C39.3726496,51.1791453 39.3726496,51.1897436 39.3726496,51.2109402 Z M38.8745299,49.8331624 C38.8745299,49.8967521 38.8321368,49.9497436 38.7791453,49.9709402 L38.3764103,50.1193162 L37.782906,50.3418803 C37.6769231,50.3842735 37.5497436,50.4266667 37.4967521,50.2888889 L36.7124786,48.1692308 C36.6806838,48.0950427 36.7230769,48.0102564 36.797265,47.9784615 C36.797265,47.9784615 36.797265,47.9784615 36.8078632,47.9784615 L37.8994872,47.5757265 C37.9736752,47.5439316 38.0584615,47.5863248 38.0902564,47.6605128 C38.0902564,47.6605128 38.0902564,47.6605128 38.0902564,47.6711111 L38.8745299,49.7907692 C38.8745299,49.8013675 38.8745299,49.8225641 38.8745299,49.8331624 Z" id="Shape" fill="#F0AB00" fill-rule="nonzero"></path>
                    <path d="M62.1271795,29.9401709 L60.5480342,32.6639316 L59.9863248,31.1483761 L58.9794872,31.5193162 C59.1490598,31.7312821 59.2974359,31.9538462 59.4352137,32.1870085 C59.5729915,32.4307692 59.6895726,32.6745299 59.7849573,32.9394872 C59.9333333,33.3422222 60.0287179,33.7555556 60.0711111,34.1794872 C60.1135043,34.6034188 60.0923077,35.0167521 60.0075214,35.4300855 C59.9439316,35.8434188 59.8167521,36.2461538 59.6365812,36.6382906 C59.4564103,37.0198291 59.2338462,37.3801709 58.9688889,37.6981197 C58.7039316,38.0266667 58.3859829,38.3128205 58.0362393,38.5565812 C57.3261538,39.0441026 56.5100855,39.3408547 55.6622222,39.425641 C55.2382906,39.4680342 54.814359,39.4468376 54.4010256,39.3620513 C53.9876923,39.2878632 53.5849573,39.1712821 53.2034188,38.9911111 C52.8218803,38.8109402 52.4615385,38.5883761 52.1329915,38.3128205 C52.0164103,38.2174359 51.9104274,38.111453 51.7938462,38.0054701 C51.6878632,37.8994872 51.5924786,37.7935043 51.497094,37.6769231 L49.7271795,38.3234188 L49.4516239,37.5709402 L51.0201709,36.9880342 C50.9565812,36.871453 50.8929915,36.7548718 50.84,36.6276923 C50.7870085,36.5005128 50.7340171,36.3839316 50.6810256,36.2567521 C50.5326496,35.8540171 50.437265,35.4406838 50.3948718,35.0061538 C50.3630769,34.5928205 50.3736752,34.1688889 50.4478632,33.7555556 C50.5220513,33.3422222 50.6492308,32.9394872 50.8188034,32.5579487 C51.168547,31.7842735 51.7196581,31.1271795 52.408547,30.6396581 C53.4577778,29.8871795 54.7719658,29.6010256 56.0437607,29.8235897 C56.457094,29.8977778 56.8598291,30.014359 57.2519658,30.1945299 C57.6335043,30.3641026 57.9938462,30.597265 58.3117949,30.8728205 L58.3223932,30.8834188 L59.6789744,30.3852991 L59.117265,28.8591453 L62.1271795,29.9401709 Z M51.7196581,35.9070085 C51.7726496,36.034188 51.8150427,36.1613675 51.8786325,36.2779487 C51.9316239,36.3945299 51.9952137,36.5111111 52.0694017,36.6276923 L55.5350427,35.3558974 L54.9733333,33.8403419 L57.9408547,34.9107692 L56.3617094,37.6239316 L55.8,36.1083761 L52.5993162,37.2847863 C52.7582906,37.4437607 52.9278632,37.5815385 53.1080342,37.7087179 C53.2882051,37.8358974 53.4789744,37.9418803 53.6697436,38.037265 C53.8923077,38.1326496 54.1148718,38.2174359 54.3480342,38.2704274 C54.5917949,38.3234188 54.8355556,38.365812 55.0899145,38.3764103 C55.5880342,38.3976068 56.0967521,38.3234188 56.5630769,38.1538462 C56.7962393,38.0690598 57.0294017,37.9524786 57.2413675,37.8252991 C57.4533333,37.6875214 57.6547009,37.5391453 57.8454701,37.3695726 C58.025641,37.2 58.1846154,37.0092308 58.3223932,36.8078632 C58.608547,36.4157265 58.8099145,35.9811966 58.9264957,35.5042735 C58.9794872,35.2605128 59.0218803,35.0167521 59.0430769,34.7729915 C59.0536752,34.5186325 59.0324786,34.2642735 59.0006838,34.0205128 C58.9264957,33.5223932 58.7463248,33.0348718 58.4813675,32.6003419 C58.354188,32.3883761 58.1952137,32.1870085 58.025641,32.0068376 L57.9620513,31.9432479 C57.9408547,31.9220513 57.9196581,31.9008547 57.8984615,31.8902564 L54.6871795,33.0878632 L54.4116239,32.3247863 L57.1459829,31.3179487 C57.0929915,31.2967521 57.0505983,31.2755556 56.9976068,31.2437607 C56.9446154,31.2119658 56.9022222,31.1907692 56.8492308,31.1695726 C56.6266667,31.074188 56.4041026,30.9894017 56.1709402,30.9364103 C55.9271795,30.8728205 55.6834188,30.8410256 55.4396581,30.8410256 C54.9309402,30.8092308 54.4328205,30.8834188 53.9558974,31.0529915 C53.4789744,31.2225641 53.0444444,31.4981197 52.6735043,31.8478632 C52.4933333,32.0174359 52.3237607,32.1976068 52.1753846,32.3989744 C52.0376068,32.5897436 51.9104274,32.8017094 51.8150427,33.0242735 C51.7090598,33.2362393 51.6348718,33.4694017 51.5818803,33.7025641 C51.5288889,33.9463248 51.4864957,34.1900855 51.4758974,34.4444444 C51.4652991,34.6988034 51.4758974,34.9425641 51.5076923,35.1969231 C51.5606838,35.4300855 51.6242735,35.6738462 51.7196581,35.9070085 Z" id="Shape" fill="#000000" fill-rule="nonzero"></path>
                    <path d="M55.5774359,44.8413675 C49.8861538,44.8519658 45.2758974,40.2417094 45.2652991,34.5504274 C45.2547009,28.8591453 49.8649573,24.2488889 55.5562393,24.2382906 C59.8803419,24.2382906 63.7381197,26.9302564 65.2324786,30.9788034 C67.1931624,36.3203419 64.4588034,42.234188 59.117265,44.1948718 C57.9832479,44.6188034 56.785641,44.8413675 55.5774359,44.8413675 Z M55.5562393,25.0225641 C50.2994872,25.0225641 46.0389744,29.2936752 46.0389744,34.5610256 C46.0389744,39.8283761 50.3100855,44.0782906 55.5774359,44.0782906 C60.8447863,44.0782906 65.0947009,39.8071795 65.0947009,34.5398291 C65.0947009,33.4270085 64.8933333,32.314188 64.5117949,31.2649573 C63.1446154,27.4919658 59.5623932,24.9907692 55.5562393,25.0225641 Z" id="Shape" fill="#39A5DC" fill-rule="nonzero"></path>
                    <circle id="Oval" fill="#FAFAFA" fill-rule="nonzero" cx="64.7555556" cy="38.842735" r="4.02735043"></circle>
                    <path d="M67.8078632,34.974359 C69.1538462,36.1083761 69.8003419,37.8676923 69.5035897,39.5952137 C69.3552137,40.4430769 68.9948718,41.2273504 68.4437607,41.8844444 C67.3097436,43.2304274 65.5504274,43.8769231 63.822906,43.5801709 C62.9750427,43.4317949 62.1907692,43.071453 61.5336752,42.5203419 C60.1876923,41.3863248 59.5411966,39.6270085 59.8379487,37.8994872 C59.9863248,37.0516239 60.3466667,36.2673504 60.8977778,35.6102564 C62.0317949,34.2642735 63.7911111,33.6177778 65.5186325,33.9145299 C66.3558974,34.062906 67.1507692,34.4232479 67.8078632,34.974359 Z M68.0940171,39.351453 C68.3059829,38.1220513 67.8502564,36.871453 66.885812,36.0765812 C66.4194872,35.6844444 65.8577778,35.4300855 65.2642735,35.3241026 C64.0348718,35.1121368 62.7842735,35.5678632 61.9894017,36.5323077 C61.597265,36.9986325 61.342906,37.5603419 61.2369231,38.1538462 C61.0249573,39.3832479 61.4806838,40.6338462 62.4345299,41.4287179 C62.9008547,41.8208547 63.4625641,42.0752137 64.0560684,42.1811966 C65.2854701,42.3931624 66.5360684,41.9374359 67.3309402,40.9729915 C67.7336752,40.5066667 67.9880342,39.9449573 68.0940171,39.351453 Z M66.8964103,37.3695726 L65.2960684,40.8352137 C65.2536752,40.9305983 65.1688889,41.0153846 65.062906,41.0471795 C64.9569231,41.0895726 64.8403419,41.0789744 64.7449573,41.0365812 L62.3391453,39.9237607 C62.1377778,39.8283761 62.0423932,39.5952137 62.1377778,39.3938462 L62.1377778,39.3832479 L62.5299145,38.5459829 C62.6147009,38.3446154 62.8584615,38.2492308 63.0598291,38.3446154 L63.0704274,38.3446154 L64.2786325,38.9063248 L65.317265,36.6488889 C65.4126496,36.4475214 65.645812,36.3521368 65.8471795,36.4475214 C65.8471795,36.4475214 65.8471795,36.4475214 65.8577778,36.4475214 L66.6950427,36.8290598 C66.9070085,36.9138462 66.9917949,37.1576068 66.8964103,37.3695726 C66.9070085,37.3589744 66.9070085,37.3695726 66.8964103,37.3695726 Z" id="Shape" fill="#64A34D" fill-rule="nonzero"></path>
                    <path d="M45.1487179,67.1401709 L43.5695726,69.8639316 L43.0078632,68.3483761 L42.0010256,68.7193162 C42.1705983,68.9312821 42.3295726,69.1538462 42.4567521,69.3870085 C42.8064957,70.0017094 43.0184615,70.68 43.0926496,71.3794872 C43.1350427,71.8034188 43.1138462,72.2167521 43.0290598,72.6300855 C42.9654701,73.0434188 42.8382906,73.4461538 42.6581197,73.8276923 C42.4779487,74.2092308 42.2553846,74.5695726 41.9904274,74.8875214 C41.7254701,75.2160684 41.4075214,75.5022222 41.0683761,75.7459829 C40.3582906,76.2335043 39.5422222,76.5302564 38.694359,76.6150427 C38.2704274,76.6574359 37.8464957,76.6362393 37.4331624,76.551453 C37.0198291,76.477265 36.617094,76.3606838 36.2461538,76.1805128 C35.8646154,76.0003419 35.5042735,75.7777778 35.1757265,75.5128205 C35.0591453,75.4174359 34.9531624,75.311453 34.8365812,75.2054701 C34.7305983,75.0994872 34.6352137,74.9935043 34.5398291,74.8769231 L32.7699145,75.5234188 L32.494359,74.7709402 L34.062906,74.1880342 C33.9993162,74.071453 33.9357265,73.9548718 33.882735,73.8382906 C33.8297436,73.7217094 33.7767521,73.5945299 33.7237607,73.4567521 C33.4270085,72.6618803 33.3528205,71.7928205 33.5011966,70.9555556 C33.5753846,70.5422222 33.7025641,70.1394872 33.8721368,69.7579487 C34.4020513,68.5921368 35.3876923,67.6806838 36.5958974,67.2461538 C36.9986325,67.0977778 37.4119658,67.0023932 37.8358974,66.96 C38.2492308,66.9282051 38.6731624,66.9388034 39.0864957,67.0129915 C39.4998291,67.0871795 39.9025641,67.214359 40.2947009,67.3839316 C40.6762393,67.5535043 41.0365812,67.7866667 41.3545299,68.0622222 L41.3651282,68.0728205 L42.7217094,67.5747009 L42.16,66.0591453 L45.1487179,67.1401709 Z M34.7411966,73.1176068 C34.794188,73.2447863 34.8365812,73.3719658 34.9001709,73.488547 C34.9531624,73.6051282 35.0167521,73.7217094 35.0909402,73.8382906 L38.5565812,72.5664957 L37.9948718,71.0509402 L40.9623932,72.1213675 L39.3938462,74.8451282 L38.8321368,73.3295726 L35.631453,74.5059829 C35.7904274,74.6649573 35.96,74.802735 36.1401709,74.9299145 C36.3203419,75.057094 36.5111111,75.1630769 36.7018803,75.2584615 C36.9244444,75.3644444 37.1470085,75.4386325 37.3801709,75.4916239 C37.6239316,75.5446154 37.8676923,75.5870085 38.1220513,75.5976068 C38.365812,75.6082051 38.6201709,75.5976068 38.8639316,75.5552137 C39.3620513,75.4810256 39.8495726,75.311453 40.2735043,75.0464957 C40.4854701,74.9087179 40.6868376,74.7603419 40.8776068,74.5907692 C41.0577778,74.4211966 41.2167521,74.2304274 41.3545299,74.0290598 C41.4923077,73.8382906 41.6194872,73.6263248 41.7148718,73.4037607 C41.8102564,73.1811966 41.8950427,72.9586325 41.9480342,72.7254701 C42.0010256,72.4817094 42.0434188,72.2379487 42.0646154,71.994188 C42.0752137,71.7398291 42.0540171,71.4854701 42.0222222,71.2417094 C41.9904274,70.9873504 41.9268376,70.7435897 41.831453,70.5104274 C41.7466667,70.277265 41.6300855,70.0441026 41.502906,69.8321368 C41.3757265,69.6201709 41.2167521,69.4188034 41.0471795,69.2386325 C41.0259829,69.2174359 41.0047863,69.1962393 40.9835897,69.1750427 C40.9623932,69.1538462 40.9411966,69.1326496 40.92,69.1220513 L37.7087179,70.3090598 L37.4225641,69.5353846 L40.1675214,68.528547 C40.1251282,68.5073504 40.0721368,68.4861538 40.0191453,68.454359 C39.9661538,68.4225641 39.9237607,68.4013675 39.8707692,68.3801709 C39.6482051,68.2847863 39.425641,68.2 39.1924786,68.1470085 C38.9487179,68.0940171 38.7049573,68.0516239 38.4611966,68.0516239 C37.9524786,68.0198291 37.454359,68.0940171 36.9774359,68.2635897 C36.7442735,68.3483761 36.5111111,68.4649573 36.2991453,68.5921368 C35.8752137,68.8676923 35.5042735,69.2068376 35.2075214,69.6095726 C35.0697436,69.8003419 34.9425641,70.0123077 34.8471795,70.2348718 C34.7517949,70.4574359 34.6670085,70.68 34.6140171,70.9131624 C34.5610256,71.1569231 34.5186325,71.4006838 34.5080342,71.6550427 C34.4868376,71.9094017 34.5080342,72.1637607 34.5398291,72.4075214 C34.5928205,72.6300855 34.6564103,72.8738462 34.7411966,73.1176068 Z" id="Shape" fill="#000000" fill-rule="nonzero"></path>
                    <path d="M38.5883761,82.0519658 C32.897094,82.0519658 28.2868376,77.4417094 28.2868376,71.7504274 C28.2868376,66.0591453 32.897094,61.4488889 38.5883761,61.4488889 C42.9018803,61.4488889 46.7596581,64.1408547 48.2540171,68.1894017 C50.2147009,73.5415385 47.4591453,79.4553846 42.1176068,81.4160684 C40.994188,81.84 39.7965812,82.0519658 38.5883761,82.0519658 Z M38.5883761,62.2225641 C33.3316239,62.2225641 29.0605128,66.4936752 29.0711111,71.7504274 C29.0711111,77.0071795 33.3422222,81.2782906 38.5989744,81.2676923 C43.8557265,81.257094 48.1268376,76.9965812 48.1162393,71.7398291 C48.1162393,70.6164103 47.9148718,69.514188 47.5333333,68.4649573 C46.1661538,64.7025641 42.5839316,62.2119658 38.5883761,62.2225641 Z" id="Shape" fill="#39A5DC" fill-rule="nonzero"></path>
                    <circle id="Oval" fill="#FAFAFA" fill-rule="nonzero" cx="47.7241026" cy="75.9049573" r="4.02735043"></circle>
                    <path d="M50.84,72.174359 C52.1859829,73.3083761 52.8324786,75.0676923 52.5357265,76.7952137 C52.3873504,77.6430769 52.0270085,78.4273504 51.4758974,79.0844444 C50.3418803,80.4304274 48.5825641,81.0769231 46.8550427,80.7801709 C46.0071795,80.6317949 45.222906,80.271453 44.565812,79.7203419 C43.2198291,78.5863248 42.5733333,76.8270085 42.8700855,75.0994872 C43.0184615,74.2516239 43.3788034,73.4673504 43.9299145,72.8102564 C45.0639316,71.4642735 46.8232479,70.8177778 48.5507692,71.1145299 C49.3880342,71.262906 50.1723077,71.6232479 50.84,72.174359 Z M51.1261538,76.551453 C51.3381197,75.3220513 50.8717949,74.0820513 49.9179487,73.2765812 C49.4516239,72.8844444 48.8899145,72.6300855 48.2964103,72.5241026 C47.0670085,72.3121368 45.8164103,72.7678632 45.0215385,73.7323077 C44.6294017,74.1986325 44.3750427,74.7603419 44.2690598,75.3538462 C44.057094,76.5832479 44.5128205,77.8338462 45.477265,78.6287179 C45.9435897,79.0208547 46.5052991,79.2752137 47.0988034,79.3811966 C48.3282051,79.5931624 49.5788034,79.1374359 50.3736752,78.1729915 C50.765812,77.717265 51.0201709,77.1555556 51.1261538,76.551453 Z M49.928547,74.5695726 L48.3282051,78.0352137 C48.2434188,78.2365812 47.9996581,78.3319658 47.7982906,78.2365812 L47.7876923,78.2365812 L45.3712821,77.1237607 C45.1699145,77.0389744 45.0745299,76.7952137 45.1699145,76.5938462 L45.1699145,76.5832479 L45.551453,75.7459829 C45.6362393,75.5446154 45.88,75.4492308 46.0813675,75.5446154 C46.0813675,75.5446154 46.0919658,75.5446154 46.0919658,75.5552137 L47.3001709,76.1169231 L48.3494017,73.8594872 C48.434188,73.6581197 48.6779487,73.562735 48.8793162,73.6581197 L48.8899145,73.6581197 L49.7271795,74.0502564 C49.928547,74.1350427 50.0239316,74.3788034 49.928547,74.5695726 C49.9391453,74.5589744 49.928547,74.5589744 49.928547,74.5695726 Z" id="Shape" fill="#64A34D" fill-rule="nonzero"></path>
                    <path d="M72.1531624,57.2201709 L70.5740171,59.9439316 L70.0123077,58.4283761 L69.0054701,58.7993162 C69.1750427,59.0112821 69.3340171,59.2338462 69.4611966,59.4670085 C69.5989744,59.7001709 69.7155556,59.9545299 69.8003419,60.2088889 C69.9487179,60.6116239 70.0441026,61.0249573 70.0864957,61.4488889 C70.1288889,61.8728205 70.1076923,62.2861538 70.022906,62.6994872 C69.9593162,63.1128205 69.8321368,63.5155556 69.6519658,63.897094 C69.4717949,64.2786325 69.2492308,64.6389744 68.9842735,64.9569231 C68.7193162,65.2854701 68.4013675,65.5716239 68.0516239,65.8153846 C67.3521368,66.302906 66.5360684,66.5996581 65.6882051,66.6844444 C65.2642735,66.7268376 64.8403419,66.705641 64.4270085,66.6208547 C64.0136752,66.5466667 63.6109402,66.4300855 63.24,66.2499145 C62.8584615,66.0697436 62.4981197,65.8471795 62.1695726,65.5716239 C62.0529915,65.4762393 61.9470085,65.3702564 61.8304274,65.2642735 C61.7244444,65.1582906 61.6290598,65.0523077 61.5336752,64.9357265 L59.7637607,65.5822222 L59.4776068,64.8297436 L61.0461538,64.2468376 C60.9825641,64.1302564 60.9189744,64.0136752 60.8659829,63.897094 C60.8129915,63.7805128 60.76,63.6533333 60.7070085,63.5155556 C60.4102564,62.7206838 60.3360684,61.8516239 60.4844444,61.014359 C60.5586325,60.6010256 60.685812,60.1982906 60.8553846,59.8167521 C61.3852991,58.6509402 62.3709402,57.7394872 63.5791453,57.3049573 C64.3740171,57.0082051 65.2430769,56.9340171 66.0803419,57.0823932 C66.4936752,57.1565812 66.8964103,57.2837607 67.288547,57.4533333 C67.6700855,57.622906 68.0304274,57.8560684 68.3483761,58.1316239 L68.3589744,58.1422222 L69.7155556,57.6441026 L69.1538462,56.128547 L72.1531624,57.2201709 Z M61.745641,63.1870085 C61.7986325,63.314188 61.8410256,63.4413675 61.9046154,63.5579487 C61.9576068,63.6745299 62.0211966,63.7911111 62.0953846,63.9076923 L65.5610256,62.6358974 L64.9993162,61.1203419 L67.9668376,62.1907692 L66.3982906,64.9145299 L65.8365812,63.3989744 L62.6252991,64.5753846 C62.7842735,64.734359 62.9538462,64.8721368 63.1340171,64.9993162 C63.5155556,65.2642735 63.9288889,65.4550427 64.3846154,65.5610256 C64.6283761,65.6140171 64.8721368,65.6564103 65.1264957,65.6670085 C65.3702564,65.6776068 65.6246154,65.6670085 65.8683761,65.6246154 C66.3664957,65.5504274 66.8540171,65.3702564 67.288547,65.1052991 C67.5005128,64.9675214 67.7018803,64.8191453 67.8926496,64.6495726 C68.0622222,64.48 68.2211966,64.2998291 68.3695726,64.0984615 C68.6557265,63.7063248 68.857094,63.2611966 68.9736752,62.7948718 C69.0266667,62.5511111 69.0690598,62.3073504 69.0902564,62.0635897 C69.1008547,61.8092308 69.0796581,61.5548718 69.0478632,61.3111111 C68.9736752,60.8129915 68.7935043,60.3254701 68.528547,59.8909402 C68.4013675,59.6789744 68.2423932,59.4776068 68.0728205,59.2974359 C68.0516239,59.2762393 68.0304274,59.2550427 68.0092308,59.2338462 C67.9880342,59.2126496 67.9668376,59.191453 67.945641,59.1808547 L64.734359,60.3678632 L64.4588034,59.6047863 L67.1931624,58.5979487 C67.1401709,58.5767521 67.0977778,58.5449573 67.0447863,58.5237607 C66.9917949,58.4919658 66.9494017,58.4707692 66.8964103,58.4495726 C66.6738462,58.354188 66.4512821,58.2694017 66.2181197,58.2164103 C65.974359,58.1634188 65.7305983,58.1210256 65.4868376,58.1210256 C64.9781197,58.0892308 64.48,58.1634188 64.0030769,58.3329915 C63.7699145,58.4177778 63.5367521,58.534359 63.3247863,58.6615385 C62.9008547,58.937094 62.5299145,59.2762393 62.2331624,59.6789744 C62.0953846,59.8697436 61.9682051,60.0817094 61.8728205,60.3042735 C61.7774359,60.5268376 61.6926496,60.7494017 61.6396581,60.9825641 C61.5866667,61.2263248 61.5442735,61.4700855 61.5336752,61.7244444 C61.5124786,61.9788034 61.5336752,62.2225641 61.5654701,62.4769231 C61.5866667,62.7100855 61.6502564,62.9538462 61.745641,63.1870085 Z" id="Shape" fill="#000000" fill-rule="nonzero"></path>
                    <path d="M65.6034188,72.1213675 C59.9121368,72.1319658 55.2912821,67.5323077 55.2806838,61.8410256 C55.2700855,56.1497436 59.8697436,51.5288889 65.5610256,51.5182906 C71.2523077,51.5076923 75.8731624,56.1073504 75.8837607,61.7986325 C75.894359,66.122735 73.2023932,69.9911111 69.1432479,71.4854701 C68.0092308,71.9094017 66.8116239,72.1213675 65.6034188,72.1213675 Z M65.5822222,52.3025641 C60.3254701,52.3025641 56.0649573,56.5736752 56.0649573,61.8304274 C56.0649573,67.0871795 60.3360684,71.3476923 65.5928205,71.3476923 C70.8495726,71.3476923 75.1100855,67.0765812 75.1100855,61.8198291 C75.1100855,60.6964103 74.9087179,59.594188 74.5271795,58.5449573 C73.16,54.7825641 69.5883761,52.2919658 65.5822222,52.3025641 Z" id="Shape" fill="#39A5DC" fill-rule="nonzero"></path>
                    <circle id="Oval" fill="#FAFAFA" fill-rule="nonzero" cx="74.7179487" cy="65.9637607" r="4.02735043"></circle>
                    <path d="M77.8338462,62.254359 C79.1798291,63.3883761 79.8263248,65.1476923 79.5295726,66.8752137 C79.3811966,67.7230769 79.0208547,68.5073504 78.4697436,69.1644444 C77.3463248,70.5104274 75.5764103,71.1569231 73.8488889,70.8601709 C73.0010256,70.7117949 72.2167521,70.351453 71.5596581,69.8003419 C70.2136752,68.6663248 69.5671795,66.9070085 69.8639316,65.1794872 C70.0123077,64.3316239 70.3726496,63.5473504 70.9237607,62.8902564 C72.0471795,61.5442735 73.817094,60.8977778 75.5446154,61.1945299 C76.3818803,61.342906 77.1767521,61.7138462 77.8338462,62.254359 Z M78.12,66.631453 C78.3319658,65.4020513 77.8762393,64.151453 76.9117949,63.3565812 C76.4454701,62.9644444 75.8837607,62.7100855 75.2902564,62.6041026 C74.0608547,62.3921368 72.8102564,62.8478632 72.0153846,63.8017094 C71.6232479,64.2680342 71.3688889,64.8297436 71.262906,65.4232479 C71.0509402,66.6526496 71.5066667,67.8926496 72.4605128,68.6981197 C72.9268376,69.0902564 73.488547,69.3446154 74.0820513,69.4505983 C75.311453,69.6625641 76.551453,69.1962393 77.3569231,68.2423932 C77.7596581,67.7866667 78.0140171,67.2249573 78.12,66.631453 Z M77.0707692,66.4088889 L76.5196581,67.6064957 C76.477265,67.7124786 76.3606838,67.7548718 76.2652991,67.7230769 C76.2547009,67.7230769 76.2547009,67.7230769 76.2441026,67.7124786 L75.1206838,67.1931624 L74.6013675,68.3165812 C74.5589744,68.4225641 74.4423932,68.4649573 74.3364103,68.4331624 C74.325812,68.4331624 74.325812,68.4331624 74.325812,68.4225641 L73.1282051,67.8608547 C73.0222222,67.8184615 72.9798291,67.7018803 73.0116239,67.5958974 C73.0116239,67.5852991 73.0116239,67.5852991 73.0222222,67.5852991 L73.5415385,66.4618803 L72.4181197,65.9425641 C72.3121368,65.9001709 72.2697436,65.7835897 72.3015385,65.6776068 C72.3015385,65.6670085 72.3015385,65.6670085 72.3121368,65.6670085 L72.8632479,64.4694017 C72.905641,64.3634188 73.0222222,64.3210256 73.1282051,64.3528205 C73.1388034,64.3528205 73.1388034,64.3528205 73.1388034,64.3634188 L74.2622222,64.882735 L74.7815385,63.7593162 C74.8239316,63.6533333 74.9405128,63.6109402 75.0464957,63.6533333 L75.057094,63.6533333 L76.2547009,64.2044444 C76.3606838,64.2468376 76.4030769,64.3634188 76.3712821,64.4588034 C76.3712821,64.4694017 76.3712821,64.4694017 76.3606838,64.48 L75.8413675,65.6034188 L76.9647863,66.122735 C77.0177778,66.1439316 77.0495726,66.1863248 77.0707692,66.2393162 C77.1025641,66.2923077 77.1025641,66.3558974 77.0707692,66.4088889 Z" id="Shape" fill="#CC0000" fill-rule="nonzero"></path>
                    <path d="M54.888547,14.4454701 C53.1504274,9.72923077 43.2834188,9.00854701 32.8441026,12.8451282 C31.6252991,13.2902564 30.4594872,13.7883761 29.3360684,14.3076923 L41.9586325,19.1935043 L54.888547,14.4454701 Z" id="Shape" fill="#9B9B9B" fill-rule="nonzero"></path>
                    <path d="M17.0738462,28.3398291 L41.9586325,19.1935043 L29.3360684,14.3076923 C20.8680342,18.271453 15.537094,24.1747009 17.0738462,28.3398291 Z" id="Shape" fill="#8B8D8F" fill-rule="nonzero"></path>
                    <g id="Group" opacity="0.55" transform="translate(51.189744, 95.490598)" fill="#999999" fill-rule="nonzero">
                        <polygon id="Shape" points="71.0297436 15.9292308 0.0847863248 14.2017094 16.7664957 0.0953846154 73.0964103 0.402735043"></polygon>
                    </g>
                    <polygon id="Shape" fill="#FFFFFF" fill-rule="nonzero" points="121.339829 110.540171 50.3948718 108.802051 67.7866667 95.4164103 124.116581 95.7237607"></polygon>
                    <polygon id="Shape" fill="#BFBFBF" fill-rule="nonzero" points="118.626667 95.808547 82.8786325 79.5613675 82.2109402 67.9986325 117.969573 84.245812"></polygon>
                    <polygon id="Shape" fill="#8B8D8F" fill-rule="nonzero" points="82.2639316 68.0304274 79.2964103 73.6369231 79.9535043 85.1890598 82.9316239 79.5825641"></polygon>
                    <polygon id="Shape" fill="#C9C9C9" fill-rule="nonzero" points="118.573675 95.7555556 115.595556 101.362051 79.9535043 85.1890598 82.9316239 79.5825641"></polygon>
                    <polygon id="Shape" fill="#BFBFBF" fill-rule="nonzero" points="108.558291 85.0406838 94.9606838 78.8618803 94.7063248 74.4635897 108.303932 80.6423932"></polygon>
                    <polygon id="Shape" fill="#8B8D8F" fill-rule="nonzero" points="94.7275214 74.474188 93.6041026 76.6044444 93.8478632 81.002735 94.9818803 78.8724786"></polygon>
                    <polygon id="Shape" fill="#C9C9C9" fill-rule="nonzero" points="108.526496 85.0194872 107.403077 87.1497436 93.8478632 81.002735 94.9818803 78.8724786"></polygon>
                    <path d="M116.581197,59.5305983 C116.581197,59.5305983 106.067692,66.7692308 106.915556,81.8717949 L96.3384615,77.3887179 C108.452308,67.9562393 106.915556,55.217094 106.915556,55.217094 C106.936752,55.2912821 116.581197,59.5305983 116.581197,59.5305983 Z" id="Shape" fill="#BBBBBB" fill-rule="nonzero"></path>
                    <path d="M116.581197,59.5305983 L114.599316,58.7039316 C114.599316,58.7039316 104.085812,65.9319658 104.933675,81.0345299 L106.915556,81.8717949 C106.067692,66.7692308 116.581197,59.5305983 116.581197,59.5305983 Z" id="Shape" fill="#AAAAAA" fill-rule="nonzero"></path>
                    <path d="M114.927863,40.3158974 C120.661538,42.1388034 123.830427,48.2540171 122.01812,53.9876923 C120.58735,58.5131624 116.379829,61.5866667 111.642393,61.5866667 C111.483419,61.5866667 111.313846,61.5866667 111.154872,61.5760684 C116.888547,63.3989744 123.014359,60.2194872 124.826667,54.485812 C126.649573,48.7521368 123.470085,42.6263248 117.73641,40.8140171 C116.824957,40.5278632 115.881709,40.3582906 114.927863,40.3158974 Z" id="Shape" fill="#AAAAAA" fill-rule="nonzero"></path>
                    <path d="M114.927863,40.3158974 C114.768889,40.3052991 114.599316,40.3052991 114.440342,40.3052991 C113.921026,40.3052991 113.412308,40.337094 112.90359,40.4112821 C118.584274,42.3825641 121.58359,48.5931624 119.612308,54.2738462 C118.276923,58.1210256 114.896068,60.9083761 110.85812,61.4806838 C110.953504,61.5124786 111.048889,61.5442735 111.144274,61.5760684 C111.303248,61.5866667 111.462222,61.5866667 111.631795,61.5866667 C117.651624,61.5866667 122.526838,56.711453 122.516239,50.6916239 C122.526838,45.954188 119.453333,41.7466667 114.927863,40.3158974 Z" id="Shape" fill="#B3B3B3" fill-rule="nonzero"></path>
                    <path d="M120.21641,50.7022222 C120.21641,46.0707692 117.280684,41.9480342 112.90359,40.4218803 C106.94735,41.2697436 102.814017,46.7808547 103.651282,52.737094 C104.22359,56.7750427 107.000342,60.1452991 110.85812,61.4912821 C116.231453,60.7282051 120.21641,56.128547 120.21641,50.7022222 Z" id="Shape" fill="#BBBBBB" fill-rule="nonzero"></path>
                    <g id="hull" transform="translate(68.041026, 105.452991)" fill="#0073A9" fill-rule="nonzero">
                        <polygon id="Shape" points="0.052991453 0.0211965812 38.365812 0.667692308 12.8239316 1.78051282"></polygon>
                    </g>
                    <g id="mainsail" transform="translate(68.570940, 99.729915)" fill="#0073A9" fill-rule="nonzero">
                        <polygon id="Shape" points="0.0105982906 5.25675214 14.3500855 5.00239316 18.4516239 0.0105982906"></polygon>
                    </g>
                    <g id="headsail" transform="translate(85.210256, 96.444444)" fill="#0073A9" fill-rule="nonzero">
                        <polygon id="Shape" points="0.0635897436 8.31965812 21.4509402 9.16752137 6.59213675 0.0635897436"></polygon>
                    </g>
                    <path d="M107.424274,98.4475214 C108.113162,98.6806838 108.62188,98.9562393 108.950427,99.2847863 C109.321368,99.6557265 109.395556,100.047863 109.130598,100.44 C108.833846,100.885128 108.166154,101.277265 107.095726,101.595214 C105.940513,101.934359 104.520342,102.125128 102.92,102.125128 C101.319658,102.125128 99.8994872,101.944957 98.7442735,101.595214 C97.6738462,101.277265 97.0061538,100.885128 96.7094017,100.44 C96.4444444,100.037265 96.5186325,99.6557265 96.8895726,99.2847863 C97.2181197,98.9562393 97.7374359,98.6700855 98.4157265,98.4475214 C99.1046154,98.2249573 99.8252991,98.0659829 100.545983,97.9705983 C102.125128,97.7692308 103.714872,97.7692308 105.294017,97.9705983 C106.025299,98.0659829 106.735385,98.2249573 107.424274,98.4475214 Z M107.095726,100.06906 C107.350085,99.8147009 107.38188,99.5497436 107.201709,99.2953846 C107.032137,99.0516239 106.714188,98.8502564 106.247863,98.6806838 C105.749744,98.5005128 105.241026,98.3733333 104.721709,98.3097436 C103.534701,98.1401709 102.326496,98.1401709 101.139487,98.3097436 C100.620171,98.3839316 100.100855,98.5111111 99.6133333,98.6912821 C99.1576068,98.871453 98.8290598,99.0728205 98.6594872,99.3059829 C98.4793162,99.5709402 98.5005128,99.8252991 98.7654701,100.079658 C99.0410256,100.355214 99.5391453,100.598974 100.270427,100.779145 C102.019145,101.171282 103.842051,101.171282 105.590769,100.779145 C106.311453,100.577778 106.809573,100.344615 107.095726,100.06906 Z M105.982906,99.0834188 L102.750427,100.281026 C102.61265,100.323419 102.474872,100.344615 102.337094,100.344615 C102.199316,100.344615 102.061538,100.323419 101.934359,100.281026 L99.7087179,99.4013675 C99.6239316,99.3695726 99.5921368,99.3271795 99.6239316,99.2847863 C99.6557265,99.2423932 99.7193162,99.2 99.8358974,99.1788034 L100.715556,98.9350427 C100.832137,98.9032479 100.948718,98.8926496 101.065299,98.8926496 C101.171282,98.8926496 101.277265,98.9032479 101.383248,98.9350427 L102.443077,99.2847863 L104.424957,98.6700855 C104.520342,98.6382906 104.626325,98.6276923 104.732308,98.6276923 C104.838291,98.6276923 104.954872,98.6382906 105.060855,98.6700855 L105.887521,98.8820513 C105.993504,98.9138462 106.057094,98.945641 106.078291,98.9880342 C106.099487,99.0304274 106.067692,99.0516239 105.982906,99.0834188 Z" id="Shape" fill="#64A34D" fill-rule="nonzero"></path>
                </g>
            </g>
        </g>
    </g>
</svg>