<?xml version="1.0" encoding="UTF-8"?>
<svg width="116px" height="126px" viewBox="0 0 116 126" version="1.1" xmlns="http://www.w3.org/2000/svg" xmlns:xlink="http://www.w3.org/1999/xlink">
    <!-- Generator: Sketch 52.2 (67145) - http://www.bohemiancoding.com/sketch -->
    <title>Group 46</title>
    <desc>Created with Sketch.</desc>
    <g id="Welcome" stroke="none" stroke-width="1" fill="none" fill-rule="evenodd">
        <g id="Group-46">
            <rect id="Rectangle-Copy-7" fill="#FFFFFF" fill-rule="nonzero" x="0" y="0" width="116" height="126"></rect>
            <g id="Group-40" transform="translate(0.000000, 9.000000)">
                <g id="tracing">
                    <g id="Group">
                        <rect id="Rectangle" fill="#43BEE7" x="21.8346715" y="41.0974453" width="31.3284672" height="19.0193431"></rect>
                        <path d="M25.6448905,52.4328467 C31.7729927,49.5857664 38.7160584,47.6806569 46.2835766,47.7970803 C62.3288321,41.5843066 75.9609489,31.2014599 91.709854,29.1481752 C97.8591241,28.3437956 103.64854,28.9364964 108.982847,30.3970803 C99.150365,12.3408759 80.0145985,0.0846715328 58.0211679,0.0846715328 C29.3492701,0.0846715328 5.53540146,20.9032847 0.878467153,48.2416058 C10.0018248,51.649635 18.1620438,52.7821168 25.6448905,52.4328467 Z" id="Path" fill="#0093DD"></path>
                        <path d="M46.2941606,47.7864964 C39.8908759,50.2631387 33.1065693,52.0729927 25.6554745,52.4222628 C14.4047445,57.6507299 5.93759124,66.0543796 1.48175182,70.9229927 C1.52408759,71.1135036 1.56642336,71.2934307 1.60875912,71.4839416 C9.48321168,67.430292 18.85,64.8054745 29.2328467,66.160219 C54.4543796,69.4518248 74.2781022,94.1335766 107.215328,88.7357664 C110.591606,83.3379562 113.04708,77.4215328 114.486496,71.229927 C89.8259124,68.869708 72.4153285,50.9087591 51.1627737,48.1463504 C49.5434307,47.9346715 47.9240876,47.8182482 46.2941606,47.7864964 Z" id="Path" fill="#43BEE7"></path>
                        <path d="M29.2328467,66.1708029 C18.85,64.8160584 9.48321168,67.4408759 1.60875912,71.4945255 C7.66277372,97.0335766 30.6193431,116.042336 58.0211679,116.042336 C78.7762774,116.042336 96.970073,105.140876 107.215328,88.7569343 C74.2781022,94.1335766 54.4543796,69.4518248 29.2328467,66.1708029 Z" id="Path" fill="#D7F7FF"></path>
                        <g transform="translate(0.000000, 28.682482)" fill="#1CADE2" id="Path">
                            <path d="M25.6448905,23.750365 C18.1620438,24.099635 9.99124088,22.9777372 0.867883212,19.569708 C-0.412773723,27.0948905 -0.211678832,34.8 1.47116788,42.2510949 C5.93759124,37.3824818 14.4047445,28.9788321 25.6448905,23.750365 Z"></path>
                            <path d="M108.972263,1.7040146 C103.637956,0.243430657 97.8485401,-0.338686131 91.6992701,0.455109489 C75.9609489,2.5189781 62.3288321,12.9018248 46.2941606,19.1040146 C47.9240876,19.1251825 49.5434307,19.2521898 51.1627737,19.4532847 C72.4153285,22.2368613 89.8259124,40.1872263 114.486496,42.5474453 C117.693431,28.7248175 115.735401,14.1930657 108.972263,1.7040146 Z"></path>
                        </g>
                    </g>
                    <path d="M36.5675182,104.040146 L43.2565693,107.860949 C43.8069343,108.178467 44.0080292,108.887591 43.6905109,109.44854 L41.0868613,113.978467 C40.7693431,114.528832 40.060219,114.729927 39.4992701,114.412409 L32.8208029,110.581022 C32.270438,110.263504 32.0693431,109.55438 32.3868613,108.993431 L34.9905109,104.463504 C35.2974453,103.923723 36.0171533,103.722628 36.5675182,104.040146 Z" id="Path" fill="#DA8E8D"></path>
                    <g id="Group" transform="translate(14.500000, 14.500000)">
                        <rect id="Rectangle" fill="#FFFFFF" x="0.179927007" y="0.391605839" width="86.2379562" height="86.6824818"></rect>
                        <rect id="Rectangle" fill="#D1D1D1" x="0.391605839" y="0.391605839" width="86.1956204" height="6.41386861"></rect>
                        <path d="M0.391605839,86.9788321 L0.391605839,0.635036496 C0.391605839,0.613868613 0.412773723,0.59270073 0.433941606,0.59270073 L6.75255474,0.59270073 C6.77372263,0.59270073 6.79489051,0.613868613 6.79489051,0.635036496 L6.79489051,86.9788321 C6.79489051,87 6.77372263,87.0211679 6.75255474,87.0211679 L0.433941606,87.0211679 C0.412773723,87.0317518 0.391605839,87.0105839 0.391605839,86.9788321 Z" id="Path" fill="#D1D1D1" opacity="0.6"></path>
                        <path d="M86.2591241,0.391605839 L86.2591241,87.0423358 L0.391605839,87.0423358 L0.391605839,0.391605839 L86.2591241,0.391605839 Z M86.5766423,0.0740875912 L0.0635036496,0.0740875912 L0.0635036496,87.3492701 L86.5766423,87.3492701 L86.5766423,0.0740875912 Z" id="Shape" fill="#D1D1D1" fill-rule="nonzero"></path>
                        <g transform="translate(6.773723, 0.317518)" id="Rectangle">
                            <rect fill="#D1D1D1" opacity="0.6" x="0.0432298137" y="6.49854015" width="1" height="80.5332117"></rect>
                            <rect fill="#828282" x="0.0432298137" y="0.0740875912" width="1" height="6.42445255"></rect>
                        </g>
                        <rect id="Rectangle" fill="#D1D1D1" opacity="0.6" x="30.4605839" y="6.80547445" width="1" height="80.5332117"></rect>
                        <rect id="Rectangle" fill="#828282" x="30.4605839" y="0.391605839" width="1" height="6.41386861"></rect>
                        <g transform="translate(54.083942, 0.317518)" id="Rectangle">
                            <rect fill="#D1D1D1" opacity="0.6" x="0.0432298137" y="6.4879562" width="1" height="80.5332117"></rect>
                            <rect fill="#828282" x="0.0432298137" y="0.0740875912" width="1" height="6.41386861"></rect>
                        </g>
                        <g transform="translate(77.686131, 0.317518)" id="Rectangle">
                            <rect fill="#D1D1D1" opacity="0.6" x="0.100869565" y="6.4879562" width="1" height="80.5437956"></rect>
                            <rect fill="#828282" x="0.100869565" y="0.0740875912" width="1" height="6.41386861"></rect>
                        </g>
                        <path d="M26.2905109,39.2981752 L65.6416058,39.2981752 C66.2660584,39.2981752 66.7740876,38.790146 66.7740876,38.1656934 L25.1474453,38.1656934 C25.1580292,38.790146 25.6660584,39.2981752 26.2905109,39.2981752 Z" id="Path" fill="#2EAACC"></path>
                        <path d="M65.6521898,28.2379562 L26.3010949,28.2379562 C25.6766423,28.2379562 25.1686131,28.7459854 25.1686131,29.370438 L25.1686131,38.1656934 L66.7952555,38.1656934 L66.7952555,29.370438 C66.7846715,28.7459854 66.2766423,28.2379562 65.6521898,28.2379562 Z" id="Path" fill="#43BEE7"></path>
                        <path d="M13.6744526,77.4638686 L71.7591241,77.4638686 C72.5211679,77.4638686 73.1350365,76.8394161 73.1350365,76.0879562 L12.2985401,76.0879562 C12.2985401,76.8394161 12.9229927,77.4638686 13.6744526,77.4638686 Z" id="Path" fill="#169BBF"></path>
                        <path d="M71.7591241,66.4036496 L13.6744526,66.4036496 C12.9124088,66.4036496 12.2985401,67.0281022 12.2985401,67.779562 L12.2985401,76.0985401 L73.1244526,76.0985401 L73.1244526,67.779562 C73.1244526,67.0175182 72.5105839,66.4036496 71.7591241,66.4036496 Z" id="Path" fill="#1CADE2"></path>
                        <rect id="Rectangle" fill="#BABABA" x="40.5470803" y="46.5164234" width="1.54525547" height="1.23832117"></rect>
                        <rect id="Rectangle" fill="#BABABA" x="37.9010949" y="46.5164234" width="1.54525547" height="1.23832117"></rect>
                        <rect id="Rectangle" fill="#BABABA" x="35.2445255" y="46.5164234" width="1.54525547" height="1.23832117"></rect>
                        <rect id="Rectangle" fill="#BABABA" x="43.2036496" y="46.5164234" width="1.54525547" height="1.23832117"></rect>
                        <rect id="Rectangle" fill="#BABABA" x="48.5062044" y="46.5164234" width="1.54525547" height="1.23832117"></rect>
                        <rect id="Rectangle" fill="#BABABA" x="45.849635" y="46.5164234" width="1.54525547" height="1.23832117"></rect>
                        <rect id="Rectangle" fill="#BABABA" x="51.1521898" y="46.5164234" width="1.54525547" height="1.23832117"></rect>
                        <rect id="Rectangle" fill="#BABABA" x="61.7572993" y="46.5164234" width="1.54525547" height="1.23832117"></rect>
                        <rect id="Rectangle" fill="#BABABA" x="53.8087591" y="46.5164234" width="1.54525547" height="1.23832117"></rect>
                        <rect id="Rectangle" fill="#BABABA" x="59.1113139" y="46.5164234" width="1.54525547" height="1.23832117"></rect>
                        <rect id="Rectangle" fill="#BABABA" x="56.4653285" y="46.5164234" width="1.54525547" height="1.23832117"></rect>
                        <path d="M33.529927,46.5164234 L33.1912409,46.5164234 C32.8631387,46.5164234 32.5879562,46.7916058 32.5879562,47.119708 L32.5879562,47.1408759 L32.5879562,47.7441606 L33.1912409,47.7441606 L33.529927,47.7441606 L34.1332117,47.7441606 L34.1332117,47.1408759 L34.1332117,47.119708 L34.1332117,46.5164234 L33.529927,46.5164234 Z" id="Path" fill="#BABABA"></path>
                        <path d="M65.0171533,46.5164234 L65.3558394,46.5164234 C65.6839416,46.5164234 65.9591241,46.7916058 65.9591241,47.119708 L65.9591241,47.1408759 L65.9591241,47.7441606 L65.3558394,47.7441606 L65.0171533,47.7441606 L64.4138686,47.7441606 L64.4138686,47.1408759 L64.4138686,47.119708 L64.4138686,46.5164234 L65.0171533,46.5164234 Z" id="Path" fill="#BABABA"></path>
                        <rect id="Rectangle" fill="#BABABA" x="32.5879562" y="48.5062044" width="1.23832117" height="1.54525547"></rect>
                        <rect id="Rectangle" fill="#BABABA" x="64.7208029" y="48.5062044" width="1.23832117" height="1.54525547"></rect>
                        <rect id="Rectangle" fill="#BABABA" x="40.5470803" y="56.3489051" width="1.54525547" height="1.23832117"></rect>
                        <rect id="Rectangle" fill="#BABABA" x="37.9010949" y="56.3489051" width="1.54525547" height="1.23832117"></rect>
                        <rect id="Rectangle" fill="#BABABA" x="35.2445255" y="56.3489051" width="1.54525547" height="1.23832117"></rect>
                        <rect id="Rectangle" fill="#BABABA" x="43.2036496" y="56.3489051" width="1.54525547" height="1.23832117"></rect>
                        <rect id="Rectangle" fill="#BABABA" x="48.5062044" y="56.3489051" width="1.54525547" height="1.23832117"></rect>
                        <rect id="Rectangle" fill="#BABABA" x="45.849635" y="56.3489051" width="1.54525547" height="1.23832117"></rect>
                        <rect id="Rectangle" fill="#BABABA" x="51.1521898" y="56.3489051" width="1.54525547" height="1.23832117"></rect>
                        <rect id="Rectangle" fill="#BABABA" x="61.7572993" y="56.3489051" width="1.54525547" height="1.23832117"></rect>
                        <rect id="Rectangle" fill="#BABABA" x="53.8087591" y="56.3489051" width="1.54525547" height="1.23832117"></rect>
                        <rect id="Rectangle" fill="#BABABA" x="59.1113139" y="56.3489051" width="1.54525547" height="1.23832117"></rect>
                        <rect id="Rectangle" fill="#BABABA" x="56.4653285" y="56.3489051" width="1.54525547" height="1.23832117"></rect>
                        <path d="M33.529927,57.5766423 L33.1912409,57.5766423 C32.8631387,57.5766423 32.5879562,57.3014599 32.5879562,56.9733577 L32.5879562,56.9521898 L32.5879562,56.3489051 L33.1912409,56.3489051 L33.529927,56.3489051 L34.1332117,56.3489051 L34.1332117,56.9521898 L34.1332117,56.9733577 L34.1332117,57.5766423 L33.529927,57.5766423 Z" id="Path" fill="#BABABA"></path>
                        <path d="M65.0171533,57.5766423 L65.3558394,57.5766423 C65.6839416,57.5766423 65.9591241,57.3014599 65.9591241,56.9733577 L65.9591241,56.9521898 L65.9591241,56.3489051 L65.3558394,56.3489051 L65.0171533,56.3489051 L64.4138686,56.3489051 L64.4138686,56.9521898 L64.4138686,56.9733577 L64.4138686,57.5766423 L65.0171533,57.5766423 Z" id="Path" fill="#BABABA"></path>
                        <rect id="Rectangle" fill="#BABABA" x="32.5879562" y="54.0521898" width="1.23832117" height="1.54525547"></rect>
                        <rect id="Rectangle" fill="#BABABA" x="32.5879562" y="51.2791971" width="1.23832117" height="1.54525547"></rect>
                        <rect id="Rectangle" fill="#BABABA" x="64.7208029" y="54.0521898" width="1.23832117" height="1.54525547"></rect>
                        <rect id="Rectangle" fill="#BABABA" x="64.7208029" y="51.2791971" width="1.23832117" height="1.54525547"></rect>
                        <rect id="Rectangle" fill="#BABABA" x="30.270073" y="51.2791971" width="1.23832117" height="1.54525547"></rect>
                        <rect id="Rectangle" fill="#BABABA" x="28.0156934" y="51.2791971" width="1.23832117" height="1.54525547"></rect>
                        <rect id="Rectangle" fill="#BABABA" x="25.7507299" y="51.2791971" width="1.23832117" height="1.54525547"></rect>
                        <rect id="Rectangle" fill="#BABABA" x="71.3886861" y="51.2791971" width="1.23832117" height="1.54525547"></rect>
                        <rect id="Rectangle" fill="#BABABA" x="73.8759124" y="51.2791971" width="1.23832117" height="1.54525547"></rect>
                        <rect id="Rectangle" fill="#BABABA" x="69.1237226" y="51.2791971" width="1.23832117" height="1.54525547"></rect>
                        <rect id="Rectangle" fill="#BABABA" x="66.8693431" y="51.2791971" width="1.23832117" height="1.54525547"></rect>
                        <rect id="Rectangle" fill="#BABABA" x="23.4963504" y="51.2791971" width="1.23832117" height="1.54525547"></rect>
                        <rect id="Rectangle" fill="#BABABA" x="21.2208029" y="51.2791971" width="1.23832117" height="1.54525547"></rect>
                        <rect id="Rectangle" fill="#BABABA" x="18.9664234" y="51.2791971" width="1.23832117" height="1.54525547"></rect>
                        <rect id="Rectangle" fill="#BABABA" x="16.7014599" y="51.2791971" width="1.23832117" height="1.54525547"></rect>
                        <rect id="Rectangle" fill="#BABABA" x="14.4470803" y="51.2791971" width="1.23832117" height="1.54525547"></rect>
                        <rect id="Rectangle" fill="#BABABA" x="12.1821168" y="51.2791971" width="1.23832117" height="1.54525547"></rect>
                        <rect id="Rectangle" fill="#BABABA" x="9.92773723" y="51.2791971" width="1.23832117" height="1.54525547"></rect>
                        <path d="M8.80583942,53.4806569 L6.24452555,53.4806569 C6.07518248,53.4806569 5.9270073,53.3430657 5.9270073,53.1631387 L5.9270073,50.6018248 C5.9270073,50.4324818 6.06459854,50.2843066 6.24452555,50.2843066 L8.80583942,50.2843066 C8.97518248,50.2843066 9.12335766,50.4218978 9.12335766,50.6018248 L9.12335766,53.1631387 C9.12335766,53.3430657 8.97518248,53.4806569 8.80583942,53.4806569 Z" id="Path" fill="#BABABA"></path>
                        <path d="M79.1467153,53.4806569 L76.5854015,53.4806569 C76.4160584,53.4806569 76.2678832,53.3430657 76.2678832,53.1631387 L76.2678832,50.6018248 C76.2678832,50.4324818 76.4054745,50.2843066 76.5854015,50.2843066 L79.1467153,50.2843066 C79.3160584,50.2843066 79.4642336,50.4218978 79.4642336,50.6018248 L79.4642336,53.1631387 C79.4642336,53.3430657 79.3266423,53.4806569 79.1467153,53.4806569 Z" id="Path" fill="#BABABA"></path>
                        <path d="M35.6572993,55.2164234 L62.900365,55.2164234 C63.2919708,55.2164234 63.6094891,54.8989051 63.6094891,54.5072993 L34.9375912,54.5072993 C34.9375912,54.8989051 35.2551095,55.2164234 35.6572993,55.2164234 Z" id="Path" fill="#B2E5ED"></path>
                        <path d="M62.900365,48.8872263 L35.6572993,48.8872263 C35.2656934,48.8872263 34.9481752,49.2047445 34.9481752,49.5963504 L34.9481752,54.5072993 L63.6094891,54.5072993 L63.6094891,49.5963504 C63.6094891,49.2047445 63.2919708,48.8872263 62.900365,48.8872263 Z" id="Path" fill="#D7F7FF"></path>
                        <polygon id="Path" fill="#3D3D3D" points="46.8127737 53.8616788 47.9346715 53.5229927 48.4109489 54.8354015 48.3051095 51.4591241 45.5744526 52.9620438 46.6857664 53.0361314"></polygon>
                        <polygon id="Path" fill="#E7A980" points="47.0985401 60.180292 47.3737226 63.1649635 48.5908759 61.0481752 48.4532847 56.2642336 48.4109489 54.8354015 47.9558394 53.5653285 47.0244526 59.5135036"></polygon>
                        <polygon id="Path" fill="#E29663" points="46.4105839 59.7992701 47.0244526 59.5135036 47.9558394 53.5653285 47.9346715 53.5229927 46.8127737 53.8616788 43.4364964 61.1963504"></polygon>
                        <polygon id="Path" fill="#D68C5B" points="42.5580292 57.5872263 43.4364964 61.1963504 43.4364964 61.1963504 46.8127737 53.8616788 46.8127737 53.8616788 46.6857664 53.0361314 42.3781022 56.8569343"></polygon>
                        <polygon id="Path" fill="#CF804B" points="41.7113139 57.100365 42.3781022 56.8040146 42.3781022 56.8569343 46.6857664 53.0361314 46.6857664 53.0361314 45.5744526 52.9620438 44.1032847 53.7558394 39.9014599 56.0737226 38.430292 58.6032847"></polygon>
                        <polygon id="Path" fill="#FFD268" points="30.2065693 93.159854 47.3737226 63.1649635 47.0985401 60.180292 47.0244526 59.5135036 46.950365 59.5558394 28.3120438 92.080292"></polygon>
                        <polygon id="Path" fill="#FFC335" points="28.3120438 92.080292 46.950365 59.5558394 46.4105839 59.7992701 43.4364964 61.1963504 43.4153285 61.1434307 26.3434307 90.9583942"></polygon>
                        <polygon id="Path" fill="#E2AF38" points="23.6656934 89.4237226 42.3357664 56.8251825 41.7113139 57.100365 38.430292 58.6032847 21.5065693 88.1854015"></polygon>
                        <polygon id="Path" fill="#EFB237" points="26.3434307 90.9583942 43.4153285 61.1434307 42.5580292 57.5872263 42.3781022 56.8040146 42.3357664 56.8251825 23.6656934 89.4237226"></polygon>
                        <polygon id="Rectangle" fill="#CCCCCC" transform="translate(24.857329, 92.402681) rotate(-60.204661) translate(-24.857329, -92.402681) " points="22.8675613 87.3912191 26.8470964 87.3912191 26.8470964 97.4141439 22.8675613 97.4141439"></polygon>
                        <polygon id="Path" points="7.64160584 18.0456204 7.64160584 18.0562044 86.2273723 18.0562044 86.2273723 18.0456204"></polygon>
                        <path d="M9.21861314,19.6332117 L86.2379562,19.6332117 L86.2379562,18.0562044 L7.64160584,18.0562044 C7.65218978,18.9346715 8.36131387,19.6332117 9.21861314,19.6332117 Z" id="Path" fill="#0B6EA0"></path>
                        <path d="M86.2379562,18.0456204 L86.2379562,8.5729927 L9.21861314,8.5729927 C8.35072993,8.5729927 7.6310219,9.28211679 7.6310219,10.1605839 L7.6310219,18.0562044 L7.64160584,18.0562044 L7.64160584,18.0456204 L86.2379562,18.0456204 Z" id="Path" fill="#0093DD"></path>
                        <path d="M3.48211679,19.569708 C3.14343066,19.569708 2.86824818,19.2945255 2.86824818,18.9558394 L2.86824818,9.18686131 C2.86824818,8.84817518 3.14343066,8.5729927 3.48211679,8.5729927 C3.82080292,8.5729927 4.0959854,8.84817518 4.0959854,9.18686131 L4.0959854,18.9558394 C4.0959854,19.2945255 3.82080292,19.569708 3.48211679,19.569708 Z" id="Path" fill="#0093DD"></path>
                        <path d="M3.48211679,39.3087591 C3.14343066,39.3087591 2.86824818,39.0335766 2.86824818,38.6948905 L2.86824818,28.9259124 C2.86824818,28.5872263 3.14343066,28.3120438 3.48211679,28.3120438 C3.82080292,28.3120438 4.0959854,28.5872263 4.0959854,28.9259124 L4.0959854,38.6948905 C4.0959854,39.0335766 3.82080292,39.3087591 3.48211679,39.3087591 Z" id="Path" fill="#43BEE7"></path>
                        <path d="M3.63029197,55.2164234 L3.33394161,55.2164234 C3.07992701,55.2164234 2.86824818,55.0047445 2.86824818,54.7507299 L2.86824818,49.3529197 C2.86824818,49.0989051 3.07992701,48.8872263 3.33394161,48.8872263 L3.63029197,48.8872263 C3.88430657,48.8872263 4.0959854,49.0989051 4.0959854,49.3529197 L4.0959854,54.7507299 C4.0959854,55.0047445 3.88430657,55.2164234 3.63029197,55.2164234 Z" id="Path" fill="#D7F7FF"></path>
                        <path d="M3.46094891,77.4638686 C3.12226277,77.4638686 2.84708029,77.1886861 2.84708029,76.85 L2.84708029,67.0175182 C2.84708029,66.6788321 3.12226277,66.4036496 3.46094891,66.4036496 C3.79963504,66.4036496 4.07481752,66.6788321 4.07481752,67.0175182 L4.07481752,76.85 C4.07481752,77.1886861 3.79963504,77.4638686 3.46094891,77.4638686 Z" id="Path" fill="#1CADE2"></path>
                    </g>
                </g>
            </g>
        </g>
    </g>
</svg>