<?xml version="1.0" encoding="utf-8"?>
<!-- Generator: Adobe Illustrator 23.0.4, SVG Export Plug-In . SVG Version: 6.00 Build 0)  -->
<svg version="1.1" id="Layer_1" xmlns="http://www.w3.org/2000/svg" xmlns:xlink="http://www.w3.org/1999/xlink" x="0px" y="0px"
	 viewBox="0 0 1096.9 1095.5" style="enable-background:new 0 0 1096.9 1095.5;" xml:space="preserve">
<style type="text/css">
	.st0{fill:#0093DD;}
	.st1{fill:#30AAE8;}
	.st2{fill:#8FD9FF;}
	.st3{fill:#5FC2F4;}
	.st4{opacity:0.4;}
	.st5{fill:#292E34;}
	.st6{fill:#D1D1D1;}
	.st7{fill:#FAFAFA;}
	.st8{fill:#4D5258;}
	.st9{fill:#EAEAEA;}
	.st10{fill-rule:evenodd;clip-rule:evenodd;fill:#3D3D3D;}
	.st11{fill-rule:evenodd;clip-rule:evenodd;fill:#E7A980;}
	.st12{fill-rule:evenodd;clip-rule:evenodd;fill:#E29663;}
	.st13{fill-rule:evenodd;clip-rule:evenodd;fill:#D68C5B;}
	.st14{fill-rule:evenodd;clip-rule:evenodd;fill:#CF804B;}
	.st15{fill-rule:evenodd;clip-rule:evenodd;fill:#FFD268;}
	.st16{fill-rule:evenodd;clip-rule:evenodd;fill:#FFC335;}
	.st17{fill-rule:evenodd;clip-rule:evenodd;fill:#E2AF38;}
	.st18{fill-rule:evenodd;clip-rule:evenodd;fill:#EFB237;}
	.st19{fill-rule:evenodd;clip-rule:evenodd;fill:#DA8E8D;}
	.st20{fill-rule:evenodd;clip-rule:evenodd;fill:#CCCCCC;}
</style>
<title>Asset 34</title>
<g>
	<path class="st0" d="M241.9,494.8c57.9-27,123.5-45,195-44c151.5-58.8,280.2-157,429-176.5c58.1-7.6,112.8-2.1,163.2,11.6
		C936.1,115.5,755.2-0.2,547.3,0C276.4,0.2,51.6,197.1,7.8,455.5C94,487.6,171.2,498.2,241.9,494.8z"/>
	<path class="st1" d="M241.9,494.8c-70.7,3.4-147.9-7.2-234.2-39.4c-12,71.1-10,143.9,5.9,214.3C55.7,623.7,135.7,544.3,241.9,494.8
		z"/>
	<path class="st2" d="M275.9,624.6c-98.2-12.7-186.6,12.1-261,50.5c57.4,241.3,274.5,420.7,533.3,420.5
		c196-0.2,368-103.3,464.6-258.2C701.6,888.5,514.2,655.5,275.9,624.6z"/>
	<path class="st3" d="M482.9,454.1c-15.3-2-30.6-3.1-46-3.3c-71.5-1-137.1,17-195,44c-106.2,49.5-186.2,128.9-228.3,175
		c0.4,1.8,0.8,3.5,1.2,5.3c74.4-38.4,162.8-63.2,261-50.5c238.3,30.9,425.8,263.9,736.9,212.7c31.8-51,55-106.9,68.6-165.5
		C848.4,649.7,683.7,480.2,482.9,454.1z"/>
	<path class="st1" d="M1029,286c-50.4-13.7-105.1-19.2-163.2-11.6c-148.7,19.5-277.4,117.7-428.9,176.5c15.4,0.2,30.7,1.3,46,3.3
		c200.8,26,365.5,195.6,598.5,217.7C1111.6,541.1,1092.9,403.9,1029,286z"/>
</g>
<g class="st4">
	<path class="st5" d="M968.9,163.2L288,163.8h-58.9l-83.5,0.1c-15.5,0-28.1,14.5-28.1,32.4l0.5,630.1c0,17.8,12.6,32.3,28.1,32.3
		l83.5-0.1h58.9h12.7l668.2-0.5c14.8,0,26.9-13.2,28-30c0.1-0.1,0.1-0.3,0.1-0.4v-2l-0.1-79.3l-0.3-357.1L997,195.5
		C997,177.7,984.4,163.2,968.9,163.2z"/>
</g>
<path class="st6" d="M213.2,146.4l-83.5,0.1c-15.5,0-28.1,14.5-28.1,32.4l0.5,630.1c0,17.8,12.6,32.3,28.1,32.3l83.5-0.1h58.9
	l-0.5-694.7L213.2,146.4z"/>
<path class="st7" d="M953,145.8l-680.8,0.5l0.5,694.7h12.7l668.2-0.5c15.5,0,28.1-14.5,28.1-32.3l-0.3-436.4l-0.2-193.7
	C981.1,160.2,968.5,145.8,953,145.8z"/>
<path class="st8" d="M197.6,193.1c0.1,4.4-0.6,8.8-2.1,12.9c-1.1,3.1-3.2,5.8-6,7.7c-2.9,1.7-6.2,2.6-9.6,2.5
	c-1.8,0-3.6-0.2-5.3-0.7v-2.3c0.9,0.3,1.9,0.5,2.9,0.6c0.8,0.1,1.7,0.2,2.5,0.2c4.1,0.2,8.1-1.6,10.6-4.8c2.6-3.2,4-7.9,4.3-14h-0.3
	c-1.3,1.7-2.9,3-4.8,4c-1.8,0.9-3.8,1.4-5.8,1.4c-3.7,0-6.6-1-8.7-3s-3.1-4.8-3.1-8.5c-0.2-3.5,1.1-6.9,3.4-9.5
	c2.3-2.4,5.5-3.8,8.9-3.6c2.5-0.1,4.9,0.6,6.9,2c2.1,1.5,3.7,3.5,4.6,5.9C197.1,186.8,197.7,190,197.6,193.1z M184.5,178.3
	c-2.6-0.1-5.2,0.9-6.9,2.9c-1.8,2.2-2.7,5-2.6,7.8c0,3.1,0.8,5.5,2.4,7.1s3.9,2.4,6.8,2.4c1.8,0,3.6-0.4,5.2-1.2
	c1.5-0.7,2.8-1.8,3.8-3.2c0.9-1.2,1.4-2.6,1.4-4.1c0-2-0.4-4-1.3-5.9c-0.8-1.7-2-3.2-3.6-4.3C188.2,178.8,186.3,178.2,184.5,178.3
	L184.5,178.3z"/>
<path class="st8" d="M217.2,175.8c3-0.2,5.9,0.7,8.2,2.5c2.1,1.7,3.2,4.2,3.1,6.9c0,1.9-0.7,3.8-1.9,5.3c-1.8,1.9-3.9,3.3-6.3,4.3
	c3.5,1.4,6,2.9,7.4,4.6c1.4,1.7,2.2,3.9,2.1,6.1c0.1,3-1.2,5.8-3.5,7.8c-2.3,1.9-5.4,2.9-9.3,2.9c-4,0-7.2-0.9-9.3-2.7
	c-2.2-1.8-3.2-4.4-3.2-7.9c0-2.3,0.8-4.5,2.3-6.2c2-2.1,4.4-3.6,7.1-4.5c-2.4-0.9-4.5-2.4-6.2-4.3c-2.3-3-2.4-7.2-0.4-10.4
	c1-1.5,2.4-2.6,4.1-3.3C213.2,176.2,215.2,175.8,217.2,175.8z M207.4,206c-0.1,2.2,0.9,4.3,2.6,5.7c1.7,1.4,4.1,2,7.2,2
	c2.6,0.1,5.1-0.6,7.2-2.2c1.8-1.4,2.8-3.6,2.7-5.9c0.1-2-0.7-4-2.2-5.4c-1.4-1.4-4.2-2.8-8.3-4.4c-3.4,1.3-5.8,2.7-7.2,4.2
	C208,201.8,207.3,203.9,207.4,206z M217.1,178.2c-2.2-0.1-4.4,0.5-6.2,1.9c-1.6,1.2-2.4,3.1-2.4,5.1c0,1.2,0.3,2.3,0.9,3.3
	c0.6,1,1.5,1.9,2.5,2.6c1.7,1.1,3.6,2,5.5,2.7c2.4-0.8,4.6-2,6.4-3.7c1.3-1.3,2-3.1,1.9-4.9c0.1-2-0.8-3.9-2.3-5.1
	C221.7,178.7,219.4,178.1,217.1,178.2L217.1,178.2z"/>
<path class="st8" d="M197.6,276.4c0.1,4.4-0.6,8.8-2.1,12.9c-1.1,3.1-3.2,5.8-6,7.7c-2.9,1.7-6.2,2.6-9.6,2.5
	c-1.8,0-3.6-0.2-5.3-0.7v-2.3c0.9,0.3,1.9,0.5,2.8,0.6c0.8,0.1,1.7,0.2,2.5,0.2c4.1,0.2,8.1-1.6,10.6-4.8c2.6-3.2,4-7.9,4.3-14h-0.3
	c-1.3,1.7-2.9,3-4.8,4c-1.8,0.9-3.8,1.4-5.8,1.4c-3.7,0-6.6-1-8.7-3s-3.1-4.8-3.1-8.5c-0.2-3.5,1.1-6.9,3.4-9.5
	c2.3-2.4,5.5-3.8,8.9-3.6c2.5-0.1,4.9,0.6,6.9,2c2.1,1.5,3.6,3.6,4.5,5.9C197.1,270.1,197.7,273.2,197.6,276.4z M184.5,261.5
	c-2.6-0.1-5.2,0.9-6.9,2.9c-1.8,2.2-2.7,5-2.6,7.8c0,3.1,0.8,5.5,2.4,7.1s3.9,2.4,6.9,2.4c1.8,0,3.6-0.4,5.2-1.2
	c1.5-0.7,2.8-1.8,3.8-3.2c0.9-1.2,1.4-2.6,1.4-4.1c0-2-0.4-4-1.3-5.9c-0.8-1.7-2-3.2-3.6-4.3C188.2,262,186.4,261.5,184.5,261.5
	L184.5,261.5z"/>
<path class="st8" d="M229.8,276.4c0.1,4.4-0.6,8.8-2.1,12.9c-1.1,3.1-3.2,5.8-6,7.7c-2.9,1.7-6.2,2.6-9.6,2.5
	c-1.8,0-3.6-0.2-5.3-0.7v-2.3c0.9,0.3,1.9,0.5,2.9,0.6c0.8,0.1,1.7,0.2,2.5,0.2c4.1,0.2,8.1-1.6,10.6-4.8c2.6-3.2,4-7.8,4.3-14h-0.3
	c-1.3,1.7-2.9,3-4.8,4c-1.8,0.9-3.8,1.4-5.8,1.4c-3.7,0-6.6-1-8.7-3c-2.1-2-3.1-4.8-3.1-8.5c-0.2-3.5,1.1-6.9,3.4-9.5
	c2.3-2.4,5.5-3.8,8.9-3.7c2.5-0.1,4.9,0.6,6.9,2c2.1,1.5,3.7,3.5,4.6,5.9C229.3,270,229.8,273.2,229.8,276.4z M216.6,261.5
	c-2.6-0.1-5.1,0.9-6.9,2.9c-1.8,2.2-2.7,5-2.6,7.8c0,3.1,0.8,5.5,2.4,7.1c1.6,1.6,3.9,2.4,6.8,2.4c1.8,0,3.6-0.4,5.2-1.2
	c1.5-0.7,2.8-1.8,3.8-3.2c0.9-1.2,1.4-2.6,1.4-4.1c0-2-0.4-4-1.3-5.9c-0.8-1.7-2-3.2-3.6-4.3C220.4,262,218.5,261.4,216.6,261.5z"/>
<path class="st8" d="M155.9,382.2h-2.7v-28.5c0-2.6,0.1-5.3,0.3-8.1c-0.3,0.3-0.6,0.5-0.9,0.8s-3.1,2.4-8.5,6.5l-1.6-1.9l10.9-8h2.4
	L155.9,382.2z"/>
<path class="st8" d="M198.2,362.5c0,6.9-1.1,12-3.2,15.3c-2.1,3.3-5.4,5-9.8,5c-3.9,0.2-7.6-1.8-9.6-5.1c-2.2-3.4-3.3-8.4-3.3-15.1
	c0-6.8,1.1-11.9,3.2-15.2s5.3-4.9,9.7-4.9c3.9-0.2,7.6,1.8,9.7,5.1C197.1,350.9,198.2,355.9,198.2,362.5z M175.4,362.5
	c0,6.1,0.8,10.6,2.5,13.5c2.3,4.1,7.5,5.6,11.7,3.3c1.4-0.8,2.6-2,3.3-3.4c1.6-3,2.4-7.4,2.4-13.3s-0.8-10.3-2.4-13.2
	c-1.4-2.9-4.4-4.7-7.6-4.5c-3.2-0.2-6.2,1.6-7.5,4.5C176.1,352.3,175.4,356.7,175.4,362.5L175.4,362.5z"/>
<path class="st8" d="M230.4,362.5c0,6.9-1.1,12-3.2,15.3c-2.1,3.3-5.4,5-9.8,5c-3.9,0.2-7.5-1.8-9.6-5.1c-2.2-3.4-3.3-8.4-3.3-15.1
	c0-6.8,1.1-11.9,3.2-15.2c2.1-3.3,5.3-4.9,9.7-4.9c3.9-0.2,7.6,1.8,9.7,5.1C229.2,350.9,230.3,355.9,230.4,362.5z M207.5,362.5
	c0,6.1,0.8,10.6,2.4,13.5c2.3,4.1,7.5,5.6,11.7,3.3c1.4-0.8,2.6-2,3.3-3.4c1.6-3,2.4-7.4,2.4-13.3s-0.8-10.3-2.4-13.2
	c-2.3-4.2-7.5-5.7-11.6-3.5c-1.5,0.8-2.7,2-3.5,3.5C208.3,352.3,207.5,356.7,207.5,362.5L207.5,362.5z"/>
<path class="st8" d="M155.9,465.5h-2.7V437c0-2.6,0.1-5.3,0.3-8.1c-0.3,0.3-0.6,0.5-0.9,0.8s-3.1,2.4-8.5,6.5l-1.6-1.9l10.9-8h2.4
	L155.9,465.5z"/>
<path class="st8" d="M198.3,445.7c0,6.9-1.1,12-3.2,15.3s-5.4,5-9.8,5c-3.9,0.2-7.5-1.8-9.6-5.1c-2.2-3.4-3.3-8.4-3.3-15.1
	c0-6.8,1.1-11.9,3.2-15.2s5.3-4.9,9.6-4.9c3.9-0.2,7.6,1.8,9.7,5.1C197.2,434.1,198.3,439.1,198.3,445.7z M175.4,445.7
	c0,6.1,0.8,10.6,2.5,13.5c2.3,4.1,7.5,5.6,11.7,3.3c1.4-0.8,2.6-2,3.3-3.4c1.6-3,2.4-7.4,2.4-13.3s-0.8-10.3-2.4-13.2
	c-1.4-2.9-4.4-4.6-7.6-4.5c-3.2-0.2-6.2,1.6-7.5,4.5C176.2,435.5,175.4,439.9,175.4,445.7L175.4,445.7z"/>
<path class="st8" d="M220.2,465.4h-2.7v-28.5c0-2.6,0.1-5.3,0.3-8.1c-0.3,0.3-0.6,0.5-0.9,0.8s-3.1,2.4-8.5,6.5l-1.6-1.9l10.9-8h2.4
	L220.2,465.4z"/>
<path class="st8" d="M156.1,715.2h-2.7v-28.5c0-2.6,0.1-5.3,0.3-8.1c-0.3,0.3-0.6,0.5-0.9,0.8s-3.1,2.4-8.5,6.5l-1.6-1.9l10.9-8h2.4
	L156.1,715.2z"/>
<path class="st8" d="M198.5,695.5c0,6.9-1.1,12-3.2,15.3c-2.1,3.3-5.4,5-9.8,5c-3.9,0.2-7.5-1.8-9.6-5.1c-2.2-3.4-3.3-8.4-3.3-15.1
	c0-6.8,1.1-11.9,3.2-15.2s5.3-4.9,9.7-4.9c3.9-0.2,7.6,1.8,9.7,5.1C197.4,683.9,198.5,688.9,198.5,695.5z M175.6,695.5
	c0,6.1,0.8,10.6,2.4,13.5c2.3,4.1,7.5,5.6,11.7,3.3c1.4-0.8,2.6-2,3.3-3.4c1.6-3,2.4-7.4,2.4-13.3s-0.8-10.3-2.4-13.2
	c-1.4-2.9-4.4-4.7-7.6-4.5c-3.2-0.2-6.2,1.6-7.5,4.5C176.4,685.3,175.6,689.7,175.6,695.5L175.6,695.5z"/>
<path class="st8" d="M229.9,715.1h-25.1v-2.4l10.7-10.9c2.2-2.2,4.4-4.5,6.3-7c1.1-1.4,2-3,2.7-4.6c0.6-1.5,0.9-3,0.9-4.6
	c0.1-2.2-0.8-4.2-2.4-5.7c-1.7-1.5-3.9-2.3-6.1-2.2c-3.5,0.1-6.9,1.3-9.6,3.6l-1.5-1.8c3.1-2.7,7.1-4.1,11.1-4.1
	c3.5,0,6.3,0.9,8.3,2.7c2.1,2,3.1,4.7,3,7.5c0,2.6-0.7,5.2-2,7.5c-2,3.3-4.5,6.3-7.4,9l-10.3,10.3v0.1H230L229.9,715.1z"/>
<path class="st8" d="M156.2,798.4h-2.7v-28.5c0-2.6,0.1-5.3,0.3-8.1c-0.3,0.3-0.6,0.5-0.9,0.8s-3.1,2.4-8.5,6.5l-1.6-1.9l10.9-8h2.4
	L156.2,798.4z"/>
<path class="st8" d="M198.6,778.7c0,6.9-1.1,12-3.2,15.3c-2.1,3.3-5.4,5-9.8,5c-3.9,0.2-7.6-1.8-9.6-5.1c-2.2-3.4-3.3-8.4-3.3-15.1
	c0-6.8,1.1-11.9,3.2-15.2s5.3-4.9,9.6-4.9c3.9-0.2,7.6,1.8,9.7,5.1C197.4,767.1,198.5,772.1,198.6,778.7z M175.7,778.7
	c0,6.1,0.8,10.6,2.5,13.5c2.3,4.1,7.5,5.6,11.7,3.3c1.4-0.8,2.6-2,3.3-3.4c1.6-3,2.4-7.4,2.4-13.3s-0.8-10.3-2.4-13.2
	c-1.4-2.9-4.4-4.6-7.6-4.5c-3.2-0.2-6.2,1.6-7.5,4.5C176.5,768.5,175.7,772.9,175.7,778.7L175.7,778.7z"/>
<path class="st8" d="M228.6,768.4c0.1,2.3-0.8,4.5-2.3,6.1c-1.7,1.7-3.9,2.9-6.3,3.2v0.2c3.2,0.4,5.7,1.4,7.4,3
	c1.7,1.7,2.6,4.1,2.5,6.5c0.2,3.3-1.2,6.5-3.8,8.5s-6.2,3-11,3c-3.7,0.1-7.3-0.7-10.7-2.2V794c1.6,0.8,3.4,1.4,5.2,1.8
	c1.8,0.4,3.6,0.6,5.4,0.7c4,0,7.1-0.8,9.1-2.4c2.1-1.6,3.2-4.2,3.1-6.8c0.1-2.4-1.1-4.7-3.1-6c-2.1-1.4-5.1-2.1-9.2-2.1h-4.4v-2.6
	h4.4c2.8,0.1,5.6-0.7,7.9-2.3c1.9-1.5,3-3.8,2.9-6.3c0.1-2-0.8-4-2.4-5.2c-1.8-1.4-4-2.1-6.2-2c-1.9,0-3.7,0.3-5.5,0.8
	c-2,0.7-3.8,1.7-5.6,2.8l-1.3-1.8c1.7-1.3,3.6-2.3,5.6-3c2.1-0.7,4.4-1.1,6.7-1.1c3.7,0,6.6,0.8,8.6,2.5
	C227.6,762.9,228.8,765.6,228.6,768.4z"/>
<path class="st9" d="M314.1,176.5h608.3c8.7,0,15.8,7.1,15.8,15.8v1.3c0,8.7-7.1,15.8-15.8,15.8H314.1c-8.7,0-15.8-7.1-15.8-15.8
	v-1.3C298.3,183.5,305.4,176.5,314.1,176.5z"/>
<path class="st9" d="M314.1,257.5h608.3c8.7,0,15.8,7.1,15.8,15.8v1.3c0,8.7-7.1,15.8-15.8,15.8H314.1c-8.7,0-15.8-7.1-15.8-15.8
	v-1.3C298.4,264.6,305.4,257.5,314.1,257.5z"/>
<path class="st1" d="M314.2,338.6h608.3c8.7,0,15.8,7.1,15.8,15.8v1.3c0,8.7-7.1,15.8-15.8,15.8H314.2c-8.7,0-15.8-7.1-15.8-15.8
	v-1.3C298.4,345.7,305.5,338.6,314.2,338.6z"/>
<path class="st9" d="M314.2,419.7h608.3c8.7,0,15.8,7.1,15.8,15.8v1.3c0,8.7-7.1,15.8-15.8,15.8H314.2c-8.7,0-15.8-7.1-15.8-15.8
	v-1.3C298.5,426.7,305.6,419.7,314.2,419.7z"/>
<path class="st9" d="M316.1,500.7h604.8c9.7,0,17.5,7.8,17.5,17.5v97.1c0,9.7-7.8,17.5-17.5,17.5H316.1c-9.7,0-17.5-7.8-17.5-17.5
	v-97.1C298.6,508.6,306.4,500.7,316.1,500.7z"/>
<path class="st9" d="M314.5,681h608.3c8.7,0,15.8,7.1,15.8,15.8v1.3c0,8.7-7.1,15.8-15.8,15.8H314.5c-8.7,0-15.8-7.1-15.8-15.8v-1.3
	C298.7,688.1,305.8,681,314.5,681z"/>
<path class="st9" d="M314.5,762.9h608.3c8.7,0,15.8,7.1,15.8,15.8v1.3c0,8.7-7.1,15.8-15.8,15.8H314.5c-8.7,0-15.8-7.1-15.8-15.8
	v-1.3C298.8,770,305.8,762.9,314.5,762.9z"/>
<path class="st8" d="M253.6,441.8c0.5,0.5,0.5,1.2,0,1.7l0,0l-8.3,8.4c-0.2,0.2-0.5,0.4-0.8,0.4s-0.6-0.1-0.8-0.4l-8.4-8.3
	c-0.4-0.5-0.4-1.2,0.1-1.7c0.2-0.2,0.5-0.3,0.8-0.3h16.7C253,441.4,253.3,441.5,253.6,441.8z"/>
<polygon class="st10" points="732,387.9 737,372.4 755.8,377.2 716.3,351.9 712,395 721.6,382.9 "/>
<polygon class="st11" points="806.6,434.3 843,454.6 828.3,424 772.5,388 755.8,377.2 737.6,372.5 798.4,429.9 "/>
<polygon class="st12" points="796.9,439.2 798.4,429.9 737.6,372.5 737,372.4 732,387.9 789.5,484.2 "/>
<polygon class="st13" points="741.2,465.9 789.5,484.2 789.5,484.2 732,387.9 732,387.9 721.6,382.9 731.5,462.2 "/>
<polygon class="st14" points="729,471.8 730.9,461.8 731.5,462.2 721.6,382.9 721.6,382.9 712,395 709.5,418.1 703,484.4 
	720.4,521.1 "/>
<polygon class="st15" points="1051.4,886.9 843,454.6 806.6,434.3 798.4,429.9 798.3,431.1 1024.2,900.1 "/>
<polygon class="st16" points="1024.2,900.1 798.3,431.1 796.9,439.2 789.5,484.2 788.7,484 995.9,913.9 "/>
<polygon class="st17" points="957.2,932.5 730.8,462.4 729,471.8 720.4,521.1 926.1,947.4 "/>
<polygon class="st18" points="995.9,913.9 788.7,484 741.2,465.9 730.9,461.8 730.8,462.4 957.2,932.5 "/>
<path class="st19" d="M946,951.7l96.3-46.5c8-3.8,17.7-0.5,21.6,7.5l31.4,65.4c3.8,8,0.5,17.7-7.5,21.6l-96.3,46.4
	c-8,3.8-17.7,0.5-21.6-7.5l-31.4-65.4C934.7,965.1,938.1,955.5,946,951.7z"/>
<polygon class="st20" points="950,997.3 926,947.5 1051.4,887.1 1075.4,936.9 "/>
</svg>
