<?xml version="1.0" encoding="UTF-8"?>
<svg width="1500px" height="504px" viewBox="0 0 1500 504" version="1.1" xmlns="http://www.w3.org/2000/svg" xmlns:xlink="http://www.w3.org/1999/xlink">
    <!-- Generator: Sketch 55.2 (78181) - https://sketchapp.com -->
    <title>Group 12</title>
    <desc>Created with Sketch.</desc>
    <defs>
        <linearGradient x1="0%" y1="44.3552%" x2="61.3980141%" y2="50.3102436%" id="linearGradient-1">
            <stop stop-color="#EDFCFF" stop-opacity="0.4" offset="0%"></stop>
            <stop stop-color="#D7F7FF" offset="100%"></stop>
        </linearGradient>
        <rect id="path-2" x="0" y="0" width="1500" height="504"></rect>
    </defs>
    <g id="Homepage" stroke="none" stroke-width="1" fill="none" fill-rule="evenodd">
        <g id="Group-12">
            <rect id="Rectangle-Copy" fill="#FFFFFF" x="0" y="0" width="1500" height="504"></rect>
            <g id="Group-10">
                <mask id="mask-3" fill="white">
                    <use xlink:href="#path-2"></use>
                </mask>
                <use id="Mask" fill="url(#linearGradient-1)" xlink:href="#path-2"></use>
                <g mask="url(#mask-3)">
                    <g transform="translate(390.243058, -331.000000)">
                        <g id="Group-9" transform="translate(314.756942, 238.000000)">
                            <path d="M367,0 C250.468208,0 156,94.9159244 156,212 C156,329.084076 250.511661,424 367,424 C483.488339,424 578,329.040416 578,212 C578,94.959584 483.531792,0 367,0 Z M367,391.735571 C294.645666,391.739986 229.413362,347.951619 201.721513,280.789389 C174.029663,213.627158 189.331859,136.317895 240.492546,84.9116183 C291.653233,33.5053419 368.596901,18.1259287 435.44401,45.9449405 C502.291119,73.7639523 545.876899,139.302754 545.876899,212 C545.8709,311.258456 465.790255,391.723517 367,391.735571 Z" id="Shape" fill="#EFFBFE" fill-rule="nonzero"></path>
                            <path d="M295.342448,49 C230.688486,77.8341633 189,142.321638 189,213.5 C189,284.678362 230.688486,349.165837 295.342448,378 C342.178956,336.323235 369,276.423584 369,213.5 C369,150.576416 342.178956,90.6767649 295.342448,49 L295.342448,49 Z" id="Path" fill="#8FD9FF" fill-rule="nonzero"></path>
                            <path d="M157.583329,212.010931 C157.512996,163.230757 174.261219,115.926784 204.989102,78.1172431 C186.18778,69.4566531 165.739932,64.9817496 145.050768,65 C64.9513582,65.0219179 0,130.826473 0,212.010931 C0,293.195388 64.9513582,359 145.061666,359 C165.75083,359.01825 186.198678,354.543347 205,345.882757 C174.272937,308.080513 157.521103,260.784941 157.583329,212.010931 L157.583329,212.010931 Z" id="Path" fill="#8FD9FF" fill-rule="nonzero"></path>
                        </g>
                        <g id="Group-9-Copy" opacity="0.8" transform="translate(948.756942, 634.000000) rotate(-180.000000) translate(-948.756942, -634.000000) translate(728.756942, 472.000000)">
                            <path d="M279.194105,0.144398706 C190.828765,0.144398706 119.194105,72.4506336 119.194105,161.644399 C119.194105,250.838164 190.861715,323.144399 279.194105,323.144399 C367.526494,323.144399 439.194105,250.804904 439.194105,161.644399 C439.194105,72.4838931 367.559445,0.144398706 279.194105,0.144398706 Z M279.194105,298.5656 C224.328259,298.568963 174.863005,265.211316 153.864446,214.047636 C132.865887,162.883956 144.469448,103.990342 183.264282,64.8294287 C222.059116,25.6685153 280.405025,13.9525944 331.094776,35.1449076 C381.784527,56.3372209 414.835355,106.264185 414.835355,161.644399 C414.830806,237.258742 354.106147,298.556417 279.194105,298.5656 Z" id="Shape" fill="#EFFBFE" fill-rule="nonzero"></path>
                            <path d="M224.132523,37.1443987 C174.923675,59.142499 143.194105,108.34115 143.194105,162.644399 C143.194105,216.947647 174.923675,266.146298 224.132523,288.144399 C259.78031,256.348447 280.194105,210.649929 280.194105,162.644399 C280.194105,114.638868 259.78031,68.94035 224.132523,37.1443987 L224.132523,37.1443987 Z" id="Path" fill="#8FD9FF" fill-rule="nonzero"></path>
                            <path d="M120.111174,162.152727 C120.057653,124.98688 132.802642,88.9457582 156.185812,60.1384887 C141.878464,53.5399439 126.31815,50.1304936 110.574201,50.1443987 C49.6205041,50.1610981 0.194104659,100.297902 0.194104659,162.152727 C0.194104659,224.007552 49.6205041,274.144399 110.582494,274.144399 C126.326443,274.158304 141.886757,270.748854 156.194105,264.150309 C132.811559,235.348599 120.063822,199.313877 120.111174,162.152727 L120.111174,162.152727 Z" id="Path" fill="#8FD9FF" fill-rule="nonzero"></path>
                        </g>
                        <g id="Group-9-Copy-4" opacity="0.7" transform="translate(1112.756942, 271.000000) rotate(-45.000000) translate(-1112.756942, -271.000000) translate(892.756942, 109.000000)">
                            <path d="M279.194105,0.144398706 C190.828765,0.144398706 119.194105,72.4506336 119.194105,161.644399 C119.194105,250.838164 190.861715,323.144399 279.194105,323.144399 C367.526494,323.144399 439.194105,250.804904 439.194105,161.644399 C439.194105,72.4838931 367.559445,0.144398706 279.194105,0.144398706 Z M279.194105,298.5656 C224.328259,298.568963 174.863005,265.211316 153.864446,214.047636 C132.865887,162.883956 144.469448,103.990342 183.264282,64.8294287 C222.059116,25.6685153 280.405025,13.9525944 331.094776,35.1449076 C381.784527,56.3372209 414.835355,106.264185 414.835355,161.644399 C414.830806,237.258742 354.106147,298.556417 279.194105,298.5656 Z" id="Shape" fill="#EFFBFE" fill-rule="nonzero"></path>
                            <path d="M224.132523,37.1443987 C174.923675,59.142499 143.194105,108.34115 143.194105,162.644399 C143.194105,216.947647 174.923675,266.146298 224.132523,288.144399 C259.78031,256.348447 280.194105,210.649929 280.194105,162.644399 C280.194105,114.638868 259.78031,68.94035 224.132523,37.1443987 L224.132523,37.1443987 Z" id="Path" fill="#8FD9FF" fill-rule="nonzero"></path>
                            <path d="M120.111174,162.152727 C120.057653,124.98688 132.802642,88.9457582 156.185812,60.1384887 C141.878464,53.5399439 126.31815,50.1304936 110.574201,50.1443987 C49.6205041,50.1610981 0.194104659,100.297902 0.194104659,162.152727 C0.194104659,224.007552 49.6205041,274.144399 110.582494,274.144399 C126.326443,274.158304 141.886757,270.748854 156.194105,264.150309 C132.811559,235.348599 120.063822,199.313877 120.111174,162.152727 L120.111174,162.152727 Z" id="Path" fill="#8FD9FF" fill-rule="nonzero"></path>
                        </g>
                        <g id="Group-9-Copy-2" opacity="0.9" transform="translate(603.756942, 899.000000) rotate(-90.000000) translate(-603.756942, -899.000000) translate(383.756942, 737.000000)">
                            <path d="M279.194105,0.144398706 C190.828765,0.144398706 119.194105,72.4506336 119.194105,161.644399 C119.194105,250.838164 190.861715,323.144399 279.194105,323.144399 C367.526494,323.144399 439.194105,250.804904 439.194105,161.644399 C439.194105,72.4838931 367.559445,0.144398706 279.194105,0.144398706 Z M279.194105,298.5656 C224.328259,298.568963 174.863005,265.211316 153.864446,214.047636 C132.865887,162.883956 144.469448,103.990342 183.264282,64.8294287 C222.059116,25.6685153 280.405025,13.9525944 331.094776,35.1449076 C381.784527,56.3372209 414.835355,106.264185 414.835355,161.644399 C414.830806,237.258742 354.106147,298.556417 279.194105,298.5656 Z" id="Shape" fill="#EFFBFE" fill-rule="nonzero"></path>
                        </g>
                        <g id="Group-9-Copy-3" opacity="0.6" transform="translate(0.000000, 581.105850)">
                            <path d="M279.194105,0.144398706 C190.828765,0.144398706 119.194105,72.4506336 119.194105,161.644399 C119.194105,250.838164 190.861715,323.144399 279.194105,323.144399 C367.526494,323.144399 439.194105,250.804904 439.194105,161.644399 C439.194105,72.4838931 367.559445,0.144398706 279.194105,0.144398706 Z M279.194105,298.5656 C224.328259,298.568963 174.863005,265.211316 153.864446,214.047636 C132.865887,162.883956 144.469448,103.990342 183.264282,64.8294287 C222.059116,25.6685153 280.405025,13.9525944 331.094776,35.1449076 C381.784527,56.3372209 414.835355,106.264185 414.835355,161.644399 C414.830806,237.258742 354.106147,298.556417 279.194105,298.5656 Z" id="Shape" fill="#EFFBFE" fill-rule="nonzero"></path>
                            <path d="M224.132523,37.1443987 C174.923675,59.142499 143.194105,108.34115 143.194105,162.644399 C143.194105,216.947647 174.923675,266.146298 224.132523,288.144399 C259.78031,256.348447 280.194105,210.649929 280.194105,162.644399 C280.194105,114.638868 259.78031,68.94035 224.132523,37.1443987 L224.132523,37.1443987 Z" id="Path" fill="#8FD9FF" fill-rule="nonzero"></path>
                            <path d="M120.111174,162.152727 C120.057653,124.98688 132.802642,88.9457582 156.185812,60.1384887 C141.878464,53.5399439 126.31815,50.1304936 110.574201,50.1443987 C49.6205041,50.1610981 0.194104659,100.297902 0.194104659,162.152727 C0.194104659,224.007552 49.6205041,274.144399 110.582494,274.144399 C126.326443,274.158304 141.886757,270.748854 156.194105,264.150309 C132.811559,235.348599 120.063822,199.313877 120.111174,162.152727 L120.111174,162.152727 Z" id="Path" fill="#8FD9FF" fill-rule="nonzero"></path>
                        </g>
                    </g>
                </g>
            </g>
        </g>
    </g>
</svg>