<?xml version="1.0" encoding="utf-8"?>
<!-- Generator: Adobe Illustrator 23.0.4, SVG Export Plug-In . SVG Version: 6.00 Build 0)  -->
<svg version="1.1" id="Layer_1" xmlns="http://www.w3.org/2000/svg" xmlns:xlink="http://www.w3.org/1999/xlink" x="0px" y="0px"
	 viewBox="0 0 1095.5 1095.5" style="enable-background:new 0 0 1095.5 1095.5;" xml:space="preserve">
<style type="text/css">
	.st0{fill:#0093DD;}
	.st1{fill:#30AAE8;}
	.st2{fill:#8FD9FF;}
	.st3{fill:#5FC2F4;}
	.st4{fill:#FFFFFF;}
	.st5{fill:#006EB3;}
</style>
<g>
	<path class="st0" d="M241.9,494.8c57.9-27,123.5-45,195-44c151.5-58.8,280.2-157,429-176.5c58.1-7.6,112.8-2.1,163.2,11.6
		C936.1,115.5,755.2-0.2,547.3,0C276.4,0.2,51.6,197.1,7.8,455.5C94,487.6,171.2,498.2,241.9,494.8z"/>
	<path class="st1" d="M241.9,494.8c-70.7,3.4-147.9-7.2-234.2-39.4c-12,71.1-10,143.9,5.9,214.3C55.7,623.7,135.7,544.3,241.9,494.8
		z"/>
	<path class="st2" d="M275.9,624.6c-98.2-12.7-186.6,12.1-261,50.5c57.4,241.3,274.5,420.7,533.3,420.5
		c196-0.2,368-103.3,464.6-258.2C701.6,888.5,514.2,655.5,275.9,624.6z"/>
	<path class="st3" d="M482.9,454.1c-15.3-2-30.6-3.1-46-3.3c-71.5-1-137.1,17-195,44c-106.2,49.5-186.2,128.9-228.3,175
		c0.4,1.8,0.8,3.5,1.2,5.3c74.4-38.4,162.8-63.2,261-50.5c238.3,30.9,425.8,263.9,736.9,212.7c31.8-51,55-106.9,68.6-165.5
		C848.4,649.7,683.7,480.2,482.9,454.1z"/>
	<path class="st1" d="M1029,286c-50.4-13.7-105.1-19.2-163.2-11.6c-148.7,19.5-277.4,117.7-428.9,176.5c15.4,0.2,30.7,1.3,46,3.3
		c200.8,26,365.5,195.6,598.5,217.7C1111.6,541.1,1092.9,403.9,1029,286z"/>
</g>
<title>Asset 35</title>
<g>
	<path class="st4" d="M537,703.7c-14-0.2-25.1-11.3-25.3-25.2l-0.1-94.5l-94.5,0.1c-14-0.2-25.1-11.3-25.3-25.2l0-21.8
		c0.2-14,11.2-25.1,25.2-25.3l94.5-0.1l-0.1-94.5c0.2-14,11.2-25.1,25.2-25.3l21.8,0c14,0.2,25.1,11.2,25.3,25.2l0.1,94.5l94.5-0.1
		c14,0.2,25.1,11.3,25.3,25.2v21.8c-0.2,14-11.2,25.1-25.2,25.3l-94.5,0.1l0.1,94.5c-0.2,14-11.3,25.1-25.2,25.3h0H537z"/>
	<path class="st5" d="M558.5,395.3c12,0.1,21.6,9.8,21.8,21.8l0.1,98l98-0.1c12,0.2,21.6,9.8,21.8,21.8v21.8
		c-0.1,12-9.8,21.6-21.8,21.8l-98,0.1l0.1,98c-0.2,12-9.8,21.6-21.8,21.8H537c-12-0.2-21.6-9.8-21.8-21.8l-0.1-98l-98,0.1
		c-12-0.2-21.6-9.8-21.8-21.8V537c0.2-12,9.8-21.6,21.8-21.8l98-0.1l-0.1-98c0.2-12,9.8-21.6,21.8-21.8H558.5 M558.5,388.3
		L558.5,388.3h-21.8h-0.1l-0.1,0c-7.6,0.1-14.8,3.1-20.2,8.5c-5.4,5.4-8.4,12.6-8.5,20.2l0,0l0,0l0.1,91l-91,0.1l0,0l0,0
		c-7.6,0.1-14.8,3.1-20.1,8.5c-5.4,5.4-8.4,12.6-8.5,20.2l0,0v0v21.8v0.1l0,0.1c0.1,7.6,3.1,14.8,8.5,20.2
		c5.4,5.4,12.6,8.4,20.2,8.5l0,0l0,0l91-0.1l0.1,91l0,0l0,0c0.1,7.6,3.1,14.8,8.5,20.2c5.4,5.4,12.6,8.4,20.2,8.5l0,0h0h21.8h0.1
		l0.1,0c7.6-0.1,14.8-3.1,20.1-8.5c5.4-5.4,8.4-12.5,8.5-20.2l0-0.1l0-0.1l-0.1-91l91-0.1l0,0l0,0c7.6-0.1,14.8-3.1,20.2-8.5
		c5.4-5.4,8.4-12.6,8.5-20.2l0,0v0v-21.8v-0.1l0-0.1c-0.1-7.6-3.1-14.8-8.5-20.2c-5.4-5.4-12.6-8.4-20.2-8.5l0,0l0,0l-91,0.1
		l-0.1-91l0,0l0,0c-0.1-7.6-3.1-14.8-8.5-20.2S566.2,388.4,558.5,388.3L558.5,388.3L558.5,388.3z"/>
</g>
</svg>
