<?xml version="1.0" encoding="utf-8"?>
<!-- Generator: Adobe Illustrator 23.0.4, SVG Export Plug-In . SVG Version: 6.00 Build 0)  -->
<svg version="1.1" id="Layer_1" xmlns="http://www.w3.org/2000/svg" xmlns:xlink="http://www.w3.org/1999/xlink" x="0px" y="0px"
	 viewBox="0 0 1121.7 1098.2" style="enable-background:new 0 0 1121.7 1098.2;" xml:space="preserve">
<style type="text/css">
	.st0{fill:#0093DD;}
	.st1{fill:#30AAE8;}
	.st2{fill:#8FD9FF;}
	.st3{fill:#5FC2F4;}
	.st4{fill:none;}
	.st5{fill:#D7F7FF;}
	.st6{fill:#FFFFFF;}
	.st7{fill:#E2E2E2;}
	.st8{fill:#CE666C;}
	.st9{fill:#4E9244;}
	.st10{fill:#DDDDDD;}
	.st11{fill:#ECECEC;}
	.st12{opacity:0.2;}
	.st13{fill:#FD9835;}
	.st14{opacity:0.5;}
	.st15{fill:#E0E0E0;}
	.st16{fill:#E26D6A;}
	.st17{fill:#C32C1B;}
	.st18{fill:#96B784;}
	.st19{fill:#64A34D;}
	.st20{fill:#F0AB00;}
	.st21{font-family:'MyriadPro-Regular';}
	.st22{font-size:12px;}
</style>
<g>
	<path class="st0" d="M268.2,494.8c57.9-27,123.5-45,195-44c151.5-58.8,280.2-157,429-176.5c58.1-7.6,112.8-2.1,163.2,11.6
		C962.4,115.5,781.4-0.2,573.6,0C302.7,0.2,77.9,197.1,34,455.5C120.3,487.6,197.4,498.2,268.2,494.8z"/>
	<path class="st1" d="M268.2,494.8c-70.7,3.4-147.9-7.2-234.2-39.4c-12,71.1-10,143.9,5.9,214.3C82,623.7,162,544.3,268.2,494.8z"/>
	<path class="st2" d="M302.1,624.6c-98.2-12.7-186.6,12.1-261,50.5c57.4,241.3,274.5,420.7,533.3,420.5
		c196-0.2,368-103.3,464.6-258.2C727.9,888.5,540.4,655.5,302.1,624.6z"/>
	<path class="st3" d="M509.2,454.2c-15.3-2-30.6-3.1-46-3.3c-71.5-1-137.1,17-195,44C162,544.3,82,623.8,39.9,669.8
		c0.4,1.8,0.8,3.5,1.2,5.3c74.4-38.4,162.8-63.2,261-50.5c238.3,30.9,425.8,263.9,736.9,212.7c31.8-51,55-106.9,68.6-165.5
		C874.7,649.7,710,480.2,509.2,454.2z"/>
	<path class="st1" d="M1055.3,286c-50.4-13.7-105.1-19.2-163.2-11.6c-148.7,19.5-277.4,117.7-428.9,176.5c15.4,0.2,30.7,1.3,46,3.3
		c200.8,26,365.5,195.6,598.5,217.7C1137.8,541.1,1119.2,403.9,1055.3,286z"/>
</g>
<title>Asset 39</title>
<path class="st4" d="M116.1,635.5c3.4-1.8,6.8-3.6,10.2-5.4c-0.4-1.6-0.7-3.1-1.1-4.7C121.9,629,118.9,632.4,116.1,635.5z"/>
<rect x="98.4" y="536.1" transform="matrix(0.7066 -0.7076 0.7076 0.7066 -212.7406 606.2461)" class="st5" width="1052.7" height="47.2"/>
<path class="st6" d="M269.6,952L233,915.5l747-748.1l36.6,36.6L269.6,952z M239.4,915.4l30.2,30.1l740.6-741.7L980,173.7
	L239.4,915.4z"/>
<rect x="85.3" y="589.6" class="st5" width="801.3" height="42.7"/>
<path class="st6" d="M884.3,591.6v38.1l-796.8,0.6v-38.1L884.3,591.6 M888.8,587.1L83,587.7v47.2l805.8-0.6L888.8,587.1L888.8,587.1
	z"/>
<rect x="539" y="342.8" class="st5" width="42.7" height="663.4"/>
<path class="st6" d="M579.2,345l0.5,658.8h-38.1L541.1,345H579.2 M583.7,340.5h-47.2l0.5,667.9h47.2L583.7,340.5L583.7,340.5z"/>
<rect x="518.8" y="200.3" transform="matrix(0.7066 -0.7076 0.7076 0.7066 -267.7076 560.7735)" class="st5" width="47.2" height="805.8"/>
<path class="st6" d="M810.8,907.9L237.4,335.3l36.5-36.6l573.5,572.6L810.8,907.9z M243.8,335.3l567,566.2l30.2-30.2L274,305.1
	L243.8,335.3z"/>
<circle class="st7" cx="576.1" cy="634.1" r="157.8"/>
<ellipse transform="matrix(0.7071 -0.7071 0.7071 0.7071 -3.1825 693.8112)" class="st4" cx="835.9" cy="350.7" rx="69.1" ry="69.1"/>
<circle class="st6" cx="562.1" cy="620" r="157.8"/>
<path class="st8" d="M493.8,586.6c-4.8-0.1-9.4,1.8-12.8,5.2c-7.1,7.1-7.1,18.7,0,25.8c3.4,3.4,8,5.3,12.8,5.3
	c4.9,0.1,9.6-1.8,13.1-5.4c7.1-7.1,7.1-18.6,0.1-25.7c0,0,0,0-0.1-0.1C503.5,588.4,498.7,586.5,493.8,586.6z M498.3,609
	c-1.2,1.2-2.8,1.8-4.5,1.8c-3.3,0-6-2.7-6-6c0-1.6,0.6-3.2,1.8-4.4c1.1-1.2,2.6-1.9,4.2-1.9c3.4,0.1,6.1,2.8,6.2,6.2
	C500.1,606.3,499.5,607.9,498.3,609z"/>
<path class="st0" d="M511.8,579.9c0,0.8,0.3,1.6,0.8,2.2c0.5,0.6,1.2,1,2,1l23.9,1.5c0.2,1,0.6,1.9,1,2.7c0.6,0.9,1.1,1.8,1.5,2.7
	c-1.7,2.2-4.2,5.2-7.6,9.1c-3.4,3.9-5.9,6.9-7.6,9.1l-0.5,1c-0.2,0.4-0.3,0.8-0.2,1.2c0,1.7,2.4,4.8,7.1,9.3
	c4.7,4.6,7.8,7.5,9.3,8.8c0.3,0.3,0.7,0.6,1.1,0.8c0.4,0.2,0.9,0.3,1.4,0.2c0.4,0,0.8-0.1,1.1-0.2c0.4-0.1,0.8-0.3,1.1-0.5l16.9-16
	c0.9,0.6,1.8,1.1,2.9,1.4c1.1,0.2,2.1,0.5,3.1,0.9l1.8,24.4c0.1,0.8,0.6,1.5,1.2,2c0.6,0.5,1.4,0.7,2.2,0.7h21.2
	c0.8,0,1.6-0.3,2.2-0.8c0.7-0.5,1.1-1.2,1.2-2c0.7-2.7,0.9-6.7,0.7-12c-0.2-4.2-0.1-8.3,0.2-12.5c1-0.3,1.9-0.7,2.9-1.1
	c0.4-0.2,1.4-0.7,2.9-1.4l17.9,15.9c0.3,0.3,0.7,0.5,1.1,0.6c0.4,0.1,0.8,0.1,1.1,0.1c1.7,0,4.9-2.5,9.6-7.3
	c4.7-4.9,7.7-8.1,8.8-9.6c0.3-0.3,0.5-0.6,0.6-1c0.1-0.4,0.1-0.8,0.1-1.2c0-0.4,0-0.8-0.1-1.1c-0.1-0.4-0.3-0.8-0.6-1.1
	c-2.6-2.9-5.4-5.7-8.3-8.3c-3-2.6-5.7-5.5-8.1-8.6c0.6-0.8,1.1-1.8,1.4-2.7c0.2-1,0.5-2,0.9-3l25.4-2c0.7,0,1.4-0.5,1.8-1.1
	c0.4-0.6,0.7-1.4,0.7-2.1v-21.1c0-0.7-0.3-1.4-0.8-2c-0.5-0.7-1.2-1.1-2-1.2l-24.4-2c-0.3-0.9-0.6-1.8-0.8-2.7
	c-0.3-0.9-0.8-1.9-1.2-2.7c1.7-2.1,4.2-5.1,7.6-8.7c2.7-2.8,5.2-5.8,7.6-9c0.2-0.3,0.3-0.7,0.5-1c0.2-0.3,0.2-0.7,0.2-1
	c0-1.7-2.4-4.8-7.1-9.5s-7.8-7.7-9.3-9c-0.3-0.3-0.7-0.5-1.1-0.6c-0.5-0.1-0.9-0.1-1.4-0.1c-0.4,0-0.8,0.1-1.1,0.1
	c-0.4,0.1-0.8,0.3-1.1,0.6l-16.9,14.7c-1-0.5-2-0.9-3-1.2c-0.7-0.2-1.7-0.5-3.2-1l-1.5-23.3c-0.1-0.8-0.6-1.5-1.2-2
	c-0.6-0.5-1.4-0.8-2.2-0.8h-21.2c-0.8,0-1.5,0.2-2.1,0.8c-0.6,0.5-1.1,1.2-1.4,2c-0.8,3.8-1.1,7.7-0.9,11.6c0.1,4,0,8.1-0.4,12.1
	c-1,0.3-1.9,0.7-2.9,1.1c-0.4,0.2-1.4,0.8-2.9,1.6l-17.4-15.4c-0.4-0.3-0.8-0.5-1.2-0.6c-0.4-0.1-0.8-0.1-1.2-0.1
	c-1.7,0-4.9,2.4-9.6,7.2c-4.7,4.8-7.7,8-8.8,9.5c-0.3,0.3-0.5,0.7-0.6,1.1c-0.1,0.5-0.1,0.9-0.1,1.4c0,0.4,0.1,0.8,0.2,1.1
	c0.2,0.4,0.3,0.8,0.5,1.1c1.8,2.2,4.4,4.8,7.6,8c2.7,2.5,5,5.2,7.1,8.2c-0.5,1.2-1,2.4-1.2,3.6c-0.2,0.9-0.4,2.1-0.8,3.6l-23.7,1
	c-0.8,0.2-1.6,0.7-2,1.4c-0.5,0.6-0.7,1.4-0.8,2.1L511.8,579.9z M564.2,549.3c11.1-11.2,29.2-11.2,40.4,0
	c11.2,11.1,11.2,29.2,0,40.4c-11.1,11.2-29.2,11.2-40.4,0c-5.3-5.3-8.3-12.5-8.4-20.1C555.7,562,558.8,554.7,564.2,549.3z"/>
<path class="st9" d="M484.6,568.9c7.3,0.1,14.4-2.8,19.4-8.1c10.6-10.7,10.6-27.9,0-38.6c-5.1-5.3-12.1-8.2-19.4-8.1
	c-7.2-0.1-14.2,2.8-19.2,8.1c-10.6,10.7-10.6,27.9,0,38.6C470.4,566.1,477.4,569,484.6,568.9z M477.4,534.2c1.9-2,4.5-3.2,7.2-3.1
	c2.8-0.1,5.5,1.1,7.5,3.1c4,4.1,4,10.6,0,14.7c-1.9,2.1-4.7,3.2-7.5,3.1c-2.7,0-5.4-1.1-7.2-3.1
	C473.4,544.8,473.4,538.2,477.4,534.2z"/>
<g>
	<path class="st2" d="M679.2,651.1c-5.8-6-13.8-7.9-23.9-5.7L604,696.5h-63.8c-4.7,0-7.7-2.9-9-8.7c0-4.5,3-7.5,9-9h54.3
		c1.3,0.1,2.5-0.1,3.7-0.5c1.1-0.7,2.1-1.5,3-2.5c0.8-0.8,1.5-1.8,1.9-2.9c0.4-1.2,0.6-2.4,0.6-3.6c0-1.2-0.2-2.4-0.6-3.5
		c-0.4-1.1-1-2.1-1.9-3c-0.9-1-1.9-1.9-3-2.7c-1.1-0.6-2.4-0.9-3.7-0.8h-93.2c-2.6,0-5.2,0.7-7.6,1.9c-2.8,1.4-5.4,3-7.8,4.9
		l-36.8,39c2.4,3.2,4.9,6.2,7.6,9.2l11.8,11.8c9.4,8.2,19.8,15.2,31,20.7l13.9-13.3h105.1c4.1-0.3,10.6-5.2,19.4-14.7l45.8-47.8
		C685.9,665.3,684.4,658.8,679.2,651.1z"/>
</g>
<circle class="st10" cx="909.4" cy="600.2" r="59.9"/>
<path class="st10" d="M909.5,663.7c-35.1,0-63.5-28.4-63.5-63.5c0-35.1,28.4-63.5,63.5-63.5c35.1,0,63.5,28.4,63.5,63.5
	C973,635.2,944.6,663.7,909.5,663.7z M909.4,543.9c-31.1,0-56.3,25.2-56.2,56.3c0,31.1,25.2,56.3,56.3,56.2
	c31.1,0,56.3-25.2,56.2-56.3c0,0,0,0,0,0C965.6,569.1,940.5,543.9,909.4,543.9L909.4,543.9z"/>
<circle class="st11" cx="902.7" cy="589.1" r="59.9"/>
<path class="st6" d="M902.7,652.6c-35.1,0-63.5-28.4-63.6-63.5c0-35.1,28.4-63.5,63.5-63.6c35.1,0,63.5,28.4,63.6,63.5
	C966.2,624.1,937.8,652.5,902.7,652.6z M902.6,532.8c-31.1,0-56.3,25.2-56.2,56.3c0,31.1,25.2,56.3,56.3,56.2
	c31.1,0,56.3-25.2,56.2-56.3c0,0,0,0,0,0C958.8,557.9,933.7,532.8,902.6,532.8L902.6,532.8z"/>
<g class="st12">
	<path d="M950.2,576.2l-15.9,13.2v-10.6h-7c0.6,1.7,1,3.4,1.3,5.2c0.7,4.6,0.5,9.2-0.6,13.7c-0.7,2.7-1.8,5.2-3.2,7.6
		c-1.4,2.4-3,4.6-5,6.6c-1.9,1.9-4.1,3.6-6.5,5c-2.4,1.4-5,2.5-7.6,3.2c-5.4,1.4-11.1,1.4-16.6,0c-2.7-0.7-5.2-1.8-7.6-3.2
		c-2.4-1.4-4.6-3.1-6.5-5c-1.9-2-3.6-4.2-5-6.6c-0.5-0.9-0.9-1.7-1.4-2.6c-0.4-0.9-0.8-1.8-1.1-2.7h-12.4v-5.3h11
		c-0.1-0.9-0.2-1.7-0.3-2.6s-0.1-1.8-0.1-2.7c0-5.6,1.4-11.1,4.2-15.9c1.4-2.4,3.1-4.5,5-6.5c3.9-3.9,8.8-6.8,14.1-8.2
		c2.7-0.7,5.5-1.1,8.3-1.1c2.8,0,5.6,0.3,8.3,1.1c2.7,0.7,5.2,1.8,7.6,3.2c2.4,1.4,4.6,3.1,6.6,5c2,1.9,3.6,4.1,5,6.5l0.1,0.1h9.5
		v-10.6L950.2,576.2z M872.7,589.4c0,0.9,0,1.8,0.1,2.6c0.1,0.9,0.2,1.7,0.4,2.6h24.2V584l15.8,13.3l-15.8,13.2v-10.6H875
		c0.6,1.3,1.3,2.6,2.2,3.8c1.7,2.5,3.9,4.6,6.4,6.3c1.4,0.9,2.8,1.7,4.3,2.3c1.5,0.6,3.1,1.1,4.7,1.4c1.6,0.3,3.3,0.5,5,0.5
		c1.7,0,3.3-0.2,4.9-0.5c1.6-0.3,3.2-0.8,4.7-1.5c1.5-0.7,2.9-1.4,4.2-2.3c1.3-0.9,2.5-1.9,3.6-3c1.1-1.1,2.1-2.3,3-3.6
		c0.9-1.4,1.6-2.8,2.3-4.3c0.6-1.5,1.1-3.1,1.4-4.7c0.3-1.6,0.5-3.3,0.5-4.9c0-1.7-0.2-3.4-0.5-5c-0.3-1.6-0.8-3.2-1.5-4.7
		c-0.1-0.2-0.2-0.4-0.2-0.5c-0.1-0.2-0.2-0.3-0.2-0.5h-22.4v-5.3h19.1c-0.2-0.2-0.5-0.5-0.7-0.8s-0.5-0.5-0.7-0.8
		c-1.1-1.1-2.3-2.1-3.7-3c-1.3-0.9-2.8-1.7-4.3-2.3c-1.5-0.7-3.1-1.2-4.7-1.5c-1.6-0.3-3.2-0.5-4.9-0.5c-1.7,0-3.3,0.2-4.9,0.5
		c-1.6,0.3-3.2,0.9-4.7,1.5c-1.5,0.6-2.9,1.4-4.3,2.3c-1.3,0.9-2.5,1.9-3.6,3c-1.1,1.1-2.1,2.3-3,3.7c-0.9,1.4-1.7,2.8-2.3,4.3
		c-0.7,1.5-1.2,3.1-1.5,4.7C872.8,586.1,872.6,587.7,872.7,589.4L872.7,589.4z"/>
</g>
<circle class="st10" cx="853.1" cy="899.4" r="59.9"/>
<path class="st10" d="M853.1,963c-35.1,0-63.5-28.4-63.6-63.5S818,836,853.1,836c35.1,0,63.5,28.4,63.6,63.5
	C916.6,934.5,888.2,962.9,853.1,963z M853,843.2c-31.1,0-56.2,25.2-56.2,56.3s25.2,56.2,56.3,56.2c31.1,0,56.2-25.2,56.2-56.3
	C909.3,868.4,884.1,843.2,853,843.2L853,843.2z"/>
<circle class="st11" cx="845.2" cy="886.5" r="59.9"/>
<path class="st6" d="M845.2,950c-35.1,0-63.5-28.4-63.5-63.5s28.4-63.5,63.5-63.5s63.5,28.4,63.5,63.5c0,16.8-6.7,33-18.6,44.9
	C878.3,943.3,862.1,950,845.2,950z M845.2,830.2c-31.1,0.1-56.2,25.3-56.2,56.4c0.1,31.1,25.3,56.2,56.4,56.2
	c31.1-0.1,56.2-25.3,56.2-56.4c0-14.9-6-29.2-16.5-39.7C874.5,836.1,860.1,830.1,845.2,830.2L845.2,830.2z"/>
<g class="st12">
	<path d="M892.7,873.6l-15.9,13.2v-10.6h-7c0.6,1.7,1,3.4,1.3,5.2c0.3,1.8,0.4,3.6,0.4,5.4c0,2.8-0.3,5.6-1,8.3
		c-0.7,2.7-1.8,5.2-3.2,7.6c-1.4,2.4-3,4.6-5,6.6c-1.9,1.9-4.1,3.6-6.5,5c-2.4,1.4-5,2.5-7.7,3.2c-5.4,1.4-11.1,1.4-16.6,0
		c-2.7-0.7-5.2-1.8-7.6-3.2c-2.4-1.4-4.6-3.1-6.5-5c-2-2-3.7-4.2-5.1-6.6c-0.5-0.9-0.9-1.7-1.4-2.6c-0.4-0.9-0.8-1.8-1.1-2.7h-12.3
		V892h11c-0.1-0.9-0.2-1.7-0.3-2.6s-0.1-1.8-0.1-2.7c0-5.6,1.4-11.1,4.2-15.9c1.4-2.4,3.1-4.5,5-6.5c1.9-1.9,4.1-3.6,6.5-5
		c2.4-1.4,4.9-2.5,7.6-3.2c2.7-0.7,5.5-1.1,8.3-1.1c5.6,0,11.1,1.4,15.9,4.2c2.4,1.4,4.6,3.1,6.6,5c2,1.9,3.6,4.1,5,6.5l0.1,0.1h9.5
		v-10.6L892.7,873.6z M815.2,886.8c0,0.9,0,1.8,0.1,2.6c0.1,0.9,0.2,1.7,0.4,2.6h24.2v-10.6l15.8,13.3l-15.8,13.2v-10.6h-22.4
		c0.6,1.3,1.3,2.6,2.2,3.8c1.7,2.5,3.9,4.6,6.4,6.3c1.4,0.9,2.8,1.7,4.3,2.3c1.5,0.6,3.1,1.1,4.7,1.4c1.6,0.3,3.3,0.5,4.9,0.5
		c1.7,0,3.3-0.2,4.9-0.5c1.6-0.3,3.2-0.8,4.7-1.5c1.5-0.7,2.9-1.4,4.2-2.3c1.3-0.9,2.5-1.9,3.6-3c1.1-1.1,2.1-2.3,3-3.7
		c0.9-1.3,1.7-2.7,2.3-4.2c0.6-1.5,1.1-3.1,1.4-4.7c0.3-1.6,0.5-3.3,0.5-4.9c0-1.7-0.2-3.3-0.5-5c-0.3-1.6-0.8-3.1-1.4-4.7
		c-0.1-0.2-0.2-0.4-0.3-0.5c-0.1-0.2-0.2-0.3-0.2-0.5h-22.4v-5.3H859c-0.3-0.2-0.5-0.5-0.7-0.8c-0.2-0.3-0.5-0.5-0.7-0.8
		c-1.1-1.1-2.3-2.1-3.6-3c-1.4-0.9-2.8-1.7-4.3-2.3c-3-1.3-6.3-2-9.6-2c-1.7,0-3.3,0.2-4.9,0.5c-1.6,0.3-3.2,0.9-4.7,1.5
		c-1.5,0.6-2.9,1.4-4.3,2.3c-1.3,0.9-2.5,1.9-3.7,3c-1.1,1.1-2.1,2.3-3,3.6c-0.9,1.4-1.7,2.8-2.3,4.3c-0.7,1.5-1.2,3.1-1.5,4.7
		C815.4,883.5,815.2,885.2,815.2,886.8L815.2,886.8z"/>
</g>
<circle class="st10" cx="555.5" cy="1031.3" r="59.9"/>
<path class="st10" d="M555.6,1094.8c-35.1,0-63.6-28.4-63.6-63.5c0-35.1,28.4-63.6,63.5-63.6c35.1,0,63.6,28.4,63.6,63.5
	c0,0,0,0,0,0C619.1,1066.3,590.7,1094.8,555.6,1094.8z M555.5,975.1c-31.1,0-56.3,25.2-56.2,56.3c0,31.1,25.2,56.3,56.3,56.2
	c31.1,0,56.3-25.2,56.2-56.3c0,0,0,0,0,0C611.7,1000.2,586.6,975.1,555.5,975.1z"/>
<circle class="st11" cx="547.7" cy="1019.8" r="59.9"/>
<path class="st6" d="M547.8,1083.3c-35.1,0-63.6-28.4-63.6-63.5c0-35.1,28.4-63.6,63.5-63.6c35.1,0,63.6,28.4,63.6,63.5c0,0,0,0,0,0
	C611.2,1054.8,582.8,1083.3,547.8,1083.3z M547.7,963.5c-31.1,0-56.2,25.3-56.2,56.3s25.3,56.2,56.3,56.2
	c31.1,0,56.2-25.2,56.2-56.3C603.9,988.7,578.7,963.6,547.7,963.5z"/>
<g class="st12">
	<path d="M595.2,1006.9l-15.9,13.2v-10.6h-7c0.6,1.7,1,3.4,1.3,5.2c0.7,4.6,0.5,9.2-0.6,13.7c-0.7,2.7-1.8,5.2-3.2,7.6
		c-1.4,2.4-3,4.6-5,6.6c-1.9,1.9-4.1,3.6-6.5,5c-2.4,1.4-5,2.5-7.7,3.2c-2.7,0.7-5.5,1-8.3,1c-2.8,0-5.6-0.3-8.3-1
		c-2.7-0.7-5.2-1.8-7.6-3.2c-2.4-1.4-4.6-3.1-6.5-5c-1.9-2-3.6-4.2-5-6.6c-0.5-0.9-0.9-1.7-1.4-2.6c-0.4-0.9-0.8-1.8-1.1-2.7h-12.4
		v-5.3h11c-0.1-0.9-0.2-1.7-0.3-2.6s-0.1-1.8-0.1-2.7c0-2.8,0.3-5.6,1.1-8.3c0.7-2.7,1.8-5.2,3.2-7.6c1.4-2.4,3.1-4.5,5-6.5
		c3.9-3.9,8.8-6.8,14.1-8.2c2.7-0.7,5.5-1.1,8.3-1.1c2.8,0,5.6,0.3,8.3,1.1c2.7,0.7,5.2,1.8,7.6,3.2c2.4,1.4,4.6,3.1,6.6,5
		c2,1.9,3.6,4.1,5,6.5l0.1,0.1h9.5v-10.6L595.2,1006.9z M517.7,1020.2c0,0.9,0,1.8,0.1,2.6c0.1,0.9,0.2,1.7,0.4,2.6h24.2v-10.6
		l15.8,13.2l-15.8,13.2v-10.6h-22.4c0.6,1.3,1.3,2.6,2.2,3.8c1.7,2.5,3.9,4.6,6.4,6.3c1.4,0.9,2.8,1.7,4.3,2.3
		c1.5,0.6,3.1,1.1,4.7,1.4c3.3,0.7,6.6,0.7,9.9,0c1.6-0.3,3.2-0.8,4.7-1.4c1.5-0.7,2.9-1.4,4.2-2.3c2.6-1.8,4.9-4,6.6-6.6
		c0.9-1.3,1.7-2.7,2.3-4.2c0.6-1.5,1.1-3.1,1.4-4.7c0.3-1.6,0.5-3.3,0.5-4.9c0-3.3-0.7-6.6-2-9.6c-0.1-0.2-0.2-0.4-0.2-0.5
		c-0.1-0.2-0.2-0.3-0.3-0.5h-22.4v-5.3h19.1c-0.2-0.2-0.5-0.5-0.7-0.8s-0.5-0.5-0.7-0.8c-1.1-1.1-2.3-2.1-3.7-3
		c-4.1-2.8-8.9-4.3-13.9-4.3c-1.7,0-3.3,0.2-5,0.5c-1.6,0.3-3.2,0.9-4.7,1.5c-1.5,0.6-2.9,1.4-4.3,2.3c-1.3,0.9-2.5,1.9-3.6,3
		c-1.1,1.1-2.1,2.3-3,3.6c-0.9,1.4-1.7,2.8-2.3,4.3c-0.7,1.5-1.2,3.1-1.5,4.7C517.8,1016.9,517.7,1018.5,517.7,1020.2L517.7,1020.2z
		"/>
</g>
<ellipse transform="matrix(7.088903e-02 -0.9975 0.9975 7.088903e-02 -727.8985 1105.3555)" class="st10" cx="229.4" cy="943.4" rx="59.9" ry="59.9"/>
<path class="st10" d="M229.4,1006.9c-35.1,0-63.5-28.4-63.6-63.5s28.4-63.5,63.5-63.6c35.1,0,63.5,28.4,63.6,63.5
	C292.9,978.4,264.5,1006.9,229.4,1006.9z M229.4,887.1c-31.1,0-56.3,25.2-56.2,56.3c0,31.1,25.2,56.3,56.3,56.2
	c31.1,0,56.3-25.2,56.2-56.3c0,0,0,0,0,0C285.6,912.3,260.4,887.2,229.4,887.1z"/>
<ellipse transform="matrix(7.088903e-02 -0.9975 0.9975 7.088903e-02 -717.1093 1084.2587)" class="st11" cx="223.5" cy="927.1" rx="59.9" ry="59.9"/>
<path class="st6" d="M223.5,990.6c-35.1,0-63.5-28.5-63.4-63.5c0-35.1,28.5-63.5,63.5-63.4c35.1,0,63.5,28.5,63.4,63.5
	c0,16.8-6.7,33-18.6,44.9l0,0C256.5,983.9,240.4,990.6,223.5,990.6z M223.4,870.8c-31,0-56.2,25.3-56.1,56.3s25.3,56.2,56.3,56.1
	s56.2-25.3,56.1-56.3c0-14.9-6-29.2-16.5-39.7C252.7,876.7,238.3,870.8,223.4,870.8L223.4,870.8z"/>
<g class="st12">
	<path d="M271,914.2l-15.9,13.2v-10.6h-7c0.6,1.7,1,3.4,1.3,5.2c0.3,1.8,0.4,3.6,0.4,5.4c0,2.8-0.3,5.6-1,8.3
		c-0.7,2.7-1.8,5.2-3.2,7.6c-2.7,4.8-6.7,8.8-11.5,11.5c-2.4,1.4-5,2.5-7.6,3.2c-2.7,0.7-5.5,1-8.3,1c-2.8,0-5.6-0.3-8.3-1
		c-2.7-0.7-5.2-1.8-7.6-3.2c-2.4-1.4-4.6-3.1-6.5-5c-2-2-3.7-4.2-5.1-6.6c-0.5-0.9-0.9-1.7-1.4-2.6c-0.4-0.9-0.8-1.8-1.1-2.7H176
		v-5.3h11c-0.1-0.9-0.3-1.7-0.3-2.6s-0.1-1.8-0.1-2.7c0-5.6,1.4-11.1,4.2-15.9c1.4-2.4,3.1-4.5,5-6.5c10.1-10.2,25.8-12.2,38.2-5
		c2.4,1.4,4.6,3.1,6.6,5c2,1.9,3.6,4.1,5,6.5l0.1,0.1h9.4v-10.6L271,914.2z M193.5,927.4c0,0.9,0,1.8,0.1,2.6
		c0.1,0.9,0.2,1.7,0.4,2.6h24.2V922l15.8,13.2l-15.8,13.2v-10.6h-22.4c0.6,1.3,1.3,2.6,2.2,3.8c1.7,2.5,3.9,4.6,6.4,6.3
		c1.4,0.9,2.8,1.7,4.3,2.3c1.5,0.6,3.1,1.1,4.7,1.4c3.3,0.7,6.6,0.7,9.9,0c1.6-0.3,3.2-0.8,4.7-1.5c1.5-0.7,2.9-1.4,4.2-2.3
		c1.3-0.9,2.5-1.9,3.6-3c1.1-1.1,2.1-2.3,3-3.7c1.9-2.7,3.2-5.7,3.8-9c0.3-1.6,0.5-3.3,0.5-4.9c0-1.7-0.2-3.3-0.5-4.9
		c-0.3-1.6-0.8-3.2-1.4-4.7c-0.1-0.2-0.2-0.4-0.2-0.5c-0.1-0.2-0.2-0.3-0.2-0.5h-22.5v-5.3h19.1c-0.2-0.2-0.5-0.5-0.7-0.8
		s-0.5-0.6-0.7-0.8c-1.1-1.1-2.3-2.1-3.6-3c-1.4-0.9-2.8-1.7-4.3-2.3c-1.5-0.7-3.1-1.2-4.7-1.5c-1.6-0.3-3.2-0.5-4.9-0.5
		c-5,0.1-9.8,1.6-14,4.3c-1.3,0.9-2.5,1.9-3.6,3c-1.1,1.1-2.1,2.3-2.9,3.7c-0.9,1.4-1.7,2.8-2.3,4.3c-0.7,1.5-1.2,3.1-1.5,4.7
		C193.6,924.1,193.5,925.8,193.5,927.4L193.5,927.4z"/>
</g>
<circle class="st10" cx="73" cy="599.2" r="59.9"/>
<path class="st10" d="M73,662.8c-35.1,0-63.6-28.4-63.6-63.5c0-35.1,28.4-63.6,63.5-63.6s63.6,28.4,63.6,63.5c0,0,0,0,0,0
	C136.5,634.2,108.1,662.7,73,662.8z M72.9,543c-31.1,0-56.3,25.2-56.2,56.3c0,31.1,25.2,56.3,56.3,56.2s56.3-25.2,56.2-56.3
	c0,0,0,0,0,0C129.2,568.2,104,543,72.9,543z"/>
<circle class="st11" cx="63.5" cy="589.7" r="59.9"/>
<path class="st6" d="M63.6,653.2C28.5,653.3,0,624.8,0,589.8c0-35.1,28.4-63.6,63.5-63.6c35.1,0,63.6,28.4,63.6,63.5c0,0,0,0,0,0
	C127,624.7,98.6,653.2,63.6,653.2z M63.5,533.5c-31.1,0-56.3,25.2-56.2,56.3c0,31.1,25.2,56.3,56.3,56.2s56.3-25.2,56.2-56.3
	c0,0,0,0,0,0C119.7,558.6,94.5,533.5,63.5,533.5z"/>
<g class="st12">
	<path d="M111,576.8L95.2,590v-10.6h-7c0.6,1.7,1,3.4,1.3,5.2c0.3,1.8,0.4,3.6,0.4,5.4c0,2.8-0.3,5.6-1,8.3
		c-0.7,2.7-1.8,5.2-3.2,7.6c-1.4,2.4-3,4.6-5,6.6c-1.9,1.9-4.1,3.6-6.5,5c-2.4,1.4-5,2.5-7.7,3.2c-5.4,1.4-11.1,1.4-16.6,0
		c-2.7-0.7-5.2-1.8-7.6-3.2c-2.4-1.4-4.6-3.1-6.5-5c-2-2-3.7-4.2-5.1-6.6c-0.5-0.9-0.9-1.7-1.4-2.6c-0.4-0.9-0.8-1.8-1.1-2.7H16
		v-5.3h11c-0.1-0.9-0.2-1.7-0.3-2.6s-0.1-1.8-0.1-2.7c0-2.8,0.4-5.6,1.1-8.3c0.7-2.7,1.8-5.2,3.2-7.6c1.4-2.4,3.1-4.5,5-6.5
		c1.9-2,4.1-3.7,6.5-5.1c9.8-5.7,21.9-5.7,31.8,0c2.4,1.4,4.6,3.1,6.6,5c2,1.9,3.6,4.1,5,6.5l0.1,0.1h9.4v-10.7L111,576.8z
		 M33.5,590.1c0,0.9,0,1.8,0.1,2.6c0.1,0.9,0.2,1.7,0.4,2.6h24.2v-10.6L74,597.9l-15.8,13.2v-10.6H35.9c0.6,1.3,1.3,2.6,2.1,3.8
		c1.7,2.5,3.9,4.6,6.4,6.3c1.4,0.9,2.8,1.7,4.3,2.3c1.5,0.6,3.1,1.1,4.7,1.4c1.6,0.3,3.3,0.5,4.9,0.5c1.7,0,3.3-0.2,4.9-0.5
		c1.6-0.3,3.2-0.8,4.8-1.5c1.5-0.7,2.9-1.4,4.2-2.3c2.6-1.8,4.9-4,6.6-6.7c0.9-1.3,1.7-2.7,2.3-4.2c0.6-1.5,1.1-3.1,1.4-4.7
		c0.7-3.3,0.7-6.6,0-9.9c-0.3-1.6-0.8-3.2-1.4-4.7c-0.1-0.2-0.2-0.4-0.2-0.5c-0.1-0.2-0.2-0.3-0.3-0.5H58.2v-5.4h19.1
		c-0.2-0.2-0.5-0.5-0.7-0.8s-0.5-0.6-0.7-0.8c-1.1-1.1-2.3-2.1-3.6-3c-1.4-0.9-2.8-1.7-4.3-2.3c-1.5-0.7-3.1-1.2-4.7-1.5
		c-1.6-0.3-3.2-0.5-4.9-0.5c-3.3,0-6.6,0.7-9.7,2c-1.5,0.6-2.9,1.4-4.3,2.3c-1.3,0.9-2.5,1.9-3.7,3c-1.1,1.1-2.1,2.3-3,3.7
		c-0.9,1.4-1.7,2.8-2.3,4.3c-0.6,1.5-1.1,3.1-1.4,4.7C33.7,586.8,33.5,588.4,33.5,590.1z"/>
</g>
<ellipse transform="matrix(7.088903e-02 -0.9975 0.9975 7.088903e-02 -71.7579 555.4615)" class="st10" cx="262.3" cy="316.2" rx="59.9" ry="59.9"/>
<path class="st10" d="M262.3,379.8c-35.1,0-63.6-28.4-63.6-63.5s28.4-63.6,63.5-63.6c35.1,0,63.6,28.4,63.6,63.5c0,0,0,0,0,0
	C325.8,351.3,297.4,379.7,262.3,379.8z M262.2,260c-31.1,0-56.3,25.2-56.2,56.3c0,31.1,25.2,56.3,56.3,56.2s56.3-25.2,56.2-56.3
	c0,0,0,0,0,0C318.5,285.2,293.3,260,262.2,260z"/>
<circle class="st11" cx="250.8" cy="306.3" r="59.9"/>
<path class="st6" d="M250.9,369.8c-16.9,0.1-33-6.6-44.9-18.6l0,0c-24.8-24.8-24.9-65-0.1-89.8c24.8-24.8,65-24.9,89.8-0.1
	c24.8,24.8,24.9,65,0.1,89.8C283.9,363.1,267.7,369.8,250.9,369.8L250.9,369.8z M250.8,250c-31.1,0-56.2,25.2-56.2,56.3
	c0,14.9,6,29.2,16.5,39.8l0,0c22,21.9,57.6,21.9,79.6-0.1c21.9-22,21.9-57.6-0.1-79.6C280,255.9,265.7,250,250.8,250z"/>
<g class="st12">
	<path d="M298.3,293.4l-15.9,13.2V296h-7c0.6,1.7,1,3.4,1.3,5.2c0.3,1.8,0.4,3.6,0.4,5.4c0,2.8-0.3,5.6-1,8.3
		c-0.7,2.7-1.8,5.2-3.2,7.6c-2.7,4.8-6.7,8.8-11.5,11.6c-2.4,1.4-5,2.5-7.6,3.2c-5.4,1.4-11.1,1.4-16.6,0c-2.7-0.7-5.2-1.8-7.6-3.2
		c-2.4-1.4-4.6-3.1-6.5-5c-2-2-3.7-4.2-5.1-6.6c-0.5-0.9-0.9-1.7-1.4-2.6c-0.4-0.9-0.8-1.8-1.1-2.7h-12.3v-5.3h11
		c-0.1-0.9-0.3-1.7-0.3-2.6s-0.1-1.8-0.1-2.7c0-5.6,1.4-11.1,4.2-15.9c1.4-2.4,3.1-4.5,5-6.5c3.9-3.9,8.8-6.8,14.1-8.2
		c2.7-0.7,5.5-1.1,8.3-1.1c5.6,0,11.1,1.4,15.9,4.2c2.4,1.4,4.6,3.1,6.6,5c2,1.9,3.6,4.1,5,6.5l0.1,0.1h9.5v-10.6L298.3,293.4z
		 M220.8,306.6c0,0.9,0,1.8,0.1,2.6c0.1,0.9,0.2,1.7,0.4,2.6h24.2v-10.6l15.8,13.3l-15.8,13.2v-10.6h-22.4c0.6,1.3,1.3,2.6,2.2,3.8
		c0.8,1.2,1.7,2.3,2.7,3.3c1.1,1.1,2.3,2.1,3.6,3c1.4,0.9,2.8,1.7,4.3,2.3c1.5,0.6,3.1,1.1,4.7,1.4c1.6,0.3,3.3,0.5,4.9,0.5
		c1.7,0,3.3-0.2,4.9-0.5c1.6-0.3,3.2-0.8,4.7-1.5c1.5-0.7,2.9-1.4,4.2-2.3c1.3-0.9,2.5-1.9,3.6-3c1.1-1.1,2.1-2.3,3-3.6
		c1.9-2.7,3.2-5.7,3.8-9c0.3-1.6,0.5-3.3,0.5-4.9c0-1.7-0.2-3.3-0.5-4.9c-0.3-1.6-0.8-3.2-1.5-4.7c-0.1-0.2-0.2-0.4-0.2-0.5
		c-0.1-0.2-0.2-0.3-0.2-0.5h-22.4v-5.3h19.1c-0.3-0.3-0.5-0.5-0.7-0.8c-0.2-0.3-0.5-0.5-0.7-0.8c-1.1-1.1-2.3-2.1-3.6-3
		c-1.3-0.9-2.8-1.7-4.3-2.3c-1.5-0.7-3.1-1.2-4.7-1.5c-1.6-0.3-3.2-0.5-4.9-0.5c-3.3,0-6.6,0.7-9.7,2c-3,1.2-5.7,3-7.9,5.3
		c-1.1,1.1-2.1,2.3-2.9,3.6c-0.9,1.4-1.7,2.8-2.3,4.3c-0.7,1.5-1.2,3.1-1.5,4.7C221,303.3,220.8,305,220.8,306.6L220.8,306.6z"/>
</g>
<circle class="st10" cx="556.7" cy="357.5" r="59.9"/>
<path class="st10" d="M556.7,421c-35.1,0-63.6-28.4-63.6-63.5s28.4-63.6,63.5-63.6c35.1,0,63.6,28.4,63.6,63.5c0,0,0,0,0,0
	C620.2,392.5,591.8,421,556.7,421z M556.6,301.3c-31.1,0-56.2,25.3-56.2,56.4s25.3,56.2,56.4,56.2c31.1,0,56.2-25.3,56.2-56.3
	C612.9,326.4,587.7,301.2,556.6,301.3L556.6,301.3z"/>
<circle class="st11" cx="552.2" cy="342.8" r="59.9"/>
<path class="st6" d="M552.2,406.4c-35.1,0-63.6-28.4-63.6-63.5s28.4-63.6,63.5-63.6c35.1,0,63.6,28.4,63.6,63.5c0,0,0,0,0,0
	C615.7,377.8,587.3,406.3,552.2,406.4z M552.1,286.6c-31.1,0-56.3,25.2-56.2,56.3c0,31.1,25.2,56.3,56.3,56.2
	c31.1,0,56.3-25.2,56.2-56.3c0,0,0,0,0,0C608.4,311.7,583.2,286.6,552.1,286.6L552.1,286.6z"/>
<g class="st12">
	<path d="M599.7,329.9l-15.9,13.2v-10.6h-7c0.6,1.7,1,3.4,1.3,5.2c0.3,1.8,0.4,3.6,0.4,5.4c0,2.8-0.3,5.6-1,8.3
		c-0.7,2.7-1.8,5.2-3.2,7.6c-1.4,2.4-3,4.6-5,6.6c-1.9,1.9-4.1,3.6-6.5,5c-2.4,1.4-5,2.5-7.7,3.2c-5.4,1.4-11.1,1.4-16.6,0
		c-2.7-0.7-5.2-1.8-7.6-3.2c-2.4-1.4-4.6-3.1-6.5-5c-2-2-3.7-4.2-5.1-6.6c-0.5-0.9-0.9-1.7-1.4-2.6c-0.4-0.9-0.8-1.8-1.1-2.7h-12.3
		v-5.3h11c-0.1-0.9-0.2-1.7-0.3-2.6s-0.1-1.8-0.1-2.7c0-5.6,1.4-11.1,4.2-15.9c1.4-2.4,3.1-4.5,5-6.5c10.1-10.2,25.8-12.3,38.3-5.1
		c2.4,1.4,4.6,3.1,6.6,5c2,1.9,3.6,4.1,5,6.5l0.1,0.1h9.5v-10.6L599.7,329.9z M522.2,343.2c0,0.9,0,1.8,0.1,2.6
		c0.1,0.9,0.2,1.7,0.4,2.6h24.2v-10.6l15.8,13.2l-15.8,13.2v-10.6h-22.4c0.6,1.3,1.3,2.6,2.2,3.8c0.8,1.2,1.7,2.3,2.7,3.3
		c1.1,1.1,2.3,2.1,3.7,3c1.4,0.9,2.8,1.7,4.3,2.3c1.5,0.6,3.1,1.1,4.7,1.4c1.6,0.3,3.3,0.5,4.9,0.5c1.7,0,3.3-0.2,4.9-0.5
		c1.6-0.3,3.2-0.8,4.7-1.5c1.5-0.7,2.9-1.4,4.2-2.3c1.3-0.9,2.5-1.9,3.6-3c1.1-1.1,2.1-2.3,3-3.6c0.9-1.3,1.7-2.7,2.3-4.2
		c0.6-1.5,1.1-3.1,1.4-4.7c0.7-3.3,0.7-6.6,0-9.9c-0.3-1.6-0.8-3.2-1.4-4.7c-0.1-0.2-0.2-0.4-0.3-0.5c-0.1-0.2-0.2-0.3-0.2-0.5
		h-22.4v-5.3H566c-0.2-0.2-0.5-0.5-0.7-0.8s-0.5-0.5-0.7-0.8c-1.1-1.1-2.3-2.1-3.6-3c-1.4-0.9-2.8-1.7-4.3-2.3
		c-7.8-3.2-16.6-2.3-23.6,2.3c-1.3,0.9-2.5,1.9-3.7,3c-1.1,1.1-2.1,2.3-3,3.6c-0.9,1.4-1.7,2.8-2.3,4.3c-0.7,1.5-1.2,3.1-1.5,4.7
		C522.3,339.9,522.2,341.5,522.2,343.2z"/>
</g>
<circle class="st10" cx="1019.2" cy="126.2" r="102.5"/>
<path class="st11" d="M1065.6,46.8c-30.8-30.7-80.6-30.7-111.3,0.1c-30.7,30.8-30.7,80.6,0.1,111.3c30.8,30.7,80.6,30.7,111.3-0.1
	c30.7-30.6,30.8-80.2,0.3-111C1065.8,47.1,1065.7,47,1065.6,46.8z"/>
<path class="st13" d="M1082.4,30c-40.3-39.7-105.3-39.2-145,1.1c-39.4,40-39.3,104.1,0.1,144c40.3,39.7,105.3,39.2,145-1.1
	C1121.9,134.1,1121.9,69.9,1082.4,30z M1010.1,181.3c-43.5,0-78.7-35.2-78.8-78.6c0-43.5,35.2-78.7,78.6-78.8
	c43.5,0,78.7,35.2,78.8,78.6c0,20.9-8.3,40.9-23,55.7C1051,173,1030.9,181.3,1010.1,181.3L1010.1,181.3z"/>
<g class="st14">
	<path d="M1082.7,83.7l-23.2,19.3V87.5h-10.2c0.8,2.5,1.5,5,1.9,7.5c0.4,2.6,0.6,5.2,0.6,7.8c0,4.1-0.5,8.2-1.5,12.1
		c-1,3.9-2.6,7.6-4.7,11.1c-2,3.5-4.4,6.7-7.3,9.6c-2.8,2.8-6,5.3-9.5,7.3c-3.5,2.1-7.2,3.7-11.2,4.7c-7.9,2-16.3,2-24.2,0
		c-3.9-1-7.7-2.6-11.1-4.6c-3.5-2-6.7-4.4-9.5-7.3c-2.9-2.9-5.3-6.1-7.4-9.6c-0.7-1.3-1.4-2.6-2-3.8c-0.6-1.3-1.2-2.6-1.6-4h-18
		v-7.7h16c-0.2-1.3-0.4-2.5-0.5-3.8s-0.2-2.6-0.2-3.9c0-8.1,2.1-16.2,6.2-23.2c2.1-3.4,4.5-6.6,7.3-9.5
		c11.7-11.7,28.8-16.3,44.8-12.1c3.9,1.1,7.6,2.6,11.1,4.6c3.5,2,6.7,4.5,9.6,7.3c2.9,2.8,5.3,6,7.3,9.5l0.1,0.1h13.8V64.3
		L1082.7,83.7z M969.5,103.1c0,1.3,0,2.6,0.2,3.8c0.1,1.3,0.3,2.5,0.6,3.7h35.3V95.1l23.1,19.4l-23.1,19.3v-15.5h-32.7
		c0.9,1.9,2,3.8,3.2,5.5c1.2,1.7,2.5,3.3,4,4.8c1.6,1.6,3.4,3.1,5.3,4.4c2,1.3,4.1,2.5,6.3,3.4c2.2,0.9,4.5,1.6,6.8,2.1
		c4.8,1,9.7,1,14.4,0c2.4-0.5,4.7-1.2,6.9-2.1c2.1-1,4.2-2.1,6.2-3.4c3.8-2.6,7.1-5.9,9.7-9.7c1.3-2,2.5-4,3.4-6.2
		c0.9-2.2,1.6-4.5,2.1-6.9c1-4.8,1-9.7,0-14.4c-0.5-2.3-1.2-4.6-2.1-6.8c-0.1-0.3-0.3-0.6-0.4-0.8c-0.1-0.2-0.2-0.5-0.4-0.7h-32.8
		v-7.8h27.9c-0.3-0.3-0.7-0.7-1.1-1.2c-0.3-0.4-0.6-0.8-1-1.2c-1.6-1.6-3.4-3.1-5.3-4.4c-2-1.3-4.1-2.4-6.3-3.3
		c-2.2-1-4.5-1.7-6.9-2.2c-2.3-0.5-4.7-0.7-7.1-0.7c-4.9,0-9.7,1-14.1,3c-4.3,1.8-8.3,4.4-11.6,7.7c-1.6,1.6-3.1,3.4-4.3,5.3
		c-1.3,2-2.5,4-3.4,6.2c-1,2.2-1.7,4.5-2.2,6.8C969.7,98.2,969.5,100.6,969.5,103.1z"/>
</g>
<g class="st12">
	<circle class="st6" cx="871.8" cy="330.8" r="69.1"/>
</g>
<path class="st4" d="M804.1,316.9c-7.7,37.4,16.4,73.9,53.8,81.6c16.9,3.5,34.4,0.5,49.2-8.3l-89.4-102.4
	C810.9,296.2,806.3,306.2,804.1,316.9z"/>
<path class="st4" d="M939.5,344.6c7.7-37.4-16.4-73.9-53.8-81.6c-25.5-5.2-51.8,4.3-68,24.7l89.4,102.4
	C923.8,380.2,935.6,363.7,939.5,344.6z"/>
<path class="st15" d="M1055.8,562.4l-5.8-8.6L907.1,390.1c-32.8,19.5-75.2,8.7-94.7-24.1c-14.7-24.7-12.5-55.8,5.3-78.3L789,254.9
	c-41.9,45.7-38.8,116.8,6.9,158.7c34.2,31.4,84.2,38.4,125.8,17.8l-1.8,8.7c-0.7,3.4,0,6.9,1.8,9.8l94.3,138.9
	c3.9,6,11.9,7.6,17.9,3.7c0,0,0,0,0.1,0l18-11.9C1058,576.5,1059.7,568.4,1055.8,562.4C1055.8,562.4,1055.8,562.4,1055.8,562.4z"/>
<path class="st4" d="M885.7,263c-11.7-2.4-23.8-1.7-35.2,2l83.8,95.1c16.2-34.5,1.4-75.7-33.2-91.9C896.2,265.9,891,264.2,885.7,263
	L885.7,263z"/>
<path class="st15" d="M789,254.9l28.7,32.9c8.5-10.6,19.9-18.5,32.8-22.7l-30.1-34.1C808.6,237,798,245.1,789,254.9z"/>
<path class="st15" d="M981.8,353.3c12.5-60.7-26.7-120.1-87.4-132.5c-25.1-5.1-51.2-1.6-73.9,10.2l30.1,34.1
	c36.3-11.8,75.3,8.1,87,44.5c3.7,11.4,4.4,23.5,2,35.2c-1.1,5.3-2.8,10.5-5.1,15.5l30.1,34.1C972.9,381.9,978.8,368,981.8,353.3z"/>
<path class="st15" d="M907.1,390.1l142.8,163.7l-88.5-130.3c-1.9-2.9-4.9-4.9-8.2-5.5l-8.6-1.8c7.5-6.4,14.2-13.8,19.8-22
	l-30.1-34.1C928.5,372.6,919,383.1,907.1,390.1z"/>
<path class="st16" d="M382.8,138.1l-174.1,0.1c-11.9,0-21.9,5.9-24.5,13.9l198.6-0.2L382.8,138.1z"/>
<path class="st17" d="M184.2,152.1c-0.5,1.3-0.7,2.8-0.7,4.2v37c0,10,11.3,18,25.3,18l174.1-0.1v-59.2L184.2,152.1z"/>
<path class="st18" d="M796.7,151.6c-2.7-7.9-12.6-13.9-24.6-13.8l-389.3,0.3v13.9L796.7,151.6z"/>
<path class="st19" d="M382.8,151.9v59.2l389.3-0.3c14,0,25.3-8.1,25.2-18.1v-37c0-1.4-0.3-2.8-0.7-4.2L382.8,151.9z"/>
<path class="st18" d="M772.1,42.3l-563.4,0.4c-11.9,0-21.9,5.9-24.5,13.9l612.5-0.5C794,48.2,784,42.3,772.1,42.3z"/>
<path class="st19" d="M184.1,56.6c-0.5,1.4-0.7,2.8-0.7,4.2v37c0,10,11.3,18,25.3,18l563.4-0.4c14,0,25.3-8.1,25.2-18.1v-37
	c0-1.4-0.2-2.8-0.7-4.2L184.1,56.6z"/>
<polygon class="st6" points="489.9,74 541.4,168 441.9,175.3 "/>
<path class="st20" d="M491.2,67.9c0.8,0,1.5,0.1,2.2,0.3c0.7,0.2,1.4,0.5,2,0.9c0.7,0.4,1.3,0.8,1.8,1.4c0.5,0.6,1,1.2,1.3,1.8
	l50.2,96.7c0.7,1.3,1.1,2.7,1.1,4.1c-0.1,1.5-0.5,2.9-1.2,4.1c-0.4,0.7-0.8,1.2-1.3,1.8c-0.5,0.5-1.1,1-1.8,1.3
	c-0.6,0.3-1.3,0.6-2,0.8c-0.7,0.2-1.4,0.3-2.2,0.3l-100.6-0.1c-0.7,0-1.5-0.1-2.2-0.3c-0.7-0.2-1.3-0.4-2-0.8
	c-0.6-0.4-1.2-0.8-1.8-1.3c-0.5-0.5-1-1.1-1.3-1.8c-0.7-1.3-1.1-2.7-1.2-4.1c0-1.4,0.4-2.9,1.1-4.1l50.4-96.6
	c0.4-0.7,0.8-1.3,1.3-1.8c0.5-0.5,1.1-1,1.8-1.3c0.6-0.4,1.3-0.7,2-0.9C489.7,68,490.5,67.9,491.2,67.9z M447.7,168.4l87.2,0.1
	l-43.6-85.2L447.7,168.4z M499.4,158.9c-0.2,0.7-0.9,1.1-1.6,1.1h-12.2c-1.3,0-2.8-0.1-2.8-1.7v-5.1c0-0.9,0.7-1.7,1.6-1.7
	c0,0,0.1,0,0.1,0h13.3c0.9,0,1.7,0.7,1.7,1.7c0,0,0,0,0,0.1v5.1C499.5,158.5,499.5,158.8,499.4,158.9z M499.5,142.3
	c-0.3,0.7-0.9,1.1-1.6,1.1h-12.2c-1.3,0-2.8-0.1-2.8-1.7v-25.8c0-0.9,0.7-1.7,1.6-1.7c0,0,0.1,0,0.1,0h13.3c0.9,0,1.7,0.7,1.7,1.7
	c0,0,0,0,0,0.1v25.9C499.6,141.9,499.5,142.1,499.5,142.3L499.5,142.3z"/>
<text transform="matrix(1 0 0 1 582 636)" class="st21 st22">ececec</text>
</svg>
