<?xml version="1.0" encoding="utf-8"?>
<!-- Generator: Adobe Illustrator 23.0.4, SVG Export Plug-In . SVG Version: 6.00 Build 0)  -->
<svg version="1.1" id="Layer_1" xmlns="http://www.w3.org/2000/svg" xmlns:xlink="http://www.w3.org/1999/xlink" x="0px" y="0px"
	 viewBox="0 0 1095.5 1095.5" style="enable-background:new 0 0 1095.5 1095.5;" xml:space="preserve">
<style type="text/css">
	.st0{fill:#0093DD;}
	.st1{fill:#30AAE8;}
	.st2{fill:#8FD9FF;}
	.st3{fill:#5FC2F4;}
	.st4{fill-rule:evenodd;clip-rule:evenodd;fill:#DA8E8D;}
	.st5{fill:#FFFFFF;}
	.st6{fill:#D1D1D1;}
	.st7{opacity:0.6;fill-rule:evenodd;clip-rule:evenodd;fill:#D1D1D1;enable-background:new    ;}
	.st8{opacity:0.6;fill:#D1D1D1;enable-background:new    ;}
	.st9{fill:#828282;}
	.st10{fill-rule:evenodd;clip-rule:evenodd;fill:#027DAD;}
	.st11{fill-rule:evenodd;clip-rule:evenodd;fill:#0093DD;}
	.st12{fill-rule:evenodd;clip-rule:evenodd;fill:#86CEEA;}
	.st13{fill-rule:evenodd;clip-rule:evenodd;fill:#8FD9FF;}
	.st14{fill:#BABABA;}
	.st15{fill-rule:evenodd;clip-rule:evenodd;fill:#BABABA;}
	.st16{fill-rule:evenodd;clip-rule:evenodd;fill:#B2E5ED;}
	.st17{fill-rule:evenodd;clip-rule:evenodd;fill:#D7F7FF;}
	.st18{fill-rule:evenodd;clip-rule:evenodd;fill:#3D3D3D;}
	.st19{fill-rule:evenodd;clip-rule:evenodd;fill:#E7A980;}
	.st20{fill-rule:evenodd;clip-rule:evenodd;fill:#E29663;}
	.st21{fill-rule:evenodd;clip-rule:evenodd;fill:#D68C5B;}
	.st22{fill-rule:evenodd;clip-rule:evenodd;fill:#CF804B;}
	.st23{fill-rule:evenodd;clip-rule:evenodd;fill:#FFD268;}
	.st24{fill-rule:evenodd;clip-rule:evenodd;fill:#FFC335;}
	.st25{fill-rule:evenodd;clip-rule:evenodd;fill:#E2AF38;}
	.st26{fill-rule:evenodd;clip-rule:evenodd;fill:#EFB237;}
	.st27{fill-rule:evenodd;clip-rule:evenodd;fill:#CCCCCC;}
	.st28{fill:none;}
	.st29{fill-rule:evenodd;clip-rule:evenodd;fill:#006993;}
	.st30{fill-rule:evenodd;clip-rule:evenodd;fill:#006EB3;}
</style>
<g>
	<path class="st0" d="M242,494.8c57.8-27,123.5-45,195-44c151.5-58.8,280.2-157,429-176.5c58.1-7.6,112.8-2.1,163.2,11.6
		C936.1,115.5,755.2-0.2,547.4,0C276.5,0.2,51.6,197.1,7.8,455.5C94,487.6,171.2,498.2,242,494.8z"/>
	<path class="st1" d="M242,494.8c-70.7,3.4-147.9-7.2-234.2-39.4c-12,71.1-10,143.9,5.9,214.3C55.8,623.7,135.8,544.3,242,494.8z"/>
	<path class="st2" d="M275.9,624.6c-98.2-12.7-186.6,12.1-261,50.5c57.4,241.3,274.5,420.7,533.3,420.5
		c196-0.2,368-103.3,464.6-258.2C701.7,888.5,514.2,655.5,275.9,624.6z"/>
	<path class="st3" d="M483,454.2c-15.3-2-30.6-3.1-46-3.3c-71.5-1-137.1,17-195,44c-106.2,49.5-186.2,128.9-228.3,175
		c0.4,1.8,0.8,3.5,1.2,5.3c74.4-38.4,162.8-63.2,261-50.5c238.3,30.9,425.8,263.9,736.9,212.7c31.8-51,55-106.9,68.6-165.5
		C848.5,649.7,683.8,480.2,483,454.2z"/>
	<path class="st1" d="M1029,286c-50.4-13.7-105.1-19.2-163.2-11.6c-148.7,19.5-277.4,117.7-428.9,176.5c15.4,0.2,30.7,1.3,46,3.3
		c200.8,26,365.5,195.6,598.5,217.7C1111.6,541.1,1093,403.9,1029,286z"/>
</g>
<title>Asset 37</title>
<g id="Welcome">
	<g id="Group-46">
		<g id="Group-40">
			<g id="tracing">
				<path class="st4" d="M323.9,943.5l63.2,36.1c5.2,3,7.1,9.7,4.1,15l-24.6,42.8c-3,5.2-9.7,7.1-15,4.1l-63.1-36.2
					c-5.2-3-7.1-9.7-4.1-15l24.6-42.8C312,942.3,318.7,940.6,323.9,943.5z"/>
				<rect x="117.1" y="101.3" class="st5" width="814.8" height="819"/>
				<rect x="119.1" y="101.3" class="st6" width="814.4" height="60.6"/>
				<path class="st7" d="M119.1,919.3V103.6c0-0.2,0.2-0.4,0.4-0.4h59.7c0.2,0,0.4,0.2,0.4,0.4v815.8c0,0.2-0.2,0.4-0.4,0.4h-59.7
					C119.3,919.8,119.1,919.6,119.1,919.3z"/>
				<path id="Shape" class="st6" d="M930.3,101.3v818.7H119.1V101.3H930.3z M933.3,98.3H116v824.6h817.3V98.3z"/>
				<rect x="179.8" y="162" class="st8" width="9.4" height="760.9"/>
				<rect x="179.8" y="101.3" class="st9" width="9.4" height="60.7"/>
				<rect x="403.2" y="161.9" class="st8" width="9.5" height="760.9"/>
				<rect x="403.2" y="101.3" class="st9" width="9.5" height="60.6"/>
				<rect x="626.8" y="161.9" class="st8" width="9.5" height="760.9"/>
				<rect x="626.8" y="101.3" class="st9" width="9.5" height="60.6"/>
				<rect x="850.3" y="161.9" class="st8" width="9.5" height="761"/>
				<rect x="850.3" y="101.3" class="st9" width="9.5" height="60.6"/>
				<path class="st10" d="M363.8,468.8h371.8c5.9,0,10.7-4.8,10.7-10.7H353C353.1,464,357.9,468.8,363.8,468.8z"/>
				<path class="st11" d="M735.7,364.4H363.9c-5.9,0-10.7,4.8-10.7,10.7v83.1h393.3V375C746.4,369.1,741.6,364.4,735.7,364.4z"/>
				<path class="st12" d="M244.6,829.4h548.8c7.2,0,13-5.8,13-13H231.6C231.6,823.6,237.4,829.4,244.6,829.4z"/>
				<path class="st13" d="M793.3,724.9H244.6c-7.2,0-13,5.8-13,13v78.6h574.7v-78.6C806.3,730.8,800.5,725,793.3,724.9z"/>
				<rect x="498.5" y="537" class="st14" width="14.6" height="11.7"/>
				<rect x="473.5" y="537" class="st14" width="14.6" height="11.7"/>
				<rect x="448.4" y="537" class="st14" width="14.6" height="11.7"/>
				<rect x="523.6" y="537" class="st14" width="14.6" height="11.7"/>
				<rect x="573.7" y="537" class="st14" width="14.6" height="11.7"/>
				<rect x="548.6" y="537" class="st14" width="14.6" height="11.7"/>
				<rect x="598.7" y="537" class="st14" width="14.6" height="11.7"/>
				<rect x="698.9" y="537" class="st14" width="14.6" height="11.7"/>
				<rect x="623.8" y="537" class="st14" width="14.6" height="11.7"/>
				<rect x="673.9" y="537" class="st14" width="14.6" height="11.7"/>
				<rect x="648.9" y="537" class="st14" width="14.6" height="11.7"/>
				<path class="st15" d="M432.2,537H429c-3.1,0-5.7,2.6-5.7,5.7v5.9h14.6V537H432.2z"/>
				<path class="st15" d="M729.7,537h3.2c3.1,0,5.7,2.6,5.7,5.7v5.9H724V537H729.7z"/>
				<rect x="423.3" y="555.8" class="st14" width="11.7" height="14.6"/>
				<rect x="726.9" y="555.8" class="st14" width="11.7" height="14.6"/>
				<rect x="498.5" y="629.9" class="st14" width="14.6" height="11.7"/>
				<rect x="473.5" y="629.9" class="st14" width="14.6" height="11.7"/>
				<rect x="448.4" y="629.9" class="st14" width="14.6" height="11.7"/>
				<rect x="523.6" y="629.9" class="st14" width="14.6" height="11.7"/>
				<rect x="573.7" y="629.9" class="st14" width="14.6" height="11.7"/>
				<rect x="548.6" y="629.9" class="st14" width="14.6" height="11.7"/>
				<rect x="598.7" y="629.9" class="st14" width="14.6" height="11.7"/>
				<rect x="698.9" y="629.9" class="st14" width="14.6" height="11.7"/>
				<rect x="623.8" y="629.9" class="st14" width="14.6" height="11.7"/>
				<rect x="673.9" y="629.9" class="st14" width="14.6" height="11.7"/>
				<rect x="648.9" y="629.9" class="st14" width="14.6" height="11.7"/>
				<path class="st15" d="M432.2,641.5H429c-3.1,0-5.7-2.6-5.7-5.7v-5.9h14.6v11.6L432.2,641.5z"/>
				<path class="st15" d="M729.7,641.5h3.2c3.1,0,5.7-2.6,5.7-5.7v-5.9H724v11.6L729.7,641.5z"/>
				<rect x="423.3" y="608.2" class="st14" width="11.7" height="14.6"/>
				<rect x="423.3" y="582" class="st14" width="11.7" height="14.6"/>
				<rect x="726.9" y="608.2" class="st14" width="11.7" height="14.6"/>
				<rect x="726.9" y="582" class="st14" width="11.7" height="14.6"/>
				<rect x="401.4" y="582" class="st14" width="11.7" height="14.6"/>
				<rect x="380.1" y="582" class="st14" width="11.7" height="14.6"/>
				<rect x="358.7" y="582" class="st14" width="11.7" height="14.6"/>
				<rect x="789.8" y="582" class="st14" width="11.7" height="14.6"/>
				<rect x="813.3" y="582" class="st14" width="11.7" height="14.6"/>
				<rect x="768.5" y="582" class="st14" width="11.7" height="14.6"/>
				<rect x="747.2" y="582" class="st14" width="11.7" height="14.6"/>
				<rect x="337.4" y="582" class="st14" width="11.7" height="14.6"/>
				<rect x="315.9" y="582" class="st14" width="11.7" height="14.6"/>
				<rect x="294.6" y="582" class="st14" width="11.7" height="14.6"/>
				<rect x="273.2" y="582" class="st14" width="11.7" height="14.6"/>
				<rect x="251.9" y="582" class="st14" width="11.7" height="14.6"/>
				<rect x="230.5" y="582" class="st14" width="11.7" height="14.6"/>
				<rect x="209.2" y="582" class="st14" width="11.7" height="14.6"/>
				<path class="st15" d="M198.6,602.8h-24.2c-1.7,0-3-1.3-3-3v-24.2c0-1.7,1.3-3,3-3h24.2c1.7,0,3,1.3,3,3v24.2
					C201.6,601.5,200.2,602.8,198.6,602.8z"/>
				<path class="st15" d="M863.2,602.8H839c-1.7,0-3-1.3-3-3v-24.2c0-1.7,1.3-3,3-3h24.2c1.7,0,3,1.3,3,3v24.2
					C866.2,601.5,864.9,602.8,863.2,602.8C863.2,602.8,863.2,602.8,863.2,602.8z"/>
				<path class="st16" d="M452.3,619.2h257.4c3.7,0,6.7-3,6.7-6.7l0,0H445.5C445.5,616.3,448.5,619.3,452.3,619.2
					C452.2,619.2,452.2,619.2,452.3,619.2z"/>
				<path class="st17" d="M709.7,559.4H452.3c-3.7,0-6.7,3-6.7,6.7l0,0v46.4h270.8v-46.4C716.4,562.4,713.4,559.4,709.7,559.4
					L709.7,559.4z"/>
				<polygon class="st18" points="557.7,606.4 568.3,603.2 572.8,615.6 571.8,583.7 546,597.9 556.5,598.6 				"/>
				<polygon class="st19" points="560.4,666.1 563,694.3 574.5,674.3 573.2,629.1 572.8,615.6 568.5,603.6 559.7,659.8 				"/>
				<polygon class="st20" points="553.9,662.5 559.7,659.8 568.5,603.6 568.3,603.2 557.7,606.4 525.8,675.7 				"/>
				<polygon class="st21" points="517.5,641.6 525.8,675.7 525.8,675.7 557.7,606.4 557.7,606.4 556.5,598.6 515.8,634.7 				"/>
				<polygon class="st22" points="509.5,637 515.8,634.2 515.8,634.7 556.5,598.6 556.5,598.6 546,597.9 532.1,605.4 492.4,627.3 
					478.5,651.2 				"/>
				<polygon class="st23" points="400.8,977.7 563,694.3 560.4,666.1 559.7,659.8 559,660.2 382.9,967.5 				"/>
				<polygon class="st24" points="382.9,967.5 559,660.2 553.9,662.5 525.8,675.7 525.6,675.2 364.3,956.9 				"/>
				<polygon class="st25" points="339,942.4 515.4,634.4 509.5,637 478.5,651.2 318.6,930.7 				"/>
				<polygon class="st26" points="364.3,956.9 525.6,675.2 517.5,641.6 515.8,634.2 515.4,634.4 339,942.4 				"/>
				<polygon class="st27" points="299.8,963.4 318.5,930.7 400.7,977.8 382,1010.4 				"/>
				<polygon class="st28" points="187.6,268 187.6,268.1 930,268.1 930,268 				"/>
				<path class="st29" d="M202.5,283h727.7v-14.9H187.6C187.6,276.4,194.3,283,202.5,283z"/>
				<path class="st30" d="M930.2,268v-89.5H202.5c-8.3,0-15,6.7-15,15l0,0v74.6h0.1V268H930.2z"/>
				<path class="st30" d="M148.3,282.5c-3.2,0-5.8-2.6-5.8-5.8v-92.3c0-3.2,2.6-5.8,5.8-5.8s5.8,2.6,5.8,5.8v92.3
					C154.1,279.9,151.5,282.5,148.3,282.5L148.3,282.5z"/>
				<path class="st11" d="M148.3,468.9c-3.2,0-5.8-2.6-5.8-5.8v-92.3c0-3.2,2.6-5.8,5.8-5.8s5.8,2.6,5.8,5.8v92.3
					C154.1,466.3,151.5,468.9,148.3,468.9z"/>
				<path class="st17" d="M149.7,619.2h-2.8c-2.4,0-4.4-2-4.4-4.4v-51c0-2.4,2-4.4,4.4-4.4h2.8c2.4,0,4.4,2,4.4,4.4v51
					C154.1,617.3,152.1,619.2,149.7,619.2z"/>
				<path class="st13" d="M148.1,829.4c-3.2,0-5.8-2.6-5.8-5.8v-92.9c0-3.2,2.6-5.8,5.8-5.8s5.8,2.6,5.8,5.8v92.9
					C153.9,826.8,151.3,829.4,148.1,829.4z"/>
			</g>
		</g>
	</g>
</g>
</svg>
