<?xml version="1.0" encoding="utf-8"?>
<!-- Generator: Adobe Illustrator 23.0.4, SVG Export Plug-In . SVG Version: 6.00 Build 0)  -->
<svg version="1.1" id="Layer_1" xmlns="http://www.w3.org/2000/svg" xmlns:xlink="http://www.w3.org/1999/xlink" x="0px" y="0px"
	 viewBox="0 0 1097.8 1095.5" style="enable-background:new 0 0 1097.8 1095.5;" xml:space="preserve">
<style type="text/css">
	.st0{fill:#0093DD;}
	.st1{fill:#30AAE8;}
	.st2{fill:#8FD9FF;}
	.st3{fill:#5FC2F4;}
	.st4{opacity:0.4;fill:#292E34;enable-background:new    ;}
	.st5{fill:#D8D8D8;}
	.st6{fill:#FFFFFF;}
	.st7{fill:#BBBBBB;}
	.st8{fill:none;}
	.st9{fill:#01303E;}
	.st10{fill:#F2F2F2;}
	.st11{fill:#8B8D8F;}
	.st12{fill:#9B9B9B;}
	.st13{fill:#008BD1;}
	.st14{fill:#0579C1;}
</style>
<g>
	<path class="st0" d="M241.9,494.8c57.9-27,123.5-45,195-44c151.5-58.8,280.2-157,429-176.5c58.1-7.6,112.8-2.1,163.2,11.6
		C936.1,115.5,755.2-0.2,547.3,0C276.4,0.2,51.6,197.1,7.8,455.5C94,487.6,171.2,498.2,241.9,494.8z"/>
	<path class="st1" d="M241.9,494.8c-70.7,3.4-147.9-7.2-234.2-39.4c-12,71.1-10,143.9,5.9,214.3C55.7,623.7,135.7,544.3,241.9,494.8
		z"/>
	<path class="st2" d="M275.9,624.6c-98.2-12.7-186.6,12.1-261,50.5c57.4,241.3,274.5,420.7,533.3,420.5
		c196-0.2,368-103.3,464.6-258.2C701.6,888.5,514.2,655.5,275.9,624.6z"/>
	<path class="st3" d="M482.9,454.2c-15.3-2-30.6-3.1-46-3.3c-71.5-1-137.1,17-195,44c-106.2,49.5-186.2,128.9-228.3,175
		c0.4,1.8,0.8,3.5,1.2,5.3c74.4-38.4,162.8-63.2,261-50.5c238.3,30.9,425.8,263.9,736.9,212.7c31.8-51,55-106.9,68.6-165.5
		C848.4,649.7,683.7,480.2,482.9,454.2z"/>
	<path class="st1" d="M1029,286c-50.4-13.7-105.1-19.2-163.2-11.6c-148.7,19.5-277.4,117.7-428.9,176.5c15.4,0.2,30.7,1.3,46,3.3
		c200.8,26,365.5,195.6,598.5,217.7C1111.6,541.1,1092.9,403.9,1029,286z"/>
</g>
<title>Asset 33</title>
<path class="st4" d="M1063,631.2L920,145l0.7-0.2l-19.3-65.7c-13.6-46.4-62.3-73-108.7-59.4c0,0,0,0,0,0L76.6,230.3
	c-46.4,13.6-73,62.3-59.3,108.7l18.9,64.3l-0.7,0.2l143.3,487.5c13.6,46.4,62.2,73,108.5,59.4c0.1,0,0.1,0,0.2-0.1l716.1-210.5
	C1050.1,726.2,1076.6,677.6,1063,631.2C1063,631.2,1063,631.2,1063,631.2z"/>
<path class="st5" d="M887.7,72.5c-13.6-46.4-62.3-73-108.7-59.3L62.9,223.7c-46.4,13.6-73,62.3-59.3,108.7c0,0,0,0,0,0l19.3,65.6
	L907,138.1L887.7,72.5z"/>
<path class="st6" d="M249.2,946.1c-38.3-0.1-71.9-25.3-82.9-62l-143-486.3l881.8-259.3l143,486.3c13.4,45.7-12.8,93.7-58.5,107.2
	L273.5,942.6C265.6,944.9,257.5,946.1,249.2,946.1L249.2,946.1z"/>
<path class="st7" d="M904.3,140.1l142.6,485.1c13.2,45.1-12.6,92.4-57.7,105.7L273.2,941.4c-25.5,7.5-53.1,2.7-74.5-13.2
	c-15-11-25.9-26.6-31.1-44.5L24.9,398.6L904.3,140.1 M906,137L21.8,396.9l143.3,487.5c13.6,46.4,62.2,73,108.5,59.4
	c0.1,0,0.1,0,0.2-0.1L990,733.2c46.4-13.6,73-62.3,59.3-108.7c0,0,0,0,0,0L906,137z"/>
<path class="st8" d="M1006,115.4l2-0.5L1006,115.4z"/>
<path class="st0" d="M1007.9,115l1.2-0.3L1007.9,115z"/>
<path class="st9" d="M104.9,304.6l6.5,22.1l-3.5,1l-15-50.8l12.1-3.5c6.3-1.9,11.3-2.1,15-0.6s6.3,4.5,7.7,9.2c1,3.1,1,6.4-0.2,9.4
	c-1.1,2.9-3.3,5.4-6.7,7.5l20.6,19.1l-4.2,1.2l-19.6-18.3L104.9,304.6z M104,301.5l9.7-2.9c4.3-1.3,7.3-3.2,9.1-5.8
	c1.8-2.6,2.2-5.8,1.1-9.5c-1.1-3.9-3.1-6.3-6-7.4s-6.9-0.8-12.1,0.7l-8.4,2.5L104,301.5z"/>
<path class="st9" d="M185.4,277.3c2.4,8.1,2.2,15-0.4,20.9c-2.7,5.9-7.5,9.9-14.6,12c-7.1,2.1-13.3,1.4-18.7-2.1
	c-5.4-3.5-9.3-9.3-11.7-17.4c-2.4-8.1-2.2-15,0.5-20.9s7.6-9.8,14.6-11.9c7.1-2.1,13.3-1.4,18.7,2.1S183,269.2,185.4,277.3z
	 M143.8,289.5c2.1,7.3,5.4,12.4,9.8,15.5s9.7,3.7,15.7,1.9c6.1-1.8,10.2-5.1,12.3-10c2.1-4.9,2-11-0.1-18.4
	c-2.1-7.3-5.4-12.5-9.8-15.4c-4.4-2.9-9.6-3.6-15.7-1.8c-6.1,1.8-10.1,5.1-12.2,10S141.7,282.2,143.8,289.5z"/>
<path class="st9" d="M227,237.5l9.7,32.9c1.7,5.8,1.4,10.9-1,15.2c-2.4,4.3-6.6,7.3-12.7,9.1c-5.9,1.7-11,1.4-15.2-0.9
	c-4.3-2.3-7.3-6.5-9-12.4l-9.7-32.8l3.6-1l9.7,32.9c1.4,4.9,3.9,8.3,7.4,10.2c3.5,1.9,7.7,2.2,12.7,0.7c4.9-1.4,8.2-3.9,10.1-7.3
	s2.1-7.6,0.7-12.3l-9.8-33.2L227,237.5z"/>
<path class="st9" d="M269,280.4l-3.6,1.1l-14-47.5l-16.5,4.9l-1-3.3l36.6-10.8l1,3.3l-16.5,4.9L269,280.4z"/>
<path class="st9" d="M293,273.3l-14.9-50.8l3.5-1l15,50.8L293,273.3z"/>
<path class="st9" d="M347.9,257.2l-3.6,1.1L301,221.9l-0.3,0.1c1.9,5.3,3.2,9.3,4,12l9.7,33l-3.4,1l-15-50.8l3.5-1l43.3,36.2
	l0.2-0.1c-1.4-4.1-2.7-8-3.8-11.8l-9.8-33.2l3.4-1L347.9,257.2z"/>
<path class="st9" d="M374.8,221.4l18.7-5.5l6.8,23.2c-4.6,3.7-10,6.4-15.7,8c-8,2.3-14.8,1.9-20.4-1.4s-9.6-9.1-12.1-17.4
	c-1.5-4.7-1.8-9.8-0.9-14.7c0.9-4.5,3.1-8.7,6.4-11.9c3.5-3.5,7.9-6,12.6-7.3c5.1-1.6,10.5-2,15.8-1.3l-0.5,3.6
	c-4.9-0.7-9.9-0.4-14.6,1c-6.7,2-11.4,5.6-14.1,10.9c-2.7,5.3-3.1,11.4-1,18.5c2.3,7.6,5.8,12.9,10.7,15.6s10.9,3.1,18.1,1
	c4.1-1.1,7.9-2.9,11.3-5.5l-5.2-17.9l-15.1,4.4L374.8,221.4z"/>
<path class="st10" d="M366.2,416.4l468.7-148.6c2.1-0.7,4.2-1,6.4-1c11.6,0,21.1,9.5,21.1,21.1c0,9.2-6,17.3-14.7,20.1l-469,148.7
	L366.2,416.4z"/>
<path class="st6" d="M841.2,270.7c9.4,0,17.1,7.7,17.1,17.1c0,7.4-4.8,14-11.9,16.3L381.3,451.6L371.2,419l464.9-147.5
	C837.8,271,839.5,270.7,841.2,270.7 M841.2,262.7c-2.6,0-5.1,0.4-7.6,1.2L361.2,413.7l14.8,47.9l472.8-149.9
	c13.2-4.2,20.5-18.3,16.3-31.5l0,0C861.8,269.8,852.2,262.7,841.2,262.7z"/>
<path class="st2" d="M361.2,413.7l-206.4,65.5c-13.2,4.2-20.5,18.3-16.3,31.5c0,0,0,0,0,0l0,0c4.2,13.2,18.3,20.5,31.5,16.3
	c0,0,0,0,0,0l206-65.3L361.2,413.7z"/>
<path class="st0" d="M395.8,471.8c-22-0.3-39.5-18.4-39.2-40.3c0.3-21.2,17.2-38.4,38.3-39.1h0.9c21.6,0.1,39.1,17.4,39.7,38.9
	c0.5,21.9-16.9,40.1-38.9,40.6c0,0,0,0,0,0L395.8,471.8z"/>
<path class="st6" d="M396.7,398.3c18.4,0.1,33.2,15,33.1,33.4c-0.1,18-14.4,32.7-32.4,33.1h-0.7c-18.4-0.1-33.2-15-33.1-33.4
	c0.1-18,14.4-32.7,32.4-33.1H396.7 M396.7,385.3h-1c-25.5,0.5-45.8,21.7-45.3,47.2c0.5,25.2,21.1,45.3,46.3,45.3h1
	c25.5-0.5,45.8-21.7,45.3-47.2C442.5,405.4,421.9,385.2,396.7,385.3z"/>
<path class="st2" d="M506.2,516.8L196.6,615c-13.2,4.2-20.5,18.3-16.3,31.5c0,0,0,0,0,0l0,0c4.2,13.2,18.3,20.5,31.5,16.3
	l310.3-98.4L506.2,516.8z"/>
<path class="st10" d="M511.3,519.4l365.4-115.9c11.1-3.5,22.9,2.6,26.5,13.7c3.5,11.1-2.6,22.9-13.7,26.5L524.6,559.4L511.3,519.4z"
	/>
<path class="st6" d="M883.1,406.5c9.4,0,17.1,7.7,17.1,17.1c0,7.4-4.8,14-11.9,16.3L527.2,554.4L516.4,522l361.5-114.7
	C879.6,406.8,881.3,406.5,883.1,406.5 M883.1,398.5c-2.6,0-5.1,0.4-7.6,1.2L506.2,516.8l15.9,47.6l368.6-116.9
	c13.2-4.2,20.5-18.3,16.3-31.5l0,0C903.7,405.6,894,398.5,883.1,398.5L883.1,398.5z"/>
<path class="st0" d="M517.1,577.1c-21.6-0.1-39.1-17.3-39.7-38.9c-0.5-21.9,17-40.1,38.9-40.6h0.9c22,0,39.7,17.9,39.7,39.8
	c0,21.6-17.3,39.2-38.9,39.7H517.1z"/>
<path class="st6" d="M517.1,504.1c18.4,0.1,33.2,15,33.1,33.4c-0.1,18-14.4,32.7-32.4,33.1h-0.7c-18.4-0.1-33.2-15-33.1-33.4
	c0.1-18,14.4-32.7,32.4-33.1H517.1 M517.1,491.1h-1c-25.5,0.5-45.8,21.7-45.3,47.2c0.5,25.2,21.1,45.3,46.3,45.3h1
	c25.5-0.5,45.8-21.7,45.3-47.2C562.9,511.3,542.3,491.1,517.1,491.1z"/>
<path class="st2" d="M238.2,752.1c-13.2,4.2-20.5,18.3-16.3,31.5s18.3,20.5,31.5,16.3l0,0l165-52.3L403,699.8L238.2,752.1z"/>
<path class="st10" d="M408.1,702.4l510.2-161.8c11.2-3.3,22.9,3.1,26.2,14.3c3.2,10.8-2.7,22.3-13.4,25.9L420.9,742.6L408.1,702.4z"
	/>
<path class="st6" d="M924.6,543.6c9.4,0,17.1,7.7,17.1,17.1c0,7.4-4.8,14-11.9,16.3L423.5,737.6L413.1,705l506.4-160.6
	C921.1,543.9,922.9,543.6,924.6,543.6 M924.6,535.6c-2.6,0-5.1,0.4-7.6,1.2l-514,163l15.3,47.8l513.9-163
	c13.2-4.2,20.5-18.3,16.3-31.5C945.2,542.7,935.6,535.6,924.6,535.6L924.6,535.6z"/>
<path class="st0" d="M425.6,758.3c-21.6-0.1-39.1-17.3-39.7-38.9c-0.5-21.9,16.9-40.1,38.9-40.6c0,0,0,0,0,0h0.9
	c21.6,0.1,39.1,17.3,39.7,38.9c0.5,21.9-17,40.1-38.9,40.6L425.6,758.3z"/>
<path class="st6" d="M425.7,685.4c18.4,0.1,33.2,15,33.1,33.4c-0.1,18-14.4,32.7-32.4,33.1h-0.7c-18.4-0.1-33.2-15-33.1-33.4
	c0.1-18,14.4-32.7,32.4-33.1H425.7 M425.7,672.4h-1c-25.5,0.7-45.6,22-44.9,47.6c0.7,24.9,21,44.8,45.9,44.9h1
	c25.5-0.7,45.6-22,44.9-47.6C470.9,692.4,450.6,672.5,425.7,672.4z"/>
<path class="st11" d="M669.3,778.8c-5-11.5-12.1-21.9-20.9-30.8c-8.8-8.9-19.2-16-30.7-21c-23.6-10.6-50.6-10.6-74.2,0.1
	c-11.6,5-22.1,12.1-30.9,21.1c-8.8,8.9-16,19.3-21.2,30.8c-5.1,11.8-7.7,24.6-7.6,37.4l0,59.3l42.7,9.4v-68.8
	c-0.1-30,24.1-54.4,54.1-54.5c0,0,0.1,0,0.1,0c14.4-0.3,28.1,5.6,38,16c10.2,10.2,15.8,24,15.7,38.4v10.5c0,11.8,9.6,21.4,21.4,21.3
	h0l0,0c11.8,0,21.3-9.6,21.3-21.4v-10.5C677.1,803.4,674.5,790.7,669.3,778.8z"/>
<path class="st12" d="M504.6,809c-1.4,2.1-2.1,4.5-2,7l0.1,120.3c0,2.8,0.7,4.8,2,5.9s3.3,1.7,6,1.7c2.8,0,4.9-0.6,6.2-1.7
	c1.3-1.1,2-3.1,2-5.9L518.8,816c0.1-2.5-0.6-4.9-2-7c-1.4-2-3.8-3.2-6.2-3C508.2,805.9,505.9,807,504.6,809z"/>
<path class="st13" d="M730.4,880.3c-0.7-4.1-2.7-7.9-5.8-10.8c-3.8-3.9-9.1-6.1-14.6-6l-259.5,0.2c-11.2,0.2-20.2,9.2-20.3,20.3
	l0.1,131.1c0,5.6,2.2,10.9,6,14.9c4,4.4,8.8,6.4,14.3,6h35.6l223.9-0.2c5.5,0.5,11-1.8,14.6-6c3.8-4,6-9.3,6-14.9l-0.1-131.1
	C730.7,882.6,730.6,881.4,730.4,880.3z"/>
<path class="st14" d="M706.2,974.2c-2.8-1.8-6-2.7-9.3-2.6l-159.7,0.1c-3.7,0-6.3,0.9-7.8,2.7c-1.5,1.8-2.2,4.5-2.2,8.2
	c0,3.5,0.7,6.2,2.2,8s4.1,2.7,7.8,2.6l159.7-0.2c3.3,0.1,6.5-0.9,9.3-2.7c2.7-1.8,4.2-4.8,4-8C710.2,978.7,708.8,975.9,706.2,974.2z
	"/>
<path class="st14" d="M706.1,909.7c-2.8-1.8-6-2.7-9.3-2.7l-159.7,0.1c-3.7,0-6.3,0.9-7.8,2.7s-2.2,4.4-2.2,8c0,3.7,0.7,6.5,2.2,8.2
	c1.5,1.8,4.1,2.7,7.8,2.6l159.7-0.1c3.3,0.1,6.5-0.9,9.3-2.7c2.7-1.8,4-4.5,4-8.2C710.3,914.5,708.8,911.4,706.1,909.7z"/>
</svg>
