<?xml version="1.0" encoding="UTF-8" standalone="no"?>
<!-- Generator: Adobe Illustrator 16.0.4, SVG Export Plug-In . SVG Version: 6.00 Build 0)  -->

<svg
   xmlns:dc="http://purl.org/dc/elements/1.1/"
   xmlns:cc="http://creativecommons.org/ns#"
   xmlns:rdf="http://www.w3.org/1999/02/22-rdf-syntax-ns#"
   xmlns:svg="http://www.w3.org/2000/svg"
   xmlns="http://www.w3.org/2000/svg"
   xmlns:sodipodi="http://sodipodi.sourceforge.net/DTD/sodipodi-0.dtd"
   xmlns:inkscape="http://www.inkscape.org/namespaces/inkscape"
   version="1.1"
   id="Layer_1"
   x="0px"
   y="0px"
   width="126"
   height="100"
   viewBox="0 0 126 100"
   enable-background="new 0 0 37 35"
   xml:space="preserve"
   sodipodi:docname="logo-header.svg"
   inkscape:version="0.92.3 (2405546, 2018-03-11)"><metadata
   id="metadata4833"><rdf:RDF><cc:Work
       rdf:about=""><dc:format>image/svg+xml</dc:format><dc:type
         rdf:resource="http://purl.org/dc/dcmitype/StillImage" /><dc:title></dc:title></cc:Work></rdf:RDF></metadata><defs
   id="defs4831" /><sodipodi:namedview
   pagecolor="#ffffff"
   bordercolor="#666666"
   borderopacity="1"
   objecttolerance="10"
   gridtolerance="10"
   guidetolerance="10"
   inkscape:pageopacity="0"
   inkscape:pageshadow="2"
   inkscape:window-width="2560"
   inkscape:window-height="1043"
   id="namedview4829"
   showgrid="false"
   inkscape:zoom="6.7428571"
   inkscape:cx="10.482076"
   inkscape:cy="59.025424"
   inkscape:window-x="1920"
   inkscape:window-y="0"
   inkscape:window-maximized="1"
   inkscape:current-layer="Layer_1" />
<linearGradient
   id="SVGID_1_"
   gradientUnits="userSpaceOnUse"
   x1="231.89549"
   y1="-269.55469"
   x2="231.89549"
   y2="-301.71991"
   gradientTransform="matrix(1,0,0,-1,-213.5,-268.5)">
	<stop
   offset="0"
   style="stop-color:#60EFFF"
   id="stop4821" />
	<stop
   offset="1"
   style="stop-color:#1F89C7"
   id="stop4823" />
</linearGradient>

<path
   class="cls-1"
   d="m 62.413273,42.577239 c 0,-1.836814 1.110195,-2.793776 2.793776,-2.793776 1.683582,0 2.793776,0.956962 2.793776,2.793776 v 12.705455 l 6.199495,-6.888548 c 0.574375,-0.612929 1.300994,-1.071639 2.143279,-1.071639 1.26244,0 2.640543,1.110195 2.640543,2.525866 0,0.99453 -0.34502,1.300995 -0.842284,1.836815 l -4.133326,4.324125 5.816908,7.809919 a 3.047846,3.047846 0 0 1 0.574375,1.799248 c 0,1.415671 -1.147762,2.716665 -2.640544,2.716665 -1.378105,0 -2.104725,-0.692017 -2.525867,-1.300994 L 69.949352,59.568263 67.997859,61.2904 v 4.250968 c 0,1.836815 -1.110194,2.793777 -2.793776,2.793777 -1.683581,0 -2.793776,-0.956962 -2.793776,-2.793777 z"
   id="path2273"
   inkscape:connector-curvature="0"
   style="fill:#013144;stroke-width:0.09885976" /><path
   class="cls-1"
   d="m 84.532151,39.630231 a 2.9084538,2.9084538 0 1 1 -2.908453,2.910431 2.9064765,2.9064765 0 0 1 2.908453,-2.910431 z m -2.793776,10.486052 c 0,-1.492781 0.612931,-2.793776 2.793776,-2.793776 2.180846,0 2.793778,1.300995 2.793778,2.793776 v 15.422121 c 0,1.492781 -0.611943,2.793777 -2.793778,2.793777 -2.181834,0 -2.793776,-1.300996 -2.793776,-2.793777 z"
   id="path2275"
   inkscape:connector-curvature="0"
   style="fill:#013144;stroke-width:0.09885976" /><path
   class="cls-1"
   d="m 108.33561,62.43915 c 0,2.334079 0.57437,2.866933 0.57437,3.74975 0,1.263428 -1.18631,2.143281 -2.52587,2.143281 -2.4112,0 -3.21492,-1.53035 -3.29104,-3.252487 -2.18183,2.410201 -4.707701,3.252487 -7.653723,3.252487 -3.176363,0 -6.315159,-2.180847 -6.315159,-5.702231 0,-4.630591 3.521383,-5.931584 7.809919,-6.425884 l 3.406713,-0.382588 c 1.33955,-0.153232 2.41019,-0.459697 2.41019,-2.067157 0,-1.607458 -1.64502,-2.295523 -3.52039,-2.295523 -4.133328,0 -4.25097,3.064653 -6.467405,3.064653 -1.415673,0 -2.372634,-0.995517 -2.372634,-2.14328 0,-2.219401 3.137807,-5.051733 8.878598,-5.051733 5.357211,0 9.069391,1.722137 9.069391,5.739797 z m -5.58756,-4.018648 c -0.61195,0.574374 -1.7597,0.765174 -2.4102,0.879852 l -2.028602,0.306465 c -2.334081,0.344032 -3.597508,1.071639 -3.597508,2.755221 0,1.263427 1.186316,2.296512 3.100241,2.296512 3.064649,0 4.936069,-1.990047 4.936069,-4.053249 z"
   id="path2277"
   inkscape:connector-curvature="0"
   style="fill:#013144;stroke-width:0.09885976" /><path
   class="cls-1"
   d="m 111.16694,42.577239 c 0,-1.836814 1.1102,-2.793776 2.79378,-2.793776 1.68358,0 2.79378,0.956962 2.79378,2.793776 v 22.961165 c 0,1.836814 -1.1102,2.793777 -2.79378,2.793777 -1.68358,0 -2.79378,-0.956963 -2.79378,-2.793777 z"
   id="path2279"
   inkscape:connector-curvature="0"
   style="fill:#013144;stroke-width:0.09885976" /><path
   class="cls-1"
   d="m 122.30351,39.630231 a 2.9084538,2.9084538 0 1 1 -2.90846,2.910431 2.9064765,2.9064765 0 0 1 2.90846,-2.910431 z m -2.79379,10.486052 c 0,-1.492781 0.61194,-2.793776 2.79379,-2.793776 2.18183,0 2.79377,1.300995 2.79377,2.793776 v 15.422121 c 0,1.492781 -0.61294,2.793777 -2.79377,2.793777 -2.18085,0 -2.79379,-1.300996 -2.79379,-2.793777 z"
   id="path2281"
   inkscape:connector-curvature="0"
   style="fill:#013144;stroke-width:0.09885976" /><path
   class="cls-1"
   d="m 34.145317,31.93993 c -10.604685,0 -19.201528,8.596844 -19.201528,19.201529 0,10.604684 8.600797,19.201528 19.201528,19.201528 10.600731,0 19.201529,-8.600797 19.201529,-19.201528 0,-10.600731 -8.596844,-19.201529 -19.201529,-19.201529 z m 0,35.480763 A 16.279235,16.279235 0 1 1 50.423563,51.141459 16.280222,16.280222 0 0 1 34.145317,67.420693 Z"
   id="path2283"
   inkscape:connector-curvature="0"
   style="fill:#013144;stroke-width:0.09885976" /><path
   class="cls-2"
   d="m 27.552361,36.25417 a 16.283188,16.283188 0 0 0 0,29.774578 19.870809,19.870809 0 0 0 0,-29.774578 z"
   id="path2285"
   inkscape:connector-curvature="0"
   style="fill:#0093dd;stroke-width:0.09885976" /><path
   class="cls-2"
   d="m 14.943789,51.141459 a 19.121451,19.121451 0 0 1 4.300399,-12.10933 13.001045,13.001045 0 0 0 -5.437286,-1.186317 c -7.2661878,0.002 -13.1582278,5.953334 -13.1582278,13.295647 0,7.342313 5.89204,13.29367 13.1592168,13.29367 a 13.001045,13.001045 0 0 0 5.437285,-1.186317 19.121451,19.121451 0 0 1 -4.301387,-12.107353 z"
   id="path2287"
   inkscape:connector-curvature="0"
   style="fill:#0093dd;stroke-width:0.09885976" /></svg>