<?xml version="1.0" encoding="UTF-8" standalone="no"?>
<!-- Created with Inkscape (http://www.inkscape.org/) -->

<svg
   xmlns:dc="http://purl.org/dc/elements/1.1/"
   xmlns:cc="http://creativecommons.org/ns#"
   xmlns:rdf="http://www.w3.org/1999/02/22-rdf-syntax-ns#"
   xmlns:svg="http://www.w3.org/2000/svg"
   xmlns="http://www.w3.org/2000/svg"
   xmlns:sodipodi="http://sodipodi.sourceforge.net/DTD/sodipodi-0.dtd"
   xmlns:inkscape="http://www.inkscape.org/namespaces/inkscape"
   width="93.556267"
   height="29.827854"
   viewBox="0 0 24.753429 7.8919535"
   version="1.1"
   id="svg8"
   inkscape:version="0.92.3 (2405546, 2018-03-11)"
   sodipodi:docname="logo-dark.svg">
  <defs
     id="defs2" />
  <sodipodi:namedview
     id="base"
     pagecolor="#ffffff"
     bordercolor="#666666"
     borderopacity="1.0"
     inkscape:pageopacity="0.0"
     inkscape:pageshadow="2"
     inkscape:zoom="15.821672"
     inkscape:cx="46.778137"
     inkscape:cy="14.913928"
     inkscape:document-units="mm"
     inkscape:current-layer="text817"
     showgrid="false"
     inkscape:window-width="1920"
     inkscape:window-height="1016"
     inkscape:window-x="0"
     inkscape:window-y="27"
     inkscape:window-maximized="1"
     fit-margin-top="5"
     fit-margin-left="5"
     fit-margin-right="5"
     fit-margin-bottom="5"
     units="px" />
  <metadata
     id="metadata5">
    <rdf:RDF>
      <cc:Work
         rdf:about="">
        <dc:format>image/svg+xml</dc:format>
        <dc:type
           rdf:resource="http://purl.org/dc/dcmitype/StillImage" />
        <dc:title></dc:title>
      </cc:Work>
    </rdf:RDF>
  </metadata>
  <g
     inkscape:label="Layer 1"
     inkscape:groupmode="layer"
     id="layer1"
     transform="translate(-1.1639684,-135.47565)">
    <g
       aria-label="KIALI SERVICE MESH OBSERVABILITY"
       style="font-style:normal;font-weight:normal;font-size:10.58333302px;line-height:1.25;font-family:sans-serif;letter-spacing:0px;word-spacing:0px;fill:#0b0b0b;fill-opacity:1;stroke:none;stroke-width:0.26458332"
       id="text817">
      <path
         inkscape:connector-curvature="0"
         d="m 8.0735656,139.7619 h 0.7535333 l -1.0413999,-1.88806 0.8847666,-1.07527 h -0.7747 l -1.1091332,1.40123 v -1.40123 H 6.1431657 v 2.96333 h 0.6434667 v -0.64346 l 0.5630333,-0.70274 z"
         style="letter-spacing:1.05833328px;fill:#ffffff;fill-opacity:1"
         id="path1780" />
      <path
         inkscape:connector-curvature="0"
         d="m 10.323251,139.7619 h 0.643467 v -2.96333 h -0.643467 z"
         style="letter-spacing:1.05833328px;fill:#ffffff;fill-opacity:1"
         id="path1782" />
      <path
         inkscape:connector-curvature="0"
         d="m 14.669561,139.7619 h 0.702734 l -1.172634,-2.96333 h -0.618066 l -1.1684,2.96333 h 0.702733 l 0.220133,-0.57573 h 1.113367 z m -0.436033,-1.1684 h -0.6858 l 0.254,-0.63923 c 0.02963,-0.072 0.07197,-0.17357 0.0889,-0.24977 0.02117,0.0762 0.05927,0.1778 0.0889,0.24977 z"
         style="letter-spacing:1.05833328px;fill:#ffffff;fill-opacity:1"
         id="path1784" />
      <path
         inkscape:connector-curvature="0"
         d="m 16.800913,139.7619 h 2.065866 v -0.6223 H 17.44438 v -2.34103 h -0.643467 z"
         style="letter-spacing:1.05833328px;fill:#ffffff;fill-opacity:1"
         id="path1786" />
      <path
         inkscape:connector-curvature="0"
         d="m 20.294735,139.7619 h 0.643466 v -2.96333 h -0.643466 z"
         style="letter-spacing:1.05833328px;fill:#ffffff;fill-opacity:1"
         id="path1788" />
      <path
         d="m 2.836014,142.04466 c 0.1932952,0 0.3311487,-0.10489 0.3311487,-0.29069 0,-0.19629 -0.1603298,-0.2862 -0.3026788,-0.34164 -0.1243676,-0.048 -0.2412434,-0.0989 -0.2412434,-0.20977 0,-0.0899 0.073422,-0.14835 0.1962914,-0.14835 0.1048886,0 0.1738151,0.0494 0.1992882,0.10489 l 0.097396,-0.0329 c -0.028471,-0.0959 -0.1378534,-0.16632 -0.292189,-0.16632 -0.1947939,0 -0.3086724,0.11088 -0.3086724,0.24424 0,0.17382 0.1603298,0.25323 0.3071737,0.30867 0.1228694,0.0464 0.2367485,0.11538 0.2367485,0.24424 0,0.12587 -0.085409,0.1933 -0.2217645,0.1933 -0.1198727,0 -0.2097773,-0.0629 -0.2517325,-0.15434 l -0.098895,0.0359 c 0.041955,0.11388 0.172317,0.21278 0.3491289,0.21278 z"
         style="font-style:normal;font-variant:normal;font-weight:300;font-stretch:normal;font-size:4.23333311px;font-family:Overpass;-inkscape-font-specification:'Overpass Light';letter-spacing:0px;word-spacing:0.79374999px;fill:#ffffff;fill-opacity:1;stroke-width:0.09365056"
         id="path1790"
         inkscape:connector-curvature="0" />
      <path
         d="m 3.4365018,142.02668 h 0.63083 v -0.10039 H 3.5413904 v -0.39259 h 0.3326468 v -0.0989 H 3.5413904 v -0.35662 H 4.034367 v -0.1004 H 3.4365018 Z"
         style="font-style:normal;font-variant:normal;font-weight:300;font-stretch:normal;font-size:4.23333311px;font-family:Overpass;-inkscape-font-specification:'Overpass Light';letter-spacing:0px;word-spacing:0.79374999px;fill:#ffffff;fill-opacity:1;stroke-width:0.09365056"
         id="path1792"
         inkscape:connector-curvature="0" />
      <path
         d="m 4.3291091,142.02668 h 0.1048886 v -0.469 h 0.2367485 l 0.224762,0.469 h 0.1153771 l -0.2322536,-0.47349 c 0.1902984,-0.03 0.2592248,-0.16034 0.2592248,-0.2877 0,-0.14085 -0.076419,-0.2877 -0.3236563,-0.2877 H 4.3291091 Z m 0.1048886,-0.5634 v -0.39109 H 4.717197 c 0.172317,0 0.2202664,0.11538 0.2202664,0.19779 0,0.0944 -0.055439,0.1933 -0.2202664,0.1933 z"
         style="font-style:normal;font-variant:normal;font-weight:300;font-stretch:normal;font-size:4.23333311px;font-family:Overpass;-inkscape-font-specification:'Overpass Light';letter-spacing:0px;word-spacing:0.79374999px;fill:#ffffff;fill-opacity:1;stroke-width:0.09365056"
         id="path1794"
         inkscape:connector-curvature="0" />
      <path
         d="m 5.5912842,142.02668 h 0.076419 L 6.025823,140.97779 H 5.9134425 l -0.2502344,0.78667 c -0.00899,0.03 -0.019478,0.0614 -0.028471,0.0929 -0.01049,-0.0315 -0.019478,-0.0629 -0.029968,-0.0929 l -0.262221,-0.78667 H 5.2316656 Z"
         style="font-style:normal;font-variant:normal;font-weight:300;font-stretch:normal;font-size:4.23333311px;font-family:Overpass;-inkscape-font-specification:'Overpass Light';letter-spacing:0px;word-spacing:0.79374999px;fill:#ffffff;fill-opacity:1;stroke-width:0.09365056"
         id="path1796"
         inkscape:connector-curvature="0" />
      <path
         d="m 6.2430924,142.02668 h 0.1048885 v -1.04889 H 6.2430924 Z"
         style="font-style:normal;font-variant:normal;font-weight:300;font-stretch:normal;font-size:4.23333311px;font-family:Overpass;-inkscape-font-specification:'Overpass Light';letter-spacing:0px;word-spacing:0.79374999px;fill:#ffffff;fill-opacity:1;stroke-width:0.09365056"
         id="path1798"
         inkscape:connector-curvature="0" />
      <path
         d="m 7.0436874,142.04466 c 0.1813074,0 0.2876942,-0.0959 0.3356434,-0.19179 l -0.092901,-0.0359 c -0.047949,0.0794 -0.1168755,0.13335 -0.2427419,0.13335 -0.2292566,0 -0.325155,-0.21727 -0.325155,-0.44802 0,-0.20828 0.085409,-0.44803 0.325155,-0.44803 0.1213711,0 0.1813074,0.0614 0.227758,0.12887 l 0.092901,-0.0539 c -0.052444,-0.0854 -0.1318603,-0.16933 -0.3206595,-0.16933 -0.3026788,0 -0.4345387,0.25623 -0.4345387,0.54243 0,0.2742 0.1228694,0.54242 0.4345387,0.54242 z"
         style="font-style:normal;font-variant:normal;font-weight:300;font-stretch:normal;font-size:4.23333311px;font-family:Overpass;-inkscape-font-specification:'Overpass Light';letter-spacing:0px;word-spacing:0.79374999px;fill:#ffffff;fill-opacity:1;stroke-width:0.09365056"
         id="path1800"
         inkscape:connector-curvature="0" />
      <path
         d="m 7.6273651,142.02668 h 0.6308301 v -0.10039 H 7.7322536 v -0.39259 h 0.3326468 v -0.0989 H 7.7322536 v -0.35662 h 0.4929767 v -0.1004 H 7.6273651 Z"
         style="font-style:normal;font-variant:normal;font-weight:300;font-stretch:normal;font-size:4.23333311px;font-family:Overpass;-inkscape-font-specification:'Overpass Light';letter-spacing:0px;word-spacing:0.79374999px;fill:#ffffff;fill-opacity:1;stroke-width:0.09365056"
         id="path1802"
         inkscape:connector-curvature="0" />
      <path
         d="m 10.033318,142.02668 v -1.04889 H 9.941915 l -0.3296498,0.7582 c -0.00899,0.0195 -0.016484,0.0389 -0.025474,0.0585 -0.00899,-0.0195 -0.016484,-0.039 -0.025474,-0.0585 l -0.325155,-0.7582 h -0.089905 v 1.04889 H 9.251146 v -0.71324 -0.0585 c 0.00749,0.0195 0.016484,0.0389 0.023973,0.0585 l 0.3026785,0.73122 0.3221581,-0.73122 c 0.00899,-0.021 0.019478,-0.042 0.028469,-0.0629 v 0.0629 0.71324 z"
         style="font-style:normal;font-variant:normal;font-weight:300;font-stretch:normal;font-size:4.23333311px;font-family:Overpass;-inkscape-font-specification:'Overpass Light';letter-spacing:0px;word-spacing:0.79374999px;fill:#ffffff;fill-opacity:1;stroke-width:0.09365056"
         id="path1804"
         inkscape:connector-curvature="0" />
      <path
         d="m 10.349083,142.02668 h 0.630831 v -0.10039 h -0.525942 v -0.39259 h 0.332647 v -0.0989 h -0.332647 v -0.35662 h 0.492976 v -0.1004 h -0.597865 z"
         style="font-style:normal;font-variant:normal;font-weight:300;font-stretch:normal;font-size:4.23333311px;font-family:Overpass;-inkscape-font-specification:'Overpass Light';letter-spacing:0px;word-spacing:0.79374999px;fill:#ffffff;fill-opacity:1;stroke-width:0.09365056"
         id="path1806"
         inkscape:connector-curvature="0" />
      <path
         d="m 11.530884,142.04466 c 0.193295,0 0.331149,-0.10489 0.331149,-0.29069 0,-0.19629 -0.16033,-0.2862 -0.302679,-0.34164 -0.124368,-0.048 -0.241244,-0.0989 -0.241244,-0.20977 0,-0.0899 0.07342,-0.14835 0.196292,-0.14835 0.104888,0 0.173815,0.0494 0.199288,0.10489 l 0.0974,-0.0329 c -0.02847,-0.0959 -0.137853,-0.16632 -0.292189,-0.16632 -0.194793,0 -0.308672,0.11088 -0.308672,0.24424 0,0.17382 0.16033,0.25323 0.307173,0.30867 0.12287,0.0464 0.236749,0.11538 0.236749,0.24424 0,0.12587 -0.08541,0.1933 -0.221764,0.1933 -0.119873,0 -0.209778,-0.0629 -0.251733,-0.15434 l -0.09889,0.0359 c 0.04195,0.11388 0.172317,0.21278 0.349129,0.21278 z"
         style="font-style:normal;font-variant:normal;font-weight:300;font-stretch:normal;font-size:4.23333311px;font-family:Overpass;-inkscape-font-specification:'Overpass Light';letter-spacing:0px;word-spacing:0.79374999px;fill:#ffffff;fill-opacity:1;stroke-width:0.09365056"
         id="path1808"
         inkscape:connector-curvature="0" />
      <path
         d="m 12.748716,142.02668 h 0.104889 v -1.04889 h -0.104889 v 0.45402 H 12.23626 v -0.45402 h -0.104888 v 1.04889 h 0.104888 v -0.49597 h 0.512456 z"
         style="font-style:normal;font-variant:normal;font-weight:300;font-stretch:normal;font-size:4.23333311px;font-family:Overpass;-inkscape-font-specification:'Overpass Light';letter-spacing:0px;word-spacing:0.79374999px;fill:#ffffff;fill-opacity:1;stroke-width:0.09365056"
         id="path1810"
         inkscape:connector-curvature="0" />
      <path
         d="m 14.175764,142.04466 c 0.323656,0 0.434538,-0.2832 0.434538,-0.54242 0,-0.25923 -0.110882,-0.54243 -0.434538,-0.54243 -0.323656,0 -0.434539,0.2832 -0.434539,0.54243 0,0.25922 0.110883,0.54242 0.434539,0.54242 z m 0,-0.0944 c -0.241244,0 -0.325155,-0.22027 -0.325155,-0.44802 0,-0.20828 0.08391,-0.44803 0.325155,-0.44803 0.241243,0 0.325154,0.22027 0.325154,0.44803 0,0.20828 -0.08391,0.44802 -0.325154,0.44802 z"
         style="font-style:normal;font-variant:normal;font-weight:300;font-stretch:normal;font-size:4.23333311px;font-family:Overpass;-inkscape-font-specification:'Overpass Light';letter-spacing:0px;word-spacing:0.79374999px;fill:#ffffff;fill-opacity:1;stroke-width:0.09365056"
         id="path1812"
         inkscape:connector-curvature="0" />
      <path
         d="m 14.873577,140.97779 v 1.04889 h 0.371606 c 0.257726,0 0.334145,-0.15134 0.334145,-0.29369 0,-0.14384 -0.08841,-0.23075 -0.202286,-0.25922 0.0989,-0.0375 0.164826,-0.11538 0.164826,-0.22177 0,-0.13635 -0.07492,-0.27421 -0.32066,-0.27421 z m 0.322158,0.45852 h -0.217269 v -0.36412 h 0.251733 c 0.175313,0 0.214272,0.0914 0.214272,0.17681 0,0.11389 -0.08391,0.18731 -0.248736,0.18731 z m 0.06743,0.49597 h -0.284697 v -0.40457 h 0.23525 c 0.214273,0 0.268215,0.10339 0.268215,0.21427 0,0.0959 -0.04645,0.1903 -0.218768,0.1903 z"
         style="font-style:normal;font-variant:normal;font-weight:300;font-stretch:normal;font-size:4.23333311px;font-family:Overpass;-inkscape-font-specification:'Overpass Light';letter-spacing:0px;word-spacing:0.79374999px;fill:#ffffff;fill-opacity:1;stroke-width:0.09365056"
         id="path1814"
         inkscape:connector-curvature="0" />
      <path
         d="m 16.131467,142.04466 c 0.193295,0 0.331149,-0.10489 0.331149,-0.29069 0,-0.19629 -0.16033,-0.2862 -0.302679,-0.34164 -0.124368,-0.048 -0.241244,-0.0989 -0.241244,-0.20977 0,-0.0899 0.07342,-0.14835 0.196292,-0.14835 0.104889,0 0.173815,0.0494 0.199288,0.10489 l 0.0974,-0.0329 c -0.02847,-0.0959 -0.137854,-0.16632 -0.29219,-0.16632 -0.194793,0 -0.308672,0.11088 -0.308672,0.24424 0,0.17382 0.16033,0.25323 0.307174,0.30867 0.122869,0.0464 0.236749,0.11538 0.236749,0.24424 0,0.12587 -0.08541,0.1933 -0.221766,0.1933 -0.119872,0 -0.209776,-0.0629 -0.251732,-0.15434 l -0.0989,0.0359 c 0.04196,0.11388 0.172317,0.21278 0.349129,0.21278 z"
         style="font-style:normal;font-variant:normal;font-weight:300;font-stretch:normal;font-size:4.23333311px;font-family:Overpass;-inkscape-font-specification:'Overpass Light';letter-spacing:0px;word-spacing:0.79374999px;fill:#ffffff;fill-opacity:1;stroke-width:0.09365056"
         id="path1816"
         inkscape:connector-curvature="0" />
      <path
         d="m 16.731955,142.02668 h 0.63083 v -0.10039 h -0.525941 v -0.39259 h 0.332647 v -0.0989 h -0.332647 v -0.35662 h 0.492976 v -0.1004 h -0.597865 z"
         style="font-style:normal;font-variant:normal;font-weight:300;font-stretch:normal;font-size:4.23333311px;font-family:Overpass;-inkscape-font-specification:'Overpass Light';letter-spacing:0px;word-spacing:0.79374999px;fill:#ffffff;fill-opacity:1;stroke-width:0.09365056"
         id="path1818"
         inkscape:connector-curvature="0" />
      <path
         d="m 17.624562,142.02668 h 0.104888 v -0.469 h 0.236749 l 0.224762,0.469 h 0.115377 l -0.232253,-0.47349 c 0.190298,-0.03 0.259224,-0.16034 0.259224,-0.2877 0,-0.14085 -0.07642,-0.2877 -0.323656,-0.2877 h -0.385091 z m 0.104888,-0.5634 v -0.39109 h 0.2832 c 0.172317,0 0.220266,0.11538 0.220266,0.19779 0,0.0944 -0.05544,0.1933 -0.220266,0.1933 z"
         style="font-style:normal;font-variant:normal;font-weight:300;font-stretch:normal;font-size:4.23333311px;font-family:Overpass;-inkscape-font-specification:'Overpass Light';letter-spacing:0px;word-spacing:0.79374999px;fill:#ffffff;fill-opacity:1;stroke-width:0.09365056"
         id="path1820"
         inkscape:connector-curvature="0" />
      <path
         d="m 18.886738,142.02668 h 0.07642 l 0.35812,-1.04889 h -0.11238 l -0.250235,0.78667 c -0.009,0.03 -0.01948,0.0614 -0.02847,0.0929 -0.01049,-0.0315 -0.01948,-0.0629 -0.02997,-0.0929 l -0.262221,-0.78667 h -0.110883 z"
         style="font-style:normal;font-variant:normal;font-weight:300;font-stretch:normal;font-size:4.23333311px;font-family:Overpass;-inkscape-font-specification:'Overpass Light';letter-spacing:0px;word-spacing:0.79374999px;fill:#ffffff;fill-opacity:1;stroke-width:0.09365056"
         id="path1822"
         inkscape:connector-curvature="0" />
      <path
         d="m 20.071512,142.02668 h 0.106386 l -0.36711,-1.04889 h -0.08091 l -0.364113,1.04889 h 0.109384 l 0.0914,-0.27122 h 0.409065 z m -0.127365,-0.36411 h -0.346133 l 0.143848,-0.41956 c 0.009,-0.0255 0.02248,-0.0749 0.02847,-0.0944 0.0045,0.0195 0.02098,0.0689 0.02997,0.0944 z"
         style="font-style:normal;font-variant:normal;font-weight:300;font-stretch:normal;font-size:4.23333311px;font-family:Overpass;-inkscape-font-specification:'Overpass Light';letter-spacing:0px;word-spacing:0.79374999px;fill:#ffffff;fill-opacity:1;stroke-width:0.09365056"
         id="path1824"
         inkscape:connector-curvature="0" />
      <path
         d="m 20.396034,140.97779 v 1.04889 h 0.371605 c 0.257727,0 0.334145,-0.15134 0.334145,-0.29369 0,-0.14384 -0.08841,-0.23075 -0.202285,-0.25922 0.0989,-0.0375 0.164825,-0.11538 0.164825,-0.22177 0,-0.13635 -0.07492,-0.27421 -0.32066,-0.27421 z m 0.322157,0.45852 h -0.217269 v -0.36412 h 0.251733 c 0.175314,0 0.214273,0.0914 0.214273,0.17681 0,0.11389 -0.08391,0.18731 -0.248737,0.18731 z m 0.06743,0.49597 h -0.284698 v -0.40457 h 0.235251 c 0.214272,0 0.268214,0.10339 0.268214,0.21427 0,0.0959 -0.04645,0.1903 -0.218767,0.1903 z"
         style="font-style:normal;font-variant:normal;font-weight:300;font-stretch:normal;font-size:4.23333311px;font-family:Overpass;-inkscape-font-specification:'Overpass Light';letter-spacing:0px;word-spacing:0.79374999px;fill:#ffffff;fill-opacity:1;stroke-width:0.09365056"
         id="path1826"
         inkscape:connector-curvature="0" />
      <path
         d="m 21.364733,142.02668 h 0.104888 v -1.04889 h -0.104888 z"
         style="font-style:normal;font-variant:normal;font-weight:300;font-stretch:normal;font-size:4.23333311px;font-family:Overpass;-inkscape-font-specification:'Overpass Light';letter-spacing:0px;word-spacing:0.79374999px;fill:#ffffff;fill-opacity:1;stroke-width:0.09365056"
         id="path1828"
         inkscape:connector-curvature="0" />
      <path
         d="m 21.783233,142.02668 h 0.624837 v -0.10039 h -0.519948 v -0.9485 h -0.104889 z"
         style="font-style:normal;font-variant:normal;font-weight:300;font-stretch:normal;font-size:4.23333311px;font-family:Overpass;-inkscape-font-specification:'Overpass Light';letter-spacing:0px;word-spacing:0.79374999px;fill:#ffffff;fill-opacity:1;stroke-width:0.09365056"
         id="path1830"
         inkscape:connector-curvature="0" />
      <path
         d="m 22.617309,142.02668 h 0.104889 v -1.04889 h -0.104889 z"
         style="font-style:normal;font-variant:normal;font-weight:300;font-stretch:normal;font-size:4.23333311px;font-family:Overpass;-inkscape-font-specification:'Overpass Light';letter-spacing:0px;word-spacing:0.79374999px;fill:#ffffff;fill-opacity:1;stroke-width:0.09365056"
         id="path1832"
         inkscape:connector-curvature="0" />
      <path
         d="m 23.360962,141.07819 h 0.289194 v -0.1004 h -0.681777 v 0.1004 h 0.287694 v 0.94849 h 0.104889 z"
         style="font-style:normal;font-variant:normal;font-weight:300;font-stretch:normal;font-size:4.23333311px;font-family:Overpass;-inkscape-font-specification:'Overpass Light';letter-spacing:0px;word-spacing:0.79374999px;fill:#ffffff;fill-opacity:1;stroke-width:0.09365056"
         id="path1834"
         inkscape:connector-curvature="0" />
      <path
         d="m 24.149455,142.02668 h 0.104888 v -0.41656 l 0.340139,-0.63233 h -0.107886 l -0.286196,0.53943 -0.278704,-0.53943 h -0.115377 l 0.343136,0.63683 z"
         style="font-style:normal;font-variant:normal;font-weight:300;font-stretch:normal;font-size:4.23333311px;font-family:Overpass;-inkscape-font-specification:'Overpass Light';letter-spacing:0px;word-spacing:0.79374999px;fill:#ffffff;fill-opacity:1;stroke-width:0.09365056"
         id="path1836"
         inkscape:connector-curvature="0" />
    </g>
  </g>
</svg>
