<?xml version="1.0" encoding="utf-8"?>
<!-- Generator: Adobe Illustrator 23.0.4, SVG Export Plug-In . SVG Version: 6.00 Build 0)  -->
<svg version="1.1" id="Layer_1" xmlns="http://www.w3.org/2000/svg" xmlns:xlink="http://www.w3.org/1999/xlink" x="0px" y="0px"
	 viewBox="0 0 1133.5 1098.3" style="enable-background:new 0 0 1133.5 1098.3;" xml:space="preserve">
<style type="text/css">
	.st0{fill:#0093DD;}
	.st1{fill:#30AAE8;}
	.st2{fill:#8FD9FF;}
	.st3{fill:#5FC2F4;}
	.st4{fill:#205AA9;}
	.st5{fill:none;}
	.st6{fill:#FFFFFF;}
	.st7{fill:#CCCCCC;}
	.st8{fill:#BBBBBB;}
	.st9{fill:#F0AB00;}
	.st10{fill:#FAFAFA;}
	.st11{fill:#64A34D;}
	.st12{fill:#CC0000;}
	.st13{fill:#9B9B9B;}
	.st14{fill:#8B8D8F;}
	.st15{fill:#999999;}
	.st16{fill:#BFBFBF;}
	.st17{fill:#C9C9C9;}
	.st18{fill:#AAAAAA;}
	.st19{fill:#B3B3B3;}
</style>
<g>
	<path class="st0" d="M257.6,494.2c57.9-27,123.5-45,195-44c151.5-58.8,280.2-157,429-176.5c58.1-7.6,112.8-2.1,163.2,11.6
		C951.8,114.9,770.9-0.7,563-0.6C292.1-0.4,67.3,196.5,23.4,454.9C109.7,487,186.9,497.6,257.6,494.2z"/>
	<path class="st1" d="M257.6,494.2c-70.7,3.4-147.9-7.2-234.2-39.4c-12,71.1-10,143.9,5.9,214.3C71.4,623.2,151.4,543.7,257.6,494.2
		z"/>
	<path class="st2" d="M291.6,624c-98.2-12.7-186.6,12.1-261,50.5C88,915.8,305,1095.2,563.9,1094.9c196-0.2,368-103.3,464.6-258.2
		C717.3,887.9,529.9,654.9,291.6,624z"/>
	<path class="st3" d="M498.6,453.6c-15.3-2-30.6-3.1-46-3.3c-71.5-1-137.1,17-195,44c-106.2,49.5-186.2,128.9-228.3,175
		c0.4,1.8,0.8,3.5,1.2,5.3c74.4-38.4,162.8-63.2,261-50.5C529.9,655,717.4,888,1028.5,836.8c31.8-51,55-106.9,68.6-165.5
		C864.1,649.1,699.4,479.6,498.6,453.6z"/>
	<path class="st1" d="M1044.7,285.4c-50.4-13.7-105.1-19.2-163.2-11.6c-148.7,19.5-277.4,117.7-428.9,176.5
		c15.4,0.2,30.7,1.3,46,3.3c200.8,26,365.5,195.6,598.5,217.7C1127.2,540.6,1108.6,403.3,1044.7,285.4z"/>
</g>
<title>Asset 38</title>
<path class="st4" d="M306.3,507c62.9-3,120.2-18.3,174.2-39.3C416.6,466.8,358,482.9,306.3,507z"/>
<path class="st5" d="M93.3,673.5c3.4-1.9,6.8-3.7,10.2-5.4c-0.4-1.6-0.7-3.1-1.1-4.7C99.1,666.9,96.1,670.3,93.3,673.5z"/>
<path class="st6" d="M786.8,642.1l-84.1-228.4L554.1,10.4C551.1,2.2,542-2,533.7,1L73.5,170.5l-63.1,23.3C2.2,196.9-2,206,1,214.2
	l232.7,631.7c3,8.2,12.2,12.4,20.4,9.4l523.4-192.8C785.6,659.4,789.9,650.3,786.8,642.1z"/>
<path class="st7" d="M554.1,10.4C551.1,2.2,542-2,533.7,1L73.5,170.5l629.2,243.2L554.1,10.4z"/>
<path class="st8" d="M73.5,170.5l-63.1,23.3C2.2,196.9-2,206,1,214.2l232.7,631.7c3,8.2,12.2,12.4,20.4,9.4l523.4-192.8
	c8.2-3.1,12.4-12.2,9.4-20.4l-84.1-228.4L73.5,170.5z"/>
<rect x="146.6" y="130.5" transform="matrix(0.9384 -0.3456 0.3456 0.9384 -126.4459 165.8751)" class="st6" width="510.7" height="613.9"/>
<path d="M295.2,335l-13.3,23l-4.7-12.8l-8.5,3.1c1.4,1.8,2.7,3.7,3.9,5.6c1.1,2,2.1,4.1,2.9,6.3c1.3,3.4,2.1,6.9,2.4,10.5
	c0.3,3.5,0.2,7.1-0.5,10.6c-0.6,3.5-1.6,6.9-3.1,10.1c-1.5,3.2-3.4,6.2-5.6,8.9c-2.3,2.8-4.9,5.2-7.8,7.3c-5.9,4.1-12.8,6.6-20,7.4
	c-3.5,0.3-7.1,0.2-10.6-0.5c-3.5-0.6-6.8-1.6-10.1-3.1c-3.2-1.5-6.3-3.4-9-5.7c-1-0.8-1.9-1.7-2.8-2.6c-0.9-0.9-1.7-1.8-2.5-2.8
	l-14.9,5.5l-2.3-6.4l13.2-4.9c-0.6-1-1.1-2-1.6-3s-0.9-2.1-1.3-3.2c-1.3-3.4-2.1-6.9-2.4-10.5c-0.3-3.5-0.1-7.1,0.5-10.6
	c0.7-3.5,1.7-6.9,3.2-10.1c1.5-3.2,3.4-6.3,5.6-9c7-8.3,16.9-13.6,27.8-14.6c3.5-0.3,7.1-0.1,10.6,0.5c3.5,0.6,6.9,1.7,10.2,3.1
	c3.2,1.5,6.2,3.4,8.9,5.7l0.1,0.1l11.4-4.2l-4.7-12.8L295.2,335z M207.5,385.4c0.4,1.1,0.8,2.1,1.3,3.1c0.5,1,1,2,1.6,2.9l29.2-10.8
	l-4.7-12.8l25,9l-13.2,23l-4.7-12.8l-27,10c1.3,1.3,2.8,2.5,4.3,3.6c1.5,1,3.1,1.9,4.7,2.7c1.8,0.9,3.8,1.5,5.7,2
	c2,0.5,4.1,0.8,6.2,0.9c2.1,0.1,4.2,0,6.3-0.3c4.2-0.6,8.3-2.1,11.9-4.4c1.8-1.1,3.5-2.4,5.1-3.9c1.5-1.5,2.8-3,4-4.7
	c1.2-1.6,2.2-3.4,3.1-5.2c0.9-1.8,1.5-3.8,2-5.7c0.5-2,0.8-4.1,1-6.1c0.1-2.1,0-4.2-0.4-6.4c-0.3-2.1-0.8-4.2-1.6-6.2
	c-0.7-2-1.7-3.9-2.8-5.8c-1.1-1.8-2.4-3.5-3.8-5c-0.2-0.2-0.4-0.4-0.5-0.5c-0.2-0.2-0.3-0.3-0.5-0.5l-27.1,10l-2.4-6.4l23.1-8.5
	c-0.4-0.2-0.8-0.4-1.2-0.6c-0.4-0.2-0.8-0.5-1.2-0.6c-1.8-0.9-3.8-1.5-5.7-2c-4.1-0.9-8.4-1.1-12.6-0.6c-4.2,0.6-8.2,2.1-11.9,4.4
	c-1.8,1.1-3.5,2.5-5,3.9c-1.5,1.4-2.9,3-4.2,4.6c-1.2,1.6-2.2,3.4-3.1,5.2c-0.9,1.8-1.5,3.7-2,5.7c-0.5,2-0.8,4.1-0.9,6.2
	c-0.1,2.1,0,4.2,0.3,6.3C206.2,381.4,206.7,383.5,207.5,385.4L207.5,385.4z"/>
<path class="st2" d="M240.1,460.7c-47.9,0.1-86.8-38.7-86.9-86.7c-0.1-47.9,38.7-86.8,86.7-86.9s86.8,38.7,86.9,86.7
	c0,36.4-22.6,69-56.8,81.6C260.4,458.9,250.3,460.7,240.1,460.7z M239.9,293.6c-44.4,0-80.3,35.9-80.3,80.3
	c0,44.4,35.9,80.3,80.3,80.3s80.3-35.9,80.3-80.3c0-9.5-1.7-18.9-4.9-27.8l0,0C303.6,314.6,273.6,293.6,239.9,293.6L239.9,293.6z"/>
<polygon class="st6" points="302.9,374.6 362.5,426.5 295.6,456.9 "/>
<path class="st9" d="M302.2,370.1c0.5-0.2,1.1-0.3,1.6-0.4c0.5-0.1,1.1,0,1.6,0.1c0.6,0.1,1.1,0.2,1.6,0.5c0.5,0.3,1,0.6,1.4,0.9
	l59.5,54.1c0.8,0.7,1.4,1.6,1.8,2.6c0.3,1,0.4,2.1,0.2,3.1c-0.1,0.5-0.2,1.1-0.5,1.6c-0.2,0.5-0.5,1-0.9,1.4c-0.4,0.4-0.7,0.7-1.2,1
	c-0.4,0.3-0.9,0.6-1.4,0.8l-69.6,25.6c-0.5,0.2-1,0.3-1.6,0.4c-0.5,0.1-1,0.1-1.5,0c-0.5-0.1-1.1-0.2-1.6-0.5
	c-0.5-0.2-1-0.5-1.4-0.9c-0.8-0.7-1.5-1.6-1.9-2.5c-0.4-1-0.5-2.1-0.3-3.1l10.1-79.7c0.1-0.6,0.2-1.1,0.5-1.6c0.2-0.5,0.5-1,0.9-1.4
	c0.3-0.4,0.7-0.8,1.2-1.1C301.2,370.6,301.7,370.3,302.2,370.1L302.2,370.1z M297.8,450.7l60.3-22.2l-52-47.8L297.8,450.7z
	 M331.1,431c0,0.5-0.3,1-0.8,1.2l-3.4,1.2l-5,1.9c-0.9,0.3-2,0.7-2.4-0.5l-1.3-3.5c-0.3-0.6,0.1-1.4,0.7-1.6c0,0,0,0,0.1,0l9.2-3.4
	c0.6-0.3,1.4,0.1,1.6,0.7c0,0,0,0,0,0.1l1.3,3.5C331.2,430.7,331.2,430.8,331.1,431L331.1,431z M326.9,419.4c0,0.5-0.3,1-0.8,1.2
	l-3.4,1.2l-5,1.9c-0.9,0.3-2,0.7-2.4-0.5l-6.6-17.9c-0.3-0.6,0.1-1.4,0.7-1.6c0,0,0,0,0,0l9.2-3.4c0.6-0.3,1.4,0.1,1.6,0.7
	c0,0,0,0,0,0.1l6.6,17.9C326.9,419.1,327,419.3,326.9,419.4L326.9,419.4z"/>
<path d="M522.8,251.4l-13.3,23l-4.7-12.8l-8.5,3.1c1.4,1.8,2.7,3.7,3.9,5.6c1.1,2,2.1,4.1,2.9,6.3c1.3,3.4,2.1,6.9,2.4,10.5
	c0.3,3.5,0.2,7.1-0.5,10.6c-0.6,3.5-1.6,6.9-3.1,10.1c-1.5,3.2-3.4,6.2-5.6,8.9c-2.3,2.8-4.9,5.2-7.8,7.3c-3,2.1-6.2,3.7-9.5,5
	c-3.4,1.2-6.9,2.1-10.4,2.4c-3.5,0.4-7.1,0.2-10.6-0.5c-3.5-0.6-6.9-1.6-10-3.1c-3.2-1.5-6.3-3.4-9-5.7c-1-0.8-1.9-1.7-2.8-2.6
	c-0.9-0.9-1.7-1.8-2.5-2.8l-14.9,5.5l-2.3-6.4l13.2-4.9c-0.6-1-1.1-2-1.5-3s-0.9-2.1-1.3-3.2c-2.5-6.7-3.2-14-1.9-21.1
	c0.6-3.5,1.7-6.9,3.2-10.1c4.5-9.9,12.7-17.5,22.9-21.2c6.7-2.5,14-3.2,21.1-1.9c3.5,0.6,7,1.7,10.2,3.2c3.2,1.5,6.2,3.4,8.9,5.7
	l0.1,0.1l11.4-4.2l-4.7-12.8L522.8,251.4z M435.1,301.8c0.4,1.1,0.8,2.1,1.3,3.1c0.5,1,1,2,1.6,2.9l29.2-10.8l-4.7-12.8l25,9
	l-13.2,23l-4.7-12.8l-27,10c1.3,1.3,2.8,2.5,4.3,3.6c3.2,2.2,6.7,3.8,10.5,4.7c2,0.5,4.1,0.8,6.2,0.9c2.1,0.1,4.2,0,6.3-0.3
	c2.1-0.3,4.2-0.9,6.2-1.6c2-0.7,3.9-1.7,5.7-2.8c1.8-1.1,3.5-2.4,5.1-3.8c1.5-1.5,2.8-3,4-4.7c1.2-1.6,2.2-3.4,3.1-5.2
	c0.9-1.8,1.5-3.8,2-5.7c0.5-2,0.8-4.1,1-6.1c0.1-2.1,0-4.2-0.4-6.4c-0.3-2.1-0.8-4.2-1.6-6.2c-0.7-2-1.7-3.9-2.8-5.7
	c-1.1-1.8-2.4-3.5-3.8-5c-0.2-0.2-0.4-0.4-0.5-0.5c-0.2-0.2-0.3-0.3-0.5-0.5l-27.1,10l-2.4-6.5l23.1-8.5c-0.4-0.2-0.8-0.4-1.2-0.6
	s-0.8-0.5-1.2-0.6c-1.8-0.9-3.8-1.5-5.7-2c-2-0.5-4.1-0.8-6.2-0.8c-4.2-0.3-8.5,0.4-12.5,1.8c-2,0.7-3.9,1.7-5.8,2.8
	c-1.8,1.1-3.5,2.5-5,3.9c-1.5,1.4-2.9,3-4.2,4.6c-1.2,1.6-2.2,3.4-3.1,5.2c-0.9,1.8-1.5,3.8-2,5.7c-0.5,2-0.8,4.1-0.9,6.2
	c-0.1,2.1,0,4.2,0.3,6.3C433.8,297.8,434.3,299.9,435.1,301.8z"/>
<path class="st2" d="M467.7,377.1c-47.9,0.1-86.9-38.7-86.9-86.7s38.7-86.9,86.7-86.9c36.4-0.1,69,22.6,81.6,56.8l0,0
	c16.6,45-6.5,94.9-51.5,111.5C487.9,375.3,477.9,377.1,467.7,377.1z M467.4,210c-44.3,0.1-80.2,36.1-80.1,80.4s36.1,80.2,80.4,80.1
	c44.3-0.1,80.2-36.1,80.1-80.4c0-9.4-1.7-18.8-4.9-27.6C531.3,230.9,501.1,209.9,467.4,210z"/>
<ellipse transform="matrix(0.1602 -0.9871 0.9871 0.1602 135.3801 812.1602)" class="st10" cx="545" cy="326.5" rx="34" ry="34"/>
<path class="st11" d="M570.7,293.9c11.4,9.5,16.9,24.4,14.4,39c-1.2,7.1-4.3,13.8-8.9,19.3c-9.5,11.4-24.4,16.9-39,14.4
	c-7.1-1.2-13.8-4.3-19.3-8.9c-11.4-9.5-16.9-24.4-14.4-39c1.2-7.1,4.3-13.8,8.9-19.3c9.5-11.4,24.4-16.9,39-14.4
	C558.5,286.1,565.1,289.2,570.7,293.9z M573.2,330.7c1.8-10.4-2.1-20.9-10.2-27.6c-3.9-3.3-8.7-5.4-13.7-6.3
	c-10.4-1.8-20.9,2.1-27.6,10.2c-3.3,3.9-5.5,8.7-6.3,13.7c-1.8,10.4,2.1,20.9,10.2,27.6c3.9,3.3,8.7,5.5,13.7,6.3
	c10.4,1.8,20.9-2.1,27.6-10.2C570.1,340.5,572.3,335.8,573.2,330.7z M563.1,314l-13.5,29.2c-0.4,0.8-1.1,1.5-1.9,1.8
	c-0.9,0.3-1.8,0.3-2.6-0.1l-20.3-9.4c-0.8-0.4-1.5-1.1-1.8-1.9c-0.3-0.9-0.3-1.8,0.1-2.6l3.3-7c0.4-0.8,1.1-1.5,1.9-1.8
	c0.9-0.3,1.8-0.3,2.6,0.1l10.2,4.7l8.8-19c0.8-1.7,2.8-2.5,4.5-1.7c0,0,0.1,0,0.1,0l7.1,3.3c0.8,0.4,1.5,1.1,1.8,1.9
	C563.5,312.3,563.5,313.2,563.1,314z"/>
<path d="M380,565.1l-13.3,23l-4.7-12.8l-8.5,3.1c1.4,1.8,2.7,3.7,3.9,5.7c2.9,5.2,4.7,10.9,5.3,16.8c0.3,3.5,0.2,7.1-0.5,10.6
	c-0.6,3.5-1.6,6.9-3.1,10.2c-1.5,3.2-3.4,6.2-5.6,8.9c-2.3,2.8-4.9,5.2-7.8,7.3c-5.9,4.1-12.8,6.6-20,7.4c-3.5,0.3-7.1,0.2-10.6-0.5
	c-3.5-0.6-6.9-1.6-10.1-3.1c-3.2-1.5-6.3-3.4-9-5.7c-1-0.8-1.9-1.7-2.8-2.6c-0.9-0.9-1.7-1.8-2.5-2.8l-14.9,5.5l-2.3-6.4l13.2-4.9
	c-0.6-1-1.1-2-1.5-3s-0.9-2.1-1.3-3.2c-2.5-6.7-3.2-14-1.9-21.1c0.6-3.5,1.7-6.9,3.1-10.1c3-6.5,7.6-12.1,13.4-16.2
	c8.9-6.3,19.9-8.8,30.6-6.9c3.5,0.6,6.9,1.7,10.2,3.1c3.2,1.5,6.2,3.4,8.9,5.7l0.1,0.1l11.4-4.2l-4.7-12.8L380,565.1z M292.3,615.5
	c0.4,1.1,0.8,2.2,1.3,3.1c0.5,1,1,2,1.6,2.9l29.2-10.8l-4.8-12.8l25,9l-13.2,23l-4.7-12.8l-27,10c2.6,2.6,5.7,4.8,9.1,6.4
	c1.8,0.9,3.8,1.5,5.7,2c2,0.5,4.1,0.8,6.2,0.9c2.1,0.1,4.2,0,6.3-0.3c2.1-0.3,4.2-0.8,6.2-1.6c2-0.7,3.9-1.7,5.7-2.8
	c1.8-1.1,3.5-2.4,5.1-3.8c1.5-1.5,2.8-3,4.1-4.7c2.4-3.3,4.1-7,5.1-11c0.5-2,0.8-4.1,1-6.1c0.1-2.1,0-4.2-0.4-6.3
	c-0.3-2.1-0.8-4.2-1.6-6.2c-0.7-2-1.7-3.9-2.8-5.7c-1.1-1.8-2.4-3.5-3.8-5l-0.5-0.5c-0.2-0.2-0.3-0.3-0.5-0.5l-27.1,10l-2.4-6.4
	l23.1-8.5c-0.4-0.2-0.8-0.4-1.2-0.6s-0.8-0.5-1.2-0.6c-1.8-0.8-3.8-1.5-5.7-2c-6.2-1.5-12.7-1.2-18.7,1c-2,0.7-3.9,1.7-5.7,2.8
	c-1.8,1.1-3.5,2.4-5,3.9c-1.5,1.4-2.9,3-4.2,4.7c-1.2,1.6-2.2,3.4-3.1,5.2c-0.9,1.8-1.5,3.7-2,5.7c-0.5,2-0.8,4.1-0.9,6.2
	c-0.1,2.1,0,4.2,0.3,6.3C291,611.5,291.6,613.6,292.3,615.5L292.3,615.5z"/>
<path class="st2" d="M324.7,690.8c-47.9,0-86.8-38.8-86.9-86.8c0-47.9,38.8-86.8,86.8-86.9c36.4,0,68.9,22.7,81.5,56.8l0,0
	c16.5,45.1-6.6,95-51.7,111.5C345,689,334.9,690.8,324.7,690.8L324.7,690.8z M324.6,523.7c-44.3,0.1-80.2,36.1-80.1,80.4
	s36.1,80.2,80.4,80.1s80.2-36.1,80.1-80.4c0-9.4-1.7-18.8-5-27.6C388.5,544.5,358.3,523.5,324.6,523.7z"/>
<circle class="st10" cx="401.7" cy="639" r="34"/>
<path class="st11" d="M427.9,607.5c11.4,9.5,16.9,24.4,14.4,39c-1.2,7.1-4.3,13.8-8.9,19.3c-9.5,11.4-24.4,16.9-39,14.3
	c-7.1-1.2-13.8-4.3-19.3-9c-11.4-9.5-16.9-24.4-14.4-39c1.2-7.1,4.3-13.8,9-19.3c9.5-11.4,24.4-16.9,39-14.4
	C415.7,599.9,422.4,602.9,427.9,607.5z M430.4,644.5c1.8-10.4-2.1-20.9-10.2-27.6c-3.9-3.3-8.7-5.4-13.7-6.3
	c-10.4-1.8-20.9,2.1-27.6,10.2c-3.3,3.9-5.5,8.7-6.3,13.7c-1.8,10.4,2.1,20.9,10.2,27.6c3.9,3.3,8.7,5.5,13.7,6.3
	c10.3,1.8,20.8-2.1,27.6-10.2C427.3,654.2,429.5,649.5,430.4,644.5z M420.3,627.7l-13.5,29.2c-0.8,1.7-2.8,2.5-4.5,1.7
	c0,0-0.1,0-0.1,0l-20.3-9.4c-1.7-0.8-2.5-2.8-1.7-4.5c0,0,0,0,0-0.1l3.2-7c0.8-1.7,2.8-2.5,4.5-1.7c0,0,0,0,0.1,0l10.2,4.7l8.8-19
	c0.8-1.7,2.8-2.5,4.5-1.7c0,0,0,0,0.1,0l7,3.2C420.3,624,421.1,626,420.3,627.7C420.3,627.7,420.3,627.8,420.3,627.7L420.3,627.7z"
	/>
<path d="M607.5,481.3l-13.3,23l-4.7-12.8l-8.5,3.1c1.4,1.8,2.7,3.7,3.9,5.6c2.9,5.2,4.7,10.9,5.3,16.8c0.3,3.5,0.2,7.1-0.5,10.6
	c-0.6,3.5-1.6,6.9-3.1,10.1c-1.5,3.2-3.4,6.2-5.6,8.9c-2.3,2.8-4.9,5.2-7.8,7.3c-5.9,4.1-12.8,6.6-20,7.4c-3.5,0.4-7.1,0.2-10.6-0.5
	c-3.5-0.6-6.8-1.6-10-3.1c-3.2-1.5-6.3-3.4-9-5.7c-1-0.8-1.9-1.7-2.8-2.6c-0.9-0.9-1.7-1.8-2.5-2.8l-14.9,5.5l-2.4-6.4l13.2-4.9
	c-0.5-1-1.1-2-1.5-3s-0.9-2.1-1.3-3.2c-2.5-6.7-3.2-14-1.9-21.1c0.6-3.5,1.7-6.9,3.2-10.1c3-6.5,7.6-12.1,13.4-16.2
	c8.9-6.3,19.9-8.8,30.6-6.9c3.5,0.6,6.9,1.7,10.2,3.1c3.2,1.5,6.2,3.4,8.9,5.7l0.1,0.1l11.4-4.2l-4.7-12.8L607.5,481.3z
	 M519.8,531.7c0.4,1.1,0.8,2.2,1.3,3.1c0.5,1,1,2,1.6,2.9l29.2-10.8l-4.7-12.8l25,9l-13.2,23l-4.7-12.8l-27,10
	c1.3,1.3,2.8,2.5,4.3,3.6c3.2,2.2,6.7,3.8,10.5,4.7c2,0.5,4.1,0.8,6.2,0.9c2.1,0.1,4.2,0,6.3-0.3c4.2-0.6,8.3-2.1,11.9-4.4
	c1.8-1.1,3.5-2.4,5.1-3.8c1.5-1.5,2.8-3,4.1-4.7c1.2-1.6,2.2-3.4,3.1-5.2c0.8-1.8,1.5-3.8,2-5.7c0.5-2,0.8-4.1,1-6.1
	c0.1-2.1,0-4.2-0.4-6.3c-0.6-4.2-2.1-8.3-4.4-11.9c-1.1-1.8-2.4-3.5-3.8-5c-0.2-0.2-0.4-0.4-0.5-0.5c-0.2-0.2-0.3-0.3-0.5-0.5
	l-27.1,10l-2.4-6.5l23.1-8.5c-0.4-0.2-0.8-0.4-1.2-0.6s-0.8-0.5-1.2-0.6c-1.8-0.9-3.8-1.5-5.7-2c-2-0.5-4.1-0.8-6.2-0.8
	c-6.4-0.4-12.8,1.2-18.3,4.6c-3.5,2.3-6.7,5.2-9.2,8.6c-1.2,1.6-2.2,3.4-3.1,5.2c-0.8,1.8-1.5,3.8-2,5.7c-0.5,2-0.8,4.1-0.9,6.2
	c-0.1,2.1,0,4.2,0.3,6.3C518.5,527.7,519,529.8,519.8,531.7z"/>
<path class="st2" d="M552.4,607c-48,0.1-86.9-38.7-87-86.7s38.7-86.9,86.7-87c48-0.1,86.9,38.7,87,86.7
	c0.1,36.4-22.6,69.1-56.8,81.7C572.7,605.2,562.6,607,552.4,607z M552.1,439.9c-44.3,0.1-80.2,36.1-80.1,80.4
	c0.1,44.3,36.1,80.2,80.4,80.1c44.3-0.1,80.2-36.1,80.1-80.4c0-9.4-1.7-18.8-4.9-27.6C616,460.8,585.8,439.8,552.1,439.9
	L552.1,439.9z"/>
<circle class="st10" cx="629.2" cy="555" r="34"/>
<path class="st12" d="M655.4,523.8c11.4,9.5,16.9,24.4,14.3,39c-1.2,7.1-4.3,13.7-8.9,19.2c-9.5,11.4-24.4,16.9-39,14.3
	c-7.1-1.2-13.8-4.3-19.3-8.9c-11.4-9.5-16.9-24.4-14.3-39c1.2-7.1,4.3-13.8,8.9-19.3c9.5-11.4,24.4-16.9,39-14.3
	C643.2,516,649.9,519.1,655.4,523.8z M657.9,560.6c1.8-10.4-2.1-20.9-10.2-27.6c-3.9-3.3-8.7-5.4-13.7-6.3
	c-10.4-1.8-20.9,2.1-27.6,10.2c-3.3,3.9-5.4,8.7-6.3,13.7c-1.8,10.3,2.1,20.9,10.2,27.6c3.9,3.3,8.7,5.5,13.7,6.3
	c10.3,1.8,20.9-2.1,27.6-10.2C654.8,570.4,657,565.7,657.9,560.6L657.9,560.6z M649,558.7l-4.7,10.1c-0.2,0.4-0.6,0.8-1,0.9
	c-0.4,0.2-0.9,0.1-1.3-0.1l-9.5-4.4l-4.4,9.5c-0.4,0.9-1.3,1.3-2.2,0.9c0,0-0.1,0-0.1-0.1l-10.1-4.6c-0.9-0.4-1.3-1.3-0.9-2.2
	c0,0,0-0.1,0.1-0.1l4.4-9.5l-9.5-4.4c-0.9-0.4-1.3-1.4-0.9-2.2c0,0,0-0.1,0-0.1l4.7-10.1c0.2-0.4,0.6-0.8,1-0.9
	c0.4-0.2,0.9-0.1,1.3,0.1l9.5,4.4l4.4-9.5c0.4-0.9,1.4-1.3,2.2-0.9c0,0,0,0,0.1,0l10.1,4.7c0.9,0.4,1.3,1.4,0.9,2.2c0,0,0,0.1,0,0.1
	l-4.4,9.4l9.5,4.4c0.9,0.4,1.3,1.4,0.9,2.2C649,558.6,649,558.7,649,558.7L649,558.7z"/>
<path class="st13" d="M461.7,120.9c-14.7-39.8-97.9-45.7-185.8-13.3c-10.3,3.8-20.1,7.9-29.6,12.3l106.4,41.1L461.7,120.9z"/>
<path class="st14" d="M143,238.3L352.6,161l-106.4-41.1C175,153.4,130.1,203.1,143,238.3z"/>
<polygon class="st15" points="1029.8,937.9 431.8,923.7 572.3,804.7 1047.1,807 "/>
<polygon class="st6" points="1022.4,930.4 424.4,916.2 571,803.3 1045.7,805.5 "/>
<polygon class="st16" points="999.5,806.2 698,669.5 692.3,572.1 993.8,708.8 "/>
<polygon class="st14" points="692.8,572.4 667.8,619.7 673.4,717 698.4,669.7 "/>
<polygon class="st17" points="998.9,805.8 973.9,853.1 673.4,717 698.4,669.7 "/>
<polygon class="st16" points="914.5,715.6 799.9,663.6 797.7,626.5 912.3,678.5 "/>
<polygon class="st14" points="797.9,626.6 788.4,644.6 790.5,681.6 800,663.7 "/>
<polygon class="st17" points="914.3,715.4 904.8,733.4 790.5,681.6 800,663.7 "/>
<path class="st8" d="M982,500.5c0,0-88.7,61.1-81.4,188.4l-89.1-37.7c102.1-79.6,89-187,89-187C900.6,464.9,982,500.5,982,500.5z"/>
<path class="st18" d="M982,500.5l-16.7-6.9c0,0-88.5,61-81.4,188.3l16.7,7.1C893.3,561.6,982,500.5,982,500.5z"/>
<path class="st18" d="M967.9,338.6c48.4,15.2,75.3,66.7,60.1,115.1c-12,38.3-47.5,64.3-87.7,64.3c-1.4,0-2.7,0-4.1-0.1
	c48.4,15.2,99.9-11.8,115-60.1s-11.8-99.9-60.1-115C983.6,340.4,975.8,339,967.9,338.6z"/>
<path class="st19" d="M967.9,338.6c-1.4-0.1-2.7-0.1-4.1-0.1c-4.3,0-8.7,0.3-13,0.9c47.9,16.7,73.2,69,56.5,116.9
	c-11.3,32.4-39.7,55.8-73.6,60.7c0.8,0.3,1.6,0.6,2.4,0.8c1.4,0.1,2.7,0.1,4.1,0.1c50.7,0,91.8-41.2,91.7-91.9
	C1032,386,1006.1,350.7,967.9,338.6L967.9,338.6z"/>
<path class="st8" d="M1012.5,426.1c0-39.1-24.8-73.8-61.7-86.6c-50.2,7.2-85,53.8-77.8,103.9c4.9,33.9,28.3,62.3,60.7,73.6
	C979,510.5,1012.6,471.8,1012.5,426.1z"/>
<polygon class="st0" points="573.6,888 896.5,893.3 681.2,902.8 "/>
<polygon class="st0" points="577.7,884 698.5,881.7 733,839.6 "/>
<polygon class="st0" points="718.3,882 898.7,889 773.3,812.3 "/>
<path class="st11" d="M905,828.6c5.8,1.9,10.1,4.3,12.9,7.1c3.1,3.2,3.8,6.4,1.6,9.8c-2.5,3.8-8.1,7.1-17.2,9.8
	c-9.7,2.9-21.7,4.5-35.2,4.5s-25.5-1.5-35.2-4.4c-9-2.7-14.7-6-17.2-9.8c-2.2-3.3-1.6-6.6,1.5-9.8c2.8-2.8,7.1-5.1,12.9-7.1
	c5.8-1.9,11.8-3.2,17.9-4c13.3-1.7,26.7-1.7,40,0C893.2,825.4,899.2,826.7,905,828.6z M902.3,842.2c2.2-2.2,2.4-4.4,0.8-6.6
	c-1.4-2-4.1-3.7-8-5.2c-4.2-1.5-8.5-2.6-12.9-3.2c-10-1.4-20.2-1.4-30.2,0c-4.4,0.6-8.7,1.7-12.9,3.2c-3.9,1.5-6.6,3.2-8,5.2
	c-1.5,2.2-1.3,4.4,0.9,6.5c2.3,2.3,6.6,4.3,12.7,5.9c14.8,3.3,30.1,3.3,44.9,0C895.7,846.6,899.9,844.6,902.3,842.2z M892.9,834
	l-27.2,10.1c-1.1,0.4-2.3,0.6-3.5,0.6c-1.2,0-2.3-0.2-3.4-0.5l-18.8-7.4c-0.7-0.3-1-0.6-0.8-1c0.5-0.5,1.1-0.8,1.8-0.9l7.4-2
	c1-0.2,1.9-0.4,2.9-0.4c0.9,0,1.8,0.1,2.7,0.4l8.9,2.9l16.8-5.3c0.8-0.2,1.7-0.3,2.6-0.3c0.9,0,1.9,0.1,2.8,0.3l7,1.8
	c0.9,0.2,1.5,0.5,1.6,0.8S893.6,833.7,892.9,834z"/>
</svg>
