<?xml version="1.0" encoding="utf-8"?>
<!-- Generator: Adobe Illustrator 23.0.4, SVG Export Plug-In . SVG Version: 6.00 Build 0)  -->
<svg version="1.1" id="Layer_1" xmlns="http://www.w3.org/2000/svg" xmlns:xlink="http://www.w3.org/1999/xlink" x="0px" y="0px"
	 viewBox="0 0 1095.5 1095.5" style="enable-background:new 0 0 1095.5 1095.5;" xml:space="preserve">
<style type="text/css">
	.st0{fill:#0093DD;}
	.st1{fill:#30AAE8;}
	.st2{fill:#8FD9FF;}
	.st3{fill:#5FC2F4;}
	.st4{opacity:0.4;}
	.st5{fill:#292E34;}
	.st6{fill:#D1D1D1;}
	.st7{fill:#FAFAFA;}
	.st8{fill:#4D5258;}
	.st9{fill:#EAEAEA;}
	.st10{opacity:0.6;}
	.st11{fill:#CC0000;}
	.st12{fill:#FFFFFF;}
	.st13{fill:#D8D8D8;}
</style>
<g>
	<path class="st0" d="M242,494.8c57.8-27,123.5-45,195-44c151.5-58.8,280.2-157,429-176.5c58.1-7.6,112.8-2.1,163.2,11.6
		C936.1,115.5,755.2-0.2,547.4,0C276.5,0.2,51.6,197.1,7.8,455.5C94,487.6,171.2,498.2,242,494.8z"/>
	<path class="st1" d="M242,494.8c-70.7,3.4-147.9-7.2-234.2-39.4c-12,71.1-10,143.9,5.9,214.3C55.8,623.7,135.8,544.3,242,494.8z"/>
	<path class="st2" d="M275.9,624.6c-98.2-12.7-186.6,12.1-261,50.5c57.4,241.3,274.5,420.7,533.3,420.5
		c196-0.2,368-103.3,464.6-258.2C701.7,888.5,514.2,655.5,275.9,624.6z"/>
	<path class="st3" d="M483,454.2c-15.3-2-30.6-3.1-46-3.3c-71.5-1-137.1,17-195,44c-106.2,49.5-186.2,128.9-228.3,175
		c0.4,1.8,0.8,3.5,1.2,5.3c74.4-38.4,162.8-63.2,261-50.5c238.3,30.9,425.8,263.9,736.9,212.7c31.8-51,55-106.9,68.6-165.5
		C848.5,649.7,683.8,480.2,483,454.2z"/>
	<path class="st1" d="M1029,286c-50.4-13.7-105.1-19.2-163.2-11.6c-148.7,19.5-277.4,117.7-428.9,176.5c15.4,0.2,30.7,1.3,46,3.3
		c200.8,26,365.5,195.6,598.5,217.7C1111.6,541.1,1093,403.9,1029,286z"/>
</g>
<title>Asset 36</title>
<g>
	<g class="st4">
		<path class="st5" d="M934.3,189.7l-680.8,0.5h-58.9l-83.5,0.1c-15.5,0-28.1,14.5-28.1,32.4l0.5,630.1c0,17.8,12.6,32.3,28.1,32.3
			l83.5-0.1H254h12.7l668.2-0.5c14.8,0,26.9-13.2,28-30c0.1-0.1,0.1-0.3,0.1-0.4v-2l-0.1-79.3l-0.3-357.1L962.4,222
			C962.4,204.2,949.8,189.7,934.3,189.7z"/>
	</g>
	<path class="st6" d="M178.7,172.9l-83.5,0.1c-15.5,0-28.1,14.5-28.1,32.4l0.5,630.1c0,17.8,12.6,32.3,28.1,32.3l83.5-0.1h58.9
		l-0.5-694.8H178.7z"/>
	<path class="st7" d="M918.4,172.3l-680.8,0.5l0.5,694.8h12.7L919,867c15.5,0,28.1-14.5,28.1-32.3l-0.3-436.4l-0.2-193.7
		C946.5,186.8,934,172.3,918.4,172.3z"/>
	<path class="st8" d="M163,219.6c0.2,4.4-0.5,8.8-2,12.9c-1.1,3.1-3.2,5.8-6,7.7c-2.9,1.7-6.2,2.6-9.6,2.5c-1.8,0-3.6-0.2-5.3-0.7
		v-2.3c0.9,0.3,1.9,0.5,2.8,0.6c0.8,0.1,1.7,0.2,2.5,0.2c4.1,0.2,8.1-1.6,10.6-4.8c2.6-3.2,4-7.9,4.3-14H160c-1.3,1.7-2.9,3.1-4.8,4
		c-1.8,0.9-3.8,1.4-5.8,1.4c-3.7,0-6.6-1-8.7-3s-3.1-4.8-3.1-8.5c-0.2-3.5,1.1-6.9,3.4-9.5c2.3-2.4,5.5-3.8,8.9-3.6
		c2.5-0.1,4.9,0.6,6.9,2c2.1,1.5,3.7,3.5,4.6,5.9C162.5,213.3,163.1,216.5,163,219.6z M149.9,204.8c-2.6-0.1-5.1,0.9-6.9,2.9
		c-1.8,2.2-2.7,5-2.6,7.8c0,3.1,0.8,5.5,2.4,7.1s3.9,2.4,6.8,2.4c1.8,0,3.6-0.4,5.2-1.2c1.5-0.7,2.8-1.8,3.8-3.2
		c0.9-1.2,1.4-2.6,1.4-4.1c0-2-0.4-4-1.3-5.9c-0.8-1.7-2-3.2-3.6-4.3C153.6,205.3,151.8,204.7,149.9,204.8L149.9,204.8z"/>
	<path class="st8" d="M182.6,202.3c3-0.2,5.9,0.7,8.2,2.5c2.1,1.7,3.2,4.2,3.1,6.9c0,1.9-0.7,3.8-1.9,5.3c-1.8,1.9-3.9,3.3-6.3,4.3
		c3.5,1.4,6,2.9,7.4,4.6c1.4,1.7,2.2,3.9,2.1,6.1c0.1,3-1.2,5.9-3.5,7.8c-2.3,1.9-5.4,2.9-9.3,2.9c-4,0-7.2-0.9-9.3-2.7
		s-3.2-4.4-3.2-7.9c0-2.3,0.8-4.5,2.3-6.2c2-2.1,4.4-3.6,7.1-4.5c-2.4-0.9-4.5-2.4-6.2-4.3c-1.2-1.5-1.9-3.5-1.8-5.4
		c0-1.8,0.5-3.5,1.4-4.9c1-1.5,2.4-2.6,4.1-3.3C178.7,202.7,180.6,202.3,182.6,202.3z M172.8,232.5c-0.1,2.2,0.8,4.3,2.6,5.7
		c1.7,1.4,4.1,2,7.2,2c2.6,0.1,5.2-0.6,7.2-2.2c1.8-1.4,2.8-3.6,2.8-5.9c0.1-2-0.7-4-2.2-5.4c-1.4-1.4-4.2-2.8-8.3-4.4
		c-3.4,1.3-5.8,2.7-7.2,4.2C173.5,228.3,172.7,230.4,172.8,232.5L172.8,232.5z M182.6,204.7c-2.2-0.1-4.4,0.5-6.2,1.9
		c-1.6,1.2-2.4,3.1-2.3,5.1c0,1.2,0.3,2.3,0.9,3.3c0.6,1,1.5,1.9,2.5,2.6c1.7,1.1,3.6,2,5.5,2.7c2.4-0.8,4.6-2,6.4-3.7
		c1.3-1.3,2-3.1,1.9-4.9c0.1-2-0.8-3.9-2.3-5.1C187.1,205.3,184.9,204.6,182.6,204.7L182.6,204.7z"/>
	<path class="st8" d="M163.1,302.9c0.1,4.4-0.6,8.8-2.1,12.9c-1.1,3.1-3.3,5.8-6.1,7.7c-2.9,1.7-6.2,2.6-9.6,2.5
		c-1.8,0-3.6-0.2-5.3-0.7V323c0.9,0.3,1.9,0.5,2.9,0.6c0.8,0.1,1.7,0.2,2.5,0.2c4.1,0.2,8.1-1.6,10.7-4.8c2.6-3.2,4-7.9,4.3-14h-0.3
		c-1.3,1.7-2.9,3-4.8,4c-1.8,0.9-3.8,1.4-5.8,1.4c-3.7,0-6.6-1-8.7-3s-3.1-4.8-3.1-8.5c-0.2-3.5,1.1-6.9,3.4-9.5
		c2.3-2.4,5.5-3.8,8.9-3.6c2.5-0.1,4.9,0.6,6.9,2c2.1,1.5,3.7,3.5,4.6,5.9C162.6,296.6,163.2,299.7,163.1,302.9z M150,288
		c-2.6-0.1-5.2,0.9-6.9,2.9c-1.7,1.9-2.6,4.5-2.6,7.8c0,3.1,0.8,5.5,2.4,7.1s3.9,2.4,6.8,2.4c1.8,0,3.6-0.4,5.2-1.2
		c1.5-0.7,2.8-1.8,3.8-3.2c0.9-1.2,1.4-2.6,1.4-4.1c0-2-0.4-4-1.3-5.9c-0.8-1.7-2-3.2-3.6-4.3C153.7,288.5,151.9,288,150,288z"/>
	<path class="st8" d="M195.2,302.9c0.1,4.4-0.6,8.8-2.1,12.9c-1.1,3.1-3.2,5.8-6,7.7c-2.9,1.7-6.2,2.6-9.6,2.5
		c-1.8,0-3.6-0.2-5.3-0.7V323c0.9,0.3,1.9,0.5,2.8,0.6c0.8,0.1,1.7,0.2,2.6,0.2c4.1,0.2,8.1-1.6,10.6-4.8c2.6-3.2,4-7.8,4.3-14h-0.3
		c-1.3,1.7-2.9,3-4.8,4c-1.8,0.9-3.8,1.4-5.8,1.4c-3.7,0-6.6-1-8.7-3c-2.1-2-3.1-4.8-3.1-8.5c-0.2-3.5,1.1-6.9,3.4-9.5
		c2.3-2.4,5.5-3.8,8.9-3.6c2.5-0.1,4.9,0.6,6.9,2c2.1,1.5,3.7,3.5,4.6,5.9C194.7,296.6,195.3,299.7,195.2,302.9z M182.1,288
		c-2.6-0.1-5.2,0.9-6.9,2.9c-1.8,2.2-2.7,5-2.6,7.8c0,3.1,0.8,5.5,2.4,7.1c1.9,1.7,4.3,2.6,6.9,2.4c1.8,0,3.6-0.4,5.2-1.2
		c1.5-0.7,2.8-1.8,3.8-3.2c0.9-1.2,1.4-2.6,1.4-4.1c0-2-0.4-4-1.3-5.9c-0.8-1.7-2-3.2-3.6-4.3C185.8,288.5,184,288,182.1,288z"/>
	<path class="st8" d="M121.3,408.7h-2.7v-28.5c0-2.6,0.1-5.3,0.3-8.1c-0.3,0.3-0.6,0.5-0.8,0.8s-3.1,2.4-8.5,6.5l-1.6-1.9l10.9-8
		h2.4L121.3,408.7z"/>
	<path class="st8" d="M163.7,389c0,6.9-1.1,12-3.2,15.3c-2.1,3.3-5.4,5-9.8,5c-3.9,0.2-7.6-1.8-9.6-5.1c-2.2-3.4-3.3-8.4-3.3-15.1
		c0-6.8,1.1-11.9,3.2-15.2c2.1-3.3,5.3-4.9,9.6-4.9c3.9-0.2,7.6,1.8,9.7,5.1C162.6,377.4,163.7,382.4,163.7,389z M140.8,389
		c0,6.1,0.8,10.6,2.5,13.5c2.3,4.1,7.5,5.6,11.7,3.3c1.4-0.8,2.6-2,3.3-3.4c1.6-3,2.4-7.4,2.4-13.3s-0.8-10.3-2.4-13.2
		c-1.4-2.9-4.4-4.6-7.6-4.5c-3.2-0.2-6.2,1.6-7.5,4.5C141.6,378.8,140.8,383.2,140.8,389z"/>
	<path class="st8" d="M195.8,389c0,6.9-1.1,12-3.2,15.3c-2.1,3.3-5.4,5-9.8,5c-3.9,0.2-7.5-1.8-9.6-5.1c-2.2-3.5-3.2-8.5-3.2-15.2
		c0-6.8,1.1-11.9,3.2-15.2c2.1-3.3,5.3-4.9,9.6-4.9c3.9-0.2,7.6,1.8,9.7,5.1C194.7,377.4,195.8,382.4,195.8,389z M172.9,389
		c0,6.1,0.8,10.6,2.5,13.5c2.3,4.1,7.6,5.6,11.7,3.2c1.4-0.8,2.6-2,3.3-3.4c1.6-3,2.4-7.4,2.4-13.3s-0.8-10.3-2.4-13.2
		c-1.4-2.9-4.4-4.6-7.6-4.5c-3.2-0.2-6.2,1.6-7.5,4.5C173.7,378.8,172.9,383.2,172.9,389L172.9,389z"/>
	<path class="st8" d="M121.4,492h-2.7v-28.5c0-2.6,0.1-5.3,0.3-8.1c-0.3,0.3-0.6,0.5-0.8,0.8s-3.1,2.4-8.5,6.5l-1.6-1.9l10.9-8h2.4
		L121.4,492z"/>
	<path class="st8" d="M163.7,472.2c0,6.9-1.1,12-3.2,15.3s-5.4,5-9.8,5c-3.9,0.2-7.5-1.8-9.6-5.1c-2.2-3.4-3.3-8.5-3.3-15.1
		c0-6.8,1.1-11.9,3.2-15.2s5.3-4.9,9.7-4.9c3.9-0.2,7.6,1.8,9.7,5.1C162.6,460.6,163.7,465.6,163.7,472.2z M140.9,472.2
		c0,6.1,0.8,10.6,2.4,13.5c2.3,4.1,7.5,5.6,11.7,3.3c1.4-0.8,2.6-2,3.3-3.4c1.6-3,2.4-7.4,2.4-13.3s-0.8-10.3-2.4-13.2
		c-2.3-4.2-7.5-5.7-11.6-3.5c-1.5,0.8-2.7,2-3.5,3.5C141.6,462,140.9,466.4,140.9,472.2L140.9,472.2z"/>
	<path class="st8" d="M185.6,491.9h-2.7v-28.5c0-2.6,0.1-5.3,0.3-8.1c-0.3,0.3-0.6,0.5-0.9,0.8s-3.1,2.4-8.5,6.5l-1.6-1.9l10.9-8
		h2.4L185.6,491.9z"/>
	<path class="st8" d="M121.6,741.7h-2.7v-28.5c0-2.6,0.1-5.3,0.3-8.1c-0.3,0.3-0.6,0.5-0.8,0.8s-3.1,2.4-8.5,6.5l-1.6-1.9l10.9-8
		h2.4L121.6,741.7z"/>
	<path class="st8" d="M163.9,722c0,6.9-1.1,12-3.2,15.3s-5.4,5-9.8,5c-3.9,0.2-7.5-1.8-9.6-5.1c-2.2-3.4-3.3-8.5-3.3-15.2
		c0-6.8,1.1-11.9,3.2-15.2c2.1-3.3,5.3-4.9,9.6-4.9c3.9-0.2,7.6,1.8,9.7,5.1C162.8,710.4,163.9,715.4,163.9,722z M141.1,722
		c0,6.1,0.8,10.6,2.5,13.5c2.3,4.1,7.5,5.6,11.7,3.3c1.4-0.8,2.6-2,3.3-3.4c1.6-3,2.4-7.4,2.4-13.3s-0.8-10.3-2.4-13.2
		c-1.4-2.9-4.4-4.6-7.6-4.5c-3.2-0.2-6.2,1.6-7.5,4.5C141.8,711.8,141.1,716.2,141.1,722z"/>
	<path class="st8" d="M195.3,741.6h-25.1v-2.4l10.7-10.9c2.2-2.2,4.4-4.5,6.3-7c1.1-1.4,2-3,2.7-4.6c0.6-1.5,0.9-3,0.9-4.6
		c0.1-2.2-0.8-4.2-2.4-5.7c-1.7-1.5-3.9-2.3-6.1-2.2c-3.5,0.1-6.9,1.3-9.6,3.6l-1.5-1.8c3.1-2.7,7.1-4.1,11.2-4.1
		c3.5,0,6.2,0.9,8.3,2.7c2.1,1.9,3.2,4.7,3,7.5c0,2.6-0.7,5.2-2,7.5c-2.1,3.3-4.5,6.3-7.4,9L173.8,739v0.1h21.5V741.6z"/>
	<path class="st8" d="M121.6,824.9h-2.7v-28.5c0-2.6,0.1-5.3,0.3-8.1c-0.3,0.3-0.6,0.5-0.8,0.8s-3.1,2.4-8.5,6.5l-1.6-1.9l10.9-8
		h2.4L121.6,824.9z"/>
	<path class="st8" d="M164,805.2c0,6.9-1.1,12-3.2,15.3c-2.1,3.3-5.4,5-9.8,5c-3.9,0.2-7.5-1.8-9.6-5.1c-2.2-3.4-3.3-8.4-3.3-15.1
		c0-6.8,1.1-11.9,3.2-15.2c2.1-3.3,5.3-4.9,9.7-4.9c3.9-0.2,7.6,1.8,9.7,5.1C162.9,793.6,164,798.6,164,805.2z M141.1,805.2
		c0,6.1,0.8,10.6,2.4,13.5c2.3,4.1,7.5,5.6,11.7,3.3c1.4-0.8,2.6-2,3.3-3.4c1.6-3,2.4-7.4,2.4-13.3c0-5.9-0.8-10.3-2.4-13.2
		c-1.4-2.9-4.4-4.7-7.6-4.5c-3.2-0.2-6.2,1.6-7.5,4.5C141.9,795,141.1,799.4,141.1,805.2L141.1,805.2z"/>
	<path class="st8" d="M194,794.9c0.1,2.3-0.8,4.5-2.3,6.1c-1.7,1.7-3.9,2.8-6.3,3.2v0.2c2.7,0.2,5.3,1.2,7.4,3
		c1.7,1.7,2.6,4.1,2.5,6.5c0.2,3.3-1.3,6.5-3.8,8.5c-2.5,2-6.2,3-11,3c-3.7,0.1-7.3-0.7-10.7-2.2v-2.7c1.6,0.8,3.4,1.4,5.2,1.8
		c1.8,0.4,3.6,0.7,5.4,0.7c4,0,7.1-0.8,9.1-2.4c2-1.6,3.2-4.2,3-6.8c0.1-2.4-1.1-4.7-3.1-6c-2.1-1.4-5.1-2.1-9.2-2.1h-4.3v-2.6h4.4
		c2.8,0.1,5.6-0.7,7.9-2.3c1.9-1.5,3-3.8,2.9-6.3c0.1-2-0.8-4-2.4-5.2c-1.8-1.4-4-2.1-6.2-2c-1.9,0-3.7,0.3-5.5,0.8
		c-2,0.7-3.8,1.6-5.6,2.8l-1.4-1.8c1.7-1.3,3.6-2.3,5.6-3c2.1-0.7,4.4-1.1,6.7-1.1c3.7,0,6.6,0.8,8.6,2.5
		C193,789.5,194.2,792.1,194,794.9z"/>
	<path class="st9" d="M279.5,203h608.3c8.7,0,15.8,7.1,15.8,15.8v1.3c0,8.7-7.1,15.8-15.8,15.8H279.5c-8.7,0-15.8-7.1-15.8-15.8
		v-1.3C263.8,210,270.8,203,279.5,203z"/>
	<path class="st9" d="M279.6,284h608.3c8.7,0,15.8,7.1,15.8,15.8v1.3c0,8.7-7.1,15.8-15.8,15.8H279.6c-8.7,0-15.8-7.1-15.8-15.8
		v-1.3C263.8,291.1,270.9,284,279.6,284z"/>
	<path class="st9" d="M279.6,365.1h608.3c8.7,0,15.8,7.1,15.8,15.8v1.3c0,8.7-7.1,15.8-15.8,15.8H279.6c-8.7,0-15.8-7.1-15.8-15.8
		v-1.3C263.9,372.2,270.9,365.1,279.6,365.1z"/>
	<path class="st9" d="M279.7,446.2H888c8.7,0,15.8,7.1,15.8,15.8v1.3c0,8.7-7.1,15.8-15.8,15.8H279.7c-8.7,0-15.8-7.1-15.8-15.8
		v-1.3C264,453.2,271,446.2,279.7,446.2z"/>
	<g class="st10">
		<path class="st11" d="M281.5,527.2h604.8c9.7,0,17.5,7.8,17.5,17.5v97.1c0,9.7-7.8,17.5-17.5,17.5H281.5
			c-9.7,0-17.5-7.8-17.5-17.5v-97.1C264,535.1,271.9,527.2,281.5,527.2z"/>
	</g>
	<path class="st9" d="M279.9,707.5h608.3c8.7,0,15.8,7.1,15.8,15.8v1.3c0,8.7-7.1,15.8-15.8,15.8H279.9c-8.7,0-15.8-7.1-15.8-15.8
		v-1.3C264.1,714.6,271.2,707.5,279.9,707.5z"/>
	<path class="st9" d="M280,789.4h608.3c8.7,0,15.8,7.1,15.8,15.8v1.3c0,8.7-7.1,15.8-15.8,15.8H280c-8.7,0-15.8-7.1-15.8-15.8v-1.3
		C264.2,796.5,271.3,789.4,280,789.4z"/>
	<path class="st8" d="M219,468.2c0.5,0.4,0.5,1.2,0,1.6c0,0,0,0,0,0l-8.3,8.4c-0.2,0.2-0.5,0.4-0.8,0.4c-0.3,0-0.6-0.1-0.8-0.4
		l-8.3-8.3c-0.5-0.4-0.5-1.2,0-1.6c0,0,0,0,0,0c0.2-0.2,0.5-0.4,0.8-0.4h16.7C218.5,467.9,218.8,468,219,468.2z"/>
	<path class="st11" d="M170,531.7h39.3c3.8,0,7,3.1,7,7V578c0,3.8-3.1,7-7,7H170c-3.8,0-7-3.1-7-7v-39.3
		C163,534.8,166.1,531.7,170,531.7z"/>
	<path class="st12" d="M200.7,566.2l-7.9-7.9l7.9-7.9c0.1,0,0.1-0.1,0.1-0.2c0-0.1,0-0.3,0-0.4c0-0.1-0.1-0.1-0.1-0.2l-2.4-2.4
		c-0.1-0.1-0.1-0.1-0.2-0.1c-0.1,0-0.1,0-0.2,0c-0.1,0-0.1,0-0.2,0c-0.1,0-0.1,0.1-0.2,0.1l-7.9,7.9l-7.9-7.9
		c-0.1-0.1-0.1-0.1-0.2-0.1c-0.1,0-0.1,0-0.2,0c-0.1,0-0.1,0-0.2,0c-0.1,0-0.1,0.1-0.2,0.1l-2.4,2.4c-0.1,0.1-0.1,0.1-0.1,0.2
		c0,0.1,0,0.1,0,0.2c0,0.1,0,0.1,0,0.2c0,0.1,0.1,0.1,0.1,0.2l7.9,7.9l-7.9,7.9c-0.1,0-0.1,0.1-0.1,0.2c0,0.1,0,0.1-0.1,0.2
		c0,0.1,0,0.1,0.1,0.2c0,0.1,0.1,0.1,0.1,0.2l2.4,2.4c0,0.1,0.1,0.1,0.2,0.1c0.1,0,0.1,0,0.2,0c0.1,0,0.1,0,0.2,0
		c0.1,0,0.1-0.1,0.2-0.1l7.9-7.9l7.9,7.9c0.1,0.1,0.1,0.1,0.2,0.1c0.1,0,0.1,0,0.2,0c0.1,0,0.1,0,0.2,0c0.1,0,0.1-0.1,0.2-0.1
		l2.4-2.4c0.1,0,0.1-0.1,0.1-0.2c0-0.1,0-0.1,0-0.2c0-0.1,0-0.1,0-0.2C200.8,566.3,200.8,566.3,200.7,566.2z"/>
	<path class="st7" d="M509.6,768.3h524.6c10.9,0,19.7,8.8,19.7,19.7v152.6c0,10.9-8.8,19.7-19.7,19.7H509.6
		c-10.9,0-19.7-8.8-19.7-19.7V787.9C490,777.1,498.8,768.3,509.6,768.3z"/>
	<path class="st13" d="M1032.7,962l-521.3,0.4c-12.9,0-23.3-10.4-23.4-23.3c0,0,0,0,0,0l-0.1-149.3c0-12.9,10.4-23.3,23.3-23.3
		l521.3-0.4c12.9,0,23.3,10.4,23.3,23.3l0.1,149.3C1055.9,951.5,1045.5,962,1032.7,962z M511.2,770.4c-10.7,0-19.3,8.7-19.3,19.3
		l0.1,149.3c0,10.7,8.7,19.3,19.4,19.3l521.3-0.4c10.7,0,19.3-8.7,19.3-19.3l-0.1-149.3c0-10.7-8.7-19.4-19.4-19.4L511.2,770.4z"/>
	<path class="st13" d="M534.6,791.4h294c8.7,0,15.8,7.1,15.8,15.8v4.1c0,8.7-7.1,15.8-15.8,15.8h-294c-8.7,0-15.8-7.1-15.8-15.8
		v-4.1C518.8,798.4,525.9,791.4,534.6,791.4z"/>
	<path class="st13" d="M537,846.5h463.5c8.7,0,15.8,7.1,15.8,15.8v4.1c0,8.7-7.1,15.8-15.8,15.8H537c-8.7,0-15.8-7.1-15.8-15.8v-4.1
		C521.3,853.5,528.3,846.5,537,846.5z"/>
	<path class="st13" d="M537,901.5h216.6c8.7,0,15.8,7.1,15.8,15.8v4.1c0,8.7-7.1,15.8-15.8,15.8H537c-8.7,0-15.8-7.1-15.8-15.8v-4.1
		C521.3,908.6,528.3,901.5,537,901.5z"/>
</g>
</svg>
