<?xml version="1.0" encoding="UTF-8"?>
<svg width="116px" height="126px" viewBox="0 0 116 126" version="1.1" xmlns="http://www.w3.org/2000/svg" xmlns:xlink="http://www.w3.org/1999/xlink">
    <!-- Generator: Sketch 52.2 (67145) - http://www.bohemiancoding.com/sketch -->
    <title>Group 45</title>
    <desc>Created with Sketch.</desc>
    <g id="Welcome" stroke="none" stroke-width="1" fill="none" fill-rule="evenodd">
        <g id="Group-45" fill-rule="nonzero">
            <rect id="Rectangle-Copy-6" fill="#FFFFFF" x="0" y="0" width="116" height="126"></rect>
            <g id="Group-20" transform="translate(0.000000, 9.000000)">
                <g id="info">
                    <g id="Group">
                        <g id="Shape">
                            <path d="M25.684959,52.342753 C31.8074749,49.498268 38.7442115,47.5948952 46.3048314,47.7112124 C62.3248861,41.5041021 75.9445761,31.1307201 91.6791249,29.0793072 C97.8227894,28.2756609 103.606928,28.8678213 108.936372,30.3270738 C99.1128532,12.2873291 79.9945305,0.0422971741 58.0211486,0.0422971741 C29.3648131,0.0422971741 5.58322698,20.8419325 0.919963537,48.1553327 C10.0455789,51.5602552 18.1983592,52.6917046 25.684959,52.342753 Z" fill="#0093DD"></path>
                            <path d="M25.684959,52.342753 C18.1983592,52.6917046 10.0455789,51.5708295 0.919963537,48.165907 C-0.35952598,55.6842297 -0.148040109,63.3823154 1.53327256,70.826618 C5.98505014,65.962443 14.444485,57.566454 25.684959,52.342753 Z" fill="#1CADE2"></path>
                            <path d="M29.2590702,66.068186 C18.8856882,64.7146764 9.52743847,67.3371012 1.66016408,71.3870556 C7.70865998,96.9028259 30.6443026,115.894257 58.0211486,115.894257 C78.7467639,115.894257 96.9345488,105.002735 107.170465,88.6337284 C74.2632634,94.0054695 54.4576117,69.346217 29.2590702,66.068186 Z" fill="#D7F7FF"></path>
                            <path d="M51.1690064,48.0601641 C49.5511395,47.8486782 47.9332726,47.732361 46.3048314,47.7112124 C38.7442115,47.5948952 31.7969006,49.498268 25.684959,52.342753 C14.444485,57.566454 5.98505014,65.962443 1.53327256,70.826618 C1.57556974,71.0169553 1.61786691,71.1967183 1.66016408,71.3870556 C9.52743847,67.3371012 18.8856882,64.7146764 29.2590702,66.068186 C54.4576117,69.3567912 74.2632634,94.0160438 107.170465,88.6231541 C110.543665,83.2302644 112.996901,77.3192343 114.435005,71.1332726 C89.7969006,68.7752051 72.4021878,50.830629 51.1690064,48.0601641 Z" fill="#43BEE7"></path>
                        </g>
                        <path d="M108.925798,30.3270738 C103.596354,28.8678213 97.8122151,28.2862352 91.6685506,29.0793072 C75.9445761,31.1307201 62.3248861,41.5041021 46.3048314,47.7112124 C47.9332726,47.732361 49.5511395,47.8592525 51.1690064,48.0601641 C72.4021878,50.830629 89.7969006,68.7752051 114.435005,71.1332726 C117.639015,57.3126709 115.682771,42.7941659 108.925798,30.3270738 Z" id="Shape" fill="#1CADE2"></path>
                    </g>
                    <g id="Group" opacity="0.4" transform="translate(6.000000, 24.000000)" fill="#292E34">
                        <path d="M103.524606,0.0636103152 L3.4753937,0.0636103152 C1.59025591,0.0636103152 0.0526574803,1.6008596 0.0526574803,3.50916905 L0.0526574803,70.4908309 C0.0526574803,72.3991404 1.57972441,73.9363897 3.4753937,73.9363897 L103.535138,73.9363897 C105.325492,73.9363897 106.810433,72.5475645 106.947343,70.7452722 C106.957874,70.7346705 106.957874,70.713467 106.957874,70.7028653 L106.957874,3.49856734 C106.936811,1.6008596 105.409744,0.0636103152 103.524606,0.0636103152 Z" id="Shape"></path>
                    </g>
                    <path d="M17.7508897,22 L7.45907473,22 C5.5480427,22 4,23.5396757 4,25.4509973 L4,92.5490027 C4,94.4497058 5.5480427,96 7.45907473,96 L25,96 L25,22 L17.7508897,22 Z" id="Shape" fill="#D1D1D1"></path>
                    <path d="M112,46.0861079 L112,25.4514925 C112,23.5505166 110.447568,22 108.544243,22 L25,22 L25,96 L26.5524322,96 L26.5524322,46.0861079 L112,46.0861079 Z" id="Shape" fill="#FAFAFA"></path>
                    <path d="M111,92.5432887 L111,46 L26,46 L26,96 L107.572922,96 C109.455699,95.989364 110.989423,94.4471389 111,92.5432887 Z" id="Shape" fill="#FAFAFA"></path>
                    <g id="Group" opacity="0.6" transform="translate(26.000000, 46.000000)" fill="#CC0000">
                        <path d="M84.9049689,46.5498938 L84.9049689,0.0955414013 L0.0527950311,0.0955414013 L0.0527950311,50 L81.4838509,50 C83.363354,49.9893843 84.8944099,48.4501062 84.9049689,46.5498938 Z" id="Shape"></path>
                    </g>
                    <g id="Group" opacity="0.4" transform="translate(26.000000, 84.000000)" fill="#CC0000">
                        <path d="M0.168944099,0.0952941176 L84.7993789,0.0952941176 C84.8521739,0.0952941176 84.915528,0.137647059 84.915528,0.211764706 L84.915528,8.84117647 C84.915528,8.89411765 84.8732919,8.95764706 84.7993789,8.95764706 L0.168944099,8.95764706 C0.116149068,8.95764706 0.0527950311,8.91529412 0.0527950311,8.84117647 L0.0527950311,0.211764706 C0.0527950311,0.148235294 0.105590062,0.0952941176 0.168944099,0.0952941176 Z" id="Shape"></path>
                    </g>
                    <path d="M32,28.0448076 L32,28.2662098 L31.3165445,28.3083817 C31.4899586,28.5297839 31.5919668,28.8039009 31.5919668,29.0780179 C31.6021677,29.3732209 31.4899586,29.6684238 31.2757412,29.8792831 C31.0411221,30.1006853 30.7350972,30.195572 30.4290724,30.185029 C30.3168632,30.185029 30.214855,30.185029 30.1128467,30.1639431 C30.0006376,30.2166579 29.9190309,30.3010016 29.8374243,30.3958882 C29.7864201,30.4802319 29.7456168,30.5751186 29.735416,30.6700053 C29.7252152,30.7648919 29.7762193,30.8492356 29.8578259,30.9124934 C29.9802359,30.9652082 30.1230475,30.9968371 30.2556583,30.9757512 L30.8269047,30.9757512 C31.1839337,30.9757512 31.4593561,31.0600949 31.642971,31.2076964 C31.8367867,31.3658408 31.938795,31.6188719 31.9285942,31.871903 C31.938795,32.1987348 31.7857826,32.5255667 31.5103602,32.704797 C31.2349378,32.8945704 30.8269047,33 30.3066624,33 C29.8986293,33 29.5824036,32.9156563 29.3477845,32.7469689 C29.1233663,32.5993674 28.9907555,32.3357934 29.0009563,32.0616763 C28.9907555,31.8402741 29.0621613,31.6399578 29.2151737,31.4818134 C29.3681862,31.323669 29.5722027,31.2076964 29.7864201,31.1655245 C29.6946127,31.1338956 29.6130061,31.0600949 29.5518011,30.9862941 C29.5007969,30.9019504 29.4599936,30.8070638 29.4599936,30.7121771 C29.4599936,30.4802319 29.6028052,30.2799157 29.8782276,30.1112283 C29.6946127,30.0268846 29.5313994,29.910912 29.4293911,29.7211386 C29.317182,29.5419083 29.2661779,29.331049 29.2661779,29.1307327 C29.255977,28.8249868 29.3681862,28.5297839 29.5722027,28.3083817 C29.8068218,28.0869794 30.1128467,27.9920928 30.4188715,28.0026357 C30.5820848,27.9920928 30.7656997,28.0131787 30.9187121,28.0658935 L32,28.0448076 Z M29.3375837,32.0195045 C29.3375837,32.4833948 29.6640102,32.71534 30.3474657,32.71534 C31.2043354,32.71534 31.642971,32.43068 31.642971,31.86136 C31.6531718,31.6926726 31.581766,31.5239852 31.4491552,31.4185556 C31.3165445,31.323669 31.0921262,31.2814971 30.7861014,31.2814971 L30.2454574,31.2814971 C29.6436085,31.2920401 29.3375837,31.5239852 29.3375837,32.0195045 Z M29.5926044,29.1096468 C29.5824036,29.341592 29.6538094,29.5629942 29.8272235,29.7211386 C30.2046541,30.0057986 30.7146956,30.0057986 31.0717246,29.7211386 C31.224737,29.5524512 31.3063436,29.3205061 31.2961428,29.0885609 C31.2961428,28.8039009 31.2145362,28.5824987 31.0717246,28.4348972 C30.8983105,28.2767528 30.6738923,28.202952 30.4392732,28.213495 C30.2046541,28.202952 29.9904367,28.2767528 29.8170226,28.4454402 C29.6640102,28.6246705 29.5824036,28.8566157 29.5926044,29.1096468 Z" id="Shape" fill="#486B00"></path>
                    <path d="M35.7399406,31.9248434 L35.6408704,31.316433 L35.6161028,31.316433 C35.4551137,31.5311661 35.2445894,31.72204 34.9969138,31.8413361 C34.7740058,31.9487027 34.5015626,31.9964211 34.2415032,31.9964211 C33.9071412,32.0202803 33.5851629,31.9248434 33.3251035,31.7101103 C33.1021955,31.5073069 32.9783577,31.2090665 33.0031252,30.9108261 C32.9907414,30.5648673 33.1764981,30.2308381 33.4860926,30.0280346 C33.8080709,29.8252311 34.2786546,29.705935 34.8978436,29.705935 L35.6656379,29.6820758 L35.6656379,29.4196242 C35.6656379,29.0617358 35.5913353,28.775425 35.4427299,28.5964808 C35.2941245,28.4175365 35.0464489,28.31017 34.6873193,28.31017 C34.2910384,28.3220996 33.8947574,28.4294661 33.5356278,28.6084104 L33.3994062,28.2982404 C33.7956871,28.1073665 34.2415032,28 34.6997031,28 C35.1455192,28 35.4674975,28.1192962 35.6780217,28.3220996 C35.888546,28.5368327 36,28.8827915 36,29.3599761 L36,31.9129138 L35.7399406,31.9248434 Z M34.2662708,31.6623919 C34.9597625,31.72204 35.5789515,31.2209961 35.6532542,30.5529377 C35.6656379,30.48136 35.6532542,30.4097823 35.6532542,30.3382046 L35.6532542,29.9683865 L34.9597625,29.9922458 C34.4024924,30.016105 33.9938276,30.1115419 33.7585358,30.2546973 C33.523244,30.3978527 33.3870224,30.6603042 33.3994062,30.9227557 C33.3870224,31.1255592 33.4613251,31.3402923 33.6223142,31.4953773 C33.8080709,31.6146734 34.0433628,31.6862511 34.2662708,31.6623919 Z" id="Shape" fill="#486B00"></path>
                    <path d="M37.4585635,30.7374287 C37.6353591,30.7374287 37.8121547,30.7275675 38,30.6979836 L38,30.9346545 C37.8232044,30.983961 37.6464088,31.0135449 37.4585635,30.9938223 C37.1491713,30.9938223 36.9060773,30.914932 36.7624309,30.7670126 C36.6077348,30.6190933 36.5303867,30.3824223 36.5303867,30.0668611 L36.5303867,28.0157128 L36,28.0157128 L36,27.8480709 L36.5303867,27.7198741 L36.6961326,27 L36.8618785,27 L36.8618785,27.7691806 L37.9005525,27.7691806 L37.9005525,28.0255741 L36.8618785,28.0255741 L36.8618785,30.0471385 C36.8508287,30.234503 36.8950276,30.4317288 37.0055249,30.5895094 C37.1160221,30.6881223 37.281768,30.74729 37.4585635,30.7374287 Z" id="Shape" fill="#486B00"></path>
                    <path d="M40.6882129,32 C40.1520913,32 39.7414449,31.8323605 39.4448669,31.4851071 C39.148289,31.1378538 39,30.6588837 39,30.0362226 C39,29.4255357 39.148289,28.9226171 39.4334601,28.5633895 C39.7186312,28.2041619 40.1520913,27.9886253 40.608365,28.0005996 C41.0076046,27.9886253 41.3840304,28.1562649 41.634981,28.4795697 C41.8859316,28.8028745 42,29.2339476 42,29.772789 L42,30.0601711 L39.3536122,30.0601711 C39.3536122,30.5870382 39.4790875,30.9941628 39.7072243,31.2815448 C39.9467681,31.5689269 40.2775665,31.7006437 40.6996198,31.7006437 C40.8821293,31.7006437 41.0646388,31.6886694 41.2585551,31.6527467 C41.4638783,31.6048497 41.6692015,31.5330041 41.8631179,31.4611586 L41.8631179,31.7844635 C41.6806084,31.8802575 41.4752852,31.9401287 41.2813688,31.9760515 C41.0874525,31.9880257 40.8935361,32 40.6882129,32 Z M40.5969582,28.3119302 C40.2775665,28.2999559 39.9695817,28.4316727 39.7414449,28.6711578 C39.5361217,28.9226171 39.3992395,29.2698704 39.3764259,29.7368662 L41.6463878,29.7368662 C41.6463878,29.2818446 41.5437262,28.9345913 41.3726236,28.683132 C41.1901141,28.4316727 40.904943,28.2999559 40.5969582,28.3119302 Z" id="Shape" fill="#486B00"></path>
                    <path d="M44.8503563,30.9907121 L44.1852732,28.993808 C44.1472684,28.8637771 44.0807601,28.6594427 44.023753,28.3993808 L44.0047506,28.3993808 L43.9477435,28.6037152 L43.824228,29.003096 L43.1496437,31 L42.8741093,31 L42,28 L42.2945368,28 L42.7885986,29.7368421 C42.9026128,30.1733746 42.9691211,30.4798762 43.0166271,30.6842105 L43.0356295,30.6842105 C43.1496437,30.247678 43.2351544,29.9690402 43.2826603,29.8297214 L43.9097387,28 L44.1662708,28 L44.7648456,29.8204334 C44.8978622,30.2569659 44.9833729,30.5356037 45.0118765,30.6749226 L45.0308789,30.6749226 C45.04038,30.5541796 45.1258907,30.2291022 45.2589074,29.7182663 L45.7244656,28 L46,28 L45.1638955,31 L44.8693587,31 L44.8693587,30.9907121 L44.8503563,30.9907121 Z" id="Shape" fill="#486B00"></path>
                    <path d="M49.7399406,31.9253868 L49.6408704,31.3168922 L49.6161028,31.3168922 C49.4551137,31.531655 49.2445894,31.7225553 48.9969138,31.8418679 C48.7740058,31.9492493 48.5015626,31.9969744 48.2415032,31.9969744 C47.9071412,32.0208369 47.5851629,31.9015243 47.3251035,31.710624 C47.1021955,31.5077925 46.9783577,31.2095108 47.0031252,30.9112291 C46.9907414,30.5652224 47.1764981,30.2311469 47.4860926,30.0283154 C47.8080709,29.8254838 48.2786546,29.7061712 48.8978436,29.7061712 L49.6656379,29.6823086 L49.6656379,29.4198208 C49.6656379,29.0618828 49.5913353,28.7755323 49.4427299,28.5965633 C49.2817408,28.4056631 49.0464489,28.3102129 48.6873193,28.3102129 C48.2910384,28.3221442 47.8947574,28.4295256 47.5356278,28.6084946 L47.3994062,28.2982817 C47.7956871,28.1073814 48.2415032,28 48.6997031,28 C49.1455192,28 49.4674975,28.1193127 49.6780217,28.3221442 C49.888546,28.536907 50,28.8829137 50,29.3601644 L50,31.9134555 L49.7399406,31.9253868 Z M48.2662708,31.6628989 C48.9597625,31.7225553 49.5789515,31.2214421 49.6532542,30.5532911 C49.6532542,30.4817035 49.6532542,30.4101159 49.6532542,30.3385283 L49.6532542,29.968659 L48.9597625,29.9925216 C48.4024924,30.0163841 47.9938276,30.1118342 47.7585358,30.2550094 C47.523244,30.3981846 47.3870224,30.6606725 47.3994062,30.9231604 C47.3870224,31.1259919 47.4613251,31.3407547 47.6223142,31.4958612 C47.7956871,31.6151739 48.0433628,31.6867615 48.2662708,31.6628989 Z" id="Shape" fill="#486B00"></path>
                    <path d="M50,28 L50.323741,28 L51.057554,29.929003 C51.2841727,30.5151642 51.4244604,30.9201483 51.4784173,31.1332978 L51.5,31.1332978 C51.5971223,30.8562034 51.7374101,30.4512193 51.942446,29.9076881 L52.676259,28 L53,28 L51.4460432,31.9965533 C51.3597122,32.2310177 51.2625899,32.4441672 51.1330935,32.6573168 C51.0467626,32.7638915 50.9604317,32.8491513 50.8309353,32.9130962 C50.7014388,32.9663835 50.5611511,33.0090134 50.4208633,32.998356 C50.2805755,32.998356 50.1402878,32.977041 50.0107914,32.9344111 L50.0107914,32.6360018 C50.1402878,32.6679742 50.2805755,32.6786317 50.4100719,32.6786317 C50.5179856,32.6786317 50.6043165,32.6573168 50.7014388,32.5933719 C50.7985612,32.529427 50.8633094,32.4548247 50.9280576,32.3589074 C51.0251799,32.1990453 51.1007194,32.0285257 51.1654676,31.8473486 C51.2625899,31.6128842 51.3057554,31.4636795 51.3381295,31.3997347 L50,28 Z" id="Shape" fill="#486B00"></path>
                    <path d="M54.999492,30.9299914 C55.0082617,31.2422036 54.9030253,31.5544158 54.7188616,31.72253 C54.5259281,31.9026525 54.2540674,31.9987178 53.9032793,31.9987178 C53.58757,32.0107259 53.2894002,31.9386769 53,31.7705627 L53,31.3983097 C53.2718608,31.5904403 53.58757,31.6985137 53.9032793,31.6865056 C54.1839098,31.6865056 54.3943826,31.6264648 54.5434675,31.494375 C54.6750131,31.3863015 54.7627101,31.1941709 54.7627101,30.9900322 C54.7627101,30.7979016 54.6925525,30.6177792 54.5785463,30.4976976 C54.411922,30.3295833 54.2189886,30.1974935 54.0085157,30.1134364 C53.7980429,30.0173711 53.5963397,29.9092977 53.412176,29.7531916 C53.3069396,29.6571263 53.2192425,29.5490528 53.1578546,29.416963 C53.1052364,29.2728651 53.0613879,29.116759 53.0701576,28.9486448 C53.0613879,28.672457 53.1666243,28.4202856 53.3332487,28.2641796 C53.5174124,28.0960653 53.7629641,28 54.0699036,28 C54.3680735,28 54.6662434,28.072049 54.9468738,28.2281551 L54.8504071,28.5523754 C54.6048555,28.4082775 54.3505341,28.3362285 54.0699036,28.3242204 C53.8769702,28.3122122 53.6928065,28.3602448 53.5174124,28.4803265 C53.3946366,28.5523754 53.3157093,28.7324978 53.3157093,28.9246284 C53.3069396,29.1047509 53.3683275,29.2848733 53.4735639,29.4049549 C53.6664973,29.5850773 53.8682005,29.7171671 54.087443,29.8132324 C54.2803765,29.9092977 54.4645402,30.005363 54.648704,30.1494609 C54.7539404,30.2455262 54.8416374,30.3535996 54.911795,30.4856894 C54.9644132,30.6177792 54.999492,30.7738853 54.999492,30.9299914 Z" id="Shape" fill="#486B00"></path>
                    <path d="M58,28.2693498 C58,28.0928793 58.1660113,28 58.4980338,28 C58.8300563,28 58.9960676,28.0928793 58.9960676,28.2693498 C59.016819,28.3529412 58.9545648,28.4179567 58.8300563,28.4829721 C58.7470507,28.5201238 58.6017908,28.5386997 58.4772824,28.5386997 C58.3527739,28.5386997 58.2282655,28.5201238 58.1245085,28.4829721 C58.0622542,28.4179567 58,28.3436533 58,28.2693498 Z M58,30.7306502 C58,30.5541796 58.1660113,30.4613003 58.4980338,30.4613003 C58.8300563,30.4613003 58.9960676,30.5541796 58.9960676,30.7306502 C58.9960676,30.9071207 58.8093049,31 58.4980338,31 C58.1867627,31 58,30.9071207 58,30.7306502 Z" id="Shape" fill="#393F44"></path>
                    <path d="M61.7153025,29.3809524 C61.5871886,29.3809524 61.4697509,29.4285714 61.3736655,29.5238095 C61.2348754,29.6190476 61.1067616,29.7777778 61,29.952381 L61,29.5079365 C61.1814947,29.2063492 61.4483986,29.015873 61.7366548,29 C61.8647687,29 61.9822064,29.015873 62.1103203,29.0634921 C62.2811388,29.1269841 62.4412811,29.2222222 62.5907473,29.3333333 C62.8149466,29.4920635 63.0391459,29.5873016 63.2846975,29.6031746 C63.4128114,29.6031746 63.5302491,29.5555556 63.6263345,29.4603175 C63.7651246,29.3333333 63.8825623,29.1904762 64,29.015873 L64,29.4603175 C63.9039146,29.6190476 63.797153,29.7301587 63.6690391,29.8412698 C63.5409253,29.9365079 63.4021352,30 63.2633452,30 C62.9644128,29.984127 62.6761566,29.8571429 62.4092527,29.6507937 C62.1850534,29.4920635 61.9501779,29.3968254 61.7153025,29.3809524 Z" id="Shape" fill="#393F44"></path>
                    <path d="M32.6785714,40.978355 L32.6785714,38.7164502 C32.6785714,38.3701299 32.6071429,38.1103896 32.4285714,37.9588745 C32.2619048,37.7965368 32.0119048,37.7207792 31.6666667,37.7207792 C31.202381,37.7207792 30.8690476,37.8290043 30.6666667,38.034632 C30.452381,38.2402597 30.3452381,38.5865801 30.3452381,39.0627706 L30.3452381,41 L30,41 L30,36 L30.3452381,36 L30.3452381,37.5909091 L30.3333333,38.034632 L30.3571429,38.034632 C30.4880952,37.8398268 30.6785714,37.6883117 30.8928571,37.5800866 C31.1547619,37.4718615 31.4285714,37.4285714 31.702381,37.4393939 C32.5833333,37.4393939 33,37.8614719 33,38.7164502 L33,41 L32.6666667,41 L32.6666667,40.978355 L32.6785714,40.978355 Z" id="Shape" fill="#486B00"></path>
                    <path d="M34.4585635,40.7234568 C34.6353591,40.7234568 34.8121547,40.7135802 35,40.6839506 L35,40.9209877 C34.8232044,40.9703704 34.6464088,41 34.4585635,41 C34.1491713,41 33.9060773,40.9209877 33.7624309,40.7728395 C33.6187845,40.6246914 33.5303867,40.3876543 33.5303867,40.0716049 L33.5303867,38.017284 L33,38.017284 L33,37.8493827 L33.5303867,37.7209877 L33.6961326,37 L33.8618785,37 L33.8618785,37.7703704 L34.9005525,37.7703704 L34.9005525,38.0271605 L33.8729282,38.0271605 L33.8729282,40.0320988 C33.8618785,40.2197531 33.9060773,40.4074074 34.0165746,40.5753086 C34.1160221,40.6641975 34.281768,40.7333333 34.4585635,40.7234568 Z" id="Shape" fill="#486B00"></path>
                    <path d="M36.4585635,40.7234568 C36.6353591,40.7234568 36.8121547,40.7135802 37,40.6839506 L37,40.9209877 C36.8232044,40.9703704 36.6464088,41 36.4585635,41 C36.1491713,41 35.9060773,40.9209877 35.7624309,40.7728395 C35.6187845,40.6246914 35.5303867,40.3876543 35.5303867,40.0716049 L35.5303867,38.017284 L35,38.017284 L35,37.8493827 L35.5303867,37.7209877 L35.6961326,37 L35.8618785,37 L35.8618785,37.7703704 L36.9116022,37.7703704 L36.9116022,38.0271605 L35.8618785,38.0271605 L35.8618785,40.0320988 C35.8508287,40.2197531 35.8950276,40.4074074 36.0055249,40.5753086 C36.1160221,40.6641975 36.281768,40.7333333 36.4585635,40.7234568 Z" id="Shape" fill="#486B00"></path>
                    <path d="M39.5054945,41.5294118 C38.956044,41.5294118 38.5604396,41.3403361 38.3186813,40.9411765 L38.2967033,40.9411765 L38.3076923,41.2037815 C38.3186813,41.3613445 38.3186813,41.5189076 38.3186813,41.7079832 L38.3186813,43 L38,43 L38,38.0735294 L38.2747253,38.0735294 L38.3296703,38.5462185 L38.3516484,38.5462185 C38.6043956,38.1785714 38.978022,38 39.5164835,38 C39.989011,38 40.3626374,38.1470588 40.6153846,38.4516807 C40.8681319,38.7563025 41,39.1869748 41,39.7647059 C41,40.3214286 40.8681319,40.7521008 40.6043956,41.0567227 C40.3296703,41.3718487 39.9230769,41.539916 39.5054945,41.5294118 Z M39.4945055,41.2563025 C39.8241758,41.2668067 40.1318681,41.1302521 40.3406593,40.8676471 C40.5384615,40.605042 40.6373626,40.2584034 40.6373626,39.7857143 C40.6373626,38.7983193 40.2527473,38.2941176 39.5054945,38.2941176 C39.0879121,38.2941176 38.7912088,38.4096639 38.6043956,38.6197479 C38.4175824,38.8298319 38.3186813,39.1869748 38.3076923,39.6806723 L38.3076923,39.7857143 C38.3076923,40.3214286 38.4065934,40.6995798 38.5824176,40.9201681 C38.7692308,41.1407563 39.0769231,41.2563025 39.4945055,41.2563025 Z" id="Shape" fill="#486B00"></path>
                    <path d="M43.0051611,38.2692929 C43.0051611,38.0928596 43.1703155,38 43.5006245,38 C43.8309334,38 43.9960879,38.0928596 43.9960879,38.2692929 C44.0167322,38.3528666 43.9547993,38.4178683 43.8309334,38.4828701 C43.7483562,38.5200139 43.603846,38.5385858 43.4799802,38.5385858 C43.3561143,38.5385858 43.2322485,38.5200139 43.1290269,38.4828701 C43.0258054,38.4178683 42.9845168,38.3435806 43.0051611,38.2692929 Z M43.0051611,40.7300731 C43.0051611,40.5536398 43.1703155,40.4607801 43.5006245,40.4607801 C43.8309334,40.4607801 43.9960879,40.5536398 43.9960879,40.7300731 C43.9960879,40.9065064 43.8102891,40.999366 43.5006245,40.999366 C43.1703155,41.008652 43.0051611,40.9157923 43.0051611,40.7300731 Z" id="Shape" fill="#393F44"></path>
                    <polygon id="Shape" fill="#486B00" points="33 49.5 33 49 34 49 34 49.5"></polygon>
                    <path d="M39.4792899,47.0009839 C39.6568047,47.0009839 39.8224852,47.0100718 40,47.0373356 L39.9408284,47.2917976 C39.7751479,47.2645338 39.6094675,47.2463579 39.443787,47.2463579 C39.1242604,47.2463579 38.8284024,47.364501 38.6508876,47.5644354 C38.4378698,47.8007215 38.3195266,48.0824473 38.3431953,48.373261 L38.3431953,50 L38,50 L38,47.0645994 L38.295858,47.0645994 L38.3313609,47.5916992 L38.3550296,47.5916992 C38.4733728,47.4190285 38.6508876,47.2554459 38.852071,47.1373028 C39.0177515,47.0464235 39.2426036,46.991896 39.4792899,47.0009839 Z" id="Shape" fill="#486B00"></path>
                    <path d="M43,49.0069658 C43,49.6394857 42.8636364,50.1287934 42.6013986,50.4748892 C42.3391608,50.820985 41.9615385,51 41.4895105,51 C41.2167832,51 40.9440559,50.928394 40.7027972,50.7493789 C40.472028,50.5822982 40.2937063,50.3316772 40.1783217,50.0571874 C40.0524476,49.723026 40,49.3649959 40,48.9950315 C40,48.3625117 40.1363636,47.8851382 40.3986014,47.5271081 C40.6818182,47.169078 41.0804196,46.990063 41.5,47.0019973 C41.9195804,46.9781286 42.3181818,47.169078 42.5909091,47.5271081 C42.8741259,47.9090069 43,48.3983147 43,49.0069658 Z M40.3356643,49.0069658 C40.3356643,49.5320766 40.4405594,49.9497784 40.6398601,50.2481368 C41.0594406,50.7851819 41.7937063,50.8448536 42.2762238,50.3674802 C42.3076923,50.3316772 42.3391608,50.2958742 42.3811189,50.2481368 C42.5804196,49.9497784 42.6853147,49.5320766 42.6853147,49.0069658 C42.6853147,48.481855 42.5804196,48.0641533 42.3811189,47.7777292 C42.1608392,47.4793708 41.8461538,47.3122901 41.5104895,47.3361587 C41.1853147,47.3122901 40.8496503,47.4793708 40.6503497,47.7777292 C40.4405594,48.0641533 40.3356643,48.481855 40.3356643,49.0069658 Z" id="Shape" fill="#486B00"></path>
                    <path d="M44.3425197,47.0182371 L44.3425197,48.9240122 C44.3425197,49.2158055 44.4133858,49.4346505 44.5905512,49.56231 C44.7559055,49.6899696 45.003937,49.7629179 45.3464567,49.7629179 C45.8070866,49.7629179 46.1377953,49.6717325 46.3385827,49.4984802 C46.5511811,49.325228 46.6574803,49.0334347 46.6574803,48.6322188 L46.6574803,47.0091185 L47,47.0091185 L47,49.9452888 L46.7047244,49.9452888 L46.6456693,49.5440729 L46.6220472,49.5440729 C46.3740157,49.8541033 45.9488189,50 45.2992126,50 C44.4251969,50 44,49.6443769 44,48.9240122 L44,47 L44.3425197,47 L44.3425197,47.0182371 Z" id="Shape" fill="#486B00"></path>
                    <path d="M48.4585635,50.7254902 C48.6353591,50.7254902 48.8121547,50.7156863 49,50.6862745 L49,50.9215686 C48.8232044,50.9705882 48.6464088,51 48.4585635,51 C48.1491713,51 47.9060773,50.9215686 47.7624309,50.7745098 C47.6187845,50.627451 47.5303867,50.3921569 47.5303867,50.0784314 L47.5303867,48.0196078 L47,48.0196078 L47,47.8529412 L47.5303867,47.7254902 L47.6961326,47 L47.8618785,47 L47.8618785,47.7647059 L48.9116022,47.7647059 L48.9116022,48.0196078 L47.8618785,48.0196078 L47.8618785,50.0294118 C47.8508287,50.2156863 47.8950276,50.4117647 48.0055249,50.5686275 C48.1160221,50.6666667 48.281768,50.7352941 48.4585635,50.7254902 Z" id="Shape" fill="#486B00"></path>
                    <path d="M51.6882129,51 C51.1520913,51 50.7414449,50.8323605 50.4448669,50.4851071 C50.148289,50.1378538 50,49.6588837 50,49.0362226 C50,48.4255357 50.148289,47.9226171 50.4334601,47.5633895 C50.7186312,47.2041619 51.1520913,46.9886253 51.608365,47.0005996 C52.0076046,46.9886253 52.3840304,47.1562649 52.634981,47.4795697 C52.8859316,47.8028745 53,48.2339476 53,48.772789 L53,49.0601711 L50.3536122,49.0601711 C50.3536122,49.5870382 50.4790875,49.9941628 50.7072243,50.2815448 C50.9467681,50.5689269 51.2775665,50.7006437 51.6996198,50.7006437 C51.8821293,50.7006437 52.0646388,50.6886694 52.2585551,50.6527467 C52.4638783,50.6048497 52.6692015,50.5330041 52.8631179,50.4611586 L52.8631179,50.7844635 C52.6806084,50.8802575 52.4752852,50.9401287 52.2813688,50.9760515 C52.0874525,50.9880257 51.8821293,51 51.6882129,51 Z M51.5855513,47.2999559 C51.2661597,47.2879817 50.9581749,47.4196984 50.730038,47.6591835 C50.5247148,47.9106428 50.3878327,48.2578961 50.365019,48.724892 L52.634981,48.724892 C52.634981,48.2818446 52.5323194,47.9345913 52.3612167,47.6711578 C52.1787072,47.4316727 51.8935361,47.2879817 51.5855513,47.2999559 Z" id="Shape" fill="#486B00"></path>
                    <path d="M55.0049847,48.2693498 C55.0049847,48.0928793 55.1701537,48 55.5004916,48 C55.8308295,48 55.9959985,48.0928793 55.9959985,48.2693498 C56.0166446,48.3529412 55.9547062,48.4179567 55.8721218,48.4829721 C55.7895373,48.5201238 55.6450144,48.5386997 55.5211377,48.5386997 C55.397261,48.5386997 55.2527382,48.5201238 55.1701537,48.4829721 C55.0256308,48.4272446 54.9843386,48.3436533 55.0049847,48.2693498 Z M55.0049847,50.7306502 C55.0049847,50.5541796 55.1701537,50.4613003 55.5004916,50.4613003 C55.8308295,50.4613003 55.9959985,50.5541796 55.9959985,50.7306502 C55.9959985,50.9071207 55.8101834,51 55.5004916,51 C55.1907998,51 55.0049847,50.9071207 55.0049847,50.7306502 Z" id="Shape" fill="#393F44"></path>
                    <path d="M42.9983207,79.9069069 C43.0070853,80.2192192 42.9019105,80.5315315 42.7178546,80.7117117 C42.5337988,80.8918919 42.2533327,80.987988 41.9027501,81 C41.5258739,81 41.2191141,80.9279279 41,80.7717718 L41,80.3993994 C41.2717015,80.5915916 41.5872258,80.6996997 41.9027501,80.6876877 C42.1744516,80.6876877 42.3935657,80.6276276 42.5425633,80.4954955 C42.6740318,80.3873874 42.7616775,80.1951952 42.7616775,79.990991 C42.7616775,79.7987988 42.6915609,79.6186186 42.5951507,79.4984985 C42.428624,79.3303303 42.2358036,79.1981982 42.025454,79.1141141 C41.8151045,79.018018 41.6135195,78.9099099 41.4294637,78.7537538 C41.3242889,78.6576577 41.2366432,78.5495495 41.1752913,78.4174174 C41.1227039,78.2732733 41.0788811,78.1171171 41.0876456,77.9489489 C41.0788811,77.6726727 41.1840559,77.4204204 41.3505826,77.2642643 C41.5346384,77.0960961 41.7800462,77 42.086806,77 C42.3848012,77 42.6827964,77.0720721 42.9632624,77.2282282 L42.8668522,77.5525526 C42.6214444,77.4084084 42.3672721,77.3363363 42.0955706,77.3243243 C41.9027501,77.3123123 41.7186943,77.3603604 41.543403,77.4804805 C41.4206991,77.5525526 41.341818,77.7327327 41.341818,77.9129129 C41.3330534,78.0930931 41.3944054,78.2732733 41.4995802,78.3933934 C41.6924006,78.5735736 41.8939856,78.7057057 42.1130997,78.8018018 C42.3059201,78.8978979 42.489976,78.993994 42.6740318,79.1381381 C42.7792066,79.2342342 42.8668522,79.3423423 42.9369687,79.4864865 C42.9807916,79.5825826 43.0070853,79.7507508 42.9983207,79.9069069 Z" id="Shape" fill="#486B00"></path>
                    <path d="M44.3425197,77 L44.3425197,78.9 C44.3425197,79.1909091 44.4133858,79.4090909 44.5905512,79.5363636 C44.7677165,79.6636364 45.003937,79.7363636 45.3464567,79.7363636 C45.7952756,79.7363636 46.1377953,79.6454545 46.3385827,79.4727273 C46.5393701,79.3 46.6574803,79.0090909 46.6574803,78.6181818 L46.6574803,77 L47,77 L47,79.9363636 L46.7047244,79.9363636 L46.6456693,79.5363636 L46.6220472,79.5363636 C46.3740157,79.8454545 45.9370079,80 45.2992126,80 C44.4251969,80 44,79.6454545 44,78.9272727 L44,77.0090909 L44.3425197,77 Z" id="Shape" fill="#486B00"></path>
                    <path d="M49.4889706,76.4055794 C49.9852941,76.4055794 50.3602941,76.555794 50.6139706,76.8562232 C50.8676471,77.1566524 51,77.6072961 51,78.1974249 C51,78.7875536 50.8676471,79.2167382 50.6029412,79.5386266 C50.3382353,79.8497854 49.9742647,80 49.4779412,80 C49.2352941,80 49.0036765,79.9570815 48.7941176,79.8497854 C48.5955882,79.7424893 48.4411765,79.6030043 48.3198529,79.4206009 L48.2977941,79.4206009 L48.1985294,79.9463519 L48,79.9463519 L48,75 L48.3198529,75 L48.3198529,76.2339056 C48.3198529,76.416309 48.3198529,76.5987124 48.3088235,76.748927 L48.2977941,77.0171674 L48.3198529,77.0171674 C48.4411765,76.8240343 48.6066176,76.6738197 48.8051471,76.5665236 C49.0257353,76.4484979 49.2463235,76.3948498 49.4889706,76.4055794 Z M49.4889706,76.6845494 C49.0698529,76.6845494 48.7720588,76.8025751 48.5955882,77.027897 C48.4191176,77.2639485 48.3198529,77.639485 48.3198529,78.1866953 L48.3198529,78.2403433 C48.3198529,78.7660944 48.4191176,79.1309013 48.6066176,79.3669528 C48.7941176,79.6030043 49.0808824,79.6995708 49.4889706,79.6995708 C49.8308824,79.72103 50.1617647,79.5708155 50.3602941,79.3025751 C50.5477941,79.0343348 50.6580882,78.6587983 50.6580882,78.1759657 C50.6470588,77.1888412 50.2610294,76.6845494 49.4889706,76.6845494 Z" id="Shape" fill="#486B00"></path>
                    <path d="M53.9986477,79.9069069 C54.0074137,80.2192192 53.9022218,80.5315315 53.7181358,80.7117117 C53.5252838,80.8918919 53.2535378,80.987988 52.9028979,81 C52.5259599,81 52.21915,80.9279279 52,80.7717718 L52,80.3993994 C52.271746,80.5915916 52.5873219,80.6996997 52.9028979,80.6876877 C53.1834098,80.6876877 53.3937938,80.6276276 53.5428158,80.4954955 C53.6743058,80.3873874 53.7619658,80.1951952 53.7619658,79.990991 C53.7619658,79.7987988 53.6918378,79.6186186 53.5954118,79.4984985 C53.4288578,79.3303303 53.2360058,79.1981982 53.0256219,79.1141141 C52.8152379,79.018018 52.6136199,78.8978979 52.4207679,78.7537538 C52.315576,78.6576577 52.227916,78.5495495 52.166554,78.4174174 C52.113958,78.2732733 52.070128,78.1171171 52.078894,77.9489489 C52.070128,77.6726727 52.17532,77.4204204 52.341874,77.2642643 C52.5259599,77.0960961 52.7714079,77 53.0782179,77 C53.3762618,77 53.6743058,77.0720721 53.9548178,77.2282282 L53.8583918,77.5525526 C53.6129438,77.4084084 53.3587298,77.3363363 53.0869839,77.3243243 C52.8941319,77.3123123 52.7100459,77.3603604 52.5347259,77.4804805 C52.4120019,77.5525526 52.333108,77.7327327 52.333108,77.9129129 C52.324342,78.0930931 52.385704,78.2732733 52.4908959,78.3933934 C52.6837479,78.5735736 52.8853659,78.7057057 53.1045159,78.8018018 C53.2973678,78.8978979 53.4814538,78.993994 53.6655398,79.1381381 C53.7707318,79.2342342 53.8583918,79.3423423 53.9285198,79.4864865 C53.9723497,79.5825826 54.0074137,79.7387387 53.9986477,79.9069069 Z" id="Shape" fill="#486B00"></path>
                    <path d="M56.6882129,81 C56.1520913,81 55.7414449,80.8323605 55.4448669,80.4851071 C55.148289,80.1378538 55,79.6588837 55,79.0362226 C55,78.4255357 55.148289,77.9226171 55.4334601,77.5633895 C55.7186312,77.2041619 56.1520913,76.9886253 56.608365,77.0005996 C57.0076046,76.9886253 57.3840304,77.1562649 57.634981,77.4795697 C57.8859316,77.8028745 58,78.2339476 58,78.772789 L58,79.0601711 L55.3422053,79.0601711 C55.3422053,79.5870382 55.4676806,79.9941628 55.6958175,80.2815448 C55.9353612,80.5689269 56.2547529,80.7006437 56.6882129,80.7006437 C56.8707224,80.7006437 57.0532319,80.6886694 57.2471483,80.6527467 C57.4524715,80.6048497 57.6577947,80.5330041 57.851711,80.4611586 L57.851711,80.7844635 C57.6692015,80.8802575 57.4638783,80.9401287 57.269962,80.9760515 C57.0760456,80.9880257 56.8821293,81 56.6882129,81 Z M56.5855513,77.2999559 C56.2661597,77.2879817 55.9581749,77.4196984 55.730038,77.6591835 C55.5247148,77.9106428 55.3992395,78.2578961 55.365019,78.724892 L57.634981,78.724892 C57.634981,78.2698704 57.5323194,77.9226171 57.3612167,77.6711578 C57.1787072,77.4316727 56.8935361,77.2879817 56.5855513,77.2999559 Z" id="Shape" fill="#486B00"></path>
                    <path d="M59.4615385,79.7234568 C59.6373626,79.7234568 59.8131868,79.7135802 60,79.6839506 L60,79.9209877 C59.8241758,79.9703704 59.6483516,80 59.4615385,80 C59.1538462,80 58.9120879,79.9209877 58.7692308,79.7728395 C58.6263736,79.6246914 58.5384615,79.3876543 58.5384615,79.0716049 L58.5384615,77.017284 L58,77.017284 L58,76.8493827 L58.5274725,76.7209877 L58.6923077,76 L58.8571429,76 L58.8571429,76.7703704 L59.9010989,76.7703704 L59.9010989,77.0271605 L58.8571429,77.0271605 L58.8571429,79.0518519 C58.8461538,79.2395062 58.8901099,79.4271605 59,79.5950617 C59.1098901,79.6740741 59.2747253,79.7333333 59.4615385,79.7234568 Z" id="Shape" fill="#486B00"></path>
                    <path d="M62.0051611,77.2693498 C62.0051611,77.0928793 62.1703155,77 62.5006245,77 C62.8309334,77 62.9960879,77.0928793 62.9960879,77.2693498 C63.0167322,77.3529412 62.9547993,77.4179567 62.8309334,77.4829721 C62.7483562,77.5201238 62.603846,77.5386997 62.4799802,77.5386997 C62.3561143,77.5386997 62.2322485,77.5201238 62.1290269,77.4829721 C62.0258054,77.4179567 61.9845168,77.3436533 62.0051611,77.2693498 Z M62.0051611,79.7306502 C62.0051611,79.5541796 62.1703155,79.4613003 62.5006245,79.4613003 C62.8309334,79.4613003 62.9960879,79.5541796 62.9960879,79.7306502 C62.9960879,79.9071207 62.8102891,80 62.5006245,80 C62.1909599,80 62.0051611,79.9071207 62.0051611,79.7306502 Z" id="Shape" fill="#393F44"></path>
                    <path d="M66.3489209,80 L65,77 L65.323741,77 L66.2194245,79.0433437 C66.3273381,79.2662539 66.4136691,79.498452 66.4892086,79.7306502 L66.5107914,79.7306502 C66.6079137,79.4798762 66.6834532,79.247678 66.7805755,79.0340557 L67.676259,77 L68,77 L66.6510791,80 L66.3489209,80 Z" id="Shape" fill="#393F44"></path>
                    <path d="M71,81 L70.5972222,81 L70.5972222,77.3510393 C70.5972222,77.0161663 70.6111111,76.6812933 70.6388889,76.3233256 C70.5972222,76.3579677 70.5555556,76.3810624 70.5138889,76.4272517 C70.4722222,76.4734411 70.0416667,76.73903 69.2361111,77.2702079 L69,77.0161663 L70.6388889,76 L71,76 L71,81 Z" id="Shape" fill="#393F44"></path>
                    <path d="M39.8720379,89 L39.2085308,87.0092593 C39.1706161,86.8796296 39.1042654,86.6759259 39.0473934,86.4074074 L39.028436,86.4074074 L38.9620853,86.6018519 L38.8388626,87 L38.1469194,88.9907407 L37.8720379,88.9907407 L37,86 L37.2938389,86 L37.7867299,87.7314815 C37.9004739,88.1666667 37.9668246,88.4722222 38.014218,88.6759259 L38.0331754,88.6759259 C38.1469194,88.2407407 38.2322275,87.962963 38.2796209,87.8240741 L38.9052133,86 L39.1611374,86 L39.7582938,87.8148148 C39.8909953,88.25 39.9763033,88.5277778 40.0047393,88.6666667 L40.0236967,88.6666667 C40.0331754,88.5462963 40.1184834,88.2222222 40.2511848,87.712963 L40.7251185,86 L41,86 L40.1658768,88.9907407 L39.8720379,88.9907407 L39.8720379,89 Z" id="Shape" fill="#486B00"></path>
                    <path d="M43.6882129,89.9967392 C43.1520913,89.9967392 42.7414449,89.8292363 42.4448669,89.482266 C42.148289,89.1352958 42,88.6567162 42,88.0345626 C42,87.4243736 42.148289,86.9218649 42.4334601,86.5629302 C42.7186312,86.2039955 43.1520913,85.9886346 43.608365,86.0005991 C44.0076046,85.9886346 44.3840304,86.1561375 44.634981,86.4791788 C44.8859316,86.80222 45,87.2329417 45,87.7713438 L45,88.0584916 L42.3536122,88.0584916 C42.3536122,88.5849292 42.4790875,88.9917219 42.7072243,89.2788697 C42.9467681,89.5660175 43.2661597,89.6976269 43.6996198,89.6976269 C43.8821293,89.6976269 44.0646388,89.6856624 44.2585551,89.6497689 C44.4638783,89.601911 44.6692015,89.530124 44.8631179,89.4583371 L44.8631179,89.7813783 C44.6806084,89.8770943 44.4752852,89.9369167 44.2813688,89.9728102 C44.0760456,89.9847747 43.8935361,90.0087037 43.6882129,89.9967392 Z M43.5969582,86.3116759 C43.2775665,86.2997114 42.9695817,86.4313208 42.7414449,86.6825751 C42.5361217,86.9338294 42.4106464,87.2807997 42.3764259,87.7474148 L44.6463878,87.7474148 C44.6463878,87.3047287 44.5437262,86.9577584 44.3726236,86.6945396 C44.1901141,86.4432853 43.904943,86.2997114 43.5969582,86.3116759 Z" id="Shape" fill="#486B00"></path>
                    <path d="M46,85.3174603 C46,85.1020408 46.0810811,85 46.2432432,85 C46.3108108,85 46.3918919,85.0226757 46.4324324,85.0907029 C46.472973,85.1587302 46.5,85.2494331 46.5,85.3401361 C46.5,85.430839 46.4864865,85.5102041 46.4324324,85.5782313 C46.3918919,85.6349206 46.3108108,85.6689342 46.2432432,85.6689342 C46.0945946,85.6575964 46,85.5442177 46,85.3174603 Z M46.4594595,90 L46.0675676,90 L46.0675676,86.3378685 L46.4594595,86.3378685 L46.4594595,90 Z" id="Shape" fill="#486B00"></path>
                    <path d="M50,86.0342646 L50,86.2556668 L49.3118648,86.2978387 C49.4864662,86.5192409 49.589173,86.7933579 49.589173,87.067475 C49.5994437,87.3626779 49.4864662,87.6578809 49.2707821,87.8687401 C49.0345565,88.0901423 48.7264363,88.185029 48.418316,88.174486 C48.3053386,88.174486 48.2026319,88.174486 48.1101958,88.1534001 C47.9972184,88.2061149 47.915053,88.2904586 47.8328876,88.3853453 C47.7815342,88.469689 47.7404515,88.5645756 47.7404515,88.6594623 C47.7301808,88.754349 47.7815342,88.8386927 47.8636996,88.9019504 C47.9869477,88.9546653 48.1307371,88.9968371 48.2642559,88.9862941 L48.8394137,88.9862941 C49.1988873,88.9862941 49.4761956,89.0706378 49.6610677,89.2182393 C49.8562105,89.3763838 49.9589173,89.6294149 49.9486466,89.882446 C49.9589173,90.2092778 49.7945865,90.5255667 49.5275489,90.704797 C49.2502407,90.8945704 48.8394137,91 48.3156093,91 C47.9047823,91 47.56585,90.9156563 47.3501658,90.7469689 C47.124211,90.5993674 47.0009629,90.3357934 47.0009629,90.0616763 C46.9906922,89.8402741 47.0625869,89.6399578 47.2166471,89.4818134 C47.3707072,89.323669 47.5761207,89.2076964 47.7918049,89.1655245 C47.6993688,89.1233527 47.6172034,89.0600949 47.5453087,88.9862941 C47.4939553,88.9019504 47.4528726,88.8070638 47.4528726,88.7121771 C47.4528726,88.4802319 47.596662,88.2799157 47.8739703,88.1112283 C47.6890981,88.0268846 47.5247673,87.910912 47.4220606,87.7211386 C47.3090831,87.5419083 47.2577298,87.331049 47.2577298,87.1307327 C47.2474591,86.8249868 47.3604365,86.5297839 47.56585,86.3083817 C47.8020755,86.0869794 48.1101958,85.9920928 48.418316,86.0026357 C48.5826468,85.9920928 48.767519,86.0131787 48.9215791,86.0658935 L50,86.0658935 L50,86.0342646 Z M47.3193538,90.0089615 C47.3193538,90.4728519 47.6480154,90.704797 48.3361506,90.704797 C49.1988873,90.704797 49.6405264,90.4201371 49.6405264,89.8508171 C49.650797,89.6821297 49.5789023,89.5134423 49.4453835,89.4080127 C49.3118648,89.313126 49.0859099,89.2709541 48.7777897,89.2709541 L48.2437146,89.2709541 C47.6274741,89.2814971 47.3193538,89.5134423 47.3193538,90.0089615 Z M47.5761207,87.0991038 C47.56585,87.331049 47.6377447,87.5524512 47.8123462,87.7105957 C48.1923612,87.9952557 48.7058949,87.9952557 49.0653686,87.7105957 C49.2194287,87.5419083 49.3015941,87.3099631 49.2913234,87.0780179 C49.2913234,86.7933579 49.209158,86.5719557 49.0653686,86.4243542 C48.8907671,86.2767528 48.6648122,86.1924091 48.4285867,86.202952 C48.1923612,86.1924091 47.976677,86.2662098 47.8020755,86.4348972 C47.6480154,86.6141276 47.5555793,86.8566157 47.5761207,87.0991038 Z" id="Shape" fill="#486B00"></path>
                    <path d="M53.6785714,89.9891775 L53.6785714,87.7272727 C53.6785714,87.3809524 53.6071429,87.1212121 53.4285714,86.969697 C53.2619048,86.8073593 53.0119048,86.7316017 52.6666667,86.7316017 C52.202381,86.7316017 51.8690476,86.8398268 51.6666667,87.0454545 C51.4642857,87.2510823 51.3452381,87.5974026 51.3452381,88.0735931 L51.3452381,90 L51,90 L51,85 L51.3452381,85 L51.3452381,86.5800866 L51.3333333,87.0238095 L51.3571429,87.0238095 C51.4880952,86.8290043 51.6785714,86.6774892 51.8928571,86.5692641 C52.1547619,86.461039 52.4285714,86.4177489 52.702381,86.4285714 C53.5833333,86.4285714 54,86.8506494 54,87.7056277 L54,89.9891775 L53.6785714,89.9891775 Z" id="Shape" fill="#486B00"></path>
                    <path d="M55.4585635,89.7248157 C55.6353591,89.7248157 55.8121547,89.7149877 56,89.6855037 L56,89.9213759 C55.8232044,89.970516 55.6464088,90 55.4585635,90 C55.1491713,90 54.9060773,89.9213759 54.7624309,89.7739558 C54.6187845,89.6265356 54.5303867,89.3906634 54.5303867,89.0761671 L54.5303867,87.022113 L54,87.022113 L54,86.8550369 L54.5303867,86.7272727 L54.6961326,86 L54.8618785,86 L54.8618785,86.7665848 L55.9116022,86.7665848 L55.9116022,87.022113 L54.8618785,87.022113 L54.8618785,89.036855 C54.8508287,89.2235872 54.8950276,89.4201474 55.0055249,89.5773956 C55.1160221,89.6756757 55.2928177,89.7346437 55.4585635,89.7248157 Z" id="Shape" fill="#486B00"></path>
                    <path d="M58.0040058,87.2693498 C58.0040058,87.0928793 58.1693521,87 58.5000446,87 C58.8307371,87 58.9960834,87.0928793 58.9960834,87.2693498 C59.0167516,87.3529412 58.9547468,87.4179567 58.8307371,87.4829721 C58.748064,87.5201238 58.603386,87.5386997 58.4793763,87.5386997 C58.3553666,87.5386997 58.2313569,87.5201238 58.1280155,87.4829721 C58.0453424,87.4179567 57.9833375,87.3343653 58.0040058,87.2693498 Z M58.0040058,89.7306502 C58.0040058,89.5541796 58.1693521,89.4613003 58.5000446,89.4613003 C58.8307371,89.4613003 58.9960834,89.5541796 58.9960834,89.7306502 C58.9960834,89.9071207 58.8100688,90 58.5000446,90 C58.1900204,90 58.0040058,89.9164087 58.0040058,89.7306502 Z" id="Shape" fill="#393F44"></path>
                    <path d="M62.5050413,85.0007664 C62.8540364,84.9895573 63.2030315,85.1016478 63.4756839,85.3146196 C63.7265241,85.5163824 63.8573973,85.8414447 63.8464912,86.1665069 C63.8464912,86.4131059 63.7592424,86.6372868 63.6174631,86.8166315 C63.4211534,87.0520214 63.1594071,87.2313661 62.8758486,87.3546656 C63.2902802,87.5228013 63.5847448,87.713355 63.7483363,87.9263269 C63.9119277,88.1392987 64.0100826,88.4083158 63.9991765,88.6773328 C64.0100826,89.0360222 63.8573973,89.4059207 63.5847448,89.6413106 C63.3120924,89.8879096 62.9521913,90 62.4832291,90 C62.014267,90 61.6434597,89.8879096 61.3817134,89.6637287 C61.1199671,89.4507568 61,89.1144855 61,88.6773328 C61,88.3971067 61.0981549,88.1280897 61.2726524,87.9151178 C61.5016804,87.6573098 61.7852389,87.4667561 62.1015157,87.3546656 C61.8179572,87.2313661 61.567117,87.0520214 61.3708073,86.8166315 C61.229028,86.6260778 61.1417793,86.3906878 61.1635914,86.1440889 C61.1635914,85.931117 61.2181219,85.7069361 61.338089,85.5275914 C61.458056,85.3482467 61.6216475,85.2137382 61.8179572,85.1240659 C62.0251731,85.0568116 62.2651072,85.0007664 62.5050413,85.0007664 Z M61.338089,88.7557961 C61.3271829,89.0248132 61.4362439,89.2938302 61.6434597,89.4731749 C61.8942999,89.6525196 62.1887645,89.742192 62.4941352,89.7309829 C62.7995059,89.742192 63.1048766,89.6637287 63.3557168,89.4619659 C63.5629327,89.2938302 63.6828997,89.0136041 63.6719936,88.733378 C63.6828997,88.47557 63.5847448,88.2401801 63.4102473,88.0608354 C63.2466559,87.8926997 62.919473,87.713355 62.4286986,87.5115922 C62.0251731,87.6685188 61.7416146,87.8366545 61.5780231,88.0384173 C61.4253378,88.228971 61.3271829,88.4979881 61.338089,88.7557961 Z M62.5050413,85.3034106 C62.243295,85.2922015 61.9815487,85.3706648 61.7743328,85.5388005 C61.5889292,85.6957271 61.4907743,85.931117 61.5016804,86.1665069 C61.5016804,86.3122245 61.5343987,86.4579421 61.6107414,86.5812416 C61.676178,86.7045411 61.7852389,86.8278405 61.905206,86.9063039 C62.1015157,87.0408124 62.3305438,87.1641119 62.5595718,87.2425752 C62.8431303,87.1416938 63.1048766,86.9847672 63.3120924,86.7830044 C63.4647778,86.6260778 63.5520266,86.4018969 63.5520266,86.177716 C63.5629327,85.931117 63.4538717,85.7069361 63.2793741,85.5500095 C63.0285339,85.3818739 62.7667876,85.2922015 62.5050413,85.3034106 Z" id="Shape" fill="#393F44"></path>
                    <path d="M68,87.4887958 C68,88.3403135 67.8709677,88.9677475 67.6236559,89.3823022 C67.3763441,89.7968568 67,89.9985321 66.4946237,89.9985321 C66.0430108,90.0209404 65.6129032,89.7856527 65.3870968,89.371098 C65.1290323,88.9453392 65,88.3291093 65,87.4887958 C65,86.6372782 65.1290323,86.0098441 65.3763441,85.6064936 C65.6236559,85.191939 65.9892473,85.0014679 66.4946237,85.0014679 C66.9462366,84.9790596 67.3763441,85.2143473 67.6236559,85.628902 C67.8709677,86.0546608 68,86.6820949 68,87.4887958 Z M65.3333333,87.4887958 C65.3333333,88.2394759 65.4301075,88.7996848 65.6129032,89.1582186 C65.8709677,89.6512025 66.4623656,89.8528777 66.9354839,89.5839774 C67.1075269,89.4831398 67.2580645,89.3262813 67.3548387,89.1358102 C67.5376344,88.7548681 67.6344086,88.2170675 67.6344086,87.4887958 C67.6344086,86.7605241 67.5376344,86.2115193 67.3548387,85.8529856 C67.1075269,85.3487975 66.516129,85.1471223 66.0322581,85.4048184 C65.8494624,85.505656 65.6989247,85.6625145 65.6021505,85.8529856 C65.4301075,86.2339277 65.344086,86.7717283 65.3333333,87.4887958 Z" id="Shape" fill="#393F44"></path>
                    <path d="M71.7275568,89.924939 L71.6284866,89.3127926 L71.6161028,89.3127926 C71.4551137,89.5288443 71.2445894,89.7208902 70.9969138,89.8409189 C70.761622,89.9489448 70.5015626,89.9969562 70.2415032,89.9969562 C69.9071412,90.020962 69.5851629,89.9009333 69.3251035,89.7088873 C69.1021955,89.5048385 68.9783577,89.2047667 69.0031252,88.9046949 C68.9907414,88.5566117 69.1764981,88.2205312 69.4860926,88.0164824 C69.8080709,87.8124336 70.2786546,87.6924049 70.8978436,87.6924049 L71.6656379,87.6683992 L71.6656379,87.4163388 C71.6656379,87.0562527 71.5913353,86.7681838 71.4427299,86.5881407 C71.2817408,86.4080976 71.0464489,86.3000718 70.6873193,86.3000718 C70.2910384,86.3120747 69.8947574,86.4201005 69.5356278,86.6001436 L69.3994062,86.3000718 C69.7956871,86.1080258 70.2415032,86 70.6997031,86 C71.1455192,86 71.4674975,86.1080258 71.6780217,86.3240775 C71.888546,86.5401292 72,86.8882125 72,87.3683274 L72,89.9369419 L71.7275568,89.924939 Z M70.253887,89.6728787 C70.9473787,89.7328931 71.5665677,89.2287725 71.6408704,88.5566117 C71.6408704,88.4845944 71.6408704,88.4125772 71.6408704,88.34056 L71.6408704,87.9684709 L70.9473787,87.9924767 C70.3901086,88.0164824 69.9814439,88.1125054 69.746152,88.2565399 C69.5108602,88.4005743 69.3746386,88.6646375 69.3870224,88.9287007 C69.3746386,89.1327495 69.4489413,89.3488012 69.6099304,89.4928356 C69.7833034,89.6248672 70.030979,89.6848816 70.253887,89.6728787 Z" id="Shape" fill="#393F44"></path>
                    <path d="M17.0010061,29.869203 C16.9902184,29.3202263 17.0657326,28.7936568 17.2491243,28.2782909 C17.3785773,27.8861646 17.6266955,27.5500565 17.9503279,27.3147807 C18.4573521,27.0122833 19.0506782,26.9226545 19.6008533,27.0683014 L19.6008533,27.3595951 C19.4174616,27.3035771 19.2232822,27.2587627 19.0398905,27.2699663 C18.5652296,27.2475591 18.1013564,27.4604276 17.8100872,27.8637574 C17.518818,28.2670873 17.3570018,28.8384712 17.3246386,29.5891128 L17.3677896,29.5891128 C17.518818,29.3874479 17.7022097,29.2081902 17.9287524,29.0961542 C18.1337197,28.9841181 18.3602624,28.9281001 18.5975928,28.9281001 C19.0291027,28.9281001 19.3850984,29.0625433 19.6224288,29.3202263 C19.870547,29.5779092 20,29.9364246 20,30.3957725 C20,30.8887312 19.870547,31.2808574 19.6116411,31.5721512 C19.3419474,31.863445 18.9535885,32.0202955 18.5652296,31.9978883 C18.1229319,32.0090919 17.7022097,31.8074269 17.4433038,31.4377079 C17.1412469,31.0679889 17.0010061,30.5302158 17.0010061,29.869203 Z M18.5436541,31.7065945 C18.845711,31.7290017 19.1477679,31.5945584 19.3635229,31.3704863 C19.5577023,31.1352105 19.6547921,30.810306 19.6547921,30.3845689 C19.6763676,30.0708679 19.5684901,29.7571669 19.3635229,29.5106876 C19.1585557,29.2978191 18.8780742,29.185783 18.5760173,29.1969866 C18.3710501,29.1969866 18.1552951,29.241801 17.9719034,29.3426335 C17.7992995,29.443466 17.648271,29.5779092 17.5296058,29.7459633 C17.4217283,29.8916102 17.3677896,30.0708679 17.3677896,30.2501256 C17.3677896,30.496605 17.4217283,30.7318807 17.5296058,30.9671564 C17.6266955,31.180025 17.777724,31.3704863 17.9611157,31.5161332 C18.1229319,31.6393728 18.3278991,31.7065945 18.5436541,31.7065945 Z" id="Shape" fill="#4D5258"></path>
                    <polygon id="Shape" fill="#4D5258" points="17.7178571 42 19.6357143 37.3225806 17 37.3225806 17 37 20 37 20 37.2534562 18.0714286 42"></polygon>
                    <path d="M18.5050413,46.0007664 C18.8540364,45.9895573 19.2030315,46.1016478 19.4756839,46.3146196 C19.7265241,46.5163824 19.8573973,46.8414447 19.8464912,47.1665069 C19.8464912,47.4131059 19.7592424,47.6372868 19.6174631,47.8166315 C19.4211534,48.0520214 19.1594071,48.2313661 18.8758486,48.3546656 C19.2902802,48.5228013 19.5847448,48.713355 19.7483363,48.9263269 C19.9119277,49.1392987 20.0100826,49.4083158 19.9991765,49.6773328 C20.0100826,50.0360222 19.8573973,50.4059207 19.5847448,50.6413106 C19.3120924,50.8879096 18.9521913,51 18.4832291,51 C18.014267,51 17.6434597,50.8879096 17.3817134,50.6637287 C17.1199671,50.4507568 17,50.1144855 17,49.6773328 C17,49.3971067 17.0981549,49.1280897 17.2726524,48.9151178 C17.5016804,48.6573098 17.796145,48.4667561 18.1015157,48.3546656 C17.8179572,48.2313661 17.567117,48.0520214 17.3708073,47.8166315 C17.0981549,47.435524 17.0872488,46.931117 17.3271829,46.5275914 C17.44715,46.3482467 17.6107414,46.2025292 17.8070511,46.1128568 C18.0251731,46.0456025 18.2651072,46.0007664 18.5050413,46.0007664 Z M17.338089,49.7445871 C17.3271829,50.0136041 17.4362439,50.2826212 17.6434597,50.4619659 C17.8397694,50.6301015 18.1233279,50.7197739 18.4941352,50.7197739 C18.7995059,50.7309829 19.1048766,50.6301015 19.3448107,50.4507568 C19.5520266,50.2826212 19.6719936,50.0023951 19.6610875,49.722169 C19.6719936,49.464361 19.5738387,49.228971 19.4102473,49.0496263 C19.2466559,48.8814907 18.919473,48.702146 18.4286986,48.5003832 C18.0360792,48.6573098 17.7525207,48.8254455 17.5780231,49.0272083 C17.4144317,49.228971 17.3271829,49.47557 17.338089,49.7445871 Z M18.5050413,46.3034106 C18.243295,46.2922015 17.9815487,46.3706648 17.7743328,46.5388005 C17.5889292,46.6957271 17.4907743,46.931117 17.5016804,47.1665069 C17.5016804,47.3122245 17.5343987,47.4579421 17.6107414,47.5812416 C17.676178,47.7045411 17.7852389,47.8166315 17.905206,47.9063039 C18.1015157,48.0408124 18.3305438,48.1641119 18.5595718,48.2425752 C18.8431303,48.1416938 19.1048766,47.9847672 19.3120924,47.7830044 C19.4647778,47.6260778 19.5520266,47.4018969 19.5520266,47.177716 C19.5629327,46.931117 19.4538717,46.7069361 19.2793741,46.5500095 C19.0285339,46.3594558 18.7558815,46.2922015 18.5050413,46.3034106 Z" id="Shape" fill="#4D5258"></path>
                    <path d="M19.9989803,58.1548274 C20.0097996,58.6988762 19.9340647,59.2318219 19.7501371,59.7425616 C19.6203058,60.1311678 19.3714626,60.4642589 19.0468844,60.6974227 C18.711487,60.9083804 18.3219932,61.0194107 17.9216801,60.9972047 C17.716114,60.9972047 17.4997285,60.9749986 17.3049816,60.9083804 L17.3049816,60.6197014 C17.4131744,60.6530105 17.5321863,60.6752166 17.6295598,60.6863196 C17.7269332,60.6974227 17.8243067,60.7085257 17.9216801,60.7085257 C18.3977281,60.7307318 18.8629568,60.5086711 19.1550771,60.1200648 C19.4580168,59.7203555 19.6203058,59.1541006 19.6635829,58.3990942 L19.6311251,58.3990942 C19.4796553,58.5989488 19.2957277,58.7543913 19.068523,58.8765247 C18.8629568,58.9875551 18.6249328,59.0430703 18.3869088,59.0430703 C17.9541379,59.0430703 17.6187405,58.9209369 17.3698973,58.6655671 C17.121054,58.4213003 17.002042,58.0660031 17.002042,57.6218817 C16.9804035,57.1888632 17.1318733,56.7669479 17.4023551,56.4449598 C17.6728369,56.1451778 18.0515114,55.9897353 18.4410052,56.0008384 C18.7331255,55.9897353 19.0144266,56.0896627 19.2524506,56.2562082 C19.5012938,56.4338568 19.6852215,56.6892266 19.7934142,56.9890086 C19.9340647,57.3776149 20.0097996,57.7662211 19.9989803,58.1548274 Z M18.4626437,56.3228264 C18.1597041,56.3117234 17.8567645,56.4449598 17.6511983,56.6670205 C17.4564514,56.9112873 17.3482587,57.2221723 17.3482587,57.6329847 C17.3482587,58.021591 17.4456322,58.3102699 17.6295598,58.4990215 C17.835126,58.6988762 18.1380656,58.8099065 18.4301859,58.7988035 C18.6357521,58.7988035 18.8521375,58.7543913 19.0360651,58.654464 C19.2091735,58.5545367 19.3606433,58.4213003 19.4796553,58.2547547 C19.587848,58.1104152 19.6419444,57.9327667 19.6419444,57.7551181 C19.6419444,57.4997483 19.5986673,57.2665845 19.4904746,57.0334207 C19.3931011,56.822463 19.2524506,56.6337114 19.068523,56.500475 C18.8954146,56.4005477 18.6898484,56.3228264 18.4626437,56.3228264 Z" id="Shape" fill="#4D5258"></path>
                    <path d="M15,71 L14.5972222,71 L14.5972222,67.3510393 C14.5972222,67.0161663 14.6111111,66.6812933 14.6388889,66.3233256 C14.5972222,66.3579677 14.5555556,66.3810624 14.5,66.4272517 C14.4583333,66.4618938 14.0277778,66.73903 13.2222222,67.2702079 L13,67.0277136 L14.6388889,66 L15,66 L15,71 Z" id="Shape" fill="#4D5258"></path>
                    <path d="M20,68.4888525 C20,69.3403896 19.8714286,69.967838 19.625,70.3824021 C19.3785714,70.7969662 19.0035714,70.998646 18.4892857,70.998646 C18.0392857,71.0210549 17.6107143,70.7633529 17.3857143,70.3711976 C17.1285714,69.9454291 17,69.3291852 17,68.4888525 C17,67.6373155 17.1285714,67.0098671 17.375,66.6065075 C17.6214286,66.1919434 17.9857143,66.001468 18.4892857,66.001468 C18.9392857,65.9790591 19.3678571,66.2143522 19.6035714,66.6289163 C19.8714286,67.0658893 20,67.6821332 20,68.4888525 Z M17.3535714,68.4888525 C17.3535714,69.2395497 17.45,69.7997714 17.6321429,70.1583134 C17.8892857,70.6513085 18.4785714,70.8529883 18.95,70.5840819 C19.1214286,70.483242 19.2714286,70.3263799 19.3678571,70.1359045 C19.55,69.7549537 19.6464286,69.2171408 19.6464286,68.4888525 C19.6464286,67.7605643 19.55,67.2115469 19.3678571,66.853005 C19.2178571,66.5056675 18.8642857,66.2703744 18.4892857,66.2927833 C18.1142857,66.2815788 17.7714286,66.4944631 17.6214286,66.853005 C17.45,67.2339558 17.3535714,67.7829731 17.3535714,68.4888525 Z" id="Shape" fill="#4D5258"></path>
                    <path d="M14.9861111,81 L14.5833333,81 L14.5833333,77.3510393 C14.5833333,77.0161663 14.5972222,76.6812933 14.625,76.3233256 C14.5833333,76.3579677 14.5416667,76.3810624 14.4861111,76.4272517 C14.4444444,76.4618938 14.0138889,76.73903 13.2083333,77.2702079 L13,77.0161663 L14.6388889,76 L15,76 L14.9861111,81 Z" id="Shape" fill="#4D5258"></path>
                    <path d="M18.9861111,81 L18.5833333,81 L18.5833333,77.3510393 C18.5833333,77.0161663 18.5972222,76.6812933 18.625,76.3233256 C18.5833333,76.3579677 18.5416667,76.3810624 18.4861111,76.4272517 C18.4305556,76.4734411 18.0138889,76.73903 17.2083333,77.2702079 L17,77.0161663 L18.6388889,76 L19,76 L19,81 L18.9861111,81 Z" id="Shape" fill="#4D5258"></path>
                    <path d="M15,90 L14.5972222,90 L14.5972222,86.3510393 C14.5972222,86.0161663 14.6111111,85.6812933 14.6388889,85.3233256 C14.5972222,85.3579677 14.5555556,85.3810624 14.5,85.4272517 C14.4583333,85.4618938 14.0277778,85.73903 13.2222222,86.2702079 L13,86.0277136 L14.625,85 L14.9861111,85 L15,90 Z" id="Shape" fill="#4D5258"></path>
                    <path d="M20,90 L17,90 L17,89.7038724 L18.2794118,88.3371298 C18.5441176,88.0637813 18.8088235,87.7676538 19.0294118,87.4601367 C19.1617647,87.2892938 19.2720588,87.095672 19.3492647,86.8792711 C19.4154412,86.6970387 19.4595588,86.4920273 19.4595588,86.2984055 C19.4705882,86.0250569 19.3602941,85.7630979 19.1727941,85.5808656 C18.9742647,85.3986333 18.7095588,85.2961276 18.4448529,85.3075171 C18.0257353,85.3189066 17.6176471,85.4783599 17.2977941,85.7517084 L17.1213235,85.5125285 C17.4963235,85.1822323 17.9595588,85 18.4448529,85 C18.8639706,85 19.1838235,85.1138952 19.4264706,85.3416856 C19.6801471,85.5922551 19.8125,85.9339408 19.7794118,86.2870159 C19.7794118,86.6173121 19.6911765,86.9362187 19.5367647,87.2323462 C19.2941176,87.6537585 18.9963235,88.0182232 18.6544118,88.3712984 L17.4191176,89.6697039 L17.4191176,89.6810934 L19.9779412,89.6810934 L20,90 Z" id="Shape" fill="#4D5258"></path>
                    <path d="M6.78756477,46 L11.2124352,46 C11.6373057,46 12,46.3535529 12,46.7902946 L12,51.2097054 C12,51.6360485 11.6476684,52 11.2124352,52 L6.78756477,52 C6.3626943,52 6,51.6464471 6,51.2097054 L6,46.7902946 C6,46.3535529 6.3626943,46 6.78756477,46 Z" id="Shape" fill="#CC0000"></path>
                    <path d="M10.9841506,50.5581874 L9.91926696,49.4953656 L10.9841506,48.4325438 C10.9965329,48.4201854 10.9965329,48.4201854 10.9965329,48.407827 C10.9965329,48.3954686 10.9965329,48.3954686 10.9965329,48.3831102 C10.9965329,48.3707518 10.9965329,48.3707518 10.9965329,48.3583934 C10.9965329,48.346035 10.9841506,48.346035 10.9841506,48.3336766 L10.662209,48.0123584 C10.6498266,48 10.6498266,48 10.6374443,48 C10.6250619,48 10.6250619,48 10.6126795,48 C10.6002972,48 10.6002972,48 10.5879148,48 C10.5755324,48 10.5755324,48.0123584 10.5631501,48.0123584 L9.49826647,49.0751802 L8.43338286,48.0123584 C8.4210005,48 8.4210005,48 8.40861813,48 C8.39623576,48 8.39623576,48 8.38385339,48 C8.37147103,48 8.37147103,48 8.35908866,48 C8.34670629,48 8.34670629,48.0123584 8.33432392,48.0123584 L8.01238237,48.3336766 C8,48.346035 8,48.346035 8,48.3583934 C8,48.3707518 8,48.3707518 8,48.3831102 C8,48.3954686 8,48.3954686 8,48.407827 C8,48.4201854 8.01238237,48.4201854 8.01238237,48.4325438 L9.07726597,49.4953656 L8.01238237,50.5581874 C8,50.5581874 8,50.5705458 8,50.5829042 C8,50.5952626 8,50.5952626 8,50.607621 C8,50.6199794 8,50.6199794 8,50.6323378 C8,50.6446962 8.01238237,50.6446962 8.01238237,50.6570546 L8.33432392,50.9783728 C8.33432392,50.9907312 8.34670629,50.9907312 8.35908866,50.9907312 C8.37147103,51.0030896 8.39623576,51.0030896 8.40861813,50.9907312 C8.4210005,50.9907312 8.4210005,50.9783728 8.43338286,50.9783728 L9.49826647,49.915551 L10.5631501,50.9783728 C10.5755324,50.9907312 10.5755324,50.9907312 10.5879148,50.9907312 C10.6002972,50.9907312 10.6002972,50.9907312 10.6126795,50.9907312 C10.6250619,50.9907312 10.6250619,50.9907312 10.6374443,50.9907312 C10.6498266,50.9907312 10.6498266,50.9783728 10.662209,50.9783728 L10.9841506,50.6570546 C10.9965329,50.6446962 10.9965329,50.6446962 10.9965329,50.6323378 C10.9965329,50.6199794 10.9965329,50.6199794 10.9965329,50.607621 C10.9965329,50.5952626 10.9965329,50.5952626 10.9965329,50.5829042 C11.0089153,50.5705458 10.9841506,50.5581874 10.9841506,50.5581874 Z" id="Shape" fill="#FFFFFF"></path>
                    <path d="M6.78756477,85 L11.2124352,85 C11.6373057,85 12,85.3535529 12,85.7902946 L12,90.2097054 C12,90.6360485 11.6476684,91 11.2124352,91 L6.78756477,91 C6.3626943,91 6,90.6464471 6,90.2097054 L6,85.7902946 C6,85.3639515 6.3626943,85 6.78756477,85 Z" id="Shape" fill="#CC0000"></path>
                    <path d="M10.9795792,89.5674562 L9.91962548,88.5046344 L10.9795792,87.4418126 C10.9919042,87.4418126 10.9919042,87.4294542 10.9919042,87.4170958 C10.9919042,87.4047374 10.9919042,87.3800206 10.9919042,87.3676622 C10.9919042,87.3553038 10.9795792,87.3553038 10.9795792,87.3429454 L10.6591281,87.0216272 C10.646803,87.0092688 10.646803,87.0092688 10.634478,87.0092688 C10.6221529,87.0092688 10.6221529,87.0092688 10.6098279,87.0092688 C10.5975029,87.0092688 10.5975029,87.0092688 10.5851778,87.0092688 C10.5728528,87.0092688 10.5728528,87.0216272 10.5605277,87.0216272 L9.50057401,88.084449 L8.4406203,87.0216272 C8.42829525,87.0092688 8.42829525,87.0092688 8.41597021,87.0092688 C8.40364517,86.9969104 8.37899508,86.9969104 8.36667004,87.0092688 C8.35434499,87.0092688 8.35434499,87.0216272 8.34201995,87.0216272 L8.02156883,87.3429454 C8.00924378,87.3553038 8.00924378,87.3553038 8.00924378,87.3676622 C7.99691874,87.3800206 7.99691874,87.4047374 8.00924378,87.4170958 C8.00924378,87.4294542 8.02156883,87.4294542 8.02156883,87.4418126 L9.08152254,88.5046344 L8.02156883,89.5674562 C8.00924378,89.5674562 8.00924378,89.5798146 8.00924378,89.592173 C8.00924378,89.6045314 8.00924378,89.6045314 8.00924378,89.6168898 C8.00924378,89.6292482 8.00924378,89.6292482 8.00924378,89.6416066 C8.00924378,89.653965 8.02156883,89.653965 8.02156883,89.6663234 L8.34201995,89.9876416 C8.34201995,90 8.35434499,90 8.36667004,90 C8.37899508,90 8.37899508,90 8.39132012,90 C8.40364517,90 8.40364517,90 8.41597021,90 C8.42829525,90 8.42829525,89.9876416 8.4406203,89.9876416 L9.50057401,88.9248198 L10.5605277,89.9876416 C10.5728528,90 10.5728528,90 10.5851778,90 C10.5975029,90 10.5975029,90 10.6098279,90 C10.6221529,90 10.6221529,90 10.634478,90 C10.646803,90 10.646803,90 10.6591281,89.9876416 L10.9795792,89.6663234 C10.9919042,89.6663234 10.9919042,89.653965 10.9919042,89.6416066 C10.9919042,89.6292482 10.9919042,89.6292482 10.9919042,89.6168898 C10.9919042,89.6045314 10.9919042,89.6045314 10.9919042,89.592173 C11.0042293,89.5798146 11.0042293,89.5674562 10.9795792,89.5674562 Z" id="Shape" fill="#FFFFFF"></path>
                    <path d="M22.9636364,39.0322581 C22.9818182,39.0483871 23,39.0806452 23,39.1129032 C23,39.1370968 22.9909091,39.1774194 22.9636364,39.1935484 L22.0909091,39.9677419 C22.0727273,39.983871 22.0363636,40 22,40 C21.9727273,40 21.9272727,39.9919355 21.9090909,39.9677419 L21.0363636,39.1935484 C21.0181818,39.1774194 21,39.1451613 21,39.1129032 C21,39.0887097 21.0090909,39.0483871 21.0363636,39.0322581 C21.0545455,39.016129 21.0909091,39 21.1272727,39 L22.8818182,39 C22.9181818,39 22.9454545,39.0080645 22.9636364,39.0322581 Z" id="Shape" fill="#4D5258"></path>
                    <path d="M22.9658314,48.0340802 C23.0113895,48.074665 23.0113895,48.1477178 22.9658314,48.1883027 L22.0911162,48.9675321 C22.0728929,48.9837661 22.0364465,49 22,49 C21.9726651,49 21.9271071,48.991883 21.9088838,48.9675321 L21.0341686,48.1883027 C20.9886105,48.1477178 20.9886105,48.074665 21.0341686,48.0340802 C21.0523918,48.0178462 21.0888383,48.0016123 21.1252847,48.0016123 L22.8838269,48.0016123 C22.9202733,47.9934953 22.9476082,48.0178462 22.9658314,48.0340802 Z" id="Shape" fill="#4D5258"></path>
                    <path d="M20.2695791,53 L75.7304209,53 C76.9877464,53 78,53.991132 78,55.2222222 L78,70.7777778 C78,72.008868 76.9877464,73 75.7304209,73 L20.2695791,73 C19.0122536,73 18,72.008868 18,70.7777778 L18,55.2222222 C18,53.991132 19.0122536,53 20.2695791,53 Z" id="Shape" fill="#FAFAFA"></path>
                    <path d="M75.5454065,74 L20.4651737,74 C19.100335,74 18,72.8840061 18,71.4997445 L18,55.5002555 C18,54.1159939 19.100335,53 20.4651737,53 L75.5348263,53 C76.899665,53 78,54.1159939 78,55.5002555 L78,71.4997445 C78,72.8840061 76.899665,74 75.5454065,74 Z M20.4651737,53.4292284 C19.3436784,53.4292284 18.4232058,54.3628002 18.4232058,55.5002555 L18.4232058,71.4997445 C18.4232058,72.6371998 19.3436784,73.5707716 20.4651737,73.5707716 L75.5348263,73.5707716 C76.6563216,73.5707716 77.5767942,72.6371998 77.5767942,71.4997445 L77.5767942,55.5002555 C77.5767942,54.3628002 76.6563216,53.4292284 75.5348263,53.4292284 L20.4651737,53.4292284 Z" id="Shape" fill="#EDEDED"></path>
                    <path d="M34.8258317,60.9884793 L34.5812133,60.9884793 L33.6516634,57.1290323 C33.5733855,56.8179724 33.5146771,56.5529954 33.4853229,56.3571429 C33.4559687,56.5529954 33.407045,56.7834101 33.3581213,57.0483871 C33.3091977,57.3133641 32.9863014,58.6152074 32.4285714,61 L32.1643836,61 L31,56 L31.3033268,56 L32.0469667,59.2142857 C32.0763209,59.3410138 32.0958904,59.4677419 32.1350294,59.5714286 C32.1643836,59.6866359 32.183953,59.7788018 32.1937378,59.8824885 C32.2035225,59.9861751 32.2328767,60.0668203 32.2426614,60.1589862 C32.2524462,60.2511521 32.2720157,60.343318 32.2818004,60.4354839 C32.3209393,60.124424 32.4285714,59.6520737 32.5753425,59.0299539 L33.3091977,56 L33.6418787,56 L34.4931507,59.4792627 C34.590998,59.8824885 34.6594912,60.2050691 34.7084149,60.4470046 C34.7279843,60.2857143 34.7573386,60.1129032 34.8062622,59.9285714 C34.8551859,59.7442396 35.148728,58.4308756 35.7064579,56 L36,56 L34.8258317,60.9884793 Z" id="Shape" fill="#4D5258"></path>
                    <path d="M38.6882129,62 C38.1520913,62 37.7414449,61.8323605 37.4448669,61.4851071 C37.148289,61.1378538 37,60.6588837 37,60.0362226 C37,59.4255357 37.148289,58.9345913 37.4334601,58.5633895 C37.7186312,58.2041619 38.1520913,57.9886253 38.608365,58.0005996 C39.0076046,57.9886253 39.3840304,58.1562649 39.634981,58.4795697 C39.8859316,58.8028745 40,59.2339476 40,59.772789 L40,60.0601711 L37.3422053,60.0601711 C37.3422053,60.5870382 37.4676806,60.9941628 37.6958175,61.2815448 C37.9239544,61.5689269 38.2547529,61.7006437 38.6882129,61.7006437 C38.8707224,61.7006437 39.0532319,61.6886694 39.2471483,61.6647209 C39.4524715,61.6168239 39.6577947,61.5449784 39.851711,61.4731329 L39.851711,61.7964377 C39.6692015,61.8922317 39.4638783,61.952103 39.269962,61.9880257 C39.0760456,61.9880257 38.8821293,62 38.6882129,62 Z M38.5855513,58.2999559 C38.2661597,58.2879817 37.9581749,58.4196984 37.730038,58.6591835 C37.5247148,58.9106428 37.3878327,59.2578961 37.365019,59.724892 L39.634981,59.724892 C39.634981,59.2698704 39.5323194,58.9226171 39.3612167,58.6711578 C39.1787072,58.4316727 38.8935361,58.2879817 38.5855513,58.2999559 Z" id="Shape" fill="#4D5258"></path>
                    <path d="M41,56.3181818 C41,56.1022727 41.0810811,56 41.2432432,56 C41.3108108,56 41.3918919,56.0227273 41.4324324,56.0909091 C41.4864865,56.1590909 41.5,56.25 41.5,56.3295455 C41.5,56.4204545 41.4864865,56.5 41.4324324,56.5795455 C41.3918919,56.6363636 41.3108108,56.6704545 41.2432432,56.6704545 C41.0810811,56.6477273 41,56.5340909 41,56.3181818 Z M41.4594595,61 L41.0675676,61 L41.0675676,57.3295455 L41.4594595,57.3295455 L41.4594595,61 Z" id="Shape" fill="#4D5258"></path>
                    <path d="M45,58.0237217 L45,58.2451239 L44.3118648,58.2872957 C44.4864662,58.5086979 44.589173,58.782815 44.589173,59.056932 C44.5994437,59.3521349 44.4864662,59.6473379 44.2707821,59.8581972 C44.0345565,60.0795994 43.7264363,60.174486 43.418316,60.1639431 C43.3053386,60.1639431 43.2026319,60.1639431 43.1101958,60.1428571 C42.9972184,60.195572 42.915053,60.2799157 42.8328876,60.3748023 C42.7815342,60.459146 42.7404515,60.5540327 42.7404515,60.6489193 C42.7301808,60.743806 42.7815342,60.8281497 42.8636996,60.8914075 C42.9869477,60.9441223 43.1307371,60.9862941 43.2642559,60.9757512 L43.8394137,60.9757512 C44.1988873,60.9757512 44.4761956,61.0600949 44.6610677,61.2076964 C44.8562105,61.3658408 44.9589173,61.6188719 44.9486466,61.871903 C44.9589173,62.1987348 44.7945865,62.5255667 44.5275489,62.704797 C44.2502407,62.8945704 43.8394137,63 43.3156093,63 C42.9047823,63 42.56585,62.9156563 42.3501658,62.7469689 C42.124211,62.5993674 42.0009629,62.3357934 42.0009629,62.0616763 C41.9906922,61.8402741 42.0625869,61.6399578 42.2166471,61.4818134 C42.3707072,61.323669 42.5761207,61.2076964 42.7918049,61.1655245 C42.6993688,61.1338956 42.6172034,61.0600949 42.5453087,60.9862941 C42.4939553,60.9019504 42.4528726,60.8176067 42.4528726,60.7121771 C42.4528726,60.4802319 42.596662,60.2799157 42.8739703,60.1112283 C42.6890981,60.0268846 42.5247673,59.910912 42.4220606,59.7211386 C42.3090831,59.5419083 42.2577298,59.331049 42.2577298,59.1307327 C42.2474591,58.8249868 42.3604365,58.5297839 42.56585,58.3083817 C42.8020755,58.0869794 43.1101958,57.9920928 43.418316,58.0026357 C43.5826468,57.9920928 43.767519,58.0131787 43.9215791,58.0658935 L45,58.0237217 Z M42.3193538,61.9984186 C42.3193538,62.4623089 42.6480154,62.6942541 43.3361506,62.6942541 C44.1988873,62.6942541 44.6405264,62.4095941 44.6405264,61.8402741 C44.650797,61.6715867 44.5789023,61.5028993 44.4453835,61.3974697 C44.3118648,61.302583 44.0859099,61.2604112 43.7777897,61.2604112 L43.2334439,61.2604112 C42.6172034,61.2604112 42.3193538,61.5134423 42.3193538,61.9984186 Z M42.5761207,59.0780179 C42.56585,59.3099631 42.6377447,59.5313653 42.8123462,59.6895098 C43.1820905,59.9741697 43.7058949,59.9741697 44.0653686,59.6895098 C44.2194287,59.5208224 44.3015941,59.2888772 44.2913234,59.056932 C44.2913234,58.772272 44.209158,58.5403268 44.0653686,58.4032683 C43.8907671,58.2451239 43.6648122,58.1713231 43.4285867,58.1818661 C43.1923612,58.1713231 42.976677,58.2451239 42.8020755,58.4138113 C42.6377447,58.6035846 42.56585,58.8460727 42.5761207,59.0780179 Z" id="Shape" fill="#4D5258"></path>
                    <path d="M48.6785714,60.9784017 L48.6785714,58.7213823 C48.6785714,58.3758099 48.6071429,58.1166307 48.4285714,57.9654428 C48.2619048,57.8034557 48.0119048,57.7278618 47.6666667,57.7278618 C47.202381,57.7278618 46.8690476,57.8358531 46.6666667,58.0410367 C46.4642857,58.2462203 46.3452381,58.5917927 46.3452381,59.0669546 L46.3452381,61 L46,61 L46,56 L46.3452381,56 L46.3452381,57.587473 L46.3333333,58.0302376 L46.3571429,58.0302376 C46.4880952,57.8358531 46.6785714,57.6846652 46.8928571,57.5766739 C47.1547619,57.4686825 47.4285714,57.425486 47.702381,57.4362851 C48.5833333,57.4362851 49,57.8574514 49,58.7105832 L49,60.9892009 L48.6785714,60.9784017 Z" id="Shape" fill="#4D5258"></path>
                    <path d="M50.4585635,60.7241379 C50.6353591,60.7241379 50.8121547,60.7142857 51,60.6847291 L51,60.9211823 C50.8232044,60.9704433 50.6464088,61 50.4585635,61 C50.1381215,61 49.9060773,60.9211823 49.7624309,60.773399 C49.6187845,60.6256158 49.5524862,60.3891626 49.5303867,60.0738916 L49.5303867,58.0246305 L49,58.0246305 L49,57.8571429 L49.5303867,57.729064 L49.6961326,57 L49.8618785,57 L49.8618785,57.7684729 L50.9116022,57.7684729 L50.9116022,58.0246305 L49.8618785,58.0246305 L49.8618785,60.0049261 C49.8508287,60.1921182 49.8950276,60.3793103 50.0055249,60.546798 C50.1270718,60.6650246 50.2928177,60.7339901 50.4585635,60.7241379 Z" id="Shape" fill="#4D5258"></path>
                    <path d="M54.998667,60.9036145 C55.0074331,61.2168675 54.9022401,61.5301205 54.7181523,61.7108434 C54.5252985,61.8915663 54.2535499,62 53.9029066,62 C53.525965,62 53.2191521,61.9277108 53,61.7710843 L53,61.3975904 C53.2717486,61.5903614 53.5873276,61.6987952 53.9029066,61.686747 C54.1834213,61.686747 54.3938073,61.626506 54.5428307,61.4939759 C54.6743219,61.3855422 54.7619828,61.1927711 54.7619828,60.9879518 C54.7619828,60.7951807 54.6918541,60.6144578 54.577895,60.4939759 C54.4113394,60.3253012 54.2184856,60.1927711 54.0080996,60.1084337 C53.7977136,60.0120482 53.5960937,59.8915663 53.4120059,59.746988 C53.3068129,59.6506024 53.2191521,59.5421687 53.1577895,59.4096386 C53.105193,59.2650602 53.0613626,59.1084337 53.0701287,58.939759 C53.0701287,58.6626506 53.1665556,58.4096386 53.3331112,58.253012 C53.5171989,58.0843373 53.7626493,58 54.0694622,58 C54.367509,58 54.6655558,58.0722892 54.9460705,58.2289157 L54.8496436,58.5542169 C54.6041933,58.4096386 54.3499768,58.3373494 54.0694622,58.3253012 C53.8766083,58.313253 53.6925206,58.3614458 53.5171989,58.4819277 C53.3944738,58.5542169 53.315579,58.7349398 53.315579,58.9156627 C53.3068129,59.0963855 53.3681755,59.2771084 53.4733685,59.3975904 C53.6662223,59.5783133 53.8678423,59.7108434 54.0869943,59.8072289 C54.2798482,59.9036145 54.4639359,60.0120482 54.6480237,60.1445783 C54.7532167,60.2409639 54.8408775,60.3493976 54.9110062,60.4819277 C54.9723688,60.5783133 55.0074331,60.7349398 54.998667,60.9036145 Z" id="Shape" fill="#4D5258"></path>
                    <path d="M56.3425197,58.0090909 L56.3425197,59.9090909 C56.3425197,60.2 56.4133858,60.4181818 56.5905512,60.5454545 C56.7677165,60.6727273 57.003937,60.7454545 57.3464567,60.7454545 C57.7952756,60.7454545 58.1377953,60.6545455 58.3385827,60.4818182 C58.5511811,60.3090909 58.6574803,60.0181818 58.6574803,59.6181818 L58.6574803,58 L59,58 L59,60.9363636 L58.7047244,60.9363636 L58.6456693,60.5363636 L58.6220472,60.5363636 C58.3740157,60.8454545 57.9370079,61 57.2992126,61 C56.4251969,61 56,60.6454545 56,59.9272727 L56,58.0090909 L56.3425197,58.0090909 Z" id="Shape" fill="#4D5258"></path>
                    <path d="M64.675174,60 L64.675174,58.0759878 C64.675174,57.7933131 64.6055684,57.5835866 64.4663573,57.4468085 C64.3039443,57.3100304 64.0487239,57.2279635 63.8167053,57.2462006 C63.4454756,57.2462006 63.1554524,57.3282675 62.9582367,57.4924012 C62.7726218,57.656535 62.6798144,57.9209726 62.6798144,58.2765957 L62.6798144,60 L62.3317865,60 L62.3317865,57.9848024 C62.3317865,57.4924012 62.0417633,57.2462006 61.4617169,57.2462006 C61.0672854,57.2462006 60.7888631,57.337386 60.6032483,57.5106383 C60.4292343,57.6838906 60.3364269,57.9756839 60.3364269,58.3677812 L60.3364269,60 L60,60 L60,57.0547112 L60.2784223,57.0547112 L60.3480278,57.4559271 L60.3712297,57.4559271 C60.4756381,57.3100304 60.6264501,57.1914894 60.812065,57.118541 C60.9976798,57.0364742 61.2296984,57 61.4385151,57 C62.0301624,57 62.4013921,57.1732523 62.5638051,57.5197568 L62.587007,57.5197568 C62.7030162,57.3647416 62.8770302,57.2279635 63.0742459,57.1367781 C63.2830626,57.0455927 63.5266821,57 63.7819026,57 C64.199536,57 64.5011601,57.0911854 64.6983759,57.2553191 C64.8955916,57.4194529 65,57.7021277 65,58.0759878 L65,60 L64.675174,60 Z" id="Shape" fill="#4D5258"></path>
                    <path d="M29.999492,67.9036145 C30.0082617,68.2168675 29.9030253,68.5301205 29.7188616,68.7108434 C29.5259281,68.8915663 29.2540674,69 28.9032793,69 C28.5261821,69 28.2192425,68.9277108 28,68.7710843 L28,68.3975904 C28.2718608,68.5903614 28.58757,68.6987952 28.9032793,68.686747 C29.1751401,68.686747 29.3943826,68.626506 29.5434675,68.4939759 C29.6750131,68.3855422 29.7627101,68.1927711 29.7627101,67.9879518 C29.7627101,67.7951807 29.6925525,67.6144578 29.5960858,67.4939759 C29.4294614,67.3253012 29.236528,67.1927711 29.0260551,67.1084337 C28.8155823,67.0120482 28.6138791,66.8915663 28.4297154,66.746988 C28.324479,66.6506024 28.236782,66.5421687 28.175394,66.4096386 C28.1227758,66.2650602 28.0789273,66.1084337 28.087697,65.939759 C28.087697,65.6626506 28.1841637,65.4096386 28.3507881,65.253012 C28.5349518,65.0843373 28.7805035,65 29.1049824,65 C29.4031523,65 29.7013222,65.0722892 29.9731829,65.2289157 L29.8767162,65.5542169 C29.6311646,65.4096386 29.3680735,65.3253012 29.0962127,65.3253012 C28.9032793,65.313253 28.7191156,65.3614458 28.5437215,65.4819277 C28.4209457,65.5542169 28.3420184,65.7349398 28.3420184,65.9156627 C28.3332487,66.0963855 28.3946366,66.2771084 28.499873,66.3975904 C28.6928065,66.5783133 28.8945096,66.7108434 29.1137521,66.8072289 C29.3066856,66.9036145 29.4908493,67.0120482 29.6750131,67.1445783 C29.7802495,67.2409639 29.8767162,67.3493976 29.9381041,67.4819277 C29.9731829,67.5783133 29.999492,67.7349398 29.999492,67.9036145 Z" id="Shape" fill="#4D5258"></path>
                    <path d="M33.6785714,68.978355 L33.6785714,66.7164502 C33.6785714,66.3701299 33.6071429,66.1103896 33.4285714,65.9588745 C33.2619048,65.7965368 33.0119048,65.7099567 32.6666667,65.7099567 C32.202381,65.7099567 31.8690476,65.8181818 31.6666667,66.0238095 C31.452381,66.2294372 31.3452381,66.5757576 31.3452381,67.0519481 L31.3452381,68.9891775 L31,68.9891775 L31,64 L31.3452381,64 L31.3452381,65.5909091 L31.3333333,66.034632 L31.3571429,66.034632 C31.4880952,65.8398268 31.6785714,65.6883117 31.8928571,65.5800866 C32.1547619,65.4718615 32.4285714,65.4285714 32.702381,65.4393939 C33.5833333,65.4393939 34,65.8614719 34,66.7164502 L34,69 L33.6785714,69 L33.6785714,68.978355 Z" id="Shape" fill="#4D5258"></path>
                    <path d="M38,67.0079949 C38,67.6401882 37.8636364,68.1292433 37.6013986,68.4751603 C37.3391608,68.8210774 36.9615385,69 36.4895105,69 C36.2167832,69 35.9440559,68.928431 35.7027972,68.7495083 C35.472028,68.5825139 35.2937063,68.3320223 35.1783217,68.0576743 C35.0524476,67.7236854 35,67.3658402 35,66.9960668 C35,66.3638735 35.1363636,65.8867466 35.3986014,65.5289014 C35.6713287,65.1710561 36.0804196,64.9682772 36.5,65.0040617 C36.9195804,64.9802053 37.3181818,65.1710561 37.5909091,65.5289014 C37.8636364,65.8986747 38,66.3877299 38,67.0079949 Z M35.3251748,67.0079949 C35.3251748,67.5328346 35.4300699,67.9503207 35.6293706,68.248525 C36.048951,68.7852929 36.7832168,68.8449337 37.2657343,68.3678068 C37.2972028,68.3320223 37.3286713,68.2962377 37.3706294,68.248525 C37.5699301,67.9503207 37.6748252,67.5328346 37.6748252,67.0079949 C37.6748252,66.4831553 37.5699301,66.0656692 37.3706294,65.7674648 C37.1503497,65.4692605 36.8356643,65.302266 36.5104895,65.3261224 C36.1853147,65.302266 35.8496503,65.4692605 35.6503497,65.7674648 C35.4300699,66.0656692 35.3251748,66.4831553 35.3251748,67.0079949 Z" id="Shape" fill="#4D5258"></path>
                    <path d="M39.3425197,65.0090909 L39.3425197,66.9090909 C39.3425197,67.2 39.4133858,67.4181818 39.5905512,67.5454545 C39.7677165,67.6727273 40.003937,67.7454545 40.3464567,67.7454545 C40.8070866,67.7454545 41.1377953,67.6545455 41.3385827,67.4818182 C41.5511811,67.3090909 41.6574803,67.0181818 41.6574803,66.6181818 L41.6574803,65 L42,65 L42,67.9363636 L41.7047244,67.9363636 L41.6456693,67.5363636 L41.6220472,67.5363636 C41.3740157,67.8454545 40.9370079,68 40.2992126,68 C39.4251969,68 39,67.6454545 39,66.9272727 L39,65.0090909 L39.3425197,65.0090909 Z" id="Shape" fill="#4D5258"></path>
                    <polygon id="Shape" fill="#4D5258" points="42.5 69 42 69 42 64 42.5 64"></polygon>
                    <path d="M45.5218978,65.431223 C45.7518248,65.4205422 45.9708029,65.4739461 46.189781,65.570073 C46.3868613,65.6768807 46.5729927,65.8370922 46.6824818,66.0293461 L46.7043796,66.0293461 C46.6934307,65.7623268 46.6824818,65.4953076 46.6824818,65.2389692 L46.6824818,64 L47,64 L47,68.9345151 L46.7810219,68.9345151 L46.6934307,68.4111575 L46.6715328,68.4111575 C46.419708,68.7956651 45.9817518,69.0199613 45.5109489,68.9985998 C45.0291971,68.9985998 44.6569343,68.849069 44.3941606,68.5606882 C44.1313869,68.2616267 44,67.834396 44,67.2683152 C44,66.6701922 44.1313869,66.2109191 44.3832117,65.9011768 C44.6569343,65.5807538 45.0291971,65.431223 45.5218978,65.431223 Z M45.5218978,65.708923 C45.1824818,65.6875615 44.8540146,65.8370922 44.6569343,66.1041114 C44.4708029,66.3711307 44.3613139,66.7556383 44.3613139,67.2576345 C44.3613139,68.2402652 44.7554745,68.7208998 45.5218978,68.7208998 C45.9270073,68.7208998 46.2116788,68.6034113 46.3978102,68.3897959 C46.5839416,68.1761806 46.6824818,67.8023537 46.6824818,67.2683152 L46.6824818,67.2149114 C46.6824818,66.6808729 46.5839416,66.2963653 46.4087591,66.0720691 C46.2116788,65.8157307 45.9160584,65.708923 45.5218978,65.708923 Z" id="Shape" fill="#4D5258"></path>
                    <path d="M50.4889706,65.4055794 C50.9852941,65.4055794 51.3602941,65.555794 51.6139706,65.8562232 C51.8676471,66.1566524 52,66.6072961 52,67.1974249 C52,67.776824 51.8676471,68.2167382 51.6029412,68.5386266 C51.3382353,68.8497854 50.9742647,69 50.4779412,69 C50.2352941,69 50.0036765,68.9570815 49.7941176,68.8497854 C49.5955882,68.7532189 49.4411765,68.6030043 49.3198529,68.4206009 L49.2977941,68.4206009 L49.1985294,68.9463519 L49,68.9463519 L49,64 L49.3198529,64 L49.3198529,65.2339056 C49.3198529,65.416309 49.3198529,65.5987124 49.3088235,65.7596567 L49.2977941,66.027897 L49.3198529,66.027897 C49.4411765,65.8347639 49.6066176,65.6845494 49.8051471,65.5665236 C50.0147059,65.4484979 50.2463235,65.3948498 50.4889706,65.4055794 Z M50.4889706,65.6845494 C50.0698529,65.6845494 49.7720588,65.8025751 49.5955882,66.027897 C49.4191176,66.2639485 49.3198529,66.639485 49.3198529,67.1866953 L49.3198529,67.2403433 C49.3198529,67.7660944 49.4191176,68.1309013 49.6066176,68.3669528 C49.7941176,68.6030043 50.0808824,68.6995708 50.4889706,68.6995708 C50.8308824,68.72103 51.1617647,68.5708155 51.3602941,68.3025751 C51.5588235,68.0343348 51.6580882,67.6587983 51.6580882,67.1759657 C51.6580882,66.1781116 51.2610294,65.6845494 50.4889706,65.6845494 Z" id="Shape" fill="#4D5258"></path>
                    <path d="M54.6882129,69 C54.1520913,69 53.7414449,68.8323605 53.4448669,68.4851071 C53.148289,68.1378538 53,67.6588837 53,67.0362226 C53,66.4135614 53.148289,65.9226171 53.4334601,65.5633895 C53.7186312,65.2041619 54.1520913,64.9886253 54.608365,65.0005996 C55.0076046,64.9886253 55.3840304,65.1562649 55.634981,65.4795697 C55.8859316,65.8028745 56,66.2339476 56,66.772789 L56,67.0601711 L53.3422053,67.0601711 C53.3422053,67.5870382 53.4676806,67.9941628 53.6958175,68.2815448 C53.9353612,68.5689269 54.2661597,68.7006437 54.6882129,68.7006437 C54.8707224,68.7006437 55.0532319,68.6886694 55.2471483,68.6647209 C55.4524715,68.6168239 55.6577947,68.5449784 55.851711,68.4731329 L55.851711,68.7964377 C55.6692015,68.8922317 55.4638783,68.952103 55.269962,68.9880257 C55.0760456,68.9880257 54.8821293,69 54.6882129,69 Z M54.5855513,65.3119302 C54.2661597,65.2999559 53.9581749,65.4316727 53.730038,65.6711578 C53.5247148,65.9226171 53.3878327,66.2698704 53.365019,66.7368662 L55.634981,66.7368662 C55.634981,66.2818446 55.5323194,65.9345913 55.3612167,65.683132 C55.1787072,65.4316727 54.8935361,65.2999559 54.5855513,65.3119302 Z" id="Shape" fill="#4D5258"></path>
                    <path d="M60,69 L59.5972222,69 L59.5972222,65.359447 C59.5972222,65.0253456 59.6111111,64.6912442 59.6388889,64.3225806 C59.5972222,64.3571429 59.5555556,64.3801843 59.5138889,64.4262673 C59.4722222,64.4723502 59.0416667,64.7373272 58.2361111,65.2672811 L58,65.0138249 L59.6388889,64 L60,64 L60,69 Z" id="Shape" fill="#4D5258"></path>
                    <path d="M65,66.4888525 C65,67.3403896 64.8714286,67.967838 64.625,68.3824021 C64.3785714,68.7969662 64.0035714,68.998646 63.4892857,68.998646 C63.0392857,69.0210549 62.6107143,68.7633529 62.3857143,68.3711976 C62.1285714,67.9454291 62,67.3291852 62,66.4888525 C62,65.6373155 62.1285714,65.0210715 62.375,64.6065075 C62.6214286,64.1919434 62.9857143,64.001468 63.4892857,64.001468 C63.9392857,63.9790591 64.3678571,64.2143522 64.6142857,64.6289163 C64.8714286,65.0546849 65,65.6821332 65,66.4888525 Z M62.3428571,66.4888525 C62.3428571,67.2395497 62.4392857,67.7997714 62.6214286,68.1583134 C62.8785714,68.6513085 63.4678571,68.8529883 63.9392857,68.5840819 C64.1107143,68.483242 64.2607143,68.3263799 64.3571429,68.1471089 C64.5392857,67.7661581 64.6357143,67.2283453 64.6357143,66.500057 C64.6357143,65.7717687 64.5392857,65.2227514 64.3571429,64.8642095 C64.1964286,64.516872 63.8535714,64.2927833 63.4785714,64.3039877 C63.1035714,64.2927833 62.7607143,64.5056675 62.6107143,64.8642095 C62.4285714,65.2227514 62.3428571,65.7717687 62.3428571,66.4888525 Z" id="Shape" fill="#4D5258"></path>
                    <path d="M68,66.4888525 C68,67.3403896 67.8714286,67.967838 67.625,68.3824021 C67.3785714,68.7969662 67.0035714,68.998646 66.4892857,68.998646 C66.0392857,69.0210549 65.6107143,68.7633529 65.3857143,68.3711976 C65.1285714,67.9454291 65,67.3291852 65,66.4888525 C65,65.6373155 65.1285714,65.0210715 65.375,64.6065075 C65.6214286,64.1919434 65.9857143,64.001468 66.4892857,64.001468 C66.9392857,63.9790591 67.3678571,64.2143522 67.6142857,64.6289163 C67.8714286,65.0546849 68,65.6821332 68,66.4888525 Z M65.3535714,66.4888525 C65.3535714,67.2395497 65.45,67.7997714 65.6321429,68.1583134 C65.8892857,68.6513085 66.4785714,68.8529883 66.95,68.5840819 C67.1214286,68.483242 67.2714286,68.3263799 67.3678571,68.1359045 C67.55,67.7549537 67.6464286,67.2171408 67.6464286,66.4888525 C67.6464286,65.7605643 67.55,65.2115469 67.3678571,64.853005 C67.1214286,64.3488054 66.5321429,64.1471256 66.05,64.4048276 C65.8678571,64.5056675 65.7178571,64.6625296 65.6214286,64.853005 C65.45,65.2227514 65.3535714,65.7717687 65.3535714,66.4888525 Z" id="Shape" fill="#4D5258"></path>
                    <g id="Group" transform="translate(69.000000, 2.000000)">
                        <g fill="#FAFAFA">
                            <g transform="translate(10.970149, 8.717608)">
                                <polygon id="Rectangle-path" points="0.78358209 0.893023256 10.9179104 0.893023256 10.9179104 19.8166113 0.78358209 19.8166113"></polygon>
                                <path d="M10.1343284,1.69036545 L10.1343284,19.0192691 L1.56716418,19.0192691 L1.56716418,1.69036545 L10.1343284,1.69036545 Z M11.7014925,0.0956810631 L10.1343284,0.0956810631 L1.56716418,0.0956810631 L0,0.0956810631 L0,1.69036545 L0,19.0192691 L0,20.6139535 L1.56716418,20.6139535 L10.1343284,20.6139535 L11.7014925,20.6139535 L11.7014925,19.0192691 L11.7014925,1.69036545 L11.7014925,0.0956810631 Z" id="Shape"></path>
                            </g>
                            <g id="Shape">
                                <path d="M4.23134328,31.2026578 C2.9880597,31.2026578 1.88059701,30.5541528 1.2641791,29.4591362 C0.647761194,28.3641196 0.637313433,27.0564784 1.2641791,25.9614618 L14.5014925,2.5833887 C15.1179104,1.48837209 16.2358209,0.83986711 17.4791045,0.83986711 C18.7223881,0.83986711 19.8298507,1.48837209 20.4567164,2.5833887 L33.7044776,25.9614618 C34.3208955,27.0564784 34.3208955,28.3641196 33.7044776,29.448505 C33.0880597,30.5435216 31.9701493,31.1920266 30.7268657,31.1920266 L4.23134328,31.1920266 L4.23134328,31.2026578 Z M17.4791045,22.3255814 C16.5074627,22.3255814 15.7238806,23.1229236 15.7238806,24.1116279 C15.7238806,25.1003322 16.5074627,25.8976744 17.4791045,25.8976744 C18.4507463,25.8976744 19.2343284,25.1003322 19.2343284,24.1116279 C19.2343284,23.1229236 18.4507463,22.3255814 17.4791045,22.3255814 Z M18.7014925,19.7209302 L19.0985075,12.3215947 L15.8597015,12.3215947 L16.2567164,19.7209302 L18.7014925,19.7209302 Z"></path>
                                <path d="M17.4791045,1.6372093 C18.3776119,1.6372093 19.2656716,2.08372093 19.7776119,2.98737542 L33.0253731,26.3654485 C34.0492537,28.1621262 32.7641791,30.4053156 30.7268657,30.4053156 L4.23134328,30.4053156 C2.19402985,30.4053156 0.919402985,28.151495 1.93283582,26.3654485 L15.180597,2.98737542 C15.6925373,2.08372093 16.5910448,1.6372093 17.4791045,1.6372093 Z M16.141791,20.5182724 L18.8268657,20.5182724 C19.1820896,20.5182724 19.4641791,20.2418605 19.4850746,19.8803987 L19.8925373,12.2365449 C19.9134328,11.8538206 19.6104478,11.5242525 19.2343284,11.5242525 L15.7343284,11.5242525 C15.358209,11.5242525 15.0552239,11.8538206 15.0761194,12.2365449 L15.4835821,19.8803987 C15.4940299,20.2312292 15.7865672,20.5182724 16.141791,20.5182724 Z M17.4791045,26.6950166 C18.8791045,26.6950166 20.0179104,25.5362126 20.0179104,24.1116279 C20.0179104,22.6870432 18.8791045,21.5282392 17.4791045,21.5282392 C16.0791045,21.5282392 14.9402985,22.6870432 14.9402985,24.1116279 C14.9402985,25.5362126 16.0791045,26.6950166 17.4791045,26.6950166 Z M17.4791045,0.0425249169 C15.9537313,0.0425249169 14.5850746,0.83986711 13.8223881,2.19003322 L0.574626866,25.5574751 C-0.188059701,26.89701 -0.188059701,28.5023256 0.574626866,29.8524917 C1.33731343,31.1920266 2.70597015,32 4.22089552,32 L30.7164179,32 C32.241791,32 33.6,31.2026578 34.3626866,29.8524917 C35.1253731,28.5129568 35.1253731,26.9076412 34.3626866,25.5681063 L21.1358209,2.19003322 C20.3731343,0.83986711 19.0044776,0.0425249169 17.4791045,0.0425249169 Z M16.6850746,13.1189369 L18.2731343,13.1189369 L17.9597015,18.923588 L16.9880597,18.923588 L16.6850746,13.1189369 Z M17.4791045,25.1003322 C16.9462687,25.1003322 16.5074627,24.6538206 16.5074627,24.1116279 C16.5074627,23.5694352 16.9462687,23.1229236 17.4791045,23.1229236 C18.0119403,23.1229236 18.4507463,23.5694352 18.4507463,24.1116279 C18.4507463,24.6538206 18.0119403,25.1003322 17.4791045,25.1003322 Z"></path>
                            </g>
                        </g>
                        <g transform="translate(1.567164, 1.594684)">
                            <polygon id="Rectangle-path" fill="#FFFFFF" points="10.9701493 8.81328904 19.5373134 8.81328904 19.5373134 26.1421927 10.9701493 26.1421927"></polygon>
                            <path d="M31.458209,24.7601329 C32.4820896,26.5568106 31.1970149,28.8 29.1597015,28.8 L2.6641791,28.8 C0.626865672,28.8 -0.647761194,26.5461794 0.365671642,24.7601329 L13.6134328,1.39269103 C14.6373134,-0.403986711 17.1865672,-0.403986711 18.2,1.39269103 L31.458209,24.7601329 Z M15.9119403,19.9335548 C14.5119403,19.9335548 13.3731343,21.0923588 13.3731343,22.5169435 C13.3731343,23.9415282 14.5119403,25.1003322 15.9119403,25.1003322 C17.3119403,25.1003322 18.4507463,23.9415282 18.4507463,22.5169435 C18.4507463,21.0923588 17.3119403,19.9335548 15.9119403,19.9335548 Z M13.4985075,10.6418605 L13.9059701,18.2857143 C13.9268657,18.6471761 14.219403,18.923588 14.5641791,18.923588 L17.2492537,18.923588 C17.6044776,18.923588 17.8865672,18.6471761 17.9074627,18.2857143 L18.3149254,10.6418605 C18.3358209,10.2591362 18.0328358,9.92956811 17.6567164,9.92956811 L14.1567164,9.92956811 C13.780597,9.92956811 13.4776119,10.2591362 13.4985075,10.6418605 Z" id="Shape" fill="#F0AB00"></path>
                        </g>
                    </g>
                </g>
            </g>
        </g>
    </g>
</svg>